<svg class="main-svg" xmlns="http://www.w3.org/2000/svg" xmlns:xlink="http://www.w3.org/1999/xlink" width="2200" height="406" style="" viewBox="0 0 1100 203"><rect x="0" y="0" width="1100" height="203" style="fill: rgb(255, 255, 255); fill-opacity: 1;"/><defs id="defs-c10804"><g class="clips"><clipPath id="clipc10804xyplot" class="plotclip"><rect width="1000" height="42.375"/></clipPath><clipPath id="clipc10804x2y2plot" class="plotclip"><rect width="1000" height="42.375"/></clipPath><clipPath class="axesclip" id="clipc10804x"><rect x="85" y="0" width="1000" height="203"/></clipPath><clipPath class="axesclip" id="clipc10804y"><rect x="0" y="50" width="1100" height="42.375"/></clipPath><clipPath class="axesclip" id="clipc10804xy"><rect x="85" y="50" width="1000" height="42.375"/></clipPath><clipPath class="axesclip" id="clipc10804y2"><rect x="0" y="120.625" width="1100" height="42.375"/></clipPath><clipPath class="axesclip" id="clipc10804xy2"><rect x="85" y="120.625" width="1000" height="42.375"/></clipPath><clipPath class="axesclip" id="clipc10804x2"><rect x="85" y="0" width="1000" height="203"/></clipPath><clipPath class="axesclip" id="clipc10804x2y"><rect x="85" y="50" width="1000" height="42.375"/></clipPath><clipPath class="axesclip" id="clipc10804x2y2"><rect x="85" y="120.625" width="1000" height="42.375"/></clipPath></g><g class="gradients"/><g class="patterns"/></defs><g class="bglayer"/><g class="layer-below"><g class="imagelayer"/><g class="shapelayer"/></g><g class="cartesianlayer"><g class="subplot xy"><g class="layer-subplot"><g class="shapelayer"/><g class="imagelayer"/></g><g class="minor-gridlayer"><g class="x"/><g class="y"/></g><g class="gridlayer"><g class="x"><path class="xgrid crisp" transform="translate(381.71,0)" d="M0,50v42.375" style="stroke: rgb(0, 0, 0); stroke-opacity: 0.1; stroke-width: 1px;"/><path class="xgrid crisp" transform="translate(483.36,0)" d="M0,50v42.375" style="stroke: rgb(0, 0, 0); stroke-opacity: 0.1; stroke-width: 1px;"/><path class="xgrid crisp" transform="translate(585,0)" d="M0,50v42.375" style="stroke: rgb(0, 0, 0); stroke-opacity: 0.1; stroke-width: 1px;"/><path class="xgrid crisp" transform="translate(686.64,0)" d="M0,50v42.375" style="stroke: rgb(0, 0, 0); stroke-opacity: 0.1; stroke-width: 1px;"/><path class="xgrid crisp" transform="translate(788.29,0)" d="M0,50v42.375" style="stroke: rgb(0, 0, 0); stroke-opacity: 0.1; stroke-width: 1px;"/></g><g class="y"><path class="ygrid crisp" transform="translate(0,71.19)" d="M85,0h1000" style="stroke: rgb(0, 0, 0); stroke-opacity: 0.1; stroke-width: 1px;"/></g></g><g class="zerolinelayer"/><g class="layer-between"><g class="shapelayer"/><g class="imagelayer"/></g><path class="xlines-below"/><path class="ylines-below"/><g class="overlines-below"/><g class="xaxislayer-below"/><g class="yaxislayer-below"/><g class="overaxes-below"/><g class="overplot"><g class="xy" transform="translate(85,50)" clip-path="url(#clipc10804xyplot)"><g class="violinlayer mlayer"><g class="trace violins" style="opacity: 0.5;"><path class="violin" d="M50,20.4Q77.27,19.98 90.91,19.68C104.55,19.37 118.18,19.01 131.82,18.57C145.46,18.13 159.09,17.6 172.73,17.03C186.37,16.46 200,15.8 213.64,15.14C227.28,14.48 240.91,13.75 254.55,13.07C268.18,12.39 281.81,11.68 295.45,11.05C309.08,10.42 322.72,9.81 336.36,9.29C350,8.77 363.63,8.32 377.27,7.94C390.91,7.56 404.54,7.27 418.18,7.03C431.82,6.79 445.45,6.63 459.09,6.52C472.73,6.41 486.36,6.36 500,6.36C513.64,6.36 527.27,6.41 540.91,6.52C554.55,6.63 568.18,6.79 581.82,7.03C595.46,7.27 609.09,7.56 622.73,7.94C636.37,8.32 650,8.77 663.64,9.29C677.28,9.81 690.92,10.42 704.55,11.05C718.19,11.68 731.82,12.39 745.45,13.07C759.09,13.75 772.72,14.48 786.36,15.14C800,15.8 813.63,16.46 827.27,17.03C840.91,17.6 854.54,18.13 868.18,18.57C881.82,19.01 895.45,19.37 909.09,19.68Q922.73,19.98 950,20.4L950,21.97Q922.73,22.39 909.09,22.69C895.45,23 881.82,23.36 868.18,23.8C854.54,24.24 840.91,24.77 827.27,25.34C813.63,25.91 800,26.57 786.36,27.23C772.72,27.89 759.09,28.63 745.45,29.31C731.82,29.99 718.19,30.7 704.55,31.33C690.92,31.96 677.28,32.56 663.64,33.08C650,33.6 636.37,34.05 622.73,34.43C609.09,34.81 595.46,35.11 581.82,35.35C568.18,35.59 554.55,35.75 540.91,35.86C527.27,35.97 513.64,36.02 500,36.02C486.36,36.02 472.73,35.97 459.09,35.86C445.45,35.75 431.82,35.59 418.18,35.35C404.54,35.11 390.91,34.81 377.27,34.43C363.63,34.05 350,33.6 336.36,33.08C322.72,32.56 309.08,31.96 295.45,31.33C281.81,30.7 268.18,29.99 254.55,29.31C240.91,28.63 227.28,27.89 213.64,27.23C200,26.57 186.37,25.91 172.73,25.34C159.09,24.77 145.46,24.24 131.82,23.8C118.18,23.36 104.55,23 90.91,22.69Q77.27,22.39 50,21.97Z" style="vector-effect: none; stroke-width: 2px; stroke: rgb(181, 181, 181); stroke-opacity: 1; fill: rgb(181, 181, 181); fill-opacity: 1;"/><path class="box" d="M500,24.9V17.48M372.94,24.9V17.48H627.06V24.9ZM372.94,21.19H296.71M627.06,21.19H703.29" style="vector-effect: non-scaling-stroke; stroke-width: 2px; stroke: rgb(181, 181, 181); stroke-opacity: 1; fill: rgb(181, 181, 181); fill-opacity: 1;"/><path class="mean" d="M500,24.9V17.48" style="fill: none; vector-effect: non-scaling-stroke; stroke-width: 2px; stroke-dasharray: 4px, 2px; stroke: rgb(181, 181, 181); stroke-opacity: 1;"/></g></g><g class="scatterlayer mlayer"><g class="trace scatter trace20e17a" style="stroke-miterlimit: 2; opacity: 1;"><g class="fills"/><g class="errorbars"/><g class="lines"/><g class="points"><path class="point" transform="translate(296.71,21.19)" d="M2,0A2,2 0 1,1 0,-2A2,2 0 0,1 2,0Z" style="opacity: 1; stroke-width: 0px; fill: rgb(11, 121, 230); fill-opacity: 1;"/></g><g class="text"/></g><g class="trace scatter trace180422" style="stroke-miterlimit: 2; opacity: 1;"><g class="fills"/><g class="errorbars"/><g class="lines"/><g class="points"><path class="point" transform="translate(398.36,21.19)" d="M2,0A2,2 0 1,1 0,-2A2,2 0 0,1 2,0Z" style="opacity: 1; stroke-width: 0px; fill: rgb(11, 121, 230); fill-opacity: 1;"/></g><g class="text"/></g><g class="trace scatter trace6e41aa" style="stroke-miterlimit: 2; opacity: 1;"><g class="fills"/><g class="errorbars"/><g class="lines"/><g class="points"><path class="point" transform="translate(500,21.19)" d="M2,0A2,2 0 1,1 0,-2A2,2 0 0,1 2,0Z" style="opacity: 1; stroke-width: 0px; fill: rgb(11, 121, 230); fill-opacity: 1;"/></g><g class="text"/></g><g class="trace scatter trace28a310" style="stroke-miterlimit: 2; opacity: 1;"><g class="fills"/><g class="errorbars"/><g class="lines"/><g class="points"><path class="point" transform="translate(601.64,21.19)" d="M2,0A2,2 0 1,1 0,-2A2,2 0 0,1 2,0Z" style="opacity: 1; stroke-width: 0px; fill: rgb(11, 121, 230); fill-opacity: 1;"/></g><g class="text"/></g><g class="trace scatter trace6a19ff" style="stroke-miterlimit: 2; opacity: 1;"><g class="fills"/><g class="errorbars"/><g class="lines"/><g class="points"><path class="point" transform="translate(703.29,21.19)" d="M2,0A2,2 0 1,1 0,-2A2,2 0 0,1 2,0Z" style="opacity: 1; stroke-width: 0px; fill: rgb(11, 121, 230); fill-opacity: 1;"/></g><g class="text"/></g></g></g></g><path class="xlines-above crisp" d="M0,0" style="fill: none;"/><path class="ylines-above crisp" d="M0,0" style="fill: none;"/><g class="overlines-above"/><g class="xaxislayer-above"><g class="xtick"><text text-anchor="start" x="0" y="102.375" transform="translate(381.71,0) rotate(29.999999999999996,0,97.875)" style="font-family: 'Lucida Grande', 'Open Sans', verdana, arial, sans-serif; font-size: 9px; fill: rgb(0, 0, 0); fill-opacity: 0.5; white-space: pre; pointer-events: all; opacity: 1;"><a style="cursor:pointer">Egress_and_Envelopment.uniprot_ppi.robust_bias_aware</a></text></g><g class="xtick"><text text-anchor="start" x="0" y="102.375" transform="translate(483.36,0) rotate(29.999999999999996,0,97.875)" style="font-family: 'Lucida Grande', 'Open Sans', verdana, arial, sans-serif; font-size: 9px; fill: rgb(0, 0, 0); fill-opacity: 0.5; white-space: pre; pointer-events: all; opacity: 1;"><a style="cursor:pointer">Egress_and_Envelopment.uniprot_ppi.no_tool</a></text></g><g class="xtick"><text text-anchor="start" x="0" y="102.375" transform="translate(585,0) rotate(29.999999999999996,0,97.875)" style="font-family: 'Lucida Grande', 'Open Sans', verdana, arial, sans-serif; font-size: 9px; fill: rgb(0, 0, 0); fill-opacity: 0.5; white-space: pre; pointer-events: all; opacity: 1;"><a style="cursor:pointer">Egress_and_Envelopment.uniprot_ppi.robust</a></text></g><g class="xtick"><text text-anchor="start" x="0" y="102.375" transform="translate(686.64,0) rotate(29.999999999999996,0,97.875)" style="font-family: 'Lucida Grande', 'Open Sans', verdana, arial, sans-serif; font-size: 9px; fill: rgb(0, 0, 0); fill-opacity: 0.5; white-space: pre; pointer-events: all; opacity: 1;"><a style="cursor:pointer">Egress_and_Envelopment.uniprot_ppi.diamond</a></text></g><g class="xtick"><text text-anchor="start" x="0" y="102.375" transform="translate(788.29,0) rotate(29.999999999999996,0,97.875)" style="font-family: 'Lucida Grande', 'Open Sans', verdana, arial, sans-serif; font-size: 9px; fill: rgb(0, 0, 0); fill-opacity: 0.5; white-space: pre; pointer-events: all; opacity: 1;"><a style="cursor:pointer">Egress_and_Envelopment.uniprot_ppi.domino</a></text></g></g><g class="yaxislayer-above"><g class="ytick"><text text-anchor="end" x="84" y="3.15" transform="translate(0,71.19)" style="font-family: 'Lucida Grande', 'Open Sans', verdana, arial, sans-serif; font-size: 9px; fill: rgb(0, 0, 0); fill-opacity: 0.5; white-space: pre; opacity: 1;">drugstone_link  </text></g></g><g class="overaxes-above"/></g><g class="subplot x2y2"><g class="layer-subplot"><g class="shapelayer"/><g class="imagelayer"/></g><g class="minor-gridlayer"><g class="x2"/><g class="y2"/></g><g class="gridlayer"><g class="x2"><path class="x2grid crisp" transform="translate(381.71,0)" d="M0,120.625v42.375" style="stroke: rgb(0, 0, 0); stroke-opacity: 0.1; stroke-width: 1px;"/><path class="x2grid crisp" transform="translate(483.36,0)" d="M0,120.625v42.375" style="stroke: rgb(0, 0, 0); stroke-opacity: 0.1; stroke-width: 1px;"/><path class="x2grid crisp" transform="translate(585,0)" d="M0,120.625v42.375" style="stroke: rgb(0, 0, 0); stroke-opacity: 0.1; stroke-width: 1px;"/><path class="x2grid crisp" transform="translate(686.64,0)" d="M0,120.625v42.375" style="stroke: rgb(0, 0, 0); stroke-opacity: 0.1; stroke-width: 1px;"/><path class="x2grid crisp" transform="translate(788.29,0)" d="M0,120.625v42.375" style="stroke: rgb(0, 0, 0); stroke-opacity: 0.1; stroke-width: 1px;"/></g><g class="y2"><path class="y2grid crisp" transform="translate(0,141.815)" d="M85,0h1000" style="stroke: rgb(0, 0, 0); stroke-opacity: 0.1; stroke-width: 1px;"/></g></g><g class="zerolinelayer"/><g class="layer-between"><g class="shapelayer"/><g class="imagelayer"/></g><path class="xlines-below"/><path class="ylines-below"/><g class="overlines-below"/><g class="xaxislayer-below"/><g class="yaxislayer-below"/><g class="overaxes-below"/><g class="overplot"><g class="x2y2" transform="translate(85,120.625)" clip-path="url(#clipc10804x2y2plot)"><g class="violinlayer mlayer"><g class="trace violins" style="opacity: 0.5;"><path class="violin" d="M50,20.4Q77.27,19.98 90.91,19.68C104.55,19.37 118.18,19.01 131.82,18.57C145.46,18.13 159.09,17.6 172.73,17.03C186.37,16.46 200,15.8 213.64,15.14C227.28,14.48 240.91,13.75 254.55,13.07C268.18,12.39 281.81,11.68 295.45,11.05C309.08,10.42 322.72,9.81 336.36,9.29C350,8.77 363.63,8.32 377.27,7.94C390.91,7.56 404.54,7.27 418.18,7.03C431.82,6.79 445.45,6.63 459.09,6.52C472.73,6.41 486.36,6.36 500,6.36C513.64,6.36 527.27,6.41 540.91,6.52C554.55,6.63 568.18,6.79 581.82,7.03C595.46,7.27 609.09,7.56 622.73,7.94C636.37,8.32 650,8.77 663.64,9.29C677.28,9.81 690.92,10.42 704.55,11.05C718.19,11.68 731.82,12.39 745.45,13.07C759.09,13.75 772.72,14.48 786.36,15.14C800,15.8 813.63,16.46 827.27,17.03C840.91,17.6 854.54,18.13 868.18,18.57C881.82,19.01 895.45,19.37 909.09,19.68Q922.73,19.98 950,20.4L950,21.97Q922.73,22.39 909.09,22.69C895.45,23 881.82,23.36 868.18,23.8C854.54,24.24 840.91,24.77 827.27,25.34C813.63,25.91 800,26.57 786.36,27.23C772.72,27.89 759.09,28.63 745.45,29.31C731.82,29.99 718.19,30.7 704.55,31.33C690.92,31.96 677.28,32.56 663.64,33.08C650,33.6 636.37,34.05 622.73,34.43C609.09,34.81 595.46,35.11 581.82,35.35C568.18,35.59 554.55,35.75 540.91,35.86C527.27,35.97 513.64,36.02 500,36.02C486.36,36.02 472.73,35.97 459.09,35.86C445.45,35.75 431.82,35.59 418.18,35.35C404.54,35.11 390.91,34.81 377.27,34.43C363.63,34.05 350,33.6 336.36,33.08C322.72,32.56 309.08,31.96 295.45,31.33C281.81,30.7 268.18,29.99 254.55,29.31C240.91,28.63 227.28,27.89 213.64,27.23C200,26.57 186.37,25.91 172.73,25.34C159.09,24.77 145.46,24.24 131.82,23.8C118.18,23.36 104.55,23 90.91,22.69Q77.27,22.39 50,21.97Z" style="vector-effect: none; stroke-width: 2px; stroke: rgb(181, 181, 181); stroke-opacity: 1; fill: rgb(181, 181, 181); fill-opacity: 1;"/><path class="box" d="M500,24.9V17.48M372.94,24.9V17.48H627.06V24.9ZM372.94,21.19H296.71M627.06,21.19H703.29" style="vector-effect: non-scaling-stroke; stroke-width: 2px; stroke: rgb(181, 181, 181); stroke-opacity: 1; fill: rgb(181, 181, 181); fill-opacity: 1;"/><path class="mean" d="M500,24.9V17.48" style="fill: none; vector-effect: non-scaling-stroke; stroke-width: 2px; stroke-dasharray: 4px, 2px; stroke: rgb(181, 181, 181); stroke-opacity: 1;"/></g></g><g class="scatterlayer mlayer"><g class="trace scatter trace037343" style="stroke-miterlimit: 2; opacity: 1;"><g class="fills"/><g class="errorbars"/><g class="lines"/><g class="points"><path class="point" transform="translate(296.71,21.19)" d="M2,0A2,2 0 1,1 0,-2A2,2 0 0,1 2,0Z" style="opacity: 1; stroke-width: 0px; fill: rgb(11, 121, 230); fill-opacity: 1;"/></g><g class="text"/></g><g class="trace scatter trace7ae015" style="stroke-miterlimit: 2; opacity: 1;"><g class="fills"/><g class="errorbars"/><g class="lines"/><g class="points"><path class="point" transform="translate(398.36,21.19)" d="M2,0A2,2 0 1,1 0,-2A2,2 0 0,1 2,0Z" style="opacity: 1; stroke-width: 0px; fill: rgb(11, 121, 230); fill-opacity: 1;"/></g><g class="text"/></g><g class="trace scatter trace7c3257" style="stroke-miterlimit: 2; opacity: 1;"><g class="fills"/><g class="errorbars"/><g class="lines"/><g class="points"><path class="point" transform="translate(500,21.19)" d="M2,0A2,2 0 1,1 0,-2A2,2 0 0,1 2,0Z" style="opacity: 1; stroke-width: 0px; fill: rgb(11, 121, 230); fill-opacity: 1;"/></g><g class="text"/></g><g class="trace scatter trace66c520" style="stroke-miterlimit: 2; opacity: 1;"><g class="fills"/><g class="errorbars"/><g class="lines"/><g class="points"><path class="point" transform="translate(601.64,21.19)" d="M2,0A2,2 0 1,1 0,-2A2,2 0 0,1 2,0Z" style="opacity: 1; stroke-width: 0px; fill: rgb(11, 121, 230); fill-opacity: 1;"/></g><g class="text"/></g><g class="trace scatter traceab5600" style="stroke-miterlimit: 2; opacity: 1;"><g class="fills"/><g class="errorbars"/><g class="lines"/><g class="points"><path class="point" transform="translate(703.29,21.19)" d="M2,0A2,2 0 1,1 0,-2A2,2 0 0,1 2,0Z" style="opacity: 1; stroke-width: 0px; fill: rgb(11, 121, 230); fill-opacity: 1;"/></g><g class="text"/></g></g></g></g><path class="xlines-above crisp" d="M0,0" style="fill: none;"/><path class="ylines-above crisp" d="M0,0" style="fill: none;"/><g class="overlines-above"/><g class="xaxislayer-above"><g class="x2tick"><text text-anchor="start" x="0" y="173" transform="translate(381.71,0) rotate(29.999999999999996,0,168.5)" style="font-family: 'Lucida Grande', 'Open Sans', verdana, arial, sans-serif; font-size: 9px; fill: rgb(0, 0, 0); fill-opacity: 0.5; white-space: pre; opacity: 1;">https://drugst.one/?id=b33d42f9007f41eebcc970738d0da23e</text></g><g class="x2tick"><text text-anchor="start" x="0" y="173" transform="translate(483.36,0) rotate(29.999999999999996,0,168.5)" style="font-family: 'Lucida Grande', 'Open Sans', verdana, arial, sans-serif; font-size: 9px; fill: rgb(0, 0, 0); fill-opacity: 0.5; white-space: pre; opacity: 1;">https://drugst.one/?id=954b18e8abd44335997f572498e82be7</text></g><g class="x2tick"><text text-anchor="start" x="0" y="173" transform="translate(585,0) rotate(29.999999999999996,0,168.5)" style="font-family: 'Lucida Grande', 'Open Sans', verdana, arial, sans-serif; font-size: 9px; fill: rgb(0, 0, 0); fill-opacity: 0.5; white-space: pre; opacity: 1;">https://drugst.one/?id=5edd4087c2274143b36f48f85fa54d1e</text></g><g class="x2tick"><text text-anchor="start" x="0" y="173" transform="translate(686.64,0) rotate(29.999999999999996,0,168.5)" style="font-family: 'Lucida Grande', 'Open Sans', verdana, arial, sans-serif; font-size: 9px; fill: rgb(0, 0, 0); fill-opacity: 0.5; white-space: pre; opacity: 1;">https://drugst.one/?id=e18c45db4dc6447cbd7a5e199777fac0</text></g><g class="x2tick"><text text-anchor="start" x="0" y="173" transform="translate(788.29,0) rotate(29.999999999999996,0,168.5)" style="font-family: 'Lucida Grande', 'Open Sans', verdana, arial, sans-serif; font-size: 9px; fill: rgb(0, 0, 0); fill-opacity: 0.5; white-space: pre; opacity: 1;">https://drugst.one/?id=261316d87ca642cc857c0fccfde42946</text></g></g><g class="yaxislayer-above"><g class="y2tick"><text text-anchor="end" x="84" y="3.15" transform="translate(0,141.815)" style="font-family: 'Lucida Grande', 'Open Sans', verdana, arial, sans-serif; font-size: 9px; fill: rgb(0, 0, 0); fill-opacity: 0.5; white-space: pre; opacity: 1;">link_raw  </text></g></g><g class="overaxes-above"/></g></g><g class="polarlayer"/><g class="smithlayer"/><g class="ternarylayer"/><g class="geolayer"/><g class="funnelarealayer"/><g class="pielayer"/><g class="iciclelayer"/><g class="treemaplayer"/><g class="sunburstlayer"/><g class="glimages"/><defs id="topdefs-c10804"><g class="clips"/></defs><g class="layer-above"><g class="imagelayer"/><g class="shapelayer"/></g><g class="infolayer"><g class="g-gtitle"><text class="gtitle" x="550" y="25" text-anchor="middle" dy="0em" style="opacity: 1; font-family: 'Lucida Grande', 'Open Sans', verdana, arial, sans-serif; font-size: 20px; fill: rgb(42, 63, 95); fill-opacity: 1; white-space: pre;"><tspan class="line" dy="0em" x="550" y="25">Drugstone Links</tspan><tspan class="line" dy="1.3em" x="550" y="25">​<tspan style="font-size:70%" dy="-0.6em">5 samples</tspan><tspan dy="0.42em">​</tspan></tspan></text></g><g class="g-xtitle"/><g class="g-x2title"/><g class="g-ytitle"/><g class="g-y2title"/></g></svg>