<svg class="main-svg" xmlns="http://www.w3.org/2000/svg" xmlns:xlink="http://www.w3.org/1999/xlink" width="2200" height="266" style="" viewBox="0 0 1100 133"><rect x="0" y="0" width="1100" height="133" style="fill: rgb(255, 255, 255); fill-opacity: 1;"/><defs id="defs-6702be"><g class="clips"><clipPath id="clip6702bexyplot" class="plotclip"><rect width="1025" height="43"/></clipPath><clipPath class="axesclip" id="clip6702bex"><rect x="60" y="0" width="1025" height="133"/></clipPath><clipPath class="axesclip" id="clip6702bey"><rect x="0" y="50" width="1100" height="43"/></clipPath><clipPath class="axesclip" id="clip6702bexy"><rect x="60" y="50" width="1025" height="43"/></clipPath></g><g class="gradients"/><g class="patterns"/></defs><g class="bglayer"/><g class="layer-below"><g class="imagelayer"/><g class="shapelayer"/></g><g class="cartesianlayer"><g class="subplot xy"><g class="layer-subplot"><g class="shapelayer"/><g class="imagelayer"/></g><g class="minor-gridlayer"><g class="x"/><g class="y"/></g><g class="gridlayer"><g class="x"><path class="xgrid crisp" transform="translate(188.04,0)" d="M0,50v43" style="stroke: rgb(0, 0, 0); stroke-opacity: 0.1; stroke-width: 1px;"/><path class="xgrid crisp" transform="translate(311,0)" d="M0,50v43" style="stroke: rgb(0, 0, 0); stroke-opacity: 0.1; stroke-width: 1px;"/><path class="xgrid crisp" transform="translate(433.97,0)" d="M0,50v43" style="stroke: rgb(0, 0, 0); stroke-opacity: 0.1; stroke-width: 1px;"/><path class="xgrid crisp" transform="translate(556.9300000000001,0)" d="M0,50v43" style="stroke: rgb(0, 0, 0); stroke-opacity: 0.1; stroke-width: 1px;"/><path class="xgrid crisp" transform="translate(679.9,0)" d="M0,50v43" style="stroke: rgb(0, 0, 0); stroke-opacity: 0.1; stroke-width: 1px;"/><path class="xgrid crisp" transform="translate(802.86,0)" d="M0,50v43" style="stroke: rgb(0, 0, 0); stroke-opacity: 0.1; stroke-width: 1px;"/><path class="xgrid crisp" transform="translate(925.83,0)" d="M0,50v43" style="stroke: rgb(0, 0, 0); stroke-opacity: 0.1; stroke-width: 1px;"/><path class="xgrid crisp" transform="translate(1048.79,0)" d="M0,50v43" style="stroke: rgb(0, 0, 0); stroke-opacity: 0.1; stroke-width: 1px;"/></g><g class="y"><path class="ygrid crisp" transform="translate(0,71.5)" d="M60,0h1025" style="stroke: rgb(0, 0, 0); stroke-opacity: 0.1; stroke-width: 1px;"/></g></g><g class="zerolinelayer"><path class="xzl zl crisp" transform="translate(65.07,0)" d="M0,50v43" style="stroke: rgb(0, 0, 0); stroke-opacity: 0.1; stroke-width: 2px;"/></g><g class="layer-between"><g class="shapelayer"/><g class="imagelayer"/></g><path class="xlines-below"/><path class="ylines-below"/><g class="overlines-below"/><g class="xaxislayer-below"/><g class="yaxislayer-below"/><g class="overaxes-below"/><g class="overplot"><g class="xy" transform="translate(60,50)" clip-path="url(#clip6702bexyplot)"><g class="violinlayer mlayer"><g class="trace violins" style="opacity: 0.5;"><path class="violin" d="M-1143.54,20.11Q-1010.68,19.42 -944.25,18.94C-877.82,18.46 -811.4,17.89 -744.97,17.25C-678.54,16.61 -612.12,15.86 -545.69,15.1C-479.26,14.34 -412.84,13.49 -346.41,12.7C-279.98,11.91 -213.56,11.09 -147.13,10.38C-80.7,9.67 -14.27,9 52.16,8.45C118.59,7.91 185.01,7.44 251.44,7.11C317.87,6.78 384.29,6.56 450.72,6.45C517.15,6.34 583.57,6.34 650,6.45C716.43,6.56 782.85,6.78 849.28,7.11C915.71,7.44 982.14,7.9 1048.57,8.45C1115,8.99 1181.42,9.67 1247.85,10.38C1314.28,11.09 1380.7,11.91 1447.13,12.7C1513.56,13.49 1579.98,14.34 1646.41,15.1C1712.84,15.86 1779.26,16.61 1845.69,17.25C1912.12,17.89 1978.54,18.46 2044.97,18.94Q2111.4,19.42 2244.26,20.11L2244.26,22.89Q2111.4,23.58 2044.97,24.06C1978.54,24.54 1912.12,25.11 1845.69,25.75C1779.26,26.39 1712.84,27.14 1646.41,27.9C1579.98,28.66 1513.56,29.51 1447.13,30.3C1380.7,31.09 1314.28,31.91 1247.85,32.62C1181.42,33.33 1115,34.01 1048.57,34.55C982.14,35.1 915.71,35.56 849.28,35.89C782.85,36.22 716.43,36.44 650,36.55C583.57,36.66 517.15,36.66 450.72,36.55C384.29,36.44 317.87,36.22 251.44,35.89C185.01,35.56 118.59,35.09 52.16,34.55C-14.27,34 -80.7,33.33 -147.13,32.62C-213.56,31.91 -279.98,31.09 -346.41,30.3C-412.84,29.51 -479.26,28.66 -545.69,27.9C-612.12,27.14 -678.54,26.39 -744.97,25.75C-811.4,25.11 -877.82,24.54 -944.25,24.06Q-1010.68,23.58 -1143.54,22.89Z" style="vector-effect: none; stroke-width: 2px; stroke: rgb(181, 181, 181); stroke-opacity: 1; fill: rgb(181, 181, 181); fill-opacity: 1;"/><path class="box" d="M550.36,25.26V17.74M80.82,25.26V17.74H1019.9V25.26ZM80.82,21.5H80.82M1019.9,21.5H1019.9" style="vector-effect: non-scaling-stroke; stroke-width: 2px; stroke: rgb(181, 181, 181); stroke-opacity: 1; fill: rgb(181, 181, 181); fill-opacity: 1;"/><path class="mean" d="M550.36,25.26V17.74" style="fill: none; vector-effect: non-scaling-stroke; stroke-width: 2px; stroke-dasharray: 4px, 2px; stroke: rgb(181, 181, 181); stroke-opacity: 1;"/></g></g><g class="scatterlayer mlayer"><g class="trace scatter trace56c1e9" style="stroke-miterlimit: 2; opacity: 1;"><g class="fills"/><g class="errorbars"/><g class="lines"/><g class="points"><path class="point" transform="translate(1019.9,21.5)" d="M2,0A2,2 0 1,1 0,-2A2,2 0 0,1 2,0Z" style="opacity: 1; stroke-width: 0px; fill: rgb(11, 121, 230); fill-opacity: 1;"/></g><g class="text"/></g><g class="trace scatter tracebf2426" style="stroke-miterlimit: 2; opacity: 1;"><g class="fills"/><g class="errorbars"/><g class="lines"/><g class="points"><path class="point" transform="translate(80.82,21.5)" d="M2,0A2,2 0 1,1 0,-2A2,2 0 0,1 2,0Z" style="opacity: 1; stroke-width: 0px; fill: rgb(11, 121, 230); fill-opacity: 1;"/></g><g class="text"/></g></g></g></g><path class="xlines-above crisp" d="M0,0" style="fill: none;"/><path class="ylines-above crisp" d="M0,0" style="fill: none;"/><g class="overlines-above"/><g class="xaxislayer-above"><g class="xtick"><text text-anchor="middle" x="0" y="103" transform="translate(65.07,0)" style="font-family: 'Lucida Grande', 'Open Sans', verdana, arial, sans-serif; font-size: 9px; fill: rgb(0, 0, 0); fill-opacity: 0.5; white-space: pre; opacity: 1;">0</text></g><g class="xtick"><text text-anchor="middle" x="0" y="103" style="font-family: 'Lucida Grande', 'Open Sans', verdana, arial, sans-serif; font-size: 9px; fill: rgb(0, 0, 0); fill-opacity: 0.5; white-space: pre; opacity: 1;" transform="translate(188.04,0)">1000</text></g><g class="xtick"><text text-anchor="middle" x="0" y="103" style="font-family: 'Lucida Grande', 'Open Sans', verdana, arial, sans-serif; font-size: 9px; fill: rgb(0, 0, 0); fill-opacity: 0.5; white-space: pre; opacity: 1;" transform="translate(311,0)">2000</text></g><g class="xtick"><text text-anchor="middle" x="0" y="103" style="font-family: 'Lucida Grande', 'Open Sans', verdana, arial, sans-serif; font-size: 9px; fill: rgb(0, 0, 0); fill-opacity: 0.5; white-space: pre; opacity: 1;" transform="translate(433.97,0)">3000</text></g><g class="xtick"><text text-anchor="middle" x="0" y="103" style="font-family: 'Lucida Grande', 'Open Sans', verdana, arial, sans-serif; font-size: 9px; fill: rgb(0, 0, 0); fill-opacity: 0.5; white-space: pre; opacity: 1;" transform="translate(556.9300000000001,0)">4000</text></g><g class="xtick"><text text-anchor="middle" x="0" y="103" style="font-family: 'Lucida Grande', 'Open Sans', verdana, arial, sans-serif; font-size: 9px; fill: rgb(0, 0, 0); fill-opacity: 0.5; white-space: pre; opacity: 1;" transform="translate(679.9,0)">5000</text></g><g class="xtick"><text text-anchor="middle" x="0" y="103" style="font-family: 'Lucida Grande', 'Open Sans', verdana, arial, sans-serif; font-size: 9px; fill: rgb(0, 0, 0); fill-opacity: 0.5; white-space: pre; opacity: 1;" transform="translate(802.86,0)">6000</text></g><g class="xtick"><text text-anchor="middle" x="0" y="103" style="font-family: 'Lucida Grande', 'Open Sans', verdana, arial, sans-serif; font-size: 9px; fill: rgb(0, 0, 0); fill-opacity: 0.5; white-space: pre; opacity: 1;" transform="translate(925.83,0)">7000</text></g><g class="xtick"><text text-anchor="middle" x="0" y="103" style="font-family: 'Lucida Grande', 'Open Sans', verdana, arial, sans-serif; font-size: 9px; fill: rgb(0, 0, 0); fill-opacity: 0.5; white-space: pre; opacity: 1;" transform="translate(1048.79,0)">8000</text></g></g><g class="yaxislayer-above"><g class="ytick"><text text-anchor="end" x="59" y="3.15" transform="translate(0,71.5)" style="font-family: 'Lucida Grande', 'Open Sans', verdana, arial, sans-serif; font-size: 9px; fill: rgb(0, 0, 0); fill-opacity: 0.5; white-space: pre; opacity: 1;">Nodes  </text></g></g><g class="overaxes-above"/></g></g><g class="polarlayer"/><g class="smithlayer"/><g class="ternarylayer"/><g class="geolayer"/><g class="funnelarealayer"/><g class="pielayer"/><g class="iciclelayer"/><g class="treemaplayer"/><g class="sunburstlayer"/><g class="glimages"/><defs id="topdefs-6702be"><g class="clips"/></defs><g class="layer-above"><g class="imagelayer"/><g class="shapelayer"/></g><g class="infolayer"><g class="g-gtitle"><text class="gtitle" x="550" y="25" text-anchor="middle" dy="0em" style="opacity: 1; font-family: 'Lucida Grande', 'Open Sans', verdana, arial, sans-serif; font-size: 20px; fill: rgb(42, 63, 95); fill-opacity: 1; white-space: pre;"><tspan class="line" dy="0em" x="550" y="25">Too many nodes vor visualization.</tspan><tspan class="line" dy="1.3em" x="550" y="25">​<tspan style="font-size:70%" dy="-0.6em">2 samples</tspan><tspan dy="0.42em">​</tspan></tspan></text></g><g class="g-xtitle"/><g class="g-ytitle"/></g></svg>