<svg class="main-svg" xmlns="http://www.w3.org/2000/svg" xmlns:xlink="http://www.w3.org/1999/xlink" width="2200" height="266" style="" viewBox="0 0 1100 133"><rect x="0" y="0" width="1100" height="133" style="fill: rgb(255, 255, 255); fill-opacity: 1;"/><defs id="defs-4f6b09"><g class="clips"><clipPath id="clip4f6b09xyplot" class="plotclip"><rect width="1025" height="43"/></clipPath><clipPath class="axesclip" id="clip4f6b09x"><rect x="60" y="0" width="1025" height="133"/></clipPath><clipPath class="axesclip" id="clip4f6b09y"><rect x="0" y="50" width="1100" height="43"/></clipPath><clipPath class="axesclip" id="clip4f6b09xy"><rect x="60" y="50" width="1025" height="43"/></clipPath></g><g class="gradients"/><g class="patterns"/></defs><g class="bglayer"/><g class="layer-below"><g class="imagelayer"/><g class="shapelayer"/></g><g class="cartesianlayer"><g class="subplot xy"><g class="layer-subplot"><g class="shapelayer"/><g class="imagelayer"/></g><g class="minor-gridlayer"><g class="x"/><g class="y"/></g><g class="gridlayer"><g class="x"><path class="xgrid crisp" transform="translate(235.69,0)" d="M0,50v43" style="stroke: rgb(0, 0, 0); stroke-opacity: 0.1; stroke-width: 1px;"/><path class="xgrid crisp" transform="translate(406.31,0)" d="M0,50v43" style="stroke: rgb(0, 0, 0); stroke-opacity: 0.1; stroke-width: 1px;"/><path class="xgrid crisp" transform="translate(576.92,0)" d="M0,50v43" style="stroke: rgb(0, 0, 0); stroke-opacity: 0.1; stroke-width: 1px;"/><path class="xgrid crisp" transform="translate(747.54,0)" d="M0,50v43" style="stroke: rgb(0, 0, 0); stroke-opacity: 0.1; stroke-width: 1px;"/><path class="xgrid crisp" transform="translate(918.16,0)" d="M0,50v43" style="stroke: rgb(0, 0, 0); stroke-opacity: 0.1; stroke-width: 1px;"/></g><g class="y"><path class="ygrid crisp" transform="translate(0,71.5)" d="M60,0h1025" style="stroke: rgb(0, 0, 0); stroke-opacity: 0.1; stroke-width: 1px;"/></g></g><g class="zerolinelayer"><path class="xzl zl crisp" transform="translate(65.07,0)" d="M0,50v43" style="stroke: rgb(0, 0, 0); stroke-opacity: 0.1; stroke-width: 2px;"/></g><g class="layer-between"><g class="shapelayer"/><g class="imagelayer"/></g><path class="xlines-below"/><path class="ylines-below"/><g class="overlines-below"/><g class="xaxislayer-below"/><g class="yaxislayer-below"/><g class="overaxes-below"/><g class="overplot"><g class="xy" transform="translate(60,50)" clip-path="url(#clip4f6b09xyplot)"><g class="violinlayer mlayer"><g class="trace violins" style="opacity: 0.5;"><path class="violin" d="M759.39,20.85Q761.71,20.51 762.86,20.27C764.02,20.03 765.19,19.73 766.34,19.39C767.5,19.04 768.66,18.63 769.81,18.19C770.98,17.74 772.14,17.23 773.29,16.7C774.45,16.17 775.61,15.59 776.76,15.01C777.92,14.43 779.08,13.81 780.24,13.21C781.4,12.61 782.55,11.99 783.71,11.4C784.87,10.81 786.02,10.21 787.19,9.67C788.34,9.13 789.49,8.6 790.66,8.16C791.81,7.73 792.97,7.33 794.14,7.04C795.29,6.76 796.45,6.54 797.61,6.45C798.77,6.36 799.94,6.37 801.09,6.49C802.25,6.61 803.42,6.86 804.56,7.19C805.73,7.53 806.9,7.98 808.04,8.49C809.21,9.01 810.36,9.64 811.51,10.28C812.68,10.94 813.83,11.67 814.99,12.39C816.15,13.11 817.3,13.89 818.46,14.6C819.61,15.31 820.77,16.02 821.94,16.65C823.09,17.27 824.24,17.87 825.41,18.37C826.56,18.86 827.72,19.29 828.89,19.65C830.04,20 831.2,20.28 832.36,20.51C833.51,20.74 834.68,20.89 835.84,21.02C837,21.15 838.15,21.22 839.31,21.29C840.47,21.36 841.63,21.39 842.79,21.42C843.95,21.45 845.1,21.46 846.26,21.47C847.42,21.48 848.58,21.48 849.74,21.49C850.9,21.49 852.05,21.5 853.21,21.5C854.37,21.5 855.53,21.5 856.69,21.5C857.85,21.5 859,21.5 860.16,21.5C861.32,21.5 862.48,21.5 863.64,21.5C864.8,21.5 865.95,21.5 867.11,21.5C868.27,21.5 869.43,21.5 870.59,21.5C871.75,21.5 872.9,21.5 874.06,21.5C875.22,21.5 876.38,21.5 877.54,21.5C878.7,21.5 879.86,21.5 881.02,21.5C882.18,21.5 883.33,21.5 884.49,21.5C885.65,21.5 886.81,21.5 887.97,21.5C889.13,21.5 890.28,21.5 891.44,21.5C892.6,21.5 893.76,21.5 894.92,21.5C896.08,21.5 897.23,21.5 898.39,21.5C899.55,21.5 900.71,21.5 901.87,21.5C903.03,21.5 904.18,21.5 905.34,21.5C906.5,21.5 907.66,21.5 908.82,21.5C909.98,21.5 911.13,21.5 912.29,21.5C913.45,21.5 914.61,21.5 915.77,21.5C916.93,21.5 918.08,21.5 919.24,21.5C920.4,21.5 921.56,21.5 922.72,21.5C923.88,21.5 925.03,21.5 926.19,21.5C927.35,21.5 928.51,21.5 929.67,21.5C930.83,21.5 931.98,21.5 933.14,21.5C934.3,21.5 935.46,21.5 936.62,21.5C937.78,21.5 938.93,21.5 940.09,21.5C941.25,21.5 942.41,21.5 943.57,21.5C944.73,21.5 945.88,21.5 947.04,21.5C948.2,21.5 949.36,21.5 950.52,21.5C951.68,21.5 952.83,21.5 953.99,21.5C955.15,21.5 956.31,21.5 957.47,21.5C958.63,21.5 959.78,21.5 960.94,21.5C962.1,21.5 963.26,21.5 964.42,21.5C965.58,21.5 966.73,21.5 967.89,21.5C969.05,21.5 970.21,21.5 971.37,21.5C972.53,21.5 973.68,21.5 974.84,21.5C976,21.5 977.16,21.5 978.32,21.5C979.48,21.5 980.63,21.49 981.79,21.49C982.95,21.49 984.11,21.49 985.27,21.48C986.43,21.47 987.58,21.46 988.74,21.44C989.9,21.42 991.06,21.4 992.22,21.36C993.38,21.32 994.53,21.26 995.69,21.18C996.85,21.09 998.01,20.99 999.17,20.85C1000.33,20.71 1001.49,20.53 1002.64,20.32C1003.8,20.11 1004.96,19.84 1006.12,19.57C1007.28,19.29 1008.43,18.97 1009.59,18.67C1010.75,18.37 1011.91,18.05 1013.07,17.79C1014.22,17.54 1015.38,17.29 1016.54,17.14C1017.69,16.99 1018.86,16.9 1020.02,16.91C1021.18,16.92 1022.34,17.02 1023.49,17.18C1024.65,17.34 1025.81,17.59 1026.97,17.85C1028.13,18.11 1029.28,18.44 1030.44,18.73C1031.6,19.03 1032.76,19.35 1033.92,19.62C1035.07,19.89 1036.23,20.15 1037.39,20.36Q1038.55,20.57 1040.87,20.88L1040.87,22.12Q1038.55,22.43 1037.39,22.64C1036.23,22.85 1035.07,23.11 1033.92,23.38C1032.76,23.65 1031.6,23.97 1030.44,24.27C1029.28,24.56 1028.13,24.89 1026.97,25.15C1025.81,25.41 1024.65,25.66 1023.49,25.82C1022.34,25.98 1021.18,26.08 1020.02,26.09C1018.86,26.1 1017.69,26.01 1016.54,25.86C1015.38,25.71 1014.22,25.46 1013.07,25.21C1011.91,24.95 1010.75,24.63 1009.59,24.33C1008.43,24.03 1007.28,23.71 1006.12,23.43C1004.96,23.16 1003.8,22.89 1002.64,22.68C1001.49,22.47 1000.33,22.29 999.17,22.15C998.01,22.01 996.85,21.91 995.69,21.82C994.53,21.74 993.38,21.68 992.22,21.64C991.06,21.6 989.9,21.58 988.74,21.56C987.58,21.54 986.43,21.53 985.27,21.52C984.11,21.51 982.95,21.51 981.79,21.51C980.63,21.51 979.48,21.5 978.32,21.5C977.16,21.5 976,21.5 974.84,21.5C973.68,21.5 972.53,21.5 971.37,21.5C970.21,21.5 969.05,21.5 967.89,21.5C966.73,21.5 965.58,21.5 964.42,21.5C963.26,21.5 962.1,21.5 960.94,21.5C959.78,21.5 958.63,21.5 957.47,21.5C956.31,21.5 955.15,21.5 953.99,21.5C952.83,21.5 951.68,21.5 950.52,21.5C949.36,21.5 948.2,21.5 947.04,21.5C945.88,21.5 944.73,21.5 943.57,21.5C942.41,21.5 941.25,21.5 940.09,21.5C938.93,21.5 937.78,21.5 936.62,21.5C935.46,21.5 934.3,21.5 933.14,21.5C931.98,21.5 930.83,21.5 929.67,21.5C928.51,21.5 927.35,21.5 926.19,21.5C925.03,21.5 923.88,21.5 922.72,21.5C921.56,21.5 920.4,21.5 919.24,21.5C918.08,21.5 916.93,21.5 915.77,21.5C914.61,21.5 913.45,21.5 912.29,21.5C911.13,21.5 909.98,21.5 908.82,21.5C907.66,21.5 906.5,21.5 905.34,21.5C904.18,21.5 903.03,21.5 901.87,21.5C900.71,21.5 899.55,21.5 898.39,21.5C897.23,21.5 896.08,21.5 894.92,21.5C893.76,21.5 892.6,21.5 891.44,21.5C890.28,21.5 889.13,21.5 887.97,21.5C886.81,21.5 885.65,21.5 884.49,21.5C883.33,21.5 882.18,21.5 881.02,21.5C879.86,21.5 878.7,21.5 877.54,21.5C876.38,21.5 875.22,21.5 874.06,21.5C872.9,21.5 871.75,21.5 870.59,21.5C869.43,21.5 868.27,21.5 867.11,21.5C865.95,21.5 864.8,21.5 863.64,21.5C862.48,21.5 861.32,21.5 860.16,21.5C859,21.5 857.85,21.5 856.69,21.5C855.53,21.5 854.37,21.5 853.21,21.5C852.05,21.5 850.9,21.51 849.74,21.51C848.58,21.52 847.42,21.52 846.26,21.53C845.1,21.54 843.95,21.55 842.79,21.58C841.63,21.61 840.47,21.64 839.31,21.71C838.15,21.78 837,21.85 835.84,21.98C834.68,22.11 833.51,22.26 832.36,22.49C831.2,22.72 830.04,23 828.89,23.35C827.72,23.71 826.56,24.14 825.41,24.63C824.24,25.13 823.09,25.73 821.94,26.35C820.77,26.98 819.61,27.69 818.46,28.4C817.3,29.11 816.15,29.89 814.99,30.61C813.83,31.33 812.68,32.06 811.51,32.72C810.36,33.36 809.21,33.99 808.04,34.51C806.9,35.02 805.73,35.47 804.56,35.81C803.42,36.14 802.25,36.39 801.09,36.51C799.94,36.63 798.77,36.64 797.61,36.55C796.45,36.46 795.29,36.24 794.14,35.96C792.97,35.67 791.81,35.27 790.66,34.84C789.49,34.4 788.34,33.87 787.19,33.33C786.02,32.79 784.87,32.19 783.71,31.6C782.55,31.01 781.4,30.39 780.24,29.79C779.08,29.19 777.92,28.57 776.76,27.99C775.61,27.41 774.45,26.83 773.29,26.3C772.14,25.77 770.98,25.26 769.81,24.81C768.66,24.37 767.5,23.96 766.34,23.61C765.19,23.27 764.02,22.97 762.86,22.73Q761.71,22.49 759.39,22.15Z" style="vector-effect: none; stroke-width: 2px; stroke: rgb(181, 181, 181); stroke-opacity: 1; fill: rgb(181, 181, 181); fill-opacity: 1;"/><path class="box" d="M801,25.26V17.74M793.66,25.26V17.74H812.77V25.26ZM793.66,21.5H780.36M812.77,21.5H812.77" style="vector-effect: non-scaling-stroke; stroke-width: 2px; stroke: rgb(181, 181, 181); stroke-opacity: 1; fill: rgb(181, 181, 181); fill-opacity: 1;"/><path class="mean" d="M834.78,25.26V17.74" style="fill: none; vector-effect: non-scaling-stroke; stroke-width: 2px; stroke-dasharray: 4px, 2px; stroke: rgb(181, 181, 181); stroke-opacity: 1;"/></g></g><g class="scatterlayer mlayer"><g class="trace scatter traceeebca1" style="stroke-miterlimit: 2; opacity: 1;"><g class="fills"/><g class="errorbars"/><g class="lines"/><g class="points"><path class="point" transform="translate(793.66,21.5)" d="M2,0A2,2 0 1,1 0,-2A2,2 0 0,1 2,0Z" style="opacity: 1; stroke-width: 0px; fill: rgb(11, 121, 230); fill-opacity: 1;"/></g><g class="text"/></g><g class="trace scatter trace244b76" style="stroke-miterlimit: 2; opacity: 1;"><g class="fills"/><g class="errorbars"/><g class="lines"/><g class="points"><path class="point" transform="translate(780.36,21.5)" d="M2,0A2,2 0 1,1 0,-2A2,2 0 0,1 2,0Z" style="opacity: 1; stroke-width: 0px; fill: rgb(11, 121, 230); fill-opacity: 1;"/></g><g class="text"/></g><g class="trace scatter tracef78848" style="stroke-miterlimit: 2; opacity: 1;"><g class="fills"/><g class="errorbars"/><g class="lines"/><g class="points"><path class="point" transform="translate(1019.9,21.5)" d="M2,0A2,2 0 1,1 0,-2A2,2 0 0,1 2,0Z" style="opacity: 1; stroke-width: 0px; fill: rgb(11, 121, 230); fill-opacity: 1;"/></g><g class="text"/></g><g class="trace scatter tracec8d94e" style="stroke-miterlimit: 2; opacity: 1;"><g class="fills"/><g class="errorbars"/><g class="lines"/><g class="points"><path class="point" transform="translate(805.61,21.5)" d="M2,0A2,2 0 1,1 0,-2A2,2 0 0,1 2,0Z" style="opacity: 1; stroke-width: 0px; fill: rgb(11, 121, 230); fill-opacity: 1;"/></g><g class="text"/></g><g class="trace scatter trace726e59" style="stroke-miterlimit: 2; opacity: 1;"><g class="fills"/><g class="errorbars"/><g class="lines"/><g class="points"><path class="point" transform="translate(796.39,21.5)" d="M2,0A2,2 0 1,1 0,-2A2,2 0 0,1 2,0Z" style="opacity: 1; stroke-width: 0px; fill: rgb(11, 121, 230); fill-opacity: 1;"/></g><g class="text"/></g><g class="trace scatter tracef8c518" style="stroke-miterlimit: 2; opacity: 1;"><g class="fills"/><g class="errorbars"/><g class="lines"/><g class="points"><path class="point" transform="translate(812.77,21.5)" d="M2,0A2,2 0 1,1 0,-2A2,2 0 0,1 2,0Z" style="opacity: 1; stroke-width: 0px; fill: rgb(11, 121, 230); fill-opacity: 1;"/></g><g class="text"/></g></g></g></g><path class="xlines-above crisp" d="M0,0" style="fill: none;"/><path class="ylines-above crisp" d="M0,0" style="fill: none;"/><g class="overlines-above"/><g class="xaxislayer-above"><g class="xtick"><text text-anchor="middle" x="0" y="103" transform="translate(65.07,0)" style="font-family: 'Lucida Grande', 'Open Sans', verdana, arial, sans-serif; font-size: 9px; fill: rgb(0, 0, 0); fill-opacity: 0.5; white-space: pre; opacity: 1;">0</text></g><g class="xtick"><text text-anchor="middle" x="0" y="103" style="font-family: 'Lucida Grande', 'Open Sans', verdana, arial, sans-serif; font-size: 9px; fill: rgb(0, 0, 0); fill-opacity: 0.5; white-space: pre; opacity: 1;" transform="translate(235.69,0)">500</text></g><g class="xtick"><text text-anchor="middle" x="0" y="103" style="font-family: 'Lucida Grande', 'Open Sans', verdana, arial, sans-serif; font-size: 9px; fill: rgb(0, 0, 0); fill-opacity: 0.5; white-space: pre; opacity: 1;" transform="translate(406.31,0)">1000</text></g><g class="xtick"><text text-anchor="middle" x="0" y="103" style="font-family: 'Lucida Grande', 'Open Sans', verdana, arial, sans-serif; font-size: 9px; fill: rgb(0, 0, 0); fill-opacity: 0.5; white-space: pre; opacity: 1;" transform="translate(576.92,0)">1500</text></g><g class="xtick"><text text-anchor="middle" x="0" y="103" style="font-family: 'Lucida Grande', 'Open Sans', verdana, arial, sans-serif; font-size: 9px; fill: rgb(0, 0, 0); fill-opacity: 0.5; white-space: pre; opacity: 1;" transform="translate(747.54,0)">2000</text></g><g class="xtick"><text text-anchor="middle" x="0" y="103" style="font-family: 'Lucida Grande', 'Open Sans', verdana, arial, sans-serif; font-size: 9px; fill: rgb(0, 0, 0); fill-opacity: 0.5; white-space: pre; opacity: 1;" transform="translate(918.16,0)">2500</text></g></g><g class="yaxislayer-above"><g class="ytick"><text text-anchor="end" x="59" y="3.15" transform="translate(0,71.5)" style="font-family: 'Lucida Grande', 'Open Sans', verdana, arial, sans-serif; font-size: 9px; fill: rgb(0, 0, 0); fill-opacity: 0.5; white-space: pre; opacity: 1;">Nodes  </text></g></g><g class="overaxes-above"/></g></g><g class="polarlayer"/><g class="smithlayer"/><g class="ternarylayer"/><g class="geolayer"/><g class="funnelarealayer"/><g class="pielayer"/><g class="iciclelayer"/><g class="treemaplayer"/><g class="sunburstlayer"/><g class="glimages"/><defs id="topdefs-4f6b09"><g class="clips"/></defs><g class="layer-above"><g class="imagelayer"/><g class="shapelayer"/></g><g class="infolayer"><g class="g-gtitle"><text class="gtitle" x="550" y="25" text-anchor="middle" dy="0em" style="opacity: 1; font-family: 'Lucida Grande', 'Open Sans', verdana, arial, sans-serif; font-size: 20px; fill: rgb(42, 63, 95); fill-opacity: 1; white-space: pre;"><tspan class="line" dy="0em" x="550" y="25">Too many nodes vor visualization.</tspan><tspan class="line" dy="1.3em" x="550" y="25">​<tspan style="font-size:70%" dy="-0.6em">6 samples</tspan><tspan dy="0.42em">​</tspan></tspan></text></g><g class="g-xtitle"/><g class="g-ytitle"/></g></svg>