<svg class="main-svg" xmlns="http://www.w3.org/2000/svg" xmlns:xlink="http://www.w3.org/1999/xlink" width="2200" height="266" style="" viewBox="0 0 1100 133"><rect x="0" y="0" width="1100" height="133" style="fill: rgb(255, 255, 255); fill-opacity: 1;"/><defs id="defs-82cb43"><g class="clips"><clipPath id="clip82cb43xyplot" class="plotclip"><rect width="1025" height="43"/></clipPath><clipPath class="axesclip" id="clip82cb43x"><rect x="60" y="0" width="1025" height="133"/></clipPath><clipPath class="axesclip" id="clip82cb43y"><rect x="0" y="50" width="1100" height="43"/></clipPath><clipPath class="axesclip" id="clip82cb43xy"><rect x="60" y="50" width="1025" height="43"/></clipPath></g><g class="gradients"/><g class="patterns"/></defs><g class="bglayer"/><g class="layer-below"><g class="imagelayer"/><g class="shapelayer"/></g><g class="cartesianlayer"><g class="subplot xy"><g class="layer-subplot"><g class="shapelayer"/><g class="imagelayer"/></g><g class="minor-gridlayer"><g class="x"/><g class="y"/></g><g class="gridlayer"><g class="x"><path class="xgrid crisp" transform="translate(173.26,0)" d="M0,50v43" style="stroke: rgb(0, 0, 0); stroke-opacity: 0.1; stroke-width: 1px;"/><path class="xgrid crisp" transform="translate(281.46000000000004,0)" d="M0,50v43" style="stroke: rgb(0, 0, 0); stroke-opacity: 0.1; stroke-width: 1px;"/><path class="xgrid crisp" transform="translate(389.65,0)" d="M0,50v43" style="stroke: rgb(0, 0, 0); stroke-opacity: 0.1; stroke-width: 1px;"/><path class="xgrid crisp" transform="translate(497.84,0)" d="M0,50v43" style="stroke: rgb(0, 0, 0); stroke-opacity: 0.1; stroke-width: 1px;"/><path class="xgrid crisp" transform="translate(606.03,0)" d="M0,50v43" style="stroke: rgb(0, 0, 0); stroke-opacity: 0.1; stroke-width: 1px;"/><path class="xgrid crisp" transform="translate(714.22,0)" d="M0,50v43" style="stroke: rgb(0, 0, 0); stroke-opacity: 0.1; stroke-width: 1px;"/><path class="xgrid crisp" transform="translate(822.41,0)" d="M0,50v43" style="stroke: rgb(0, 0, 0); stroke-opacity: 0.1; stroke-width: 1px;"/><path class="xgrid crisp" transform="translate(930.6,0)" d="M0,50v43" style="stroke: rgb(0, 0, 0); stroke-opacity: 0.1; stroke-width: 1px;"/><path class="xgrid crisp" transform="translate(1038.79,0)" d="M0,50v43" style="stroke: rgb(0, 0, 0); stroke-opacity: 0.1; stroke-width: 1px;"/></g><g class="y"><path class="ygrid crisp" transform="translate(0,71.5)" d="M60,0h1025" style="stroke: rgb(0, 0, 0); stroke-opacity: 0.1; stroke-width: 1px;"/></g></g><g class="zerolinelayer"><path class="xzl zl crisp" transform="translate(65.07,0)" d="M0,50v43" style="stroke: rgb(0, 0, 0); stroke-opacity: 0.1; stroke-width: 2px;"/></g><g class="layer-between"><g class="shapelayer"/><g class="imagelayer"/></g><path class="xlines-below"/><path class="ylines-below"/><g class="overlines-below"/><g class="xaxislayer-below"/><g class="yaxislayer-below"/><g class="overaxes-below"/><g class="overplot"><g class="xy" transform="translate(60,50)" clip-path="url(#clip82cb43xyplot)"><g class="violinlayer mlayer"><g class="trace violins" style="opacity: 0.5;"><path class="violin" d="M63.13,21.01Q65.22,20.77 66.26,20.6C67.3,20.43 68.34,20.23 69.38,20.01C70.42,19.79 71.47,19.54 72.51,19.3C73.55,19.07 74.59,18.8 75.64,18.6C76.68,18.4 77.72,18.2 78.76,18.08C79.8,17.96 80.85,17.88 81.89,17.88C82.93,17.88 83.98,17.96 85.02,18.08C86.06,18.2 87.1,18.4 88.14,18.6C89.19,18.8 90.23,19.07 91.27,19.3C92.31,19.54 93.36,19.79 94.4,20.01C95.44,20.23 96.48,20.43 97.52,20.6C98.56,20.77 99.61,20.9 100.65,21.01C101.69,21.12 102.74,21.19 103.78,21.26C104.82,21.32 105.86,21.37 106.9,21.4C107.94,21.43 108.99,21.44 110.03,21.46C111.07,21.47 112.12,21.48 113.16,21.49C114.2,21.5 115.24,21.5 116.28,21.5C117.32,21.5 118.37,21.5 119.41,21.5C120.45,21.5 121.5,21.5 122.54,21.5C123.58,21.5 124.62,21.5 125.66,21.5C126.7,21.5 127.75,21.5 128.79,21.5C129.83,21.5 130.88,21.5 131.92,21.5C132.96,21.5 134,21.5 135.04,21.5C136.08,21.5 137.13,21.5 138.17,21.5C139.21,21.5 140.26,21.5 141.3,21.5C142.34,21.5 143.38,21.5 144.42,21.5C145.46,21.5 146.51,21.5 147.55,21.5C148.59,21.5 149.64,21.5 150.68,21.5C151.72,21.5 152.76,21.5 153.8,21.5C154.84,21.5 155.89,21.5 156.93,21.5C157.97,21.5 159.02,21.5 160.06,21.5C161.1,21.5 162.14,21.5 163.18,21.5C164.22,21.5 165.27,21.5 166.31,21.5C167.35,21.5 168.4,21.5 169.44,21.5C170.48,21.5 171.52,21.5 172.56,21.5C173.6,21.5 174.65,21.5 175.69,21.5C176.73,21.5 177.78,21.5 178.82,21.5C179.86,21.5 180.9,21.5 181.94,21.5C182.98,21.5 184.03,21.5 185.07,21.5C186.11,21.5 187.16,21.5 188.2,21.5C189.24,21.5 190.28,21.5 191.32,21.5C192.36,21.5 193.41,21.5 194.45,21.5C195.49,21.5 196.54,21.5 197.58,21.5C198.62,21.5 199.66,21.5 200.7,21.5C201.74,21.5 202.79,21.5 203.83,21.5C204.87,21.5 205.92,21.5 206.96,21.5C208,21.5 209.04,21.5 210.08,21.5C211.12,21.5 212.17,21.5 213.21,21.5C214.25,21.5 215.3,21.5 216.34,21.5C217.38,21.5 218.42,21.5 219.46,21.5C220.5,21.5 221.55,21.5 222.59,21.5C223.63,21.5 224.68,21.5 225.72,21.5C226.76,21.5 227.8,21.5 228.84,21.5C229.88,21.5 230.93,21.5 231.97,21.5C233.01,21.5 234.06,21.5 235.1,21.5C236.14,21.5 237.18,21.5 238.22,21.5C239.26,21.5 240.31,21.5 241.35,21.5C242.39,21.5 243.44,21.5 244.48,21.5C245.52,21.5 246.56,21.5 247.6,21.5C248.64,21.5 249.69,21.5 250.73,21.5C251.77,21.5 252.82,21.5 253.86,21.5C254.9,21.5 255.94,21.5 256.98,21.5C258.02,21.5 259.07,21.5 260.11,21.5C261.15,21.5 262.2,21.5 263.24,21.5C264.28,21.5 265.32,21.5 266.36,21.5C267.4,21.5 268.45,21.5 269.49,21.5C270.53,21.5 271.58,21.5 272.62,21.5C273.66,21.5 274.7,21.5 275.74,21.5C276.78,21.5 277.83,21.5 278.87,21.5C279.91,21.5 280.96,21.5 282,21.5C283.04,21.5 284.09,21.5 285.13,21.5C286.17,21.5 287.21,21.5 288.25,21.5C289.29,21.5 290.34,21.5 291.38,21.5C292.42,21.5 293.47,21.5 294.51,21.5C295.55,21.5 296.59,21.5 297.63,21.5C298.67,21.5 299.72,21.5 300.76,21.5C301.8,21.5 302.85,21.5 303.89,21.5C304.93,21.5 305.97,21.5 307.01,21.5C308.05,21.5 309.1,21.5 310.14,21.5C311.18,21.5 312.23,21.5 313.27,21.5C314.31,21.5 315.35,21.5 316.39,21.5C317.43,21.5 318.48,21.5 319.52,21.5C320.56,21.5 321.61,21.5 322.65,21.5C323.69,21.5 324.73,21.5 325.77,21.5C326.81,21.5 327.86,21.5 328.9,21.5C329.94,21.5 330.99,21.5 332.03,21.5C333.07,21.5 334.11,21.5 335.15,21.5C336.19,21.5 337.24,21.5 338.28,21.5C339.32,21.5 340.37,21.5 341.41,21.5C342.45,21.5 343.49,21.5 344.53,21.5C345.57,21.5 346.62,21.5 347.66,21.5C348.7,21.5 349.75,21.5 350.79,21.5C351.83,21.5 352.87,21.5 353.91,21.5C354.95,21.5 356,21.5 357.04,21.5C358.08,21.5 359.13,21.5 360.17,21.5C361.21,21.5 362.25,21.5 363.29,21.5C364.33,21.5 365.38,21.5 366.42,21.5C367.46,21.5 368.51,21.5 369.55,21.5C370.59,21.5 371.63,21.5 372.67,21.5C373.71,21.5 374.76,21.5 375.8,21.5C376.84,21.5 377.89,21.5 378.93,21.5C379.97,21.5 381.01,21.5 382.05,21.5C383.09,21.5 384.14,21.5 385.18,21.5C386.22,21.5 387.27,21.5 388.31,21.5C389.35,21.5 390.39,21.5 391.43,21.5C392.47,21.5 393.52,21.5 394.56,21.5C395.6,21.5 396.65,21.5 397.69,21.5C398.73,21.5 399.77,21.5 400.81,21.5C401.85,21.5 402.9,21.5 403.94,21.5C404.98,21.5 406.03,21.5 407.07,21.5C408.11,21.5 409.15,21.5 410.19,21.5C411.23,21.5 412.28,21.5 413.32,21.5C414.36,21.5 415.41,21.5 416.45,21.5C417.49,21.5 418.53,21.5 419.57,21.5C420.61,21.5 421.66,21.5 422.7,21.5C423.74,21.5 424.79,21.5 425.83,21.5C426.87,21.5 427.91,21.5 428.95,21.5C429.99,21.5 431.04,21.5 432.08,21.5C433.12,21.5 434.17,21.5 435.21,21.5C436.25,21.5 437.29,21.5 438.33,21.5C439.37,21.5 440.42,21.5 441.46,21.5C442.5,21.5 443.55,21.5 444.59,21.5C445.63,21.5 446.67,21.5 447.71,21.5C448.75,21.5 449.8,21.5 450.84,21.5C451.88,21.5 452.93,21.5 453.97,21.5C455.01,21.5 456.05,21.5 457.09,21.5C458.13,21.5 459.18,21.5 460.22,21.5C461.26,21.5 462.31,21.5 463.35,21.5C464.39,21.5 465.43,21.5 466.47,21.5C467.51,21.5 468.56,21.5 469.6,21.5C470.64,21.5 471.69,21.5 472.73,21.5C473.77,21.5 474.81,21.5 475.85,21.5C476.89,21.5 477.94,21.5 478.98,21.5C480.02,21.5 481.07,21.5 482.11,21.5C483.15,21.5 484.19,21.5 485.23,21.5C486.27,21.5 487.32,21.5 488.36,21.5C489.4,21.5 490.45,21.5 491.49,21.5C492.53,21.5 493.57,21.5 494.61,21.5C495.65,21.5 496.7,21.5 497.74,21.5C498.78,21.5 499.83,21.5 500.87,21.5C501.91,21.5 502.95,21.5 503.99,21.5C505.03,21.5 506.08,21.5 507.12,21.5C508.16,21.5 509.21,21.5 510.25,21.5C511.29,21.5 512.33,21.5 513.37,21.5C514.41,21.5 515.46,21.5 516.5,21.5C517.54,21.5 518.59,21.5 519.63,21.5C520.67,21.5 521.71,21.5 522.75,21.5C523.79,21.5 524.84,21.5 525.88,21.5C526.92,21.5 527.97,21.5 529.01,21.5C530.05,21.5 531.09,21.5 532.13,21.5C533.17,21.5 534.22,21.5 535.26,21.5C536.3,21.5 537.35,21.5 538.39,21.5C539.43,21.5 540.47,21.5 541.51,21.5C542.55,21.5 543.6,21.5 544.64,21.5C545.68,21.5 546.73,21.5 547.77,21.5C548.81,21.5 549.85,21.5 550.89,21.5C551.93,21.5 552.98,21.5 554.02,21.5C555.06,21.5 556.11,21.5 557.15,21.5C558.19,21.5 559.24,21.5 560.28,21.5C561.32,21.5 562.36,21.5 563.4,21.5C564.44,21.5 565.49,21.5 566.53,21.5C567.57,21.5 568.62,21.5 569.66,21.5C570.7,21.5 571.74,21.5 572.78,21.5C573.82,21.5 574.87,21.5 575.91,21.5C576.95,21.5 578,21.5 579.04,21.5C580.08,21.5 581.12,21.5 582.16,21.5C583.2,21.5 584.25,21.5 585.29,21.5C586.33,21.5 587.38,21.5 588.42,21.5C589.46,21.5 590.5,21.5 591.54,21.5C592.58,21.5 593.63,21.5 594.67,21.5C595.71,21.5 596.76,21.5 597.8,21.5C598.84,21.5 599.88,21.5 600.92,21.5C601.96,21.5 603.01,21.5 604.05,21.5C605.09,21.5 606.14,21.5 607.18,21.5C608.22,21.5 609.26,21.5 610.3,21.5C611.34,21.5 612.39,21.5 613.43,21.5C614.47,21.5 615.52,21.5 616.56,21.5C617.6,21.5 618.64,21.5 619.68,21.5C620.72,21.5 621.77,21.5 622.81,21.5C623.85,21.5 624.9,21.5 625.94,21.5C626.98,21.5 628.02,21.5 629.06,21.5C630.1,21.5 631.15,21.5 632.19,21.5C633.23,21.5 634.28,21.5 635.32,21.5C636.36,21.5 637.4,21.5 638.44,21.5C639.48,21.5 640.53,21.5 641.57,21.5C642.61,21.5 643.66,21.5 644.7,21.5C645.74,21.5 646.78,21.5 647.82,21.5C648.86,21.5 649.91,21.5 650.95,21.5C651.99,21.5 653.04,21.5 654.08,21.5C655.12,21.5 656.16,21.5 657.2,21.5C658.24,21.5 659.29,21.5 660.33,21.5C661.37,21.5 662.42,21.5 663.46,21.5C664.5,21.5 665.54,21.5 666.58,21.5C667.62,21.5 668.67,21.5 669.71,21.5C670.75,21.5 671.8,21.5 672.84,21.5C673.88,21.5 674.92,21.5 675.96,21.5C677,21.5 678.05,21.5 679.09,21.5C680.13,21.5 681.18,21.5 682.22,21.5C683.26,21.5 684.3,21.5 685.34,21.5C686.38,21.5 687.43,21.5 688.47,21.5C689.51,21.5 690.56,21.5 691.6,21.5C692.64,21.5 693.68,21.5 694.72,21.5C695.76,21.5 696.81,21.5 697.85,21.5C698.89,21.5 699.94,21.5 700.98,21.5C702.02,21.5 703.06,21.5 704.1,21.5C705.14,21.5 706.19,21.5 707.23,21.5C708.27,21.5 709.32,21.5 710.36,21.5C711.4,21.5 712.44,21.5 713.48,21.5C714.52,21.5 715.57,21.5 716.61,21.5C717.65,21.5 718.7,21.5 719.74,21.5C720.78,21.5 721.82,21.5 722.86,21.5C723.9,21.5 724.95,21.49 725.99,21.49C727.03,21.49 728.08,21.49 729.12,21.48C730.16,21.47 731.2,21.46 732.24,21.43C733.28,21.4 734.33,21.38 735.37,21.32C736.41,21.26 737.46,21.2 738.5,21.08C739.54,20.96 740.59,20.81 741.62,20.59C742.67,20.36 743.72,20.09 744.75,19.72C745.81,19.34 746.86,18.88 747.88,18.34C748.94,17.78 749.98,17.11 751,16.4C752.06,15.66 753.09,14.81 754.13,13.98C755.18,13.13 756.21,12.2 757.26,11.36C758.29,10.53 759.31,9.66 760.38,8.96C761.4,8.29 762.44,7.63 763.51,7.21C764.53,6.81 765.59,6.52 766.64,6.45C767.68,6.38 768.74,6.53 769.76,6.8C770.82,7.08 771.87,7.61 772.89,8.16C773.96,8.74 774.99,9.49 776.02,10.23C777.07,10.98 778.1,11.83 779.14,12.63C780.18,13.43 781.21,14.26 782.27,15.01C783.3,15.75 784.34,16.47 785.4,17.1C786.43,17.71 787.46,18.27 788.52,18.74C789.55,19.2 790.6,19.59 791.65,19.91C792.68,20.23 793.73,20.46 794.78,20.66C795.82,20.86 796.86,20.99 797.9,21.1C798.94,21.21 799.99,21.26 801.03,21.32C802.07,21.37 803.12,21.4 804.16,21.43C805.2,21.46 806.24,21.47 807.28,21.48C808.32,21.49 809.37,21.49 810.41,21.49C811.45,21.49 812.5,21.5 813.54,21.5C814.58,21.5 815.62,21.5 816.66,21.5C817.7,21.5 818.75,21.5 819.79,21.5C820.83,21.5 821.88,21.5 822.92,21.5C823.96,21.5 825,21.5 826.04,21.5C827.08,21.5 828.13,21.5 829.17,21.5C830.21,21.5 831.26,21.5 832.3,21.5C833.34,21.5 834.38,21.5 835.42,21.5C836.46,21.5 837.51,21.5 838.55,21.5C839.59,21.5 840.64,21.5 841.68,21.5C842.72,21.5 843.77,21.5 844.81,21.5C845.85,21.5 846.89,21.5 847.93,21.5C848.97,21.5 850.02,21.5 851.06,21.5C852.1,21.5 853.15,21.5 854.19,21.5C855.23,21.5 856.27,21.5 857.31,21.5C858.35,21.5 859.4,21.5 860.44,21.5C861.48,21.5 862.53,21.5 863.57,21.5C864.61,21.5 865.65,21.5 866.69,21.5C867.73,21.5 868.78,21.5 869.82,21.5C870.86,21.5 871.91,21.5 872.95,21.5C873.99,21.5 875.03,21.5 876.07,21.5C877.11,21.5 878.16,21.5 879.2,21.5C880.24,21.5 881.29,21.5 882.33,21.5C883.37,21.5 884.41,21.5 885.45,21.5C886.49,21.5 887.54,21.5 888.58,21.5C889.62,21.5 890.67,21.5 891.71,21.5C892.75,21.5 893.79,21.5 894.83,21.5C895.87,21.5 896.92,21.5 897.96,21.5C899,21.5 900.05,21.5 901.09,21.5C902.13,21.5 903.17,21.5 904.21,21.5C905.25,21.5 906.3,21.5 907.34,21.5C908.38,21.5 909.43,21.5 910.47,21.5C911.51,21.5 912.55,21.5 913.59,21.5C914.63,21.5 915.68,21.5 916.72,21.5C917.76,21.5 918.81,21.5 919.85,21.5C920.89,21.5 921.93,21.5 922.97,21.5C924.01,21.5 925.06,21.5 926.1,21.5C927.14,21.5 928.19,21.5 929.23,21.5C930.27,21.5 931.31,21.5 932.35,21.5C933.39,21.5 934.44,21.5 935.48,21.5C936.52,21.5 937.57,21.5 938.61,21.5C939.65,21.5 940.69,21.5 941.73,21.5C942.77,21.5 943.82,21.5 944.86,21.5C945.9,21.5 946.95,21.5 947.99,21.5C949.03,21.5 950.07,21.5 951.11,21.5C952.15,21.5 953.2,21.5 954.24,21.5C955.28,21.5 956.33,21.5 957.37,21.5C958.41,21.5 959.45,21.5 960.49,21.5C961.53,21.5 962.58,21.5 963.62,21.5C964.66,21.5 965.71,21.5 966.75,21.5C967.79,21.5 968.83,21.5 969.87,21.5C970.91,21.5 971.96,21.5 973,21.5C974.04,21.5 975.09,21.5 976.13,21.5C977.17,21.5 978.21,21.5 979.25,21.5C980.29,21.5 981.34,21.5 982.38,21.5C983.42,21.5 984.47,21.5 985.51,21.5C986.55,21.5 987.59,21.5 988.63,21.49C989.67,21.48 990.72,21.47 991.76,21.46C992.8,21.44 993.85,21.43 994.89,21.4C995.93,21.37 996.97,21.32 998.01,21.26C999.05,21.19 1000.1,21.12 1001.14,21.01C1002.18,20.9 1003.23,20.77 1004.27,20.6C1005.31,20.43 1006.35,20.23 1007.39,20.01C1008.43,19.79 1009.48,19.54 1010.52,19.3C1011.56,19.07 1012.6,18.8 1013.65,18.6C1014.69,18.4 1015.73,18.2 1016.77,18.08C1017.81,17.96 1018.86,17.88 1019.9,17.88C1020.94,17.88 1021.99,17.96 1023.03,18.08C1024.07,18.2 1025.11,18.4 1026.15,18.6C1027.2,18.8 1028.24,19.07 1029.28,19.3C1030.32,19.54 1031.37,19.79 1032.41,20.01C1033.45,20.23 1034.49,20.43 1035.53,20.6Q1036.57,20.77 1038.66,21.01L1038.66,21.99Q1036.57,22.23 1035.53,22.4C1034.49,22.57 1033.45,22.77 1032.41,22.99C1031.37,23.21 1030.32,23.46 1029.28,23.7C1028.24,23.93 1027.2,24.2 1026.15,24.4C1025.11,24.6 1024.07,24.8 1023.03,24.92C1021.99,25.04 1020.94,25.12 1019.9,25.12C1018.86,25.12 1017.81,25.04 1016.77,24.92C1015.73,24.8 1014.69,24.6 1013.65,24.4C1012.6,24.2 1011.56,23.93 1010.52,23.7C1009.48,23.46 1008.43,23.21 1007.39,22.99C1006.35,22.77 1005.31,22.57 1004.27,22.4C1003.23,22.23 1002.18,22.1 1001.14,21.99C1000.1,21.88 999.05,21.81 998.01,21.74C996.97,21.68 995.93,21.63 994.89,21.6C993.85,21.57 992.8,21.56 991.76,21.54C990.72,21.53 989.67,21.52 988.63,21.51C987.59,21.5 986.55,21.5 985.51,21.5C984.47,21.5 983.42,21.5 982.38,21.5C981.34,21.5 980.29,21.5 979.25,21.5C978.21,21.5 977.17,21.5 976.13,21.5C975.09,21.5 974.04,21.5 973,21.5C971.96,21.5 970.91,21.5 969.87,21.5C968.83,21.5 967.79,21.5 966.75,21.5C965.71,21.5 964.66,21.5 963.62,21.5C962.58,21.5 961.53,21.5 960.49,21.5C959.45,21.5 958.41,21.5 957.37,21.5C956.33,21.5 955.28,21.5 954.24,21.5C953.2,21.5 952.15,21.5 951.11,21.5C950.07,21.5 949.03,21.5 947.99,21.5C946.95,21.5 945.9,21.5 944.86,21.5C943.82,21.5 942.77,21.5 941.73,21.5C940.69,21.5 939.65,21.5 938.61,21.5C937.57,21.5 936.52,21.5 935.48,21.5C934.44,21.5 933.39,21.5 932.35,21.5C931.31,21.5 930.27,21.5 929.23,21.5C928.19,21.5 927.14,21.5 926.1,21.5C925.06,21.5 924.01,21.5 922.97,21.5C921.93,21.5 920.89,21.5 919.85,21.5C918.81,21.5 917.76,21.5 916.72,21.5C915.68,21.5 914.63,21.5 913.59,21.5C912.55,21.5 911.51,21.5 910.47,21.5C909.43,21.5 908.38,21.5 907.34,21.5C906.3,21.5 905.25,21.5 904.21,21.5C903.17,21.5 902.13,21.5 901.09,21.5C900.05,21.5 899,21.5 897.96,21.5C896.92,21.5 895.87,21.5 894.83,21.5C893.79,21.5 892.75,21.5 891.71,21.5C890.67,21.5 889.62,21.5 888.58,21.5C887.54,21.5 886.49,21.5 885.45,21.5C884.41,21.5 883.37,21.5 882.33,21.5C881.29,21.5 880.24,21.5 879.2,21.5C878.16,21.5 877.11,21.5 876.07,21.5C875.03,21.5 873.99,21.5 872.95,21.5C871.91,21.5 870.86,21.5 869.82,21.5C868.78,21.5 867.73,21.5 866.69,21.5C865.65,21.5 864.61,21.5 863.57,21.5C862.53,21.5 861.48,21.5 860.44,21.5C859.4,21.5 858.35,21.5 857.31,21.5C856.27,21.5 855.23,21.5 854.19,21.5C853.15,21.5 852.1,21.5 851.06,21.5C850.02,21.5 848.97,21.5 847.93,21.5C846.89,21.5 845.85,21.5 844.81,21.5C843.77,21.5 842.72,21.5 841.68,21.5C840.64,21.5 839.59,21.5 838.55,21.5C837.51,21.5 836.46,21.5 835.42,21.5C834.38,21.5 833.34,21.5 832.3,21.5C831.26,21.5 830.21,21.5 829.17,21.5C828.13,21.5 827.08,21.5 826.04,21.5C825,21.5 823.96,21.5 822.92,21.5C821.88,21.5 820.83,21.5 819.79,21.5C818.75,21.5 817.7,21.5 816.66,21.5C815.62,21.5 814.58,21.5 813.54,21.5C812.5,21.5 811.45,21.51 810.41,21.51C809.37,21.51 808.32,21.51 807.28,21.52C806.24,21.53 805.2,21.54 804.16,21.57C803.12,21.6 802.07,21.63 801.03,21.68C799.99,21.74 798.94,21.79 797.9,21.9C796.86,22.01 795.82,22.14 794.78,22.34C793.73,22.54 792.68,22.77 791.65,23.09C790.6,23.41 789.55,23.8 788.52,24.26C787.46,24.73 786.43,25.29 785.4,25.9C784.34,26.53 783.3,27.25 782.27,27.99C781.21,28.74 780.18,29.57 779.14,30.37C778.1,31.17 777.07,32.02 776.02,32.77C774.99,33.51 773.96,34.26 772.89,34.84C771.87,35.39 770.82,35.92 769.76,36.2C768.74,36.47 767.68,36.62 766.64,36.55C765.59,36.48 764.53,36.19 763.51,35.79C762.44,35.37 761.4,34.71 760.38,34.04C759.31,33.34 758.29,32.47 757.26,31.64C756.21,30.8 755.18,29.87 754.13,29.02C753.09,28.19 752.06,27.34 751,26.6C749.98,25.89 748.94,25.22 747.88,24.66C746.86,24.12 745.81,23.66 744.75,23.28C743.72,22.91 742.67,22.64 741.62,22.41C740.59,22.19 739.54,22.04 738.5,21.92C737.46,21.8 736.41,21.74 735.37,21.68C734.33,21.62 733.28,21.6 732.24,21.57C731.2,21.54 730.16,21.53 729.12,21.52C728.08,21.51 727.03,21.51 725.99,21.51C724.95,21.51 723.9,21.5 722.86,21.5C721.82,21.5 720.78,21.5 719.74,21.5C718.7,21.5 717.65,21.5 716.61,21.5C715.57,21.5 714.52,21.5 713.48,21.5C712.44,21.5 711.4,21.5 710.36,21.5C709.32,21.5 708.27,21.5 707.23,21.5C706.19,21.5 705.14,21.5 704.1,21.5C703.06,21.5 702.02,21.5 700.98,21.5C699.94,21.5 698.89,21.5 697.85,21.5C696.81,21.5 695.76,21.5 694.72,21.5C693.68,21.5 692.64,21.5 691.6,21.5C690.56,21.5 689.51,21.5 688.47,21.5C687.43,21.5 686.38,21.5 685.34,21.5C684.3,21.5 683.26,21.5 682.22,21.5C681.18,21.5 680.13,21.5 679.09,21.5C678.05,21.5 677,21.5 675.96,21.5C674.92,21.5 673.88,21.5 672.84,21.5C671.8,21.5 670.75,21.5 669.71,21.5C668.67,21.5 667.62,21.5 666.58,21.5C665.54,21.5 664.5,21.5 663.46,21.5C662.42,21.5 661.37,21.5 660.33,21.5C659.29,21.5 658.24,21.5 657.2,21.5C656.16,21.5 655.12,21.5 654.08,21.5C653.04,21.5 651.99,21.5 650.95,21.5C649.91,21.5 648.86,21.5 647.82,21.5C646.78,21.5 645.74,21.5 644.7,21.5C643.66,21.5 642.61,21.5 641.57,21.5C640.53,21.5 639.48,21.5 638.44,21.5C637.4,21.5 636.36,21.5 635.32,21.5C634.28,21.5 633.23,21.5 632.19,21.5C631.15,21.5 630.1,21.5 629.06,21.5C628.02,21.5 626.98,21.5 625.94,21.5C624.9,21.5 623.85,21.5 622.81,21.5C621.77,21.5 620.72,21.5 619.68,21.5C618.64,21.5 617.6,21.5 616.56,21.5C615.52,21.5 614.47,21.5 613.43,21.5C612.39,21.5 611.34,21.5 610.3,21.5C609.26,21.5 608.22,21.5 607.18,21.5C606.14,21.5 605.09,21.5 604.05,21.5C603.01,21.5 601.96,21.5 600.92,21.5C599.88,21.5 598.84,21.5 597.8,21.5C596.76,21.5 595.71,21.5 594.67,21.5C593.63,21.5 592.58,21.5 591.54,21.5C590.5,21.5 589.46,21.5 588.42,21.5C587.38,21.5 586.33,21.5 585.29,21.5C584.25,21.5 583.2,21.5 582.16,21.5C581.12,21.5 580.08,21.5 579.04,21.5C578,21.5 576.95,21.5 575.91,21.5C574.87,21.5 573.82,21.5 572.78,21.5C571.74,21.5 570.7,21.5 569.66,21.5C568.62,21.5 567.57,21.5 566.53,21.5C565.49,21.5 564.44,21.5 563.4,21.5C562.36,21.5 561.32,21.5 560.28,21.5C559.24,21.5 558.19,21.5 557.15,21.5C556.11,21.5 555.06,21.5 554.02,21.5C552.98,21.5 551.93,21.5 550.89,21.5C549.85,21.5 548.81,21.5 547.77,21.5C546.73,21.5 545.68,21.5 544.64,21.5C543.6,21.5 542.55,21.5 541.51,21.5C540.47,21.5 539.43,21.5 538.39,21.5C537.35,21.5 536.3,21.5 535.26,21.5C534.22,21.5 533.17,21.5 532.13,21.5C531.09,21.5 530.05,21.5 529.01,21.5C527.97,21.5 526.92,21.5 525.88,21.5C524.84,21.5 523.79,21.5 522.75,21.5C521.71,21.5 520.67,21.5 519.63,21.5C518.59,21.5 517.54,21.5 516.5,21.5C515.46,21.5 514.41,21.5 513.37,21.5C512.33,21.5 511.29,21.5 510.25,21.5C509.21,21.5 508.16,21.5 507.12,21.5C506.08,21.5 505.03,21.5 503.99,21.5C502.95,21.5 501.91,21.5 500.87,21.5C499.83,21.5 498.78,21.5 497.74,21.5C496.7,21.5 495.65,21.5 494.61,21.5C493.57,21.5 492.53,21.5 491.49,21.5C490.45,21.5 489.4,21.5 488.36,21.5C487.32,21.5 486.27,21.5 485.23,21.5C484.19,21.5 483.15,21.5 482.11,21.5C481.07,21.5 480.02,21.5 478.98,21.5C477.94,21.5 476.89,21.5 475.85,21.5C474.81,21.5 473.77,21.5 472.73,21.5C471.69,21.5 470.64,21.5 469.6,21.5C468.56,21.5 467.51,21.5 466.47,21.5C465.43,21.5 464.39,21.5 463.35,21.5C462.31,21.5 461.26,21.5 460.22,21.5C459.18,21.5 458.13,21.5 457.09,21.5C456.05,21.5 455.01,21.5 453.97,21.5C452.93,21.5 451.88,21.5 450.84,21.5C449.8,21.5 448.75,21.5 447.71,21.5C446.67,21.5 445.63,21.5 444.59,21.5C443.55,21.5 442.5,21.5 441.46,21.5C440.42,21.5 439.37,21.5 438.33,21.5C437.29,21.5 436.25,21.5 435.21,21.5C434.17,21.5 433.12,21.5 432.08,21.5C431.04,21.5 429.99,21.5 428.95,21.5C427.91,21.5 426.87,21.5 425.83,21.5C424.79,21.5 423.74,21.5 422.7,21.5C421.66,21.5 420.61,21.5 419.57,21.5C418.53,21.5 417.49,21.5 416.45,21.5C415.41,21.5 414.36,21.5 413.32,21.5C412.28,21.5 411.23,21.5 410.19,21.5C409.15,21.5 408.11,21.5 407.07,21.5C406.03,21.5 404.98,21.5 403.94,21.5C402.9,21.5 401.85,21.5 400.81,21.5C399.77,21.5 398.73,21.5 397.69,21.5C396.65,21.5 395.6,21.5 394.56,21.5C393.52,21.5 392.47,21.5 391.43,21.5C390.39,21.5 389.35,21.5 388.31,21.5C387.27,21.5 386.22,21.5 385.18,21.5C384.14,21.5 383.09,21.5 382.05,21.5C381.01,21.5 379.97,21.5 378.93,21.5C377.89,21.5 376.84,21.5 375.8,21.5C374.76,21.5 373.71,21.5 372.67,21.5C371.63,21.5 370.59,21.5 369.55,21.5C368.51,21.5 367.46,21.5 366.42,21.5C365.38,21.5 364.33,21.5 363.29,21.5C362.25,21.5 361.21,21.5 360.17,21.5C359.13,21.5 358.08,21.5 357.04,21.5C356,21.5 354.95,21.5 353.91,21.5C352.87,21.5 351.83,21.5 350.79,21.5C349.75,21.5 348.7,21.5 347.66,21.5C346.62,21.5 345.57,21.5 344.53,21.5C343.49,21.5 342.45,21.5 341.41,21.5C340.37,21.5 339.32,21.5 338.28,21.5C337.24,21.5 336.19,21.5 335.15,21.5C334.11,21.5 333.07,21.5 332.03,21.5C330.99,21.5 329.94,21.5 328.9,21.5C327.86,21.5 326.81,21.5 325.77,21.5C324.73,21.5 323.69,21.5 322.65,21.5C321.61,21.5 320.56,21.5 319.52,21.5C318.48,21.5 317.43,21.5 316.39,21.5C315.35,21.5 314.31,21.5 313.27,21.5C312.23,21.5 311.18,21.5 310.14,21.5C309.1,21.5 308.05,21.5 307.01,21.5C305.97,21.5 304.93,21.5 303.89,21.5C302.85,21.5 301.8,21.5 300.76,21.5C299.72,21.5 298.67,21.5 297.63,21.5C296.59,21.5 295.55,21.5 294.51,21.5C293.47,21.5 292.42,21.5 291.38,21.5C290.34,21.5 289.29,21.5 288.25,21.5C287.21,21.5 286.17,21.5 285.13,21.5C284.09,21.5 283.04,21.5 282,21.5C280.96,21.5 279.91,21.5 278.87,21.5C277.83,21.5 276.78,21.5 275.74,21.5C274.7,21.5 273.66,21.5 272.62,21.5C271.58,21.5 270.53,21.5 269.49,21.5C268.45,21.5 267.4,21.5 266.36,21.5C265.32,21.5 264.28,21.5 263.24,21.5C262.2,21.5 261.15,21.5 260.11,21.5C259.07,21.5 258.02,21.5 256.98,21.5C255.94,21.5 254.9,21.5 253.86,21.5C252.82,21.5 251.77,21.5 250.73,21.5C249.69,21.5 248.64,21.5 247.6,21.5C246.56,21.5 245.52,21.5 244.48,21.5C243.44,21.5 242.39,21.5 241.35,21.5C240.31,21.5 239.26,21.5 238.22,21.5C237.18,21.5 236.14,21.5 235.1,21.5C234.06,21.5 233.01,21.5 231.97,21.5C230.93,21.5 229.88,21.5 228.84,21.5C227.8,21.5 226.76,21.5 225.72,21.5C224.68,21.5 223.63,21.5 222.59,21.5C221.55,21.5 220.5,21.5 219.46,21.5C218.42,21.5 217.38,21.5 216.34,21.5C215.3,21.5 214.25,21.5 213.21,21.5C212.17,21.5 211.12,21.5 210.08,21.5C209.04,21.5 208,21.5 206.96,21.5C205.92,21.5 204.87,21.5 203.83,21.5C202.79,21.5 201.74,21.5 200.7,21.5C199.66,21.5 198.62,21.5 197.58,21.5C196.54,21.5 195.49,21.5 194.45,21.5C193.41,21.5 192.36,21.5 191.32,21.5C190.28,21.5 189.24,21.5 188.2,21.5C187.16,21.5 186.11,21.5 185.07,21.5C184.03,21.5 182.98,21.5 181.94,21.5C180.9,21.5 179.86,21.5 178.82,21.5C177.78,21.5 176.73,21.5 175.69,21.5C174.65,21.5 173.6,21.5 172.56,21.5C171.52,21.5 170.48,21.5 169.44,21.5C168.4,21.5 167.35,21.5 166.31,21.5C165.27,21.5 164.22,21.5 163.18,21.5C162.14,21.5 161.1,21.5 160.06,21.5C159.02,21.5 157.97,21.5 156.93,21.5C155.89,21.5 154.84,21.5 153.8,21.5C152.76,21.5 151.72,21.5 150.68,21.5C149.64,21.5 148.59,21.5 147.55,21.5C146.51,21.5 145.46,21.5 144.42,21.5C143.38,21.5 142.34,21.5 141.3,21.5C140.26,21.5 139.21,21.5 138.17,21.5C137.13,21.5 136.08,21.5 135.04,21.5C134,21.5 132.96,21.5 131.92,21.5C130.88,21.5 129.83,21.5 128.79,21.5C127.75,21.5 126.7,21.5 125.66,21.5C124.62,21.5 123.58,21.5 122.54,21.5C121.5,21.5 120.45,21.5 119.41,21.5C118.37,21.5 117.32,21.5 116.28,21.5C115.24,21.5 114.2,21.5 113.16,21.51C112.12,21.52 111.07,21.53 110.03,21.54C108.99,21.56 107.94,21.57 106.9,21.6C105.86,21.63 104.82,21.68 103.78,21.74C102.74,21.81 101.69,21.88 100.65,21.99C99.61,22.1 98.56,22.23 97.52,22.4C96.48,22.57 95.44,22.77 94.4,22.99C93.36,23.21 92.31,23.46 91.27,23.7C90.23,23.93 89.19,24.2 88.14,24.4C87.1,24.6 86.06,24.8 85.02,24.92C83.98,25.04 82.93,25.12 81.89,25.12C80.85,25.12 79.8,25.04 78.76,24.92C77.72,24.8 76.68,24.6 75.64,24.4C74.59,24.2 73.55,23.93 72.51,23.7C71.47,23.46 70.42,23.21 69.38,22.99C68.34,22.77 67.3,22.57 66.26,22.4Q65.22,22.23 63.13,21.99Z" style="vector-effect: none; stroke-width: 2px; stroke: rgb(181, 181, 181); stroke-opacity: 1; fill: rgb(181, 181, 181); fill-opacity: 1;"/><path class="box" d="M768.25,25.26V17.74M760.73,25.26V17.74H775.5V25.26ZM760.73,21.5H759.92M775.5,21.5H777.45" style="vector-effect: non-scaling-stroke; stroke-width: 2px; stroke: rgb(181, 181, 181); stroke-opacity: 1; fill: rgb(181, 181, 181); fill-opacity: 1;"/><path class="mean" d="M705.75,25.26V17.74" style="fill: none; vector-effect: non-scaling-stroke; stroke-width: 2px; stroke-dasharray: 4px, 2px; stroke: rgb(181, 181, 181); stroke-opacity: 1;"/></g></g><g class="scatterlayer mlayer"><g class="trace scatter tracee0cc14" style="stroke-miterlimit: 2; opacity: 1;"><g class="fills"/><g class="errorbars"/><g class="lines"/><g class="points"><path class="point" transform="translate(769.66,21.5)" d="M2,0A2,2 0 1,1 0,-2A2,2 0 0,1 2,0Z" style="opacity: 1; stroke-width: 0px; fill: rgb(11, 121, 230); fill-opacity: 1;"/></g><g class="text"/></g><g class="trace scatter trace00b5d5" style="stroke-miterlimit: 2; opacity: 1;"><g class="fills"/><g class="errorbars"/><g class="lines"/><g class="points"><path class="point" transform="translate(759.92,21.5)" d="M2,0A2,2 0 1,1 0,-2A2,2 0 0,1 2,0Z" style="opacity: 1; stroke-width: 0px; fill: rgb(11, 121, 230); fill-opacity: 1;"/></g><g class="text"/></g><g class="trace scatter trace9bcbbc" style="stroke-miterlimit: 2; opacity: 1;"><g class="fills"/><g class="errorbars"/><g class="lines"/><g class="points"><path class="point" transform="translate(777.45,21.5)" d="M2,0A2,2 0 1,1 0,-2A2,2 0 0,1 2,0Z" style="opacity: 1; stroke-width: 0px; fill: rgb(11, 121, 230); fill-opacity: 1;"/></g><g class="text"/></g><g class="trace scatter tracec9c882" style="stroke-miterlimit: 2; opacity: 1;"><g class="fills"/><g class="errorbars"/><g class="lines"/><g class="points"><path class="point" transform="translate(763.16,21.5)" d="M2,0A2,2 0 1,1 0,-2A2,2 0 0,1 2,0Z" style="opacity: 1; stroke-width: 0px; fill: rgb(11, 121, 230); fill-opacity: 1;"/></g><g class="text"/></g><g class="trace scatter trace497e2c" style="stroke-miterlimit: 2; opacity: 1;"><g class="fills"/><g class="errorbars"/><g class="lines"/><g class="points"><path class="point" transform="translate(768.25,21.5)" d="M2,0A2,2 0 1,1 0,-2A2,2 0 0,1 2,0Z" style="opacity: 1; stroke-width: 0px; fill: rgb(11, 121, 230); fill-opacity: 1;"/></g><g class="text"/></g><g class="trace scatter trace1493b8" style="stroke-miterlimit: 2; opacity: 1;"><g class="fills"/><g class="errorbars"/><g class="lines"/><g class="points"><path class="point" transform="translate(1019.9,21.5)" d="M2,0A2,2 0 1,1 0,-2A2,2 0 0,1 2,0Z" style="opacity: 1; stroke-width: 0px; fill: rgb(11, 121, 230); fill-opacity: 1;"/></g><g class="text"/></g><g class="trace scatter traced517a4" style="stroke-miterlimit: 2; opacity: 1;"><g class="fills"/><g class="errorbars"/><g class="lines"/><g class="points"><path class="point" transform="translate(81.89,21.5)" d="M2,0A2,2 0 1,1 0,-2A2,2 0 0,1 2,0Z" style="opacity: 1; stroke-width: 0px; fill: rgb(11, 121, 230); fill-opacity: 1;"/></g><g class="text"/></g></g></g></g><path class="xlines-above crisp" d="M0,0" style="fill: none;"/><path class="ylines-above crisp" d="M0,0" style="fill: none;"/><g class="overlines-above"/><g class="xaxislayer-above"><g class="xtick"><text text-anchor="middle" x="0" y="103" transform="translate(65.07,0)" style="font-family: 'Lucida Grande', 'Open Sans', verdana, arial, sans-serif; font-size: 9px; fill: rgb(0, 0, 0); fill-opacity: 0.5; white-space: pre; opacity: 1;">0</text></g><g class="xtick"><text text-anchor="middle" x="0" y="103" style="font-family: 'Lucida Grande', 'Open Sans', verdana, arial, sans-serif; font-size: 9px; fill: rgb(0, 0, 0); fill-opacity: 0.5; white-space: pre; opacity: 1;" transform="translate(173.26,0)">1000</text></g><g class="xtick"><text text-anchor="middle" x="0" y="103" style="font-family: 'Lucida Grande', 'Open Sans', verdana, arial, sans-serif; font-size: 9px; fill: rgb(0, 0, 0); fill-opacity: 0.5; white-space: pre; opacity: 1;" transform="translate(281.46000000000004,0)">2000</text></g><g class="xtick"><text text-anchor="middle" x="0" y="103" style="font-family: 'Lucida Grande', 'Open Sans', verdana, arial, sans-serif; font-size: 9px; fill: rgb(0, 0, 0); fill-opacity: 0.5; white-space: pre; opacity: 1;" transform="translate(389.65,0)">3000</text></g><g class="xtick"><text text-anchor="middle" x="0" y="103" style="font-family: 'Lucida Grande', 'Open Sans', verdana, arial, sans-serif; font-size: 9px; fill: rgb(0, 0, 0); fill-opacity: 0.5; white-space: pre; opacity: 1;" transform="translate(497.84,0)">4000</text></g><g class="xtick"><text text-anchor="middle" x="0" y="103" style="font-family: 'Lucida Grande', 'Open Sans', verdana, arial, sans-serif; font-size: 9px; fill: rgb(0, 0, 0); fill-opacity: 0.5; white-space: pre; opacity: 1;" transform="translate(606.03,0)">5000</text></g><g class="xtick"><text text-anchor="middle" x="0" y="103" style="font-family: 'Lucida Grande', 'Open Sans', verdana, arial, sans-serif; font-size: 9px; fill: rgb(0, 0, 0); fill-opacity: 0.5; white-space: pre; opacity: 1;" transform="translate(714.22,0)">6000</text></g><g class="xtick"><text text-anchor="middle" x="0" y="103" style="font-family: 'Lucida Grande', 'Open Sans', verdana, arial, sans-serif; font-size: 9px; fill: rgb(0, 0, 0); fill-opacity: 0.5; white-space: pre; opacity: 1;" transform="translate(822.41,0)">7000</text></g><g class="xtick"><text text-anchor="middle" x="0" y="103" style="font-family: 'Lucida Grande', 'Open Sans', verdana, arial, sans-serif; font-size: 9px; fill: rgb(0, 0, 0); fill-opacity: 0.5; white-space: pre; opacity: 1;" transform="translate(930.6,0)">8000</text></g><g class="xtick"><text text-anchor="middle" x="0" y="103" style="font-family: 'Lucida Grande', 'Open Sans', verdana, arial, sans-serif; font-size: 9px; fill: rgb(0, 0, 0); fill-opacity: 0.5; white-space: pre; opacity: 1;" transform="translate(1038.79,0)">9000</text></g></g><g class="yaxislayer-above"><g class="ytick"><text text-anchor="end" x="59" y="3.15" transform="translate(0,71.5)" style="font-family: 'Lucida Grande', 'Open Sans', verdana, arial, sans-serif; font-size: 9px; fill: rgb(0, 0, 0); fill-opacity: 0.5; white-space: pre; opacity: 1;">Nodes  </text></g></g><g class="overaxes-above"/></g></g><g class="polarlayer"/><g class="smithlayer"/><g class="ternarylayer"/><g class="geolayer"/><g class="funnelarealayer"/><g class="pielayer"/><g class="iciclelayer"/><g class="treemaplayer"/><g class="sunburstlayer"/><g class="glimages"/><defs id="topdefs-82cb43"><g class="clips"/></defs><g class="layer-above"><g class="imagelayer"/><g class="shapelayer"/></g><g class="infolayer"><g class="g-gtitle"><text class="gtitle" x="550" y="25" text-anchor="middle" dy="0em" style="opacity: 1; font-family: 'Lucida Grande', 'Open Sans', verdana, arial, sans-serif; font-size: 20px; fill: rgb(42, 63, 95); fill-opacity: 1; white-space: pre;"><tspan class="line" dy="0em" x="550" y="25">Too many nodes vor visualization.</tspan><tspan class="line" dy="1.3em" x="550" y="25">​<tspan style="font-size:70%" dy="-0.6em">7 samples</tspan><tspan dy="0.42em">​</tspan></tspan></text></g><g class="g-xtitle"/><g class="g-ytitle"/></g></svg>