<svg class="main-svg" xmlns="http://www.w3.org/2000/svg" xmlns:xlink="http://www.w3.org/1999/xlink" width="2200" height="406" style="" viewBox="0 0 1100 203"><rect x="0" y="0" width="1100" height="203" style="fill: rgb(255, 255, 255); fill-opacity: 1;"/><defs id="defs-bbd12f"><g class="clips"><clipPath id="clipbbd12fxyplot" class="plotclip"><rect width="1000" height="42.375"/></clipPath><clipPath id="clipbbd12fx2y2plot" class="plotclip"><rect width="1000" height="42.375"/></clipPath><clipPath class="axesclip" id="clipbbd12fx"><rect x="85" y="0" width="1000" height="203"/></clipPath><clipPath class="axesclip" id="clipbbd12fy"><rect x="0" y="50" width="1100" height="42.375"/></clipPath><clipPath class="axesclip" id="clipbbd12fxy"><rect x="85" y="50" width="1000" height="42.375"/></clipPath><clipPath class="axesclip" id="clipbbd12fy2"><rect x="0" y="120.625" width="1100" height="42.375"/></clipPath><clipPath class="axesclip" id="clipbbd12fxy2"><rect x="85" y="120.625" width="1000" height="42.375"/></clipPath><clipPath class="axesclip" id="clipbbd12fx2"><rect x="85" y="0" width="1000" height="203"/></clipPath><clipPath class="axesclip" id="clipbbd12fx2y"><rect x="85" y="50" width="1000" height="42.375"/></clipPath><clipPath class="axesclip" id="clipbbd12fx2y2"><rect x="85" y="120.625" width="1000" height="42.375"/></clipPath></g><g class="gradients"/><g class="patterns"/></defs><g class="bglayer"/><g class="layer-below"><g class="imagelayer"/><g class="shapelayer"/></g><g class="cartesianlayer"><g class="subplot xy"><g class="layer-subplot"><g class="shapelayer"/><g class="imagelayer"/></g><g class="minor-gridlayer"><g class="x"/><g class="y"/></g><g class="gridlayer"><g class="x"><path class="xgrid crisp" transform="translate(348.05,0)" d="M0,50v42.375" style="stroke: rgb(0, 0, 0); stroke-opacity: 0.1; stroke-width: 1px;"/><path class="xgrid crisp" transform="translate(400.7,0)" d="M0,50v42.375" style="stroke: rgb(0, 0, 0); stroke-opacity: 0.1; stroke-width: 1px;"/><path class="xgrid crisp" transform="translate(453.36,0)" d="M0,50v42.375" style="stroke: rgb(0, 0, 0); stroke-opacity: 0.1; stroke-width: 1px;"/><path class="xgrid crisp" transform="translate(506.02,0)" d="M0,50v42.375" style="stroke: rgb(0, 0, 0); stroke-opacity: 0.1; stroke-width: 1px;"/><path class="xgrid crisp" transform="translate(558.6700000000001,0)" d="M0,50v42.375" style="stroke: rgb(0, 0, 0); stroke-opacity: 0.1; stroke-width: 1px;"/><path class="xgrid crisp" transform="translate(611.33,0)" d="M0,50v42.375" style="stroke: rgb(0, 0, 0); stroke-opacity: 0.1; stroke-width: 1px;"/><path class="xgrid crisp" transform="translate(663.98,0)" d="M0,50v42.375" style="stroke: rgb(0, 0, 0); stroke-opacity: 0.1; stroke-width: 1px;"/><path class="xgrid crisp" transform="translate(716.64,0)" d="M0,50v42.375" style="stroke: rgb(0, 0, 0); stroke-opacity: 0.1; stroke-width: 1px;"/><path class="xgrid crisp" transform="translate(769.3,0)" d="M0,50v42.375" style="stroke: rgb(0, 0, 0); stroke-opacity: 0.1; stroke-width: 1px;"/><path class="xgrid crisp" transform="translate(821.95,0)" d="M0,50v42.375" style="stroke: rgb(0, 0, 0); stroke-opacity: 0.1; stroke-width: 1px;"/></g><g class="y"><path class="ygrid crisp" transform="translate(0,71.19)" d="M85,0h1000" style="stroke: rgb(0, 0, 0); stroke-opacity: 0.1; stroke-width: 1px;"/></g></g><g class="zerolinelayer"/><g class="layer-between"><g class="shapelayer"/><g class="imagelayer"/></g><path class="xlines-below"/><path class="ylines-below"/><g class="overlines-below"/><g class="xaxislayer-below"/><g class="yaxislayer-below"/><g class="overaxes-below"/><g class="overplot"><g class="xy" transform="translate(85,50)" clip-path="url(#clipbbd12fxyplot)"><g class="violinlayer mlayer"><g class="trace violins" style="opacity: 0.5;"><path class="violin" d="M50,20.61Q73.08,20.31 84.62,20.07C96.16,19.84 107.69,19.55 119.23,19.2C130.77,18.84 142.31,18.42 153.85,17.94C165.39,17.46 176.92,16.91 188.46,16.33C200,15.75 211.54,15.09 223.08,14.45C234.62,13.81 246.15,13.12 257.69,12.49C269.23,11.86 280.77,11.22 292.31,10.66C303.85,10.1 315.38,9.56 326.92,9.11C338.46,8.66 350,8.27 361.54,7.94C373.08,7.61 384.61,7.36 396.15,7.15C407.69,6.94 419.23,6.79 430.77,6.67C442.31,6.55 453.84,6.48 465.38,6.43C476.92,6.38 488.46,6.36 500,6.36C511.54,6.36 523.08,6.38 534.62,6.43C546.16,6.48 557.69,6.55 569.23,6.67C580.77,6.79 592.31,6.94 603.85,7.15C615.39,7.36 626.92,7.61 638.46,7.94C650,8.27 661.54,8.66 673.08,9.11C684.62,9.56 696.15,10.1 707.69,10.66C719.23,11.22 730.77,11.86 742.31,12.49C753.85,13.12 765.38,13.81 776.92,14.45C788.46,15.09 800,15.75 811.54,16.33C823.08,16.91 834.61,17.46 846.15,17.94C857.69,18.42 869.23,18.84 880.77,19.2C892.31,19.55 903.84,19.84 915.38,20.07Q926.92,20.31 950,20.61L950,21.76Q926.92,22.07 915.38,22.31C903.84,22.55 892.31,22.83 880.77,23.18C869.23,23.53 857.69,23.95 846.15,24.43C834.61,24.91 823.08,25.47 811.54,26.05C800,26.63 788.46,27.28 776.92,27.92C765.38,28.56 753.85,29.25 742.31,29.88C730.77,30.51 719.23,31.16 707.69,31.72C696.15,32.28 684.62,32.81 673.08,33.26C661.54,33.71 650,34.1 638.46,34.43C626.92,34.76 615.39,35.01 603.85,35.22C592.31,35.43 580.77,35.58 569.23,35.7C557.69,35.82 546.16,35.9 534.62,35.95C523.08,36 511.54,36.02 500,36.02C488.46,36.02 476.92,36 465.38,35.95C453.84,35.9 442.31,35.82 430.77,35.7C419.23,35.58 407.69,35.43 396.15,35.22C384.61,35.01 373.08,34.76 361.54,34.43C350,34.1 338.46,33.71 326.92,33.26C315.38,32.81 303.85,32.28 292.31,31.72C280.77,31.16 269.23,30.51 257.69,29.88C246.15,29.25 234.62,28.56 223.08,27.92C211.54,27.28 200,26.63 188.46,26.05C176.92,25.47 165.39,24.91 153.85,24.43C142.31,23.95 130.77,23.53 119.23,23.18C107.69,22.83 96.16,22.55 84.62,22.31Q73.08,22.07 50,21.76Z" style="vector-effect: none; stroke-width: 2px; stroke: rgb(181, 181, 181); stroke-opacity: 1; fill: rgb(181, 181, 181); fill-opacity: 1;"/><path class="box" d="M500,24.9V17.48M368.36,24.9V17.48H631.64V24.9ZM368.36,21.19H263.05M631.64,21.19H736.95" style="vector-effect: non-scaling-stroke; stroke-width: 2px; stroke: rgb(181, 181, 181); stroke-opacity: 1; fill: rgb(181, 181, 181); fill-opacity: 1;"/><path class="mean" d="M500,24.9V17.48" style="fill: none; vector-effect: non-scaling-stroke; stroke-width: 2px; stroke-dasharray: 4px, 2px; stroke: rgb(181, 181, 181); stroke-opacity: 1;"/></g></g><g class="scatterlayer mlayer"><g class="trace scatter trace2f0b62" style="stroke-miterlimit: 2; opacity: 1;"><g class="fills"/><g class="errorbars"/><g class="lines"/><g class="points"><path class="point" transform="translate(263.05,21.19)" d="M2,0A2,2 0 1,1 0,-2A2,2 0 0,1 2,0Z" style="opacity: 1; stroke-width: 0px; fill: rgb(11, 121, 230); fill-opacity: 1;"/></g><g class="text"/></g><g class="trace scatter tracefe6751" style="stroke-miterlimit: 2; opacity: 1;"><g class="fills"/><g class="errorbars"/><g class="lines"/><g class="points"><path class="point" transform="translate(315.7,21.19)" d="M2,0A2,2 0 1,1 0,-2A2,2 0 0,1 2,0Z" style="opacity: 1; stroke-width: 0px; fill: rgb(11, 121, 230); fill-opacity: 1;"/></g><g class="text"/></g><g class="trace scatter trace3e016a" style="stroke-miterlimit: 2; opacity: 1;"><g class="fills"/><g class="errorbars"/><g class="lines"/><g class="points"><path class="point" transform="translate(368.36,21.19)" d="M2,0A2,2 0 1,1 0,-2A2,2 0 0,1 2,0Z" style="opacity: 1; stroke-width: 0px; fill: rgb(11, 121, 230); fill-opacity: 1;"/></g><g class="text"/></g><g class="trace scatter tracee746e4" style="stroke-miterlimit: 2; opacity: 1;"><g class="fills"/><g class="errorbars"/><g class="lines"/><g class="points"><path class="point" transform="translate(421.02,21.19)" d="M2,0A2,2 0 1,1 0,-2A2,2 0 0,1 2,0Z" style="opacity: 1; stroke-width: 0px; fill: rgb(11, 121, 230); fill-opacity: 1;"/></g><g class="text"/></g><g class="trace scatter trace0ef812" style="stroke-miterlimit: 2; opacity: 1;"><g class="fills"/><g class="errorbars"/><g class="lines"/><g class="points"><path class="point" transform="translate(473.67,21.19)" d="M2,0A2,2 0 1,1 0,-2A2,2 0 0,1 2,0Z" style="opacity: 1; stroke-width: 0px; fill: rgb(11, 121, 230); fill-opacity: 1;"/></g><g class="text"/></g><g class="trace scatter trace62ce18" style="stroke-miterlimit: 2; opacity: 1;"><g class="fills"/><g class="errorbars"/><g class="lines"/><g class="points"><path class="point" transform="translate(526.33,21.19)" d="M2,0A2,2 0 1,1 0,-2A2,2 0 0,1 2,0Z" style="opacity: 1; stroke-width: 0px; fill: rgb(11, 121, 230); fill-opacity: 1;"/></g><g class="text"/></g><g class="trace scatter trace83577a" style="stroke-miterlimit: 2; opacity: 1;"><g class="fills"/><g class="errorbars"/><g class="lines"/><g class="points"><path class="point" transform="translate(578.98,21.19)" d="M2,0A2,2 0 1,1 0,-2A2,2 0 0,1 2,0Z" style="opacity: 1; stroke-width: 0px; fill: rgb(11, 121, 230); fill-opacity: 1;"/></g><g class="text"/></g><g class="trace scatter tracea2d907" style="stroke-miterlimit: 2; opacity: 1;"><g class="fills"/><g class="errorbars"/><g class="lines"/><g class="points"><path class="point" transform="translate(631.64,21.19)" d="M2,0A2,2 0 1,1 0,-2A2,2 0 0,1 2,0Z" style="opacity: 1; stroke-width: 0px; fill: rgb(11, 121, 230); fill-opacity: 1;"/></g><g class="text"/></g><g class="trace scatter trace154bee" style="stroke-miterlimit: 2; opacity: 1;"><g class="fills"/><g class="errorbars"/><g class="lines"/><g class="points"><path class="point" transform="translate(684.3,21.19)" d="M2,0A2,2 0 1,1 0,-2A2,2 0 0,1 2,0Z" style="opacity: 1; stroke-width: 0px; fill: rgb(11, 121, 230); fill-opacity: 1;"/></g><g class="text"/></g><g class="trace scatter trace4b0edc" style="stroke-miterlimit: 2; opacity: 1;"><g class="fills"/><g class="errorbars"/><g class="lines"/><g class="points"><path class="point" transform="translate(736.95,21.19)" d="M2,0A2,2 0 1,1 0,-2A2,2 0 0,1 2,0Z" style="opacity: 1; stroke-width: 0px; fill: rgb(11, 121, 230); fill-opacity: 1;"/></g><g class="text"/></g></g></g></g><path class="xlines-above crisp" d="M0,0" style="fill: none;"/><path class="ylines-above crisp" d="M0,0" style="fill: none;"/><g class="overlines-above"/><g class="xaxislayer-above"><g class="xtick"><text text-anchor="start" x="0" y="102.375" transform="translate(348.05,0) rotate(29.999999999999996,0,97.875)" style="font-family: 'Lucida Grande', 'Open Sans', verdana, arial, sans-serif; font-size: 9px; fill: rgb(0, 0, 0); fill-opacity: 0.5; white-space: pre; pointer-events: all; opacity: 1;"><a style="cursor:pointer">background_control.dorsal_root_ganglia.no_tool</a></text></g><g class="xtick"><text text-anchor="start" x="0" y="102.375" transform="translate(400.7,0) rotate(29.999999999999996,0,97.875)" style="font-family: 'Lucida Grande', 'Open Sans', verdana, arial, sans-serif; font-size: 9px; fill: rgb(0, 0, 0); fill-opacity: 0.5; white-space: pre; pointer-events: all; opacity: 1;"><a style="cursor:pointer">background_control.amygdala.no_tool</a></text></g><g class="xtick"><text text-anchor="start" x="0" y="102.375" transform="translate(453.36,0) rotate(29.999999999999996,0,97.875)" style="font-family: 'Lucida Grande', 'Open Sans', verdana, arial, sans-serif; font-size: 9px; fill: rgb(0, 0, 0); fill-opacity: 0.5; white-space: pre; pointer-events: all; opacity: 1;"><a style="cursor:pointer">background_control.brain.domino</a></text></g><g class="xtick"><text text-anchor="start" x="0" y="102.375" transform="translate(506.02,0) rotate(29.999999999999996,0,97.875)" style="font-family: 'Lucida Grande', 'Open Sans', verdana, arial, sans-serif; font-size: 9px; fill: rgb(0, 0, 0); fill-opacity: 0.5; white-space: pre; pointer-events: all; opacity: 1;"><a style="cursor:pointer">background_control.brain.no_tool</a></text></g><g class="xtick"><text text-anchor="start" x="0" y="102.375" transform="translate(558.6700000000001,0) rotate(29.999999999999996,0,97.875)" style="font-family: 'Lucida Grande', 'Open Sans', verdana, arial, sans-serif; font-size: 9px; fill: rgb(0, 0, 0); fill-opacity: 0.5; white-space: pre; pointer-events: all; opacity: 1;"><a style="cursor:pointer">background_control.hypothalamus.no_tool</a></text></g><g class="xtick"><text text-anchor="start" x="0" y="102.375" transform="translate(611.33,0) rotate(29.999999999999996,0,97.875)" style="font-family: 'Lucida Grande', 'Open Sans', verdana, arial, sans-serif; font-size: 9px; fill: rgb(0, 0, 0); fill-opacity: 0.5; white-space: pre; pointer-events: all; opacity: 1;"><a style="cursor:pointer">background_control.dorsal_root_ganglia.domino</a></text></g><g class="xtick"><text text-anchor="start" x="0" y="102.375" transform="translate(663.98,0) rotate(29.999999999999996,0,97.875)" style="font-family: 'Lucida Grande', 'Open Sans', verdana, arial, sans-serif; font-size: 9px; fill: rgb(0, 0, 0); fill-opacity: 0.5; white-space: pre; pointer-events: all; opacity: 1;"><a style="cursor:pointer">background_control.amygdala.domino</a></text></g><g class="xtick"><text text-anchor="start" x="0" y="102.375" transform="translate(716.64,0) rotate(29.999999999999996,0,97.875)" style="font-family: 'Lucida Grande', 'Open Sans', verdana, arial, sans-serif; font-size: 9px; fill: rgb(0, 0, 0); fill-opacity: 0.5; white-space: pre; pointer-events: all; opacity: 1;"><a style="cursor:pointer">background_control.salivary_gland.domino</a></text></g><g class="xtick"><text text-anchor="start" x="0" y="102.375" transform="translate(769.3,0) rotate(29.999999999999996,0,97.875)" style="font-family: 'Lucida Grande', 'Open Sans', verdana, arial, sans-serif; font-size: 9px; fill: rgb(0, 0, 0); fill-opacity: 0.5; white-space: pre; pointer-events: all; opacity: 1;"><a style="cursor:pointer">background_control.salivary_gland.no_tool</a></text></g><g class="xtick"><text text-anchor="start" x="0" y="102.375" transform="translate(821.95,0) rotate(29.999999999999996,0,97.875)" style="font-family: 'Lucida Grande', 'Open Sans', verdana, arial, sans-serif; font-size: 9px; fill: rgb(0, 0, 0); fill-opacity: 0.5; white-space: pre; pointer-events: all; opacity: 1;"><a style="cursor:pointer">background_control.hypothalamus.domino</a></text></g></g><g class="yaxislayer-above"><g class="ytick"><text text-anchor="end" x="84" y="3.15" transform="translate(0,71.19)" style="font-family: 'Lucida Grande', 'Open Sans', verdana, arial, sans-serif; font-size: 9px; fill: rgb(0, 0, 0); fill-opacity: 0.5; white-space: pre; opacity: 1;">drugstone_link  </text></g></g><g class="overaxes-above"/></g><g class="subplot x2y2"><g class="layer-subplot"><g class="shapelayer"/><g class="imagelayer"/></g><g class="minor-gridlayer"><g class="x2"/><g class="y2"/></g><g class="gridlayer"><g class="x2"><path class="x2grid crisp" transform="translate(348.05,0)" d="M0,120.625v42.375" style="stroke: rgb(0, 0, 0); stroke-opacity: 0.1; stroke-width: 1px;"/><path class="x2grid crisp" transform="translate(400.7,0)" d="M0,120.625v42.375" style="stroke: rgb(0, 0, 0); stroke-opacity: 0.1; stroke-width: 1px;"/><path class="x2grid crisp" transform="translate(453.36,0)" d="M0,120.625v42.375" style="stroke: rgb(0, 0, 0); stroke-opacity: 0.1; stroke-width: 1px;"/><path class="x2grid crisp" transform="translate(506.02,0)" d="M0,120.625v42.375" style="stroke: rgb(0, 0, 0); stroke-opacity: 0.1; stroke-width: 1px;"/><path class="x2grid crisp" transform="translate(558.6700000000001,0)" d="M0,120.625v42.375" style="stroke: rgb(0, 0, 0); stroke-opacity: 0.1; stroke-width: 1px;"/><path class="x2grid crisp" transform="translate(611.33,0)" d="M0,120.625v42.375" style="stroke: rgb(0, 0, 0); stroke-opacity: 0.1; stroke-width: 1px;"/><path class="x2grid crisp" transform="translate(663.98,0)" d="M0,120.625v42.375" style="stroke: rgb(0, 0, 0); stroke-opacity: 0.1; stroke-width: 1px;"/><path class="x2grid crisp" transform="translate(716.64,0)" d="M0,120.625v42.375" style="stroke: rgb(0, 0, 0); stroke-opacity: 0.1; stroke-width: 1px;"/><path class="x2grid crisp" transform="translate(769.3,0)" d="M0,120.625v42.375" style="stroke: rgb(0, 0, 0); stroke-opacity: 0.1; stroke-width: 1px;"/><path class="x2grid crisp" transform="translate(821.95,0)" d="M0,120.625v42.375" style="stroke: rgb(0, 0, 0); stroke-opacity: 0.1; stroke-width: 1px;"/></g><g class="y2"><path class="y2grid crisp" transform="translate(0,141.815)" d="M85,0h1000" style="stroke: rgb(0, 0, 0); stroke-opacity: 0.1; stroke-width: 1px;"/></g></g><g class="zerolinelayer"/><g class="layer-between"><g class="shapelayer"/><g class="imagelayer"/></g><path class="xlines-below"/><path class="ylines-below"/><g class="overlines-below"/><g class="xaxislayer-below"/><g class="yaxislayer-below"/><g class="overaxes-below"/><g class="overplot"><g class="x2y2" transform="translate(85,120.625)" clip-path="url(#clipbbd12fx2y2plot)"><g class="violinlayer mlayer"><g class="trace violins" style="opacity: 0.5;"><path class="violin" d="M50,20.61Q73.08,20.31 84.62,20.07C96.16,19.84 107.69,19.55 119.23,19.2C130.77,18.84 142.31,18.42 153.85,17.94C165.39,17.46 176.92,16.91 188.46,16.33C200,15.75 211.54,15.09 223.08,14.45C234.62,13.81 246.15,13.12 257.69,12.49C269.23,11.86 280.77,11.22 292.31,10.66C303.85,10.1 315.38,9.56 326.92,9.11C338.46,8.66 350,8.27 361.54,7.94C373.08,7.61 384.61,7.36 396.15,7.15C407.69,6.94 419.23,6.79 430.77,6.67C442.31,6.55 453.84,6.48 465.38,6.43C476.92,6.38 488.46,6.36 500,6.36C511.54,6.36 523.08,6.38 534.62,6.43C546.16,6.48 557.69,6.55 569.23,6.67C580.77,6.79 592.31,6.94 603.85,7.15C615.39,7.36 626.92,7.61 638.46,7.94C650,8.27 661.54,8.66 673.08,9.11C684.62,9.56 696.15,10.1 707.69,10.66C719.23,11.22 730.77,11.86 742.31,12.49C753.85,13.12 765.38,13.81 776.92,14.45C788.46,15.09 800,15.75 811.54,16.33C823.08,16.91 834.61,17.46 846.15,17.94C857.69,18.42 869.23,18.84 880.77,19.2C892.31,19.55 903.84,19.84 915.38,20.07Q926.92,20.31 950,20.61L950,21.76Q926.92,22.07 915.38,22.31C903.84,22.55 892.31,22.83 880.77,23.18C869.23,23.53 857.69,23.95 846.15,24.43C834.61,24.91 823.08,25.47 811.54,26.05C800,26.63 788.46,27.28 776.92,27.92C765.38,28.56 753.85,29.25 742.31,29.88C730.77,30.51 719.23,31.16 707.69,31.72C696.15,32.28 684.62,32.81 673.08,33.26C661.54,33.71 650,34.1 638.46,34.43C626.92,34.76 615.39,35.01 603.85,35.22C592.31,35.43 580.77,35.58 569.23,35.7C557.69,35.82 546.16,35.9 534.62,35.95C523.08,36 511.54,36.02 500,36.02C488.46,36.02 476.92,36 465.38,35.95C453.84,35.9 442.31,35.82 430.77,35.7C419.23,35.58 407.69,35.43 396.15,35.22C384.61,35.01 373.08,34.76 361.54,34.43C350,34.1 338.46,33.71 326.92,33.26C315.38,32.81 303.85,32.28 292.31,31.72C280.77,31.16 269.23,30.51 257.69,29.88C246.15,29.25 234.62,28.56 223.08,27.92C211.54,27.28 200,26.63 188.46,26.05C176.92,25.47 165.39,24.91 153.85,24.43C142.31,23.95 130.77,23.53 119.23,23.18C107.69,22.83 96.16,22.55 84.62,22.31Q73.08,22.07 50,21.76Z" style="vector-effect: none; stroke-width: 2px; stroke: rgb(181, 181, 181); stroke-opacity: 1; fill: rgb(181, 181, 181); fill-opacity: 1;"/><path class="box" d="M500,24.9V17.48M368.36,24.9V17.48H631.64V24.9ZM368.36,21.19H263.05M631.64,21.19H736.95" style="vector-effect: non-scaling-stroke; stroke-width: 2px; stroke: rgb(181, 181, 181); stroke-opacity: 1; fill: rgb(181, 181, 181); fill-opacity: 1;"/><path class="mean" d="M500,24.9V17.48" style="fill: none; vector-effect: non-scaling-stroke; stroke-width: 2px; stroke-dasharray: 4px, 2px; stroke: rgb(181, 181, 181); stroke-opacity: 1;"/></g></g><g class="scatterlayer mlayer"><g class="trace scatter trace79edcc" style="stroke-miterlimit: 2; opacity: 1;"><g class="fills"/><g class="errorbars"/><g class="lines"/><g class="points"><path class="point" transform="translate(263.05,21.19)" d="M2,0A2,2 0 1,1 0,-2A2,2 0 0,1 2,0Z" style="opacity: 1; stroke-width: 0px; fill: rgb(11, 121, 230); fill-opacity: 1;"/></g><g class="text"/></g><g class="trace scatter trace687583" style="stroke-miterlimit: 2; opacity: 1;"><g class="fills"/><g class="errorbars"/><g class="lines"/><g class="points"><path class="point" transform="translate(315.7,21.19)" d="M2,0A2,2 0 1,1 0,-2A2,2 0 0,1 2,0Z" style="opacity: 1; stroke-width: 0px; fill: rgb(11, 121, 230); fill-opacity: 1;"/></g><g class="text"/></g><g class="trace scatter tracec9e03f" style="stroke-miterlimit: 2; opacity: 1;"><g class="fills"/><g class="errorbars"/><g class="lines"/><g class="points"><path class="point" transform="translate(368.36,21.19)" d="M2,0A2,2 0 1,1 0,-2A2,2 0 0,1 2,0Z" style="opacity: 1; stroke-width: 0px; fill: rgb(11, 121, 230); fill-opacity: 1;"/></g><g class="text"/></g><g class="trace scatter tracedd7168" style="stroke-miterlimit: 2; opacity: 1;"><g class="fills"/><g class="errorbars"/><g class="lines"/><g class="points"><path class="point" transform="translate(421.02,21.19)" d="M2,0A2,2 0 1,1 0,-2A2,2 0 0,1 2,0Z" style="opacity: 1; stroke-width: 0px; fill: rgb(11, 121, 230); fill-opacity: 1;"/></g><g class="text"/></g><g class="trace scatter tracebaef3b" style="stroke-miterlimit: 2; opacity: 1;"><g class="fills"/><g class="errorbars"/><g class="lines"/><g class="points"><path class="point" transform="translate(473.67,21.19)" d="M2,0A2,2 0 1,1 0,-2A2,2 0 0,1 2,0Z" style="opacity: 1; stroke-width: 0px; fill: rgb(11, 121, 230); fill-opacity: 1;"/></g><g class="text"/></g><g class="trace scatter tracea68324" style="stroke-miterlimit: 2; opacity: 1;"><g class="fills"/><g class="errorbars"/><g class="lines"/><g class="points"><path class="point" transform="translate(526.33,21.19)" d="M2,0A2,2 0 1,1 0,-2A2,2 0 0,1 2,0Z" style="opacity: 1; stroke-width: 0px; fill: rgb(11, 121, 230); fill-opacity: 1;"/></g><g class="text"/></g><g class="trace scatter trace0cc2be" style="stroke-miterlimit: 2; opacity: 1;"><g class="fills"/><g class="errorbars"/><g class="lines"/><g class="points"><path class="point" transform="translate(578.98,21.19)" d="M2,0A2,2 0 1,1 0,-2A2,2 0 0,1 2,0Z" style="opacity: 1; stroke-width: 0px; fill: rgb(11, 121, 230); fill-opacity: 1;"/></g><g class="text"/></g><g class="trace scatter tracef1e83c" style="stroke-miterlimit: 2; opacity: 1;"><g class="fills"/><g class="errorbars"/><g class="lines"/><g class="points"><path class="point" transform="translate(631.64,21.19)" d="M2,0A2,2 0 1,1 0,-2A2,2 0 0,1 2,0Z" style="opacity: 1; stroke-width: 0px; fill: rgb(11, 121, 230); fill-opacity: 1;"/></g><g class="text"/></g><g class="trace scatter trace682116" style="stroke-miterlimit: 2; opacity: 1;"><g class="fills"/><g class="errorbars"/><g class="lines"/><g class="points"><path class="point" transform="translate(684.3,21.19)" d="M2,0A2,2 0 1,1 0,-2A2,2 0 0,1 2,0Z" style="opacity: 1; stroke-width: 0px; fill: rgb(11, 121, 230); fill-opacity: 1;"/></g><g class="text"/></g><g class="trace scatter traceb7eef1" style="stroke-miterlimit: 2; opacity: 1;"><g class="fills"/><g class="errorbars"/><g class="lines"/><g class="points"><path class="point" transform="translate(736.95,21.19)" d="M2,0A2,2 0 1,1 0,-2A2,2 0 0,1 2,0Z" style="opacity: 1; stroke-width: 0px; fill: rgb(11, 121, 230); fill-opacity: 1;"/></g><g class="text"/></g></g></g></g><path class="xlines-above crisp" d="M0,0" style="fill: none;"/><path class="ylines-above crisp" d="M0,0" style="fill: none;"/><g class="overlines-above"/><g class="xaxislayer-above"><g class="x2tick"><text text-anchor="start" x="0" y="173" transform="translate(348.05,0) rotate(29.999999999999996,0,168.5)" style="font-family: 'Lucida Grande', 'Open Sans', verdana, arial, sans-serif; font-size: 9px; fill: rgb(0, 0, 0); fill-opacity: 0.5; white-space: pre; opacity: 1;">https://drugst.one/?id=1f7a7614a0f24b2880ba8603f813dec4</text></g><g class="x2tick"><text text-anchor="start" x="0" y="173" transform="translate(400.7,0) rotate(29.999999999999996,0,168.5)" style="font-family: 'Lucida Grande', 'Open Sans', verdana, arial, sans-serif; font-size: 9px; fill: rgb(0, 0, 0); fill-opacity: 0.5; white-space: pre; opacity: 1;">https://drugst.one/?id=0ec24276d76b443f8aa8ff9566ba2091</text></g><g class="x2tick"><text text-anchor="start" x="0" y="173" transform="translate(453.36,0) rotate(29.999999999999996,0,168.5)" style="font-family: 'Lucida Grande', 'Open Sans', verdana, arial, sans-serif; font-size: 9px; fill: rgb(0, 0, 0); fill-opacity: 0.5; white-space: pre; opacity: 1;">https://drugst.one/?id=c3254304727c4e6e8a3c3f6438e8c831</text></g><g class="x2tick"><text text-anchor="start" x="0" y="173" transform="translate(506.02,0) rotate(29.999999999999996,0,168.5)" style="font-family: 'Lucida Grande', 'Open Sans', verdana, arial, sans-serif; font-size: 9px; fill: rgb(0, 0, 0); fill-opacity: 0.5; white-space: pre; opacity: 1;">https://drugst.one/?id=b0b2416df4924884b0e5f41f761181df</text></g><g class="x2tick"><text text-anchor="start" x="0" y="173" transform="translate(558.6700000000001,0) rotate(29.999999999999996,0,168.5)" style="font-family: 'Lucida Grande', 'Open Sans', verdana, arial, sans-serif; font-size: 9px; fill: rgb(0, 0, 0); fill-opacity: 0.5; white-space: pre; opacity: 1;">https://drugst.one/?id=988ce072cb1643f29de63307ad2b8d91</text></g><g class="x2tick"><text text-anchor="start" x="0" y="173" transform="translate(611.33,0) rotate(29.999999999999996,0,168.5)" style="font-family: 'Lucida Grande', 'Open Sans', verdana, arial, sans-serif; font-size: 9px; fill: rgb(0, 0, 0); fill-opacity: 0.5; white-space: pre; opacity: 1;">https://drugst.one/?id=974a496ddfaa44e8afeaaffb7d4d33bc</text></g><g class="x2tick"><text text-anchor="start" x="0" y="173" transform="translate(663.98,0) rotate(29.999999999999996,0,168.5)" style="font-family: 'Lucida Grande', 'Open Sans', verdana, arial, sans-serif; font-size: 9px; fill: rgb(0, 0, 0); fill-opacity: 0.5; white-space: pre; opacity: 1;">https://drugst.one/?id=0dfe924dd2f24c33833663e13f84956c</text></g><g class="x2tick"><text text-anchor="start" x="0" y="173" transform="translate(716.64,0) rotate(29.999999999999996,0,168.5)" style="font-family: 'Lucida Grande', 'Open Sans', verdana, arial, sans-serif; font-size: 9px; fill: rgb(0, 0, 0); fill-opacity: 0.5; white-space: pre; opacity: 1;">https://drugst.one/?id=5b2a7ebab1a84b39bced4fef1360d7f9</text></g><g class="x2tick"><text text-anchor="start" x="0" y="173" transform="translate(769.3,0) rotate(29.999999999999996,0,168.5)" style="font-family: 'Lucida Grande', 'Open Sans', verdana, arial, sans-serif; font-size: 9px; fill: rgb(0, 0, 0); fill-opacity: 0.5; white-space: pre; opacity: 1;">https://drugst.one/?id=f0c6d0bdd820485498145f78c0579d75</text></g><g class="x2tick"><text text-anchor="start" x="0" y="173" transform="translate(821.95,0) rotate(29.999999999999996,0,168.5)" style="font-family: 'Lucida Grande', 'Open Sans', verdana, arial, sans-serif; font-size: 9px; fill: rgb(0, 0, 0); fill-opacity: 0.5; white-space: pre; opacity: 1;">https://drugst.one/?id=fe6698f28a5746e6be8085b8be90917e</text></g></g><g class="yaxislayer-above"><g class="y2tick"><text text-anchor="end" x="84" y="3.15" transform="translate(0,141.815)" style="font-family: 'Lucida Grande', 'Open Sans', verdana, arial, sans-serif; font-size: 9px; fill: rgb(0, 0, 0); fill-opacity: 0.5; white-space: pre; opacity: 1;">link_raw  </text></g></g><g class="overaxes-above"/></g></g><g class="polarlayer"/><g class="smithlayer"/><g class="ternarylayer"/><g class="geolayer"/><g class="funnelarealayer"/><g class="pielayer"/><g class="iciclelayer"/><g class="treemaplayer"/><g class="sunburstlayer"/><g class="glimages"/><defs id="topdefs-bbd12f"><g class="clips"/></defs><g class="layer-above"><g class="imagelayer"/><g class="shapelayer"/></g><g class="infolayer"><g class="g-gtitle"><text class="gtitle" x="550" y="25" text-anchor="middle" dy="0em" style="opacity: 1; font-family: 'Lucida Grande', 'Open Sans', verdana, arial, sans-serif; font-size: 20px; fill: rgb(42, 63, 95); fill-opacity: 1; white-space: pre;"><tspan class="line" dy="0em" x="550" y="25">Drugstone Links</tspan><tspan class="line" dy="1.3em" x="550" y="25">​<tspan style="font-size:70%" dy="-0.6em">10 samples</tspan><tspan dy="0.42em">​</tspan></tspan></text></g><g class="g-xtitle"/><g class="g-x2title"/><g class="g-ytitle"/><g class="g-y2title"/></g></svg>