<svg class="main-svg" xmlns="http://www.w3.org/2000/svg" xmlns:xlink="http://www.w3.org/1999/xlink" width="2200" height="266" style="" viewBox="0 0 1100 133"><rect x="0" y="0" width="1100" height="133" style="fill: rgb(255, 255, 255); fill-opacity: 1;"/><defs id="defs-844b08"><g class="clips"><clipPath id="clip844b08xyplot" class="plotclip"><rect width="1025" height="43"/></clipPath><clipPath class="axesclip" id="clip844b08x"><rect x="60" y="0" width="1025" height="133"/></clipPath><clipPath class="axesclip" id="clip844b08y"><rect x="0" y="50" width="1100" height="43"/></clipPath><clipPath class="axesclip" id="clip844b08xy"><rect x="60" y="50" width="1025" height="43"/></clipPath></g><g class="gradients"/><g class="patterns"/></defs><g class="bglayer"/><g class="layer-below"><g class="imagelayer"/><g class="shapelayer"/></g><g class="cartesianlayer"><g class="subplot xy"><g class="layer-subplot"><g class="shapelayer"/><g class="imagelayer"/></g><g class="minor-gridlayer"><g class="x"/><g class="y"/></g><g class="gridlayer"><g class="x"><path class="xgrid crisp" transform="translate(243.47,0)" d="M0,50v43" style="stroke: rgb(0, 0, 0); stroke-opacity: 0.1; stroke-width: 1px;"/><path class="xgrid crisp" transform="translate(421.87,0)" d="M0,50v43" style="stroke: rgb(0, 0, 0); stroke-opacity: 0.1; stroke-width: 1px;"/><path class="xgrid crisp" transform="translate(600.27,0)" d="M0,50v43" style="stroke: rgb(0, 0, 0); stroke-opacity: 0.1; stroke-width: 1px;"/><path class="xgrid crisp" transform="translate(778.67,0)" d="M0,50v43" style="stroke: rgb(0, 0, 0); stroke-opacity: 0.1; stroke-width: 1px;"/><path class="xgrid crisp" transform="translate(957.07,0)" d="M0,50v43" style="stroke: rgb(0, 0, 0); stroke-opacity: 0.1; stroke-width: 1px;"/></g><g class="y"><path class="ygrid crisp" transform="translate(0,71.5)" d="M60,0h1025" style="stroke: rgb(0, 0, 0); stroke-opacity: 0.1; stroke-width: 1px;"/></g></g><g class="zerolinelayer"><path class="xzl zl crisp" transform="translate(65.07,0)" d="M0,50v43" style="stroke: rgb(0, 0, 0); stroke-opacity: 0.1; stroke-width: 2px;"/></g><g class="layer-between"><g class="shapelayer"/><g class="imagelayer"/></g><path class="xlines-below"/><path class="ylines-below"/><g class="overlines-below"/><g class="xaxislayer-below"/><g class="yaxislayer-below"/><g class="overaxes-below"/><g class="overplot"><g class="xy" transform="translate(60,50)" clip-path="url(#clip844b08xyplot)"><g class="violinlayer mlayer"><g class="trace violins" style="opacity: 0.5;"><path class="violin" d="M30.45,21.2Q32.61,21 33.68,20.82C34.76,20.64 35.85,20.42 36.92,20.1C38.01,19.78 39.09,19.39 40.15,18.9C41.25,18.39 42.33,17.77 43.39,17.09C44.49,16.38 45.56,15.54 46.62,14.7C47.71,13.84 48.77,12.88 49.85,11.99C50.92,11.11 51.99,10.16 53.09,9.38C54.14,8.64 55.21,7.89 56.32,7.4C57.37,6.94 58.46,6.57 59.55,6.45C60.62,6.33 61.73,6.42 62.79,6.65C63.88,6.88 64.96,7.36 66.02,7.85C67.12,8.36 68.18,9.02 69.25,9.67C70.34,10.33 71.41,11.07 72.49,11.77C73.57,12.46 74.64,13.18 75.72,13.84C76.79,14.49 77.86,15.13 78.95,15.7C80.02,16.26 81.1,16.79 82.19,17.26C83.26,17.72 84.33,18.12 85.42,18.47C86.49,18.81 87.57,19.09 88.65,19.33C89.72,19.57 90.81,19.75 91.89,19.9C92.96,20.05 94.04,20.15 95.12,20.25C96.2,20.35 97.27,20.42 98.35,20.49C99.43,20.56 100.51,20.63 101.59,20.69C102.67,20.75 103.74,20.81 104.82,20.87C105.9,20.93 106.98,20.99 108.06,21.05C109.14,21.11 110.21,21.16 111.29,21.21C112.37,21.26 113.44,21.3 114.52,21.33C115.6,21.36 116.68,21.39 117.76,21.41C118.84,21.43 119.91,21.45 120.99,21.46C122.07,21.47 123.14,21.48 124.22,21.48C125.3,21.49 126.38,21.49 127.46,21.49C128.54,21.49 129.61,21.5 130.69,21.5C131.77,21.5 132.84,21.5 133.92,21.5C135,21.5 136.08,21.5 137.16,21.5C138.24,21.5 139.31,21.5 140.39,21.5C141.47,21.5 142.54,21.5 143.62,21.5C144.7,21.5 145.78,21.5 146.86,21.5C147.94,21.5 149.01,21.5 150.09,21.5C151.17,21.5 152.24,21.5 153.32,21.5C154.4,21.5 155.48,21.5 156.56,21.5C157.64,21.5 158.71,21.5 159.79,21.5C160.87,21.5 161.94,21.5 163.02,21.5C164.1,21.5 165.18,21.5 166.26,21.5C167.34,21.5 168.41,21.5 169.49,21.5C170.57,21.5 171.65,21.5 172.73,21.5C173.81,21.5 174.88,21.5 175.96,21.5C177.04,21.5 178.11,21.5 179.19,21.5C180.27,21.5 181.35,21.5 182.43,21.5C183.51,21.5 184.58,21.5 185.66,21.5C186.74,21.5 187.81,21.5 188.89,21.5C189.97,21.5 191.05,21.5 192.13,21.5C193.21,21.5 194.28,21.5 195.36,21.5C196.44,21.5 197.51,21.5 198.59,21.5C199.67,21.5 200.75,21.5 201.83,21.5C202.91,21.5 203.98,21.5 205.06,21.5C206.14,21.5 207.21,21.5 208.29,21.5C209.37,21.5 210.45,21.5 211.53,21.5C212.61,21.5 213.68,21.5 214.76,21.5C215.84,21.5 216.91,21.5 217.99,21.5C219.07,21.5 220.15,21.5 221.23,21.5C222.31,21.5 223.38,21.5 224.46,21.5C225.54,21.5 226.61,21.5 227.69,21.5C228.77,21.5 229.85,21.5 230.93,21.5C232.01,21.5 233.08,21.5 234.16,21.5C235.24,21.5 236.32,21.5 237.4,21.5C238.48,21.5 239.55,21.5 240.63,21.5C241.71,21.5 242.78,21.5 243.86,21.5C244.94,21.5 246.02,21.5 247.1,21.5C248.18,21.5 249.25,21.5 250.33,21.5C251.41,21.5 252.48,21.5 253.56,21.5C254.64,21.5 255.72,21.5 256.8,21.5C257.88,21.5 258.95,21.5 260.03,21.5C261.11,21.5 262.18,21.5 263.26,21.5C264.34,21.5 265.42,21.5 266.5,21.5C267.58,21.5 268.65,21.5 269.73,21.5C270.81,21.5 271.88,21.5 272.96,21.5C274.04,21.5 275.12,21.5 276.2,21.5C277.28,21.5 278.35,21.5 279.43,21.5C280.51,21.5 281.58,21.5 282.66,21.5C283.74,21.5 284.82,21.5 285.9,21.5C286.98,21.5 288.05,21.5 289.13,21.5C290.21,21.5 291.28,21.5 292.36,21.5C293.44,21.5 294.52,21.5 295.6,21.5C296.68,21.5 297.75,21.5 298.83,21.5C299.91,21.5 300.98,21.5 302.06,21.5C303.14,21.5 304.22,21.5 305.3,21.5C306.38,21.5 307.45,21.5 308.53,21.5C309.61,21.5 310.69,21.5 311.77,21.5C312.85,21.5 313.92,21.5 315,21.5C316.08,21.5 317.15,21.5 318.23,21.5C319.31,21.5 320.39,21.5 321.47,21.5C322.55,21.5 323.62,21.5 324.7,21.5C325.78,21.5 326.85,21.5 327.93,21.5C329.01,21.5 330.09,21.5 331.17,21.5C332.25,21.5 333.32,21.5 334.4,21.5C335.48,21.5 336.55,21.5 337.63,21.5C338.71,21.5 339.79,21.5 340.87,21.5C341.95,21.5 343.02,21.5 344.1,21.5C345.18,21.5 346.25,21.5 347.33,21.5C348.41,21.5 349.49,21.5 350.57,21.5C351.65,21.5 352.72,21.5 353.8,21.5C354.88,21.5 355.95,21.5 357.03,21.5C358.11,21.5 359.19,21.5 360.27,21.5C361.35,21.5 362.42,21.5 363.5,21.5C364.58,21.5 365.65,21.5 366.73,21.5C367.81,21.5 368.89,21.5 369.97,21.5C371.05,21.5 372.12,21.5 373.2,21.5C374.28,21.5 375.36,21.5 376.44,21.5C377.52,21.5 378.59,21.5 379.67,21.5C380.75,21.5 381.82,21.5 382.9,21.5C383.98,21.5 385.06,21.5 386.14,21.5C387.22,21.5 388.29,21.5 389.37,21.5C390.45,21.5 391.52,21.5 392.6,21.5C393.68,21.5 394.76,21.5 395.84,21.5C396.92,21.5 397.99,21.5 399.07,21.5C400.15,21.5 401.22,21.5 402.3,21.5C403.38,21.5 404.46,21.5 405.54,21.5C406.62,21.5 407.69,21.5 408.77,21.5C409.85,21.5 410.92,21.5 412,21.5C413.08,21.5 414.16,21.5 415.24,21.5C416.32,21.5 417.39,21.5 418.47,21.5C419.55,21.5 420.62,21.5 421.7,21.5C422.78,21.5 423.86,21.5 424.94,21.5C426.02,21.5 427.09,21.5 428.17,21.5C429.25,21.5 430.32,21.5 431.4,21.5C432.48,21.5 433.56,21.5 434.64,21.5C435.72,21.5 436.79,21.5 437.87,21.5C438.95,21.5 440.03,21.5 441.11,21.5C442.19,21.5 443.26,21.5 444.34,21.5C445.42,21.5 446.49,21.5 447.57,21.5C448.65,21.5 449.73,21.5 450.81,21.5C451.89,21.5 452.96,21.5 454.04,21.5C455.12,21.5 456.19,21.5 457.27,21.5C458.35,21.5 459.43,21.5 460.51,21.5C461.59,21.5 462.66,21.5 463.74,21.5C464.82,21.5 465.89,21.5 466.97,21.5C468.05,21.5 469.13,21.5 470.21,21.5C471.29,21.5 472.36,21.5 473.44,21.5C474.52,21.5 475.59,21.5 476.67,21.5C477.75,21.5 478.83,21.5 479.91,21.5C480.99,21.5 482.06,21.5 483.14,21.5C484.22,21.5 485.29,21.5 486.37,21.5C487.45,21.5 488.53,21.5 489.61,21.5C490.69,21.5 491.76,21.5 492.84,21.5C493.92,21.5 494.99,21.5 496.07,21.5C497.15,21.5 498.23,21.5 499.31,21.5C500.39,21.5 501.46,21.5 502.54,21.5C503.62,21.5 504.7,21.5 505.78,21.5C506.86,21.5 507.93,21.5 509.01,21.5C510.09,21.5 511.16,21.5 512.24,21.5C513.32,21.5 514.4,21.5 515.48,21.5C516.56,21.5 517.63,21.5 518.71,21.5C519.79,21.5 520.86,21.5 521.94,21.5C523.02,21.5 524.1,21.5 525.18,21.5C526.26,21.5 527.33,21.5 528.41,21.5C529.49,21.5 530.56,21.5 531.64,21.5C532.72,21.5 533.8,21.5 534.88,21.5C535.96,21.5 537.03,21.5 538.11,21.5C539.19,21.5 540.26,21.5 541.34,21.5C542.42,21.5 543.5,21.5 544.58,21.5C545.66,21.5 546.73,21.5 547.81,21.5C548.89,21.5 549.96,21.5 551.04,21.5C552.12,21.5 553.2,21.5 554.28,21.5C555.36,21.5 556.43,21.5 557.51,21.5C558.59,21.5 559.66,21.5 560.74,21.5C561.82,21.5 562.9,21.5 563.98,21.5C565.06,21.5 566.13,21.5 567.21,21.5C568.29,21.5 569.36,21.5 570.44,21.5C571.52,21.5 572.6,21.5 573.68,21.5C574.76,21.5 575.83,21.5 576.91,21.5C577.99,21.5 579.07,21.5 580.15,21.5C581.23,21.5 582.3,21.5 583.38,21.5C584.46,21.5 585.53,21.5 586.61,21.5C587.69,21.5 588.77,21.5 589.85,21.5C590.93,21.5 592,21.5 593.08,21.5C594.16,21.5 595.23,21.5 596.31,21.5C597.39,21.5 598.47,21.5 599.55,21.5C600.63,21.5 601.7,21.5 602.78,21.5C603.86,21.5 604.93,21.5 606.01,21.5C607.09,21.5 608.17,21.5 609.25,21.5C610.33,21.5 611.4,21.5 612.48,21.5C613.56,21.5 614.63,21.5 615.71,21.5C616.79,21.5 617.87,21.5 618.95,21.5C620.03,21.5 621.1,21.5 622.18,21.5C623.26,21.5 624.33,21.5 625.41,21.5C626.49,21.5 627.57,21.5 628.65,21.5C629.73,21.5 630.8,21.5 631.88,21.5C632.96,21.5 634.03,21.5 635.11,21.5C636.19,21.5 637.27,21.5 638.35,21.5C639.43,21.5 640.5,21.5 641.58,21.5C642.66,21.5 643.74,21.5 644.82,21.5C645.9,21.5 646.97,21.5 648.05,21.5C649.13,21.5 650.2,21.5 651.28,21.5C652.36,21.5 653.44,21.5 654.52,21.5C655.6,21.5 656.67,21.5 657.75,21.5C658.83,21.5 659.9,21.5 660.98,21.5C662.06,21.5 663.14,21.5 664.22,21.5C665.3,21.5 666.37,21.5 667.45,21.5C668.53,21.5 669.6,21.5 670.68,21.5C671.76,21.5 672.84,21.5 673.92,21.5C675,21.5 676.07,21.5 677.15,21.5C678.23,21.5 679.3,21.5 680.38,21.5C681.46,21.5 682.54,21.5 683.62,21.5C684.7,21.5 685.77,21.5 686.85,21.5C687.93,21.5 689,21.5 690.08,21.5C691.16,21.5 692.24,21.5 693.32,21.5C694.4,21.5 695.47,21.5 696.55,21.5C697.63,21.5 698.7,21.5 699.78,21.5C700.86,21.5 701.94,21.5 703.02,21.5C704.1,21.5 705.17,21.5 706.25,21.5C707.33,21.5 708.41,21.5 709.49,21.5C710.57,21.5 711.64,21.5 712.72,21.49C713.8,21.48 714.87,21.47 715.95,21.46C717.03,21.45 718.11,21.44 719.19,21.42C720.27,21.4 721.34,21.37 722.42,21.32C723.5,21.27 724.57,21.21 725.65,21.14C726.73,21.06 727.81,20.98 728.89,20.87C729.97,20.76 731.04,20.64 732.12,20.5C733.2,20.36 734.27,20.2 735.35,20.05C736.43,19.89 737.51,19.72 738.59,19.57C739.67,19.42 740.74,19.27 741.82,19.15C742.9,19.03 743.97,18.92 745.05,18.85C746.13,18.78 747.21,18.73 748.29,18.71C749.37,18.69 750.44,18.71 751.52,18.75C752.6,18.79 753.67,18.86 754.75,18.94C755.83,19.02 756.91,19.12 757.99,19.23C759.07,19.33 760.14,19.45 761.22,19.57C762.3,19.69 763.37,19.81 764.45,19.93C765.53,20.05 766.61,20.17 767.69,20.28C768.77,20.39 769.84,20.5 770.92,20.6C772,20.7 773.07,20.79 774.15,20.87C775.23,20.95 776.31,21.03 777.39,21.1C778.47,21.16 779.54,21.22 780.62,21.26C781.7,21.31 782.78,21.34 783.86,21.37C784.94,21.4 786.01,21.42 787.09,21.44C788.17,21.46 789.24,21.46 790.32,21.47C791.4,21.48 792.48,21.48 793.56,21.49C794.64,21.49 795.71,21.5 796.79,21.5C797.87,21.5 798.94,21.5 800.02,21.5C801.1,21.5 802.18,21.5 803.26,21.5C804.34,21.5 805.41,21.5 806.49,21.5C807.57,21.5 808.64,21.5 809.72,21.5C810.8,21.5 811.88,21.5 812.96,21.5C814.04,21.5 815.11,21.5 816.19,21.5C817.27,21.5 818.34,21.5 819.42,21.5C820.5,21.5 821.58,21.5 822.66,21.5C823.74,21.5 824.81,21.5 825.89,21.5C826.97,21.5 828.04,21.5 829.12,21.5C830.2,21.5 831.28,21.5 832.36,21.5C833.44,21.5 834.51,21.5 835.59,21.5C836.67,21.5 837.74,21.5 838.82,21.5C839.9,21.5 840.98,21.5 842.06,21.5C843.14,21.5 844.21,21.5 845.29,21.5C846.37,21.5 847.45,21.5 848.53,21.5C849.61,21.5 850.68,21.5 851.76,21.5C852.84,21.5 853.91,21.5 854.99,21.5C856.07,21.5 857.15,21.5 858.23,21.5C859.31,21.5 860.38,21.5 861.46,21.5C862.54,21.5 863.61,21.5 864.69,21.5C865.77,21.5 866.85,21.5 867.93,21.5C869.01,21.5 870.08,21.5 871.16,21.5C872.24,21.5 873.31,21.5 874.39,21.5C875.47,21.5 876.55,21.5 877.63,21.5C878.71,21.5 879.78,21.5 880.86,21.5C881.94,21.5 883.01,21.5 884.09,21.5C885.17,21.5 886.25,21.5 887.33,21.5C888.41,21.5 889.48,21.5 890.56,21.5C891.64,21.5 892.71,21.5 893.79,21.5C894.87,21.5 895.95,21.5 897.03,21.5C898.11,21.5 899.18,21.5 900.26,21.5C901.34,21.5 902.41,21.5 903.49,21.5C904.57,21.5 905.65,21.5 906.73,21.5C907.81,21.5 908.88,21.5 909.96,21.5C911.04,21.5 912.12,21.5 913.2,21.5C914.28,21.5 915.35,21.5 916.43,21.5C917.51,21.5 918.58,21.5 919.66,21.5C920.74,21.5 921.82,21.5 922.9,21.5C923.98,21.5 925.05,21.5 926.13,21.5C927.21,21.5 928.28,21.5 929.36,21.5C930.44,21.5 931.52,21.5 932.6,21.5C933.68,21.5 934.75,21.5 935.83,21.5C936.91,21.5 937.98,21.5 939.06,21.5C940.14,21.5 941.22,21.5 942.3,21.5C943.38,21.5 944.45,21.5 945.53,21.5C946.61,21.5 947.68,21.5 948.76,21.5C949.84,21.5 950.92,21.5 952,21.5C953.08,21.5 954.15,21.5 955.23,21.5C956.31,21.5 957.38,21.5 958.46,21.5C959.54,21.5 960.62,21.5 961.7,21.5C962.78,21.5 963.85,21.5 964.93,21.5C966.01,21.5 967.08,21.5 968.16,21.5C969.24,21.5 970.32,21.5 971.4,21.5C972.48,21.5 973.55,21.5 974.63,21.5C975.71,21.5 976.79,21.5 977.87,21.5C978.95,21.5 980.02,21.5 981.1,21.5C982.18,21.5 983.25,21.5 984.33,21.5C985.41,21.5 986.49,21.5 987.57,21.5C988.65,21.5 989.72,21.49 990.8,21.49C991.88,21.49 992.95,21.49 994.03,21.48C995.11,21.47 996.19,21.46 997.27,21.45C998.35,21.44 999.42,21.42 1000.5,21.4C1001.58,21.38 1002.65,21.34 1003.73,21.31C1004.81,21.27 1005.89,21.23 1006.97,21.19C1008.05,21.15 1009.12,21.1 1010.2,21.05C1011.28,21 1012.35,20.94 1013.43,20.9C1014.51,20.86 1015.59,20.82 1016.67,20.79C1017.75,20.77 1018.82,20.75 1019.9,20.75C1020.98,20.75 1022.05,20.77 1023.13,20.79C1024.21,20.82 1025.29,20.86 1026.37,20.9C1027.45,20.94 1028.52,21 1029.6,21.05C1030.68,21.1 1031.75,21.15 1032.83,21.19C1033.91,21.23 1034.99,21.27 1036.07,21.31Q1037.15,21.34 1039.3,21.4L1039.3,21.6Q1037.15,21.66 1036.07,21.69C1034.99,21.73 1033.91,21.77 1032.83,21.81C1031.75,21.85 1030.68,21.9 1029.6,21.95C1028.52,22 1027.45,22.06 1026.37,22.1C1025.29,22.14 1024.21,22.18 1023.13,22.21C1022.05,22.23 1020.98,22.25 1019.9,22.25C1018.82,22.25 1017.75,22.23 1016.67,22.21C1015.59,22.18 1014.51,22.14 1013.43,22.1C1012.35,22.06 1011.28,22 1010.2,21.95C1009.12,21.9 1008.05,21.85 1006.97,21.81C1005.89,21.77 1004.81,21.73 1003.73,21.69C1002.65,21.66 1001.58,21.62 1000.5,21.6C999.42,21.58 998.35,21.56 997.27,21.55C996.19,21.54 995.11,21.53 994.03,21.52C992.95,21.51 991.88,21.51 990.8,21.51C989.72,21.51 988.65,21.5 987.57,21.5C986.49,21.5 985.41,21.5 984.33,21.5C983.25,21.5 982.18,21.5 981.1,21.5C980.02,21.5 978.95,21.5 977.87,21.5C976.79,21.5 975.71,21.5 974.63,21.5C973.55,21.5 972.48,21.5 971.4,21.5C970.32,21.5 969.24,21.5 968.16,21.5C967.08,21.5 966.01,21.5 964.93,21.5C963.85,21.5 962.78,21.5 961.7,21.5C960.62,21.5 959.54,21.5 958.46,21.5C957.38,21.5 956.31,21.5 955.23,21.5C954.15,21.5 953.08,21.5 952,21.5C950.92,21.5 949.84,21.5 948.76,21.5C947.68,21.5 946.61,21.5 945.53,21.5C944.45,21.5 943.38,21.5 942.3,21.5C941.22,21.5 940.14,21.5 939.06,21.5C937.98,21.5 936.91,21.5 935.83,21.5C934.75,21.5 933.68,21.5 932.6,21.5C931.52,21.5 930.44,21.5 929.36,21.5C928.28,21.5 927.21,21.5 926.13,21.5C925.05,21.5 923.98,21.5 922.9,21.5C921.82,21.5 920.74,21.5 919.66,21.5C918.58,21.5 917.51,21.5 916.43,21.5C915.35,21.5 914.28,21.5 913.2,21.5C912.12,21.5 911.04,21.5 909.96,21.5C908.88,21.5 907.81,21.5 906.73,21.5C905.65,21.5 904.57,21.5 903.49,21.5C902.41,21.5 901.34,21.5 900.26,21.5C899.18,21.5 898.11,21.5 897.03,21.5C895.95,21.5 894.87,21.5 893.79,21.5C892.71,21.5 891.64,21.5 890.56,21.5C889.48,21.5 888.41,21.5 887.33,21.5C886.25,21.5 885.17,21.5 884.09,21.5C883.01,21.5 881.94,21.5 880.86,21.5C879.78,21.5 878.71,21.5 877.63,21.5C876.55,21.5 875.47,21.5 874.39,21.5C873.31,21.5 872.24,21.5 871.16,21.5C870.08,21.5 869.01,21.5 867.93,21.5C866.85,21.5 865.77,21.5 864.69,21.5C863.61,21.5 862.54,21.5 861.46,21.5C860.38,21.5 859.31,21.5 858.23,21.5C857.15,21.5 856.07,21.5 854.99,21.5C853.91,21.5 852.84,21.5 851.76,21.5C850.68,21.5 849.61,21.5 848.53,21.5C847.45,21.5 846.37,21.5 845.29,21.5C844.21,21.5 843.14,21.5 842.06,21.5C840.98,21.5 839.9,21.5 838.82,21.5C837.74,21.5 836.67,21.5 835.59,21.5C834.51,21.5 833.44,21.5 832.36,21.5C831.28,21.5 830.2,21.5 829.12,21.5C828.04,21.5 826.97,21.5 825.89,21.5C824.81,21.5 823.74,21.5 822.66,21.5C821.58,21.5 820.5,21.5 819.42,21.5C818.34,21.5 817.27,21.5 816.19,21.5C815.11,21.5 814.04,21.5 812.96,21.5C811.88,21.5 810.8,21.5 809.72,21.5C808.64,21.5 807.57,21.5 806.49,21.5C805.41,21.5 804.34,21.5 803.26,21.5C802.18,21.5 801.1,21.5 800.02,21.5C798.94,21.5 797.87,21.5 796.79,21.5C795.71,21.5 794.64,21.51 793.56,21.51C792.48,21.52 791.4,21.52 790.32,21.53C789.24,21.54 788.17,21.54 787.09,21.56C786.01,21.58 784.94,21.6 783.86,21.63C782.78,21.66 781.7,21.69 780.62,21.74C779.54,21.78 778.47,21.84 777.39,21.9C776.31,21.97 775.23,22.05 774.15,22.13C773.07,22.21 772,22.3 770.92,22.4C769.84,22.5 768.77,22.61 767.69,22.72C766.61,22.83 765.53,22.95 764.45,23.07C763.37,23.19 762.3,23.31 761.22,23.43C760.14,23.55 759.07,23.67 757.99,23.77C756.91,23.88 755.83,23.98 754.75,24.06C753.67,24.14 752.6,24.21 751.52,24.25C750.44,24.29 749.37,24.31 748.29,24.29C747.21,24.27 746.13,24.22 745.05,24.15C743.97,24.08 742.9,23.97 741.82,23.85C740.74,23.73 739.67,23.58 738.59,23.43C737.51,23.28 736.43,23.11 735.35,22.95C734.27,22.8 733.2,22.64 732.12,22.5C731.04,22.36 729.97,22.24 728.89,22.13C727.81,22.02 726.73,21.94 725.65,21.86C724.57,21.79 723.5,21.73 722.42,21.68C721.34,21.63 720.27,21.6 719.19,21.58C718.11,21.56 717.03,21.55 715.95,21.54C714.87,21.53 713.8,21.52 712.72,21.51C711.64,21.5 710.57,21.5 709.49,21.5C708.41,21.5 707.33,21.5 706.25,21.5C705.17,21.5 704.1,21.5 703.02,21.5C701.94,21.5 700.86,21.5 699.78,21.5C698.7,21.5 697.63,21.5 696.55,21.5C695.47,21.5 694.4,21.5 693.32,21.5C692.24,21.5 691.16,21.5 690.08,21.5C689,21.5 687.93,21.5 686.85,21.5C685.77,21.5 684.7,21.5 683.62,21.5C682.54,21.5 681.46,21.5 680.38,21.5C679.3,21.5 678.23,21.5 677.15,21.5C676.07,21.5 675,21.5 673.92,21.5C672.84,21.5 671.76,21.5 670.68,21.5C669.6,21.5 668.53,21.5 667.45,21.5C666.37,21.5 665.3,21.5 664.22,21.5C663.14,21.5 662.06,21.5 660.98,21.5C659.9,21.5 658.83,21.5 657.75,21.5C656.67,21.5 655.6,21.5 654.52,21.5C653.44,21.5 652.36,21.5 651.28,21.5C650.2,21.5 649.13,21.5 648.05,21.5C646.97,21.5 645.9,21.5 644.82,21.5C643.74,21.5 642.66,21.5 641.58,21.5C640.5,21.5 639.43,21.5 638.35,21.5C637.27,21.5 636.19,21.5 635.11,21.5C634.03,21.5 632.96,21.5 631.88,21.5C630.8,21.5 629.73,21.5 628.65,21.5C627.57,21.5 626.49,21.5 625.41,21.5C624.33,21.5 623.26,21.5 622.18,21.5C621.1,21.5 620.03,21.5 618.95,21.5C617.87,21.5 616.79,21.5 615.71,21.5C614.63,21.5 613.56,21.5 612.48,21.5C611.4,21.5 610.33,21.5 609.25,21.5C608.17,21.5 607.09,21.5 606.01,21.5C604.93,21.5 603.86,21.5 602.78,21.5C601.7,21.5 600.63,21.5 599.55,21.5C598.47,21.5 597.39,21.5 596.31,21.5C595.23,21.5 594.16,21.5 593.08,21.5C592,21.5 590.93,21.5 589.85,21.5C588.77,21.5 587.69,21.5 586.61,21.5C585.53,21.5 584.46,21.5 583.38,21.5C582.3,21.5 581.23,21.5 580.15,21.5C579.07,21.5 577.99,21.5 576.91,21.5C575.83,21.5 574.76,21.5 573.68,21.5C572.6,21.5 571.52,21.5 570.44,21.5C569.36,21.5 568.29,21.5 567.21,21.5C566.13,21.5 565.06,21.5 563.98,21.5C562.9,21.5 561.82,21.5 560.74,21.5C559.66,21.5 558.59,21.5 557.51,21.5C556.43,21.5 555.36,21.5 554.28,21.5C553.2,21.5 552.12,21.5 551.04,21.5C549.96,21.5 548.89,21.5 547.81,21.5C546.73,21.5 545.66,21.5 544.58,21.5C543.5,21.5 542.42,21.5 541.34,21.5C540.26,21.5 539.19,21.5 538.11,21.5C537.03,21.5 535.96,21.5 534.88,21.5C533.8,21.5 532.72,21.5 531.64,21.5C530.56,21.5 529.49,21.5 528.41,21.5C527.33,21.5 526.26,21.5 525.18,21.5C524.1,21.5 523.02,21.5 521.94,21.5C520.86,21.5 519.79,21.5 518.71,21.5C517.63,21.5 516.56,21.5 515.48,21.5C514.4,21.5 513.32,21.5 512.24,21.5C511.16,21.5 510.09,21.5 509.01,21.5C507.93,21.5 506.86,21.5 505.78,21.5C504.7,21.5 503.62,21.5 502.54,21.5C501.46,21.5 500.39,21.5 499.31,21.5C498.23,21.5 497.15,21.5 496.07,21.5C494.99,21.5 493.92,21.5 492.84,21.5C491.76,21.5 490.69,21.5 489.61,21.5C488.53,21.5 487.45,21.5 486.37,21.5C485.29,21.5 484.22,21.5 483.14,21.5C482.06,21.5 480.99,21.5 479.91,21.5C478.83,21.5 477.75,21.5 476.67,21.5C475.59,21.5 474.52,21.5 473.44,21.5C472.36,21.5 471.29,21.5 470.21,21.5C469.13,21.5 468.05,21.5 466.97,21.5C465.89,21.5 464.82,21.5 463.74,21.5C462.66,21.5 461.59,21.5 460.51,21.5C459.43,21.5 458.35,21.5 457.27,21.5C456.19,21.5 455.12,21.5 454.04,21.5C452.96,21.5 451.89,21.5 450.81,21.5C449.73,21.5 448.65,21.5 447.57,21.5C446.49,21.5 445.42,21.5 444.34,21.5C443.26,21.5 442.19,21.5 441.11,21.5C440.03,21.5 438.95,21.5 437.87,21.5C436.79,21.5 435.72,21.5 434.64,21.5C433.56,21.5 432.48,21.5 431.4,21.5C430.32,21.5 429.25,21.5 428.17,21.5C427.09,21.5 426.02,21.5 424.94,21.5C423.86,21.5 422.78,21.5 421.7,21.5C420.62,21.5 419.55,21.5 418.47,21.5C417.39,21.5 416.32,21.5 415.24,21.5C414.16,21.5 413.08,21.5 412,21.5C410.92,21.5 409.85,21.5 408.77,21.5C407.69,21.5 406.62,21.5 405.54,21.5C404.46,21.5 403.38,21.5 402.3,21.5C401.22,21.5 400.15,21.5 399.07,21.5C397.99,21.5 396.92,21.5 395.84,21.5C394.76,21.5 393.68,21.5 392.6,21.5C391.52,21.5 390.45,21.5 389.37,21.5C388.29,21.5 387.22,21.5 386.14,21.5C385.06,21.5 383.98,21.5 382.9,21.5C381.82,21.5 380.75,21.5 379.67,21.5C378.59,21.5 377.52,21.5 376.44,21.5C375.36,21.5 374.28,21.5 373.2,21.5C372.12,21.5 371.05,21.5 369.97,21.5C368.89,21.5 367.81,21.5 366.73,21.5C365.65,21.5 364.58,21.5 363.5,21.5C362.42,21.5 361.35,21.5 360.27,21.5C359.19,21.5 358.11,21.5 357.03,21.5C355.95,21.5 354.88,21.5 353.8,21.5C352.72,21.5 351.65,21.5 350.57,21.5C349.49,21.5 348.41,21.5 347.33,21.5C346.25,21.5 345.18,21.5 344.1,21.5C343.02,21.5 341.95,21.5 340.87,21.5C339.79,21.5 338.71,21.5 337.63,21.5C336.55,21.5 335.48,21.5 334.4,21.5C333.32,21.5 332.25,21.5 331.17,21.5C330.09,21.5 329.01,21.5 327.93,21.5C326.85,21.5 325.78,21.5 324.7,21.5C323.62,21.5 322.55,21.5 321.47,21.5C320.39,21.5 319.31,21.5 318.23,21.5C317.15,21.5 316.08,21.5 315,21.5C313.92,21.5 312.85,21.5 311.77,21.5C310.69,21.5 309.61,21.5 308.53,21.5C307.45,21.5 306.38,21.5 305.3,21.5C304.22,21.5 303.14,21.5 302.06,21.5C300.98,21.5 299.91,21.5 298.83,21.5C297.75,21.5 296.68,21.5 295.6,21.5C294.52,21.5 293.44,21.5 292.36,21.5C291.28,21.5 290.21,21.5 289.13,21.5C288.05,21.5 286.98,21.5 285.9,21.5C284.82,21.5 283.74,21.5 282.66,21.5C281.58,21.5 280.51,21.5 279.43,21.5C278.35,21.5 277.28,21.5 276.2,21.5C275.12,21.5 274.04,21.5 272.96,21.5C271.88,21.5 270.81,21.5 269.73,21.5C268.65,21.5 267.58,21.5 266.5,21.5C265.42,21.5 264.34,21.5 263.26,21.5C262.18,21.5 261.11,21.5 260.03,21.5C258.95,21.5 257.88,21.5 256.8,21.5C255.72,21.5 254.64,21.5 253.56,21.5C252.48,21.5 251.41,21.5 250.33,21.5C249.25,21.5 248.18,21.5 247.1,21.5C246.02,21.5 244.94,21.5 243.86,21.5C242.78,21.5 241.71,21.5 240.63,21.5C239.55,21.5 238.48,21.5 237.4,21.5C236.32,21.5 235.24,21.5 234.16,21.5C233.08,21.5 232.01,21.5 230.93,21.5C229.85,21.5 228.77,21.5 227.69,21.5C226.61,21.5 225.54,21.5 224.46,21.5C223.38,21.5 222.31,21.5 221.23,21.5C220.15,21.5 219.07,21.5 217.99,21.5C216.91,21.5 215.84,21.5 214.76,21.5C213.68,21.5 212.61,21.5 211.53,21.5C210.45,21.5 209.37,21.5 208.29,21.5C207.21,21.5 206.14,21.5 205.06,21.5C203.98,21.5 202.91,21.5 201.83,21.5C200.75,21.5 199.67,21.5 198.59,21.5C197.51,21.5 196.44,21.5 195.36,21.5C194.28,21.5 193.21,21.5 192.13,21.5C191.05,21.5 189.97,21.5 188.89,21.5C187.81,21.5 186.74,21.5 185.66,21.5C184.58,21.5 183.51,21.5 182.43,21.5C181.35,21.5 180.27,21.5 179.19,21.5C178.11,21.5 177.04,21.5 175.96,21.5C174.88,21.5 173.81,21.5 172.73,21.5C171.65,21.5 170.57,21.5 169.49,21.5C168.41,21.5 167.34,21.5 166.26,21.5C165.18,21.5 164.1,21.5 163.02,21.5C161.94,21.5 160.87,21.5 159.79,21.5C158.71,21.5 157.64,21.5 156.56,21.5C155.48,21.5 154.4,21.5 153.32,21.5C152.24,21.5 151.17,21.5 150.09,21.5C149.01,21.5 147.94,21.5 146.86,21.5C145.78,21.5 144.7,21.5 143.62,21.5C142.54,21.5 141.47,21.5 140.39,21.5C139.31,21.5 138.24,21.5 137.16,21.5C136.08,21.5 135,21.5 133.92,21.5C132.84,21.5 131.77,21.5 130.69,21.5C129.61,21.5 128.54,21.51 127.46,21.51C126.38,21.51 125.3,21.51 124.22,21.52C123.14,21.52 122.07,21.53 120.99,21.54C119.91,21.55 118.84,21.57 117.76,21.59C116.68,21.61 115.6,21.64 114.52,21.67C113.44,21.7 112.37,21.74 111.29,21.79C110.21,21.84 109.14,21.89 108.06,21.95C106.98,22.01 105.9,22.07 104.82,22.13C103.74,22.19 102.67,22.25 101.59,22.31C100.51,22.37 99.43,22.44 98.35,22.51C97.27,22.58 96.2,22.65 95.12,22.75C94.04,22.85 92.96,22.95 91.89,23.1C90.81,23.25 89.72,23.43 88.65,23.67C87.57,23.91 86.49,24.19 85.42,24.53C84.33,24.88 83.26,25.28 82.19,25.74C81.1,26.21 80.02,26.74 78.95,27.3C77.86,27.87 76.79,28.51 75.72,29.16C74.64,29.82 73.57,30.54 72.49,31.23C71.41,31.93 70.34,32.67 69.25,33.33C68.18,33.98 67.12,34.64 66.02,35.15C64.96,35.64 63.88,36.12 62.79,36.35C61.73,36.58 60.62,36.67 59.55,36.55C58.46,36.43 57.37,36.06 56.32,35.6C55.21,35.11 54.14,34.36 53.09,33.62C51.99,32.84 50.92,31.89 49.85,31.01C48.77,30.12 47.71,29.16 46.62,28.3C45.56,27.46 44.49,26.62 43.39,25.91C42.33,25.23 41.25,24.61 40.15,24.1C39.09,23.61 38.01,23.22 36.92,22.9C35.85,22.58 34.76,22.36 33.68,22.18Q32.61,22 30.45,21.8Z" style="vector-effect: none; stroke-width: 2px; stroke: rgb(181, 181, 181); stroke-opacity: 1; fill: rgb(181, 181, 181); fill-opacity: 1;"/><path class="box" d="M59.84,25.26V17.74M58.01,25.26V17.74H77.82V25.26ZM58.01,21.5H49.85M77.82,21.5H97.84" style="vector-effect: non-scaling-stroke; stroke-width: 2px; stroke: rgb(181, 181, 181); stroke-opacity: 1; fill: rgb(181, 181, 181); fill-opacity: 1;"/><path class="mean" d="M201.03,25.26V17.74" style="fill: none; vector-effect: non-scaling-stroke; stroke-width: 2px; stroke-dasharray: 4px, 2px; stroke: rgb(181, 181, 181); stroke-opacity: 1;"/></g></g><g class="scatterlayer mlayer"><g class="trace scatter traceaa8317" style="stroke-miterlimit: 2; opacity: 1;"><g class="fills"/><g class="errorbars"/><g class="lines"/><g class="points"><path class="point" transform="translate(49.85,21.5)" d="M2,0A2,2 0 1,1 0,-2A2,2 0 0,1 2,0Z" style="opacity: 1; stroke-width: 0px; fill: rgb(11, 121, 230); fill-opacity: 1;"/></g><g class="text"/></g><g class="trace scatter trace92a229" style="stroke-miterlimit: 2; opacity: 1;"><g class="fills"/><g class="errorbars"/><g class="lines"/><g class="points"><path class="point" transform="translate(751.59,21.5)" d="M2,0A2,2 0 1,1 0,-2A2,2 0 0,1 2,0Z" style="opacity: 1; stroke-width: 0px; fill: rgb(11, 121, 230); fill-opacity: 1;"/></g><g class="text"/></g><g class="trace scatter tracec384b8" style="stroke-miterlimit: 2; opacity: 1;"><g class="fills"/><g class="errorbars"/><g class="lines"/><g class="points"><path class="point" transform="translate(742.58,21.5)" d="M2,0A2,2 0 1,1 0,-2A2,2 0 0,1 2,0Z" style="opacity: 1; stroke-width: 0px; fill: rgb(11, 121, 230); fill-opacity: 1;"/></g><g class="text"/></g><g class="trace scatter traceee39b6" style="stroke-miterlimit: 2; opacity: 1;"><g class="fills"/><g class="errorbars"/><g class="lines"/><g class="points"><path class="point" transform="translate(753.46,21.5)" d="M2,0A2,2 0 1,1 0,-2A2,2 0 0,1 2,0Z" style="opacity: 1; stroke-width: 0px; fill: rgb(11, 121, 230); fill-opacity: 1;"/></g><g class="text"/></g><g class="trace scatter tracee00731" style="stroke-miterlimit: 2; opacity: 1;"><g class="fills"/><g class="errorbars"/><g class="lines"/><g class="points"><path class="point" transform="translate(56.63,21.5)" d="M2,0A2,2 0 1,1 0,-2A2,2 0 0,1 2,0Z" style="opacity: 1; stroke-width: 0px; fill: rgb(11, 121, 230); fill-opacity: 1;"/></g><g class="text"/></g><g class="trace scatter trace779a4c" style="stroke-miterlimit: 2; opacity: 1;"><g class="fills"/><g class="errorbars"/><g class="lines"/><g class="points"><path class="point" transform="translate(58.15,21.5)" d="M2,0A2,2 0 1,1 0,-2A2,2 0 0,1 2,0Z" style="opacity: 1; stroke-width: 0px; fill: rgb(11, 121, 230); fill-opacity: 1;"/></g><g class="text"/></g><g class="trace scatter tracec2a0d7" style="stroke-miterlimit: 2; opacity: 1;"><g class="fills"/><g class="errorbars"/><g class="lines"/><g class="points"><path class="point" transform="translate(742.76,21.5)" d="M2,0A2,2 0 1,1 0,-2A2,2 0 0,1 2,0Z" style="opacity: 1; stroke-width: 0px; fill: rgb(11, 121, 230); fill-opacity: 1;"/></g><g class="text"/></g><g class="trace scatter traceb1f72f" style="stroke-miterlimit: 2; opacity: 1;"><g class="fills"/><g class="errorbars"/><g class="lines"/><g class="points"><path class="point" transform="translate(58.24,21.5)" d="M2,0A2,2 0 1,1 0,-2A2,2 0 0,1 2,0Z" style="opacity: 1; stroke-width: 0px; fill: rgb(11, 121, 230); fill-opacity: 1;"/></g><g class="text"/></g><g class="trace scatter tracedc2b0b" style="stroke-miterlimit: 2; opacity: 1;"><g class="fills"/><g class="errorbars"/><g class="lines"/><g class="points"><path class="point" transform="translate(56.99,21.5)" d="M2,0A2,2 0 1,1 0,-2A2,2 0 0,1 2,0Z" style="opacity: 1; stroke-width: 0px; fill: rgb(11, 121, 230); fill-opacity: 1;"/></g><g class="text"/></g><g class="trace scatter trace279a1d" style="stroke-miterlimit: 2; opacity: 1;"><g class="fills"/><g class="errorbars"/><g class="lines"/><g class="points"><path class="point" transform="translate(57.79,21.5)" d="M2,0A2,2 0 1,1 0,-2A2,2 0 0,1 2,0Z" style="opacity: 1; stroke-width: 0px; fill: rgb(11, 121, 230); fill-opacity: 1;"/></g><g class="text"/></g><g class="trace scatter traced382df" style="stroke-miterlimit: 2; opacity: 1;"><g class="fills"/><g class="errorbars"/><g class="lines"/><g class="points"><path class="point" transform="translate(765.24,21.5)" d="M2,0A2,2 0 1,1 0,-2A2,2 0 0,1 2,0Z" style="opacity: 1; stroke-width: 0px; fill: rgb(11, 121, 230); fill-opacity: 1;"/></g><g class="text"/></g><g class="trace scatter traceafa6e6" style="stroke-miterlimit: 2; opacity: 1;"><g class="fills"/><g class="errorbars"/><g class="lines"/><g class="points"><path class="point" transform="translate(57.88,21.5)" d="M2,0A2,2 0 1,1 0,-2A2,2 0 0,1 2,0Z" style="opacity: 1; stroke-width: 0px; fill: rgb(11, 121, 230); fill-opacity: 1;"/></g><g class="text"/></g><g class="trace scatter trace2b34ee" style="stroke-miterlimit: 2; opacity: 1;"><g class="fills"/><g class="errorbars"/><g class="lines"/><g class="points"><path class="point" transform="translate(57.97,21.5)" d="M2,0A2,2 0 1,1 0,-2A2,2 0 0,1 2,0Z" style="opacity: 1; stroke-width: 0px; fill: rgb(11, 121, 230); fill-opacity: 1;"/></g><g class="text"/></g><g class="trace scatter tracee5ddc1" style="stroke-miterlimit: 2; opacity: 1;"><g class="fills"/><g class="errorbars"/><g class="lines"/><g class="points"><path class="point" transform="translate(58.24,21.5)" d="M2,0A2,2 0 1,1 0,-2A2,2 0 0,1 2,0Z" style="opacity: 1; stroke-width: 0px; fill: rgb(11, 121, 230); fill-opacity: 1;"/></g><g class="text"/></g><g class="trace scatter trace04b65e" style="stroke-miterlimit: 2; opacity: 1;"><g class="fills"/><g class="errorbars"/><g class="lines"/><g class="points"><path class="point" transform="translate(68.05,21.5)" d="M2,0A2,2 0 1,1 0,-2A2,2 0 0,1 2,0Z" style="opacity: 1; stroke-width: 0px; fill: rgb(11, 121, 230); fill-opacity: 1;"/></g><g class="text"/></g><g class="trace scatter trace8d1621" style="stroke-miterlimit: 2; opacity: 1;"><g class="fills"/><g class="errorbars"/><g class="lines"/><g class="points"><path class="point" transform="translate(68.14,21.5)" d="M2,0A2,2 0 1,1 0,-2A2,2 0 0,1 2,0Z" style="opacity: 1; stroke-width: 0px; fill: rgb(11, 121, 230); fill-opacity: 1;"/></g><g class="text"/></g><g class="trace scatter trace735b37" style="stroke-miterlimit: 2; opacity: 1;"><g class="fills"/><g class="errorbars"/><g class="lines"/><g class="points"><path class="point" transform="translate(58.06,21.5)" d="M2,0A2,2 0 1,1 0,-2A2,2 0 0,1 2,0Z" style="opacity: 1; stroke-width: 0px; fill: rgb(11, 121, 230); fill-opacity: 1;"/></g><g class="text"/></g><g class="trace scatter trace556c4a" style="stroke-miterlimit: 2; opacity: 1;"><g class="fills"/><g class="errorbars"/><g class="lines"/><g class="points"><path class="point" transform="translate(57.88,21.5)" d="M2,0A2,2 0 1,1 0,-2A2,2 0 0,1 2,0Z" style="opacity: 1; stroke-width: 0px; fill: rgb(11, 121, 230); fill-opacity: 1;"/></g><g class="text"/></g><g class="trace scatter trace426f23" style="stroke-miterlimit: 2; opacity: 1;"><g class="fills"/><g class="errorbars"/><g class="lines"/><g class="points"><path class="point" transform="translate(72.69,21.5)" d="M2,0A2,2 0 1,1 0,-2A2,2 0 0,1 2,0Z" style="opacity: 1; stroke-width: 0px; fill: rgb(11, 121, 230); fill-opacity: 1;"/></g><g class="text"/></g><g class="trace scatter traced18c94" style="stroke-miterlimit: 2; opacity: 1;"><g class="fills"/><g class="errorbars"/><g class="lines"/><g class="points"><path class="point" transform="translate(1019.9,21.5)" d="M2,0A2,2 0 1,1 0,-2A2,2 0 0,1 2,0Z" style="opacity: 1; stroke-width: 0px; fill: rgb(11, 121, 230); fill-opacity: 1;"/></g><g class="text"/></g><g class="trace scatter tracefffaa0" style="stroke-miterlimit: 2; opacity: 1;"><g class="fills"/><g class="errorbars"/><g class="lines"/><g class="points"><path class="point" transform="translate(71.71,21.5)" d="M2,0A2,2 0 1,1 0,-2A2,2 0 0,1 2,0Z" style="opacity: 1; stroke-width: 0px; fill: rgb(11, 121, 230); fill-opacity: 1;"/></g><g class="text"/></g><g class="trace scatter trace824e14" style="stroke-miterlimit: 2; opacity: 1;"><g class="fills"/><g class="errorbars"/><g class="lines"/><g class="points"><path class="point" transform="translate(59.13,21.5)" d="M2,0A2,2 0 1,1 0,-2A2,2 0 0,1 2,0Z" style="opacity: 1; stroke-width: 0px; fill: rgb(11, 121, 230); fill-opacity: 1;"/></g><g class="text"/></g><g class="trace scatter trace6b81d7" style="stroke-miterlimit: 2; opacity: 1;"><g class="fills"/><g class="errorbars"/><g class="lines"/><g class="points"><path class="point" transform="translate(59.66,21.5)" d="M2,0A2,2 0 1,1 0,-2A2,2 0 0,1 2,0Z" style="opacity: 1; stroke-width: 0px; fill: rgb(11, 121, 230); fill-opacity: 1;"/></g><g class="text"/></g><g class="trace scatter tracedb0b4c" style="stroke-miterlimit: 2; opacity: 1;"><g class="fills"/><g class="errorbars"/><g class="lines"/><g class="points"><path class="point" transform="translate(58.86,21.5)" d="M2,0A2,2 0 1,1 0,-2A2,2 0 0,1 2,0Z" style="opacity: 1; stroke-width: 0px; fill: rgb(11, 121, 230); fill-opacity: 1;"/></g><g class="text"/></g><g class="trace scatter traceb8ac36" style="stroke-miterlimit: 2; opacity: 1;"><g class="fills"/><g class="errorbars"/><g class="lines"/><g class="points"><path class="point" transform="translate(59.75,21.5)" d="M2,0A2,2 0 1,1 0,-2A2,2 0 0,1 2,0Z" style="opacity: 1; stroke-width: 0px; fill: rgb(11, 121, 230); fill-opacity: 1;"/></g><g class="text"/></g><g class="trace scatter trace162f60" style="stroke-miterlimit: 2; opacity: 1;"><g class="fills"/><g class="errorbars"/><g class="lines"/><g class="points"><path class="point" transform="translate(59.93,21.5)" d="M2,0A2,2 0 1,1 0,-2A2,2 0 0,1 2,0Z" style="opacity: 1; stroke-width: 0px; fill: rgb(11, 121, 230); fill-opacity: 1;"/></g><g class="text"/></g><g class="trace scatter trace421bb2" style="stroke-miterlimit: 2; opacity: 1;"><g class="fills"/><g class="errorbars"/><g class="lines"/><g class="points"><path class="point" transform="translate(67.69,21.5)" d="M2,0A2,2 0 1,1 0,-2A2,2 0 0,1 2,0Z" style="opacity: 1; stroke-width: 0px; fill: rgb(11, 121, 230); fill-opacity: 1;"/></g><g class="text"/></g><g class="trace scatter trace42e79f" style="stroke-miterlimit: 2; opacity: 1;"><g class="fills"/><g class="errorbars"/><g class="lines"/><g class="points"><path class="point" transform="translate(80.36,21.5)" d="M2,0A2,2 0 1,1 0,-2A2,2 0 0,1 2,0Z" style="opacity: 1; stroke-width: 0px; fill: rgb(11, 121, 230); fill-opacity: 1;"/></g><g class="text"/></g><g class="trace scatter tracef24021" style="stroke-miterlimit: 2; opacity: 1;"><g class="fills"/><g class="errorbars"/><g class="lines"/><g class="points"><path class="point" transform="translate(97.84,21.5)" d="M2,0A2,2 0 1,1 0,-2A2,2 0 0,1 2,0Z" style="opacity: 1; stroke-width: 0px; fill: rgb(11, 121, 230); fill-opacity: 1;"/></g><g class="text"/></g><g class="trace scatter trace4f167f" style="stroke-miterlimit: 2; opacity: 1;"><g class="fills"/><g class="errorbars"/><g class="lines"/><g class="points"><path class="point" transform="translate(72.87,21.5)" d="M2,0A2,2 0 1,1 0,-2A2,2 0 0,1 2,0Z" style="opacity: 1; stroke-width: 0px; fill: rgb(11, 121, 230); fill-opacity: 1;"/></g><g class="text"/></g><g class="trace scatter tracefe9ab7" style="stroke-miterlimit: 2; opacity: 1;"><g class="fills"/><g class="errorbars"/><g class="lines"/><g class="points"><path class="point" transform="translate(75.27,21.5)" d="M2,0A2,2 0 1,1 0,-2A2,2 0 0,1 2,0Z" style="opacity: 1; stroke-width: 0px; fill: rgb(11, 121, 230); fill-opacity: 1;"/></g><g class="text"/></g><g class="trace scatter trace9f202b" style="stroke-miterlimit: 2; opacity: 1;"><g class="fills"/><g class="errorbars"/><g class="lines"/><g class="points"><path class="point" transform="translate(57.79,21.5)" d="M2,0A2,2 0 1,1 0,-2A2,2 0 0,1 2,0Z" style="opacity: 1; stroke-width: 0px; fill: rgb(11, 121, 230); fill-opacity: 1;"/></g><g class="text"/></g></g></g></g><path class="xlines-above crisp" d="M0,0" style="fill: none;"/><path class="ylines-above crisp" d="M0,0" style="fill: none;"/><g class="overlines-above"/><g class="xaxislayer-above"><g class="xtick"><text text-anchor="middle" x="0" y="103" transform="translate(65.07,0)" style="font-family: 'Lucida Grande', 'Open Sans', verdana, arial, sans-serif; font-size: 9px; fill: rgb(0, 0, 0); fill-opacity: 0.5; white-space: pre; opacity: 1;">0</text></g><g class="xtick"><text text-anchor="middle" x="0" y="103" style="font-family: 'Lucida Grande', 'Open Sans', verdana, arial, sans-serif; font-size: 9px; fill: rgb(0, 0, 0); fill-opacity: 0.5; white-space: pre; opacity: 1;" transform="translate(243.47,0)">2k</text></g><g class="xtick"><text text-anchor="middle" x="0" y="103" style="font-family: 'Lucida Grande', 'Open Sans', verdana, arial, sans-serif; font-size: 9px; fill: rgb(0, 0, 0); fill-opacity: 0.5; white-space: pre; opacity: 1;" transform="translate(421.87,0)">4k</text></g><g class="xtick"><text text-anchor="middle" x="0" y="103" style="font-family: 'Lucida Grande', 'Open Sans', verdana, arial, sans-serif; font-size: 9px; fill: rgb(0, 0, 0); fill-opacity: 0.5; white-space: pre; opacity: 1;" transform="translate(600.27,0)">6k</text></g><g class="xtick"><text text-anchor="middle" x="0" y="103" style="font-family: 'Lucida Grande', 'Open Sans', verdana, arial, sans-serif; font-size: 9px; fill: rgb(0, 0, 0); fill-opacity: 0.5; white-space: pre; opacity: 1;" transform="translate(778.67,0)">8k</text></g><g class="xtick"><text text-anchor="middle" x="0" y="103" style="font-family: 'Lucida Grande', 'Open Sans', verdana, arial, sans-serif; font-size: 9px; fill: rgb(0, 0, 0); fill-opacity: 0.5; white-space: pre; opacity: 1;" transform="translate(957.07,0)">10k</text></g></g><g class="yaxislayer-above"><g class="ytick"><text text-anchor="end" x="59" y="3.15" transform="translate(0,71.5)" style="font-family: 'Lucida Grande', 'Open Sans', verdana, arial, sans-serif; font-size: 9px; fill: rgb(0, 0, 0); fill-opacity: 0.5; white-space: pre; opacity: 1;">Nodes  </text></g></g><g class="overaxes-above"/></g></g><g class="polarlayer"/><g class="smithlayer"/><g class="ternarylayer"/><g class="geolayer"/><g class="funnelarealayer"/><g class="pielayer"/><g class="iciclelayer"/><g class="treemaplayer"/><g class="sunburstlayer"/><g class="glimages"/><defs id="topdefs-844b08"><g class="clips"/></defs><g class="layer-above"><g class="imagelayer"/><g class="shapelayer"/></g><g class="infolayer"><g class="g-gtitle"><text class="gtitle" x="550" y="25" text-anchor="middle" dy="0em" style="opacity: 1; font-family: 'Lucida Grande', 'Open Sans', verdana, arial, sans-serif; font-size: 20px; fill: rgb(42, 63, 95); fill-opacity: 1; white-space: pre;"><tspan class="line" dy="0em" x="550" y="25">Too many nodes vor Drugst.One.</tspan><tspan class="line" dy="1.3em" x="550" y="25">​<tspan style="font-size:70%" dy="-0.6em">32 samples</tspan><tspan dy="0.42em">​</tspan></tspan></text></g><g class="g-xtitle"/><g class="g-ytitle"/></g></svg>