<svg class="main-svg" xmlns="http://www.w3.org/2000/svg" xmlns:xlink="http://www.w3.org/1999/xlink" width="2200" height="1106" style="" viewBox="0 0 1100 553"><rect x="0" y="0" width="1100" height="553" style="fill: rgb(255, 255, 255); fill-opacity: 1;"/><defs id="defs-a04e5b"><g class="clips"><clipPath id="clipa04e5bxyplot" class="plotclip"><rect width="979" height="42.09090909090905"/></clipPath><clipPath id="clipa04e5bx2y2plot" class="plotclip"><rect width="979" height="42.09090909090911"/></clipPath><clipPath id="clipa04e5bx3y3plot" class="plotclip"><rect width="979" height="42.09090909090911"/></clipPath><clipPath id="clipa04e5bx4y4plot" class="plotclip"><rect width="979" height="42.09090909090911"/></clipPath><clipPath id="clipa04e5bx5y5plot" class="plotclip"><rect width="979" height="42.09090909090908"/></clipPath><clipPath id="clipa04e5bx6y6plot" class="plotclip"><rect width="979" height="42.09090909090909"/></clipPath><clipPath id="clipa04e5bx7y7plot" class="plotclip"><rect width="979" height="42.09090909090909"/></clipPath><clipPath class="axesclip" id="clipa04e5bx"><rect x="106" y="0" width="979" height="553"/></clipPath><clipPath class="axesclip" id="clipa04e5by"><rect x="0" y="50" width="1100" height="42.09090909090905"/></clipPath><clipPath class="axesclip" id="clipa04e5bxy"><rect x="106" y="50" width="979" height="42.09090909090905"/></clipPath><clipPath class="axesclip" id="clipa04e5by2"><rect x="0" y="120.15151515151514" width="1100" height="42.09090909090911"/></clipPath><clipPath class="axesclip" id="clipa04e5bxy2"><rect x="106" y="120.15151515151514" width="979" height="42.09090909090911"/></clipPath><clipPath class="axesclip" id="clipa04e5by3"><rect x="0" y="190.30303030303028" width="1100" height="42.09090909090911"/></clipPath><clipPath class="axesclip" id="clipa04e5bxy3"><rect x="106" y="190.30303030303028" width="979" height="42.09090909090911"/></clipPath><clipPath class="axesclip" id="clipa04e5by4"><rect x="0" y="260.4545454545454" width="1100" height="42.09090909090911"/></clipPath><clipPath class="axesclip" id="clipa04e5bxy4"><rect x="106" y="260.4545454545454" width="979" height="42.09090909090911"/></clipPath><clipPath class="axesclip" id="clipa04e5by5"><rect x="0" y="330.6060606060606" width="1100" height="42.09090909090908"/></clipPath><clipPath class="axesclip" id="clipa04e5bxy5"><rect x="106" y="330.6060606060606" width="979" height="42.09090909090908"/></clipPath><clipPath class="axesclip" id="clipa04e5by6"><rect x="0" y="400.75757575757575" width="1100" height="42.09090909090909"/></clipPath><clipPath class="axesclip" id="clipa04e5bxy6"><rect x="106" y="400.75757575757575" width="979" height="42.09090909090909"/></clipPath><clipPath class="axesclip" id="clipa04e5by7"><rect x="0" y="470.9090909090909" width="1100" height="42.09090909090909"/></clipPath><clipPath class="axesclip" id="clipa04e5bxy7"><rect x="106" y="470.9090909090909" width="979" height="42.09090909090909"/></clipPath><clipPath class="axesclip" id="clipa04e5bx2"><rect x="106" y="0" width="979" height="553"/></clipPath><clipPath class="axesclip" id="clipa04e5bx2y"><rect x="106" y="50" width="979" height="42.09090909090905"/></clipPath><clipPath class="axesclip" id="clipa04e5bx2y2"><rect x="106" y="120.15151515151514" width="979" height="42.09090909090911"/></clipPath><clipPath class="axesclip" id="clipa04e5bx2y3"><rect x="106" y="190.30303030303028" width="979" height="42.09090909090911"/></clipPath><clipPath class="axesclip" id="clipa04e5bx2y4"><rect x="106" y="260.4545454545454" width="979" height="42.09090909090911"/></clipPath><clipPath class="axesclip" id="clipa04e5bx2y5"><rect x="106" y="330.6060606060606" width="979" height="42.09090909090908"/></clipPath><clipPath class="axesclip" id="clipa04e5bx2y6"><rect x="106" y="400.75757575757575" width="979" height="42.09090909090909"/></clipPath><clipPath class="axesclip" id="clipa04e5bx2y7"><rect x="106" y="470.9090909090909" width="979" height="42.09090909090909"/></clipPath><clipPath class="axesclip" id="clipa04e5bx3"><rect x="106" y="0" width="979" height="553"/></clipPath><clipPath class="axesclip" id="clipa04e5bx3y"><rect x="106" y="50" width="979" height="42.09090909090905"/></clipPath><clipPath class="axesclip" id="clipa04e5bx3y2"><rect x="106" y="120.15151515151514" width="979" height="42.09090909090911"/></clipPath><clipPath class="axesclip" id="clipa04e5bx3y3"><rect x="106" y="190.30303030303028" width="979" height="42.09090909090911"/></clipPath><clipPath class="axesclip" id="clipa04e5bx3y4"><rect x="106" y="260.4545454545454" width="979" height="42.09090909090911"/></clipPath><clipPath class="axesclip" id="clipa04e5bx3y5"><rect x="106" y="330.6060606060606" width="979" height="42.09090909090908"/></clipPath><clipPath class="axesclip" id="clipa04e5bx3y6"><rect x="106" y="400.75757575757575" width="979" height="42.09090909090909"/></clipPath><clipPath class="axesclip" id="clipa04e5bx3y7"><rect x="106" y="470.9090909090909" width="979" height="42.09090909090909"/></clipPath><clipPath class="axesclip" id="clipa04e5bx4"><rect x="106" y="0" width="979" height="553"/></clipPath><clipPath class="axesclip" id="clipa04e5bx4y"><rect x="106" y="50" width="979" height="42.09090909090905"/></clipPath><clipPath class="axesclip" id="clipa04e5bx4y2"><rect x="106" y="120.15151515151514" width="979" height="42.09090909090911"/></clipPath><clipPath class="axesclip" id="clipa04e5bx4y3"><rect x="106" y="190.30303030303028" width="979" height="42.09090909090911"/></clipPath><clipPath class="axesclip" id="clipa04e5bx4y4"><rect x="106" y="260.4545454545454" width="979" height="42.09090909090911"/></clipPath><clipPath class="axesclip" id="clipa04e5bx4y5"><rect x="106" y="330.6060606060606" width="979" height="42.09090909090908"/></clipPath><clipPath class="axesclip" id="clipa04e5bx4y6"><rect x="106" y="400.75757575757575" width="979" height="42.09090909090909"/></clipPath><clipPath class="axesclip" id="clipa04e5bx4y7"><rect x="106" y="470.9090909090909" width="979" height="42.09090909090909"/></clipPath><clipPath class="axesclip" id="clipa04e5bx5"><rect x="106" y="0" width="979" height="553"/></clipPath><clipPath class="axesclip" id="clipa04e5bx5y"><rect x="106" y="50" width="979" height="42.09090909090905"/></clipPath><clipPath class="axesclip" id="clipa04e5bx5y2"><rect x="106" y="120.15151515151514" width="979" height="42.09090909090911"/></clipPath><clipPath class="axesclip" id="clipa04e5bx5y3"><rect x="106" y="190.30303030303028" width="979" height="42.09090909090911"/></clipPath><clipPath class="axesclip" id="clipa04e5bx5y4"><rect x="106" y="260.4545454545454" width="979" height="42.09090909090911"/></clipPath><clipPath class="axesclip" id="clipa04e5bx5y5"><rect x="106" y="330.6060606060606" width="979" height="42.09090909090908"/></clipPath><clipPath class="axesclip" id="clipa04e5bx5y6"><rect x="106" y="400.75757575757575" width="979" height="42.09090909090909"/></clipPath><clipPath class="axesclip" id="clipa04e5bx5y7"><rect x="106" y="470.9090909090909" width="979" height="42.09090909090909"/></clipPath><clipPath class="axesclip" id="clipa04e5bx6"><rect x="106" y="0" width="979" height="553"/></clipPath><clipPath class="axesclip" id="clipa04e5bx6y"><rect x="106" y="50" width="979" height="42.09090909090905"/></clipPath><clipPath class="axesclip" id="clipa04e5bx6y2"><rect x="106" y="120.15151515151514" width="979" height="42.09090909090911"/></clipPath><clipPath class="axesclip" id="clipa04e5bx6y3"><rect x="106" y="190.30303030303028" width="979" height="42.09090909090911"/></clipPath><clipPath class="axesclip" id="clipa04e5bx6y4"><rect x="106" y="260.4545454545454" width="979" height="42.09090909090911"/></clipPath><clipPath class="axesclip" id="clipa04e5bx6y5"><rect x="106" y="330.6060606060606" width="979" height="42.09090909090908"/></clipPath><clipPath class="axesclip" id="clipa04e5bx6y6"><rect x="106" y="400.75757575757575" width="979" height="42.09090909090909"/></clipPath><clipPath class="axesclip" id="clipa04e5bx6y7"><rect x="106" y="470.9090909090909" width="979" height="42.09090909090909"/></clipPath><clipPath class="axesclip" id="clipa04e5bx7"><rect x="106" y="0" width="979" height="553"/></clipPath><clipPath class="axesclip" id="clipa04e5bx7y"><rect x="106" y="50" width="979" height="42.09090909090905"/></clipPath><clipPath class="axesclip" id="clipa04e5bx7y2"><rect x="106" y="120.15151515151514" width="979" height="42.09090909090911"/></clipPath><clipPath class="axesclip" id="clipa04e5bx7y3"><rect x="106" y="190.30303030303028" width="979" height="42.09090909090911"/></clipPath><clipPath class="axesclip" id="clipa04e5bx7y4"><rect x="106" y="260.4545454545454" width="979" height="42.09090909090911"/></clipPath><clipPath class="axesclip" id="clipa04e5bx7y5"><rect x="106" y="330.6060606060606" width="979" height="42.09090909090908"/></clipPath><clipPath class="axesclip" id="clipa04e5bx7y6"><rect x="106" y="400.75757575757575" width="979" height="42.09090909090909"/></clipPath><clipPath class="axesclip" id="clipa04e5bx7y7"><rect x="106" y="470.9090909090909" width="979" height="42.09090909090909"/></clipPath></g><g class="gradients"/><g class="patterns"/></defs><g class="bglayer"/><g class="layer-below"><g class="imagelayer"/><g class="shapelayer"/></g><g class="cartesianlayer"><g class="subplot xy"><g class="layer-subplot"><g class="shapelayer"/><g class="imagelayer"/></g><g class="minor-gridlayer"><g class="x"/><g class="y"/></g><g class="gridlayer"><g class="x"><path class="xgrid crisp" transform="translate(220.57999999999998,0)" d="M0,50v42.09090909090905" style="stroke: rgb(0, 0, 0); stroke-opacity: 0.1; stroke-width: 1px;"/><path class="xgrid crisp" transform="translate(330.31,0)" d="M0,50v42.09090909090905" style="stroke: rgb(0, 0, 0); stroke-opacity: 0.1; stroke-width: 1px;"/><path class="xgrid crisp" transform="translate(440.05,0)" d="M0,50v42.09090909090905" style="stroke: rgb(0, 0, 0); stroke-opacity: 0.1; stroke-width: 1px;"/><path class="xgrid crisp" transform="translate(549.78,0)" d="M0,50v42.09090909090905" style="stroke: rgb(0, 0, 0); stroke-opacity: 0.1; stroke-width: 1px;"/><path class="xgrid crisp" transform="translate(659.52,0)" d="M0,50v42.09090909090905" style="stroke: rgb(0, 0, 0); stroke-opacity: 0.1; stroke-width: 1px;"/><path class="xgrid crisp" transform="translate(769.25,0)" d="M0,50v42.09090909090905" style="stroke: rgb(0, 0, 0); stroke-opacity: 0.1; stroke-width: 1px;"/><path class="xgrid crisp" transform="translate(878.99,0)" d="M0,50v42.09090909090905" style="stroke: rgb(0, 0, 0); stroke-opacity: 0.1; stroke-width: 1px;"/><path class="xgrid crisp" transform="translate(988.72,0)" d="M0,50v42.09090909090905" style="stroke: rgb(0, 0, 0); stroke-opacity: 0.1; stroke-width: 1px;"/></g><g class="y"><path class="ygrid crisp" transform="translate(0,71.05)" d="M106,0h979" style="stroke: rgb(0, 0, 0); stroke-opacity: 0.1; stroke-width: 1px;"/></g></g><g class="zerolinelayer"><path class="xzl zl crisp" transform="translate(110.85,0)" d="M0,50v42.09090909090905" style="stroke: rgb(0, 0, 0); stroke-opacity: 0.1; stroke-width: 2px;"/></g><g class="layer-between"><g class="shapelayer"/><g class="imagelayer"/></g><path class="xlines-below"/><path class="ylines-below"/><g class="overlines-below"/><g class="xaxislayer-below"/><g class="yaxislayer-below"/><g class="overaxes-below"/><g class="overplot"><g class="xy" transform="translate(106,50)" clip-path="url(#clipa04e5bxyplot)"><g class="violinlayer mlayer"><g class="trace violins" style="opacity: 0.5;"><path class="violin" d="M628.03,20.05Q630.22,19.49 631.3,19.09C632.41,18.68 633.5,18.17 634.57,17.58C635.68,16.97 636.76,16.25 637.83,15.49C638.94,14.71 640.01,13.81 641.1,12.96C642.19,12.1 643.27,11.17 644.37,10.35C645.44,9.56 646.51,8.74 647.63,8.12C648.69,7.53 649.79,7 650.9,6.7C651.97,6.41 653.08,6.27 654.17,6.31C655.26,6.35 656.36,6.61 657.43,6.94C658.54,7.28 659.63,7.8 660.7,8.33C661.8,8.87 662.88,9.53 663.96,10.17C665.06,10.82 666.14,11.51 667.23,12.18C668.32,12.84 669.41,13.52 670.5,14.16C671.58,14.79 672.66,15.41 673.76,15.98C674.84,16.54 675.93,17.08 677.03,17.55C678.11,18.01 679.2,18.44 680.3,18.8C681.38,19.16 682.47,19.46 683.56,19.72C684.64,19.97 685.74,20.17 686.83,20.33C687.92,20.49 689.01,20.6 690.1,20.69C691.19,20.78 692.27,20.84 693.36,20.89C694.45,20.94 695.54,20.96 696.63,20.98C697.72,21 698.81,21.01 699.9,21.02C700.99,21.03 702.07,21.04 703.16,21.04C704.25,21.04 705.34,21.04 706.43,21.04C707.52,21.04 708.6,21.04 709.69,21.04C710.78,21.04 711.87,21.05 712.96,21.05C714.05,21.05 715.14,21.05 716.23,21.05C717.32,21.05 718.4,21.05 719.49,21.05C720.58,21.05 721.67,21.05 722.76,21.05C723.85,21.05 724.94,21.05 726.03,21.05C727.12,21.05 728.2,21.05 729.29,21.05C730.38,21.05 731.47,21.05 732.56,21.05C733.65,21.05 734.74,21.05 735.83,21.05C736.92,21.05 738,21.05 739.09,21.05C740.18,21.05 741.27,21.05 742.36,21.05C743.45,21.05 744.54,21.05 745.63,21.05C746.72,21.05 747.8,21.05 748.89,21.05C749.98,21.05 751.07,21.05 752.16,21.05C753.25,21.05 754.34,21.05 755.43,21.05C756.52,21.05 757.6,21.05 758.69,21.05C759.78,21.05 760.87,21.05 761.96,21.05C763.05,21.05 764.13,21.05 765.22,21.05C766.31,21.05 767.4,21.05 768.49,21.05C769.58,21.05 770.67,21.05 771.76,21.05C772.85,21.05 773.93,21.05 775.02,21.05C776.11,21.05 777.2,21.05 778.29,21.05C779.38,21.05 780.47,21.05 781.56,21.05C782.65,21.05 783.73,21.05 784.82,21.05C785.91,21.05 787,21.05 788.09,21.05C789.18,21.05 790.27,21.05 791.36,21.05C792.45,21.05 793.53,21.05 794.62,21.05C795.71,21.05 796.8,21.05 797.89,21.05C798.98,21.05 800.07,21.05 801.16,21.05C802.25,21.05 803.33,21.05 804.42,21.05C805.51,21.05 806.6,21.05 807.69,21.05C808.78,21.05 809.86,21.05 810.95,21.05C812.04,21.05 813.13,21.05 814.22,21.05C815.31,21.05 816.4,21.05 817.49,21.05C818.58,21.05 819.66,21.05 820.75,21.05C821.84,21.05 822.93,21.05 824.02,21.05C825.11,21.05 826.2,21.05 827.29,21.05C828.38,21.05 829.46,21.05 830.55,21.05C831.64,21.05 832.73,21.05 833.82,21.05C834.91,21.05 836,21.05 837.09,21.05C838.18,21.05 839.26,21.05 840.35,21.05C841.44,21.05 842.53,21.05 843.62,21.05C844.71,21.05 845.8,21.05 846.89,21.05C847.98,21.05 849.06,21.05 850.15,21.05C851.24,21.05 852.33,21.05 853.42,21.05C854.51,21.05 855.59,21.05 856.68,21.05C857.77,21.05 858.86,21.05 859.95,21.05C861.04,21.05 862.13,21.05 863.22,21.05C864.31,21.05 865.39,21.05 866.48,21.05C867.57,21.05 868.66,21.05 869.75,21.05C870.84,21.05 871.93,21.05 873.02,21.05C874.11,21.05 875.19,21.05 876.28,21.05C877.37,21.05 878.46,21.05 879.55,21.05C880.64,21.05 881.73,21.05 882.82,21.05C883.91,21.05 884.99,21.05 886.08,21.05C887.17,21.05 888.26,21.05 889.35,21.05C890.44,21.05 891.53,21.05 892.62,21.05C893.71,21.05 894.79,21.05 895.88,21.05C896.97,21.05 898.06,21.05 899.15,21.05C900.24,21.05 901.32,21.05 902.41,21.05C903.5,21.05 904.59,21.05 905.68,21.05C906.77,21.05 907.86,21.05 908.95,21.05C910.04,21.05 911.12,21.05 912.21,21.05C913.3,21.05 914.39,21.05 915.48,21.05C916.57,21.05 917.66,21.05 918.75,21.05C919.84,21.05 920.92,21.05 922.01,21.05C923.1,21.05 924.19,21.05 925.28,21.05C926.37,21.05 927.46,21.05 928.55,21.05C929.64,21.05 930.72,21.05 931.81,21.05C932.9,21.05 933.99,21.04 935.08,21.04C936.17,21.04 937.26,21.04 938.35,21.04C939.44,21.04 940.52,21.04 941.61,21.03C942.7,21.02 943.79,21.02 944.88,21C945.97,20.98 947.05,20.97 948.14,20.93C949.23,20.89 950.32,20.85 951.41,20.78C952.5,20.71 953.59,20.63 954.68,20.51C955.77,20.39 956.85,20.25 957.94,20.08C959.03,19.91 960.12,19.69 961.21,19.47C962.3,19.25 963.39,18.99 964.48,18.75C965.57,18.51 966.65,18.25 967.74,18.04C968.83,17.84 969.92,17.64 971.01,17.52C972.1,17.4 973.19,17.33 974.28,17.34C975.37,17.35 976.46,17.42 977.54,17.55C978.63,17.68 979.72,17.89 980.81,18.1C981.9,18.31 982.99,18.57 984.08,18.81C985.17,19.05 986.25,19.31 987.34,19.53C988.43,19.75 989.52,19.95 990.61,20.12Q991.7,20.29 993.87,20.54L993.87,21.55Q991.7,21.8 990.61,21.97C989.52,22.14 988.43,22.34 987.34,22.56C986.25,22.78 985.17,23.04 984.08,23.28C982.99,23.52 981.9,23.78 980.81,23.99C979.72,24.2 978.63,24.41 977.54,24.54C976.46,24.67 975.37,24.74 974.28,24.75C973.19,24.76 972.1,24.69 971.01,24.57C969.92,24.45 968.83,24.25 967.74,24.05C966.65,23.84 965.57,23.58 964.48,23.34C963.39,23.1 962.3,22.84 961.21,22.62C960.12,22.4 959.03,22.18 957.94,22.01C956.85,21.84 955.77,21.7 954.68,21.58C953.59,21.46 952.5,21.38 951.41,21.31C950.32,21.24 949.23,21.2 948.14,21.16C947.05,21.12 945.97,21.11 944.88,21.09C943.79,21.07 942.7,21.07 941.61,21.06C940.52,21.05 939.44,21.05 938.35,21.05C937.26,21.05 936.17,21.05 935.08,21.05C933.99,21.05 932.9,21.05 931.81,21.05C930.72,21.05 929.64,21.05 928.55,21.05C927.46,21.05 926.37,21.05 925.28,21.05C924.19,21.05 923.1,21.05 922.01,21.05C920.92,21.05 919.84,21.05 918.75,21.05C917.66,21.05 916.57,21.05 915.48,21.05C914.39,21.05 913.3,21.05 912.21,21.05C911.12,21.05 910.04,21.05 908.95,21.05C907.86,21.05 906.77,21.05 905.68,21.05C904.59,21.05 903.5,21.05 902.41,21.05C901.32,21.05 900.24,21.05 899.15,21.05C898.06,21.05 896.97,21.05 895.88,21.05C894.79,21.05 893.71,21.05 892.62,21.05C891.53,21.05 890.44,21.05 889.35,21.05C888.26,21.05 887.17,21.05 886.08,21.05C884.99,21.05 883.91,21.05 882.82,21.05C881.73,21.05 880.64,21.05 879.55,21.05C878.46,21.05 877.37,21.05 876.28,21.05C875.19,21.05 874.11,21.05 873.02,21.05C871.93,21.05 870.84,21.05 869.75,21.05C868.66,21.05 867.57,21.05 866.48,21.05C865.39,21.05 864.31,21.05 863.22,21.05C862.13,21.05 861.04,21.05 859.95,21.05C858.86,21.05 857.77,21.05 856.68,21.05C855.59,21.05 854.51,21.05 853.42,21.05C852.33,21.05 851.24,21.05 850.15,21.05C849.06,21.05 847.98,21.05 846.89,21.05C845.8,21.05 844.71,21.05 843.62,21.05C842.53,21.05 841.44,21.05 840.35,21.05C839.26,21.05 838.18,21.05 837.09,21.05C836,21.05 834.91,21.05 833.82,21.05C832.73,21.05 831.64,21.05 830.55,21.05C829.46,21.05 828.38,21.05 827.29,21.05C826.2,21.05 825.11,21.05 824.02,21.05C822.93,21.05 821.84,21.05 820.75,21.05C819.66,21.05 818.58,21.05 817.49,21.05C816.4,21.05 815.31,21.05 814.22,21.05C813.13,21.05 812.04,21.05 810.95,21.05C809.86,21.05 808.78,21.05 807.69,21.05C806.6,21.05 805.51,21.05 804.42,21.05C803.33,21.05 802.25,21.05 801.16,21.05C800.07,21.05 798.98,21.05 797.89,21.05C796.8,21.05 795.71,21.05 794.62,21.05C793.53,21.05 792.45,21.05 791.36,21.05C790.27,21.05 789.18,21.05 788.09,21.05C787,21.05 785.91,21.05 784.82,21.05C783.73,21.05 782.65,21.05 781.56,21.05C780.47,21.05 779.38,21.05 778.29,21.05C777.2,21.05 776.11,21.05 775.02,21.05C773.93,21.05 772.85,21.05 771.76,21.05C770.67,21.05 769.58,21.05 768.49,21.05C767.4,21.05 766.31,21.05 765.22,21.05C764.13,21.05 763.05,21.05 761.96,21.05C760.87,21.05 759.78,21.05 758.69,21.05C757.6,21.05 756.52,21.05 755.43,21.05C754.34,21.05 753.25,21.05 752.16,21.05C751.07,21.05 749.98,21.05 748.89,21.05C747.8,21.05 746.72,21.05 745.63,21.05C744.54,21.05 743.45,21.05 742.36,21.05C741.27,21.05 740.18,21.05 739.09,21.05C738,21.05 736.92,21.05 735.83,21.05C734.74,21.05 733.65,21.05 732.56,21.05C731.47,21.05 730.38,21.05 729.29,21.05C728.2,21.05 727.12,21.05 726.03,21.05C724.94,21.05 723.85,21.05 722.76,21.05C721.67,21.05 720.58,21.05 719.49,21.05C718.4,21.05 717.32,21.05 716.23,21.05C715.14,21.05 714.05,21.05 712.96,21.05C711.87,21.05 710.78,21.05 709.69,21.05C708.6,21.05 707.52,21.05 706.43,21.05C705.34,21.05 704.25,21.05 703.16,21.05C702.07,21.05 700.99,21.06 699.9,21.07C698.81,21.08 697.72,21.09 696.63,21.11C695.54,21.13 694.45,21.15 693.36,21.2C692.27,21.25 691.19,21.31 690.1,21.4C689.01,21.49 687.92,21.6 686.83,21.76C685.74,21.92 684.64,22.12 683.56,22.37C682.47,22.63 681.38,22.93 680.3,23.29C679.2,23.65 678.11,24.08 677.03,24.54C675.93,25.01 674.84,25.55 673.76,26.11C672.66,26.68 671.58,27.3 670.5,27.93C669.41,28.57 668.32,29.25 667.23,29.91C666.14,30.58 665.06,31.27 663.96,31.92C662.88,32.56 661.8,33.22 660.7,33.76C659.63,34.29 658.54,34.81 657.43,35.15C656.36,35.48 655.26,35.74 654.17,35.78C653.08,35.82 651.97,35.68 650.9,35.39C649.79,35.09 648.69,34.56 647.63,33.97C646.51,33.35 645.44,32.53 644.37,31.74C643.27,30.92 642.19,29.99 641.1,29.13C640.01,28.28 638.94,27.38 637.83,26.6C636.76,25.84 635.68,25.12 634.57,24.51C633.5,23.92 632.41,23.41 631.3,23Q630.22,22.6 628.03,22.04Z" style="vector-effect: none; stroke-width: 2px; stroke: rgb(181, 181, 181); stroke-opacity: 1; fill: rgb(181, 181, 181); fill-opacity: 1;"/><path class="box" d="M655.65,24.73V17.36M650.3,24.73V17.36H668.3V24.73ZM650.3,21.05H647.78M668.3,21.05H668.3" style="vector-effect: non-scaling-stroke; stroke-width: 2px; stroke: rgb(181, 181, 181); stroke-opacity: 1; fill: rgb(181, 181, 181); fill-opacity: 1;"/><path class="mean" d="M708.64,24.73V17.36" style="fill: none; vector-effect: non-scaling-stroke; stroke-width: 2px; stroke-dasharray: 4px, 2px; stroke: rgb(181, 181, 181); stroke-opacity: 1;"/></g></g><g class="scatterlayer mlayer"><g class="trace scatter trace46a45b" style="stroke-miterlimit: 2; opacity: 1;"><g class="fills"/><g class="errorbars"/><g class="lines"/><g class="points"><path class="point" transform="translate(647.78,21.05)" d="M2,0A2,2 0 1,1 0,-2A2,2 0 0,1 2,0Z" style="opacity: 1; stroke-width: 0px; fill: rgb(11, 121, 230); fill-opacity: 1;"/></g><g class="text"/></g><g class="trace scatter trace2dce5e" style="stroke-miterlimit: 2; opacity: 1;"><g class="fills"/><g class="errorbars"/><g class="lines"/><g class="points"><path class="point" transform="translate(652.44,21.05)" d="M2,0A2,2 0 1,1 0,-2A2,2 0 0,1 2,0Z" style="opacity: 1; stroke-width: 0px; fill: rgb(11, 121, 230); fill-opacity: 1;"/></g><g class="text"/></g><g class="trace scatter trace007b35" style="stroke-miterlimit: 2; opacity: 1;"><g class="fills"/><g class="errorbars"/><g class="lines"/><g class="points"><path class="point" transform="translate(974.13,21.05)" d="M2,0A2,2 0 1,1 0,-2A2,2 0 0,1 2,0Z" style="opacity: 1; stroke-width: 0px; fill: rgb(11, 121, 230); fill-opacity: 1;"/></g><g class="text"/></g><g class="trace scatter traceee2b04" style="stroke-miterlimit: 2; opacity: 1;"><g class="fills"/><g class="errorbars"/><g class="lines"/><g class="points"><path class="point" transform="translate(650.3,21.05)" d="M2,0A2,2 0 1,1 0,-2A2,2 0 0,1 2,0Z" style="opacity: 1; stroke-width: 0px; fill: rgb(11, 121, 230); fill-opacity: 1;"/></g><g class="text"/></g><g class="trace scatter trace33bee8" style="stroke-miterlimit: 2; opacity: 1;"><g class="fills"/><g class="errorbars"/><g class="lines"/><g class="points"><path class="point" transform="translate(668.3,21.05)" d="M2,0A2,2 0 1,1 0,-2A2,2 0 0,1 2,0Z" style="opacity: 1; stroke-width: 0px; fill: rgb(11, 121, 230); fill-opacity: 1;"/></g><g class="text"/></g><g class="trace scatter trace9068c9" style="stroke-miterlimit: 2; opacity: 1;"><g class="fills"/><g class="errorbars"/><g class="lines"/><g class="points"><path class="point" transform="translate(658.86,21.05)" d="M2,0A2,2 0 1,1 0,-2A2,2 0 0,1 2,0Z" style="opacity: 1; stroke-width: 0px; fill: rgb(11, 121, 230); fill-opacity: 1;"/></g><g class="text"/></g></g></g></g><path class="xlines-above crisp" d="M0,0" style="fill: none;"/><path class="ylines-above crisp" d="M0,0" style="fill: none;"/><g class="overlines-above"/><g class="xaxislayer-above"><g class="xtick"><text text-anchor="middle" x="0" y="102.09090909090905" transform="translate(110.85,0)" style="font-family: 'Lucida Grande', 'Open Sans', verdana, arial, sans-serif; font-size: 9px; fill: rgb(0, 0, 0); fill-opacity: 0.5; white-space: pre; opacity: 1;">0</text></g><g class="xtick"><text text-anchor="middle" x="0" y="102.09090909090905" style="font-family: 'Lucida Grande', 'Open Sans', verdana, arial, sans-serif; font-size: 9px; fill: rgb(0, 0, 0); fill-opacity: 0.5; white-space: pre; opacity: 1;" transform="translate(220.57999999999998,0)">2k</text></g><g class="xtick"><text text-anchor="middle" x="0" y="102.09090909090905" style="font-family: 'Lucida Grande', 'Open Sans', verdana, arial, sans-serif; font-size: 9px; fill: rgb(0, 0, 0); fill-opacity: 0.5; white-space: pre; opacity: 1;" transform="translate(330.31,0)">4k</text></g><g class="xtick"><text text-anchor="middle" x="0" y="102.09090909090905" style="font-family: 'Lucida Grande', 'Open Sans', verdana, arial, sans-serif; font-size: 9px; fill: rgb(0, 0, 0); fill-opacity: 0.5; white-space: pre; opacity: 1;" transform="translate(440.05,0)">6k</text></g><g class="xtick"><text text-anchor="middle" x="0" y="102.09090909090905" style="font-family: 'Lucida Grande', 'Open Sans', verdana, arial, sans-serif; font-size: 9px; fill: rgb(0, 0, 0); fill-opacity: 0.5; white-space: pre; opacity: 1;" transform="translate(549.78,0)">8k</text></g><g class="xtick"><text text-anchor="middle" x="0" y="102.09090909090905" style="font-family: 'Lucida Grande', 'Open Sans', verdana, arial, sans-serif; font-size: 9px; fill: rgb(0, 0, 0); fill-opacity: 0.5; white-space: pre; opacity: 1;" transform="translate(659.52,0)">10k</text></g><g class="xtick"><text text-anchor="middle" x="0" y="102.09090909090905" style="font-family: 'Lucida Grande', 'Open Sans', verdana, arial, sans-serif; font-size: 9px; fill: rgb(0, 0, 0); fill-opacity: 0.5; white-space: pre; opacity: 1;" transform="translate(769.25,0)">12k</text></g><g class="xtick"><text text-anchor="middle" x="0" y="102.09090909090905" style="font-family: 'Lucida Grande', 'Open Sans', verdana, arial, sans-serif; font-size: 9px; fill: rgb(0, 0, 0); fill-opacity: 0.5; white-space: pre; opacity: 1;" transform="translate(878.99,0)">14k</text></g><g class="xtick"><text text-anchor="middle" x="0" y="102.09090909090905" style="font-family: 'Lucida Grande', 'Open Sans', verdana, arial, sans-serif; font-size: 9px; fill: rgb(0, 0, 0); fill-opacity: 0.5; white-space: pre; opacity: 1;" transform="translate(988.72,0)">16k</text></g></g><g class="yaxislayer-above"><g class="ytick"><text text-anchor="end" x="105" y="3.15" transform="translate(0,71.05)" style="font-family: 'Lucida Grande', 'Open Sans', verdana, arial, sans-serif; font-size: 9px; fill: rgb(0, 0, 0); fill-opacity: 0.5; white-space: pre; opacity: 1;">Nodes  </text></g></g><g class="overaxes-above"/></g><g class="subplot x2y2"><g class="layer-subplot"><g class="shapelayer"/><g class="imagelayer"/></g><g class="minor-gridlayer"><g class="x2"/><g class="y2"/></g><g class="gridlayer"><g class="x2"><path class="x2grid crisp" transform="translate(258.06,0)" d="M0,120.15151515151514v42.09090909090911" style="stroke: rgb(0, 0, 0); stroke-opacity: 0.1; stroke-width: 1px;"/><path class="x2grid crisp" transform="translate(405.27,0)" d="M0,120.15151515151514v42.09090909090911" style="stroke: rgb(0, 0, 0); stroke-opacity: 0.1; stroke-width: 1px;"/><path class="x2grid crisp" transform="translate(552.48,0)" d="M0,120.15151515151514v42.09090909090911" style="stroke: rgb(0, 0, 0); stroke-opacity: 0.1; stroke-width: 1px;"/><path class="x2grid crisp" transform="translate(699.69,0)" d="M0,120.15151515151514v42.09090909090911" style="stroke: rgb(0, 0, 0); stroke-opacity: 0.1; stroke-width: 1px;"/><path class="x2grid crisp" transform="translate(846.9,0)" d="M0,120.15151515151514v42.09090909090911" style="stroke: rgb(0, 0, 0); stroke-opacity: 0.1; stroke-width: 1px;"/><path class="x2grid crisp" transform="translate(994.11,0)" d="M0,120.15151515151514v42.09090909090911" style="stroke: rgb(0, 0, 0); stroke-opacity: 0.1; stroke-width: 1px;"/></g><g class="y2"><path class="y2grid crisp" transform="translate(0,141.20151515151514)" d="M106,0h979" style="stroke: rgb(0, 0, 0); stroke-opacity: 0.1; stroke-width: 1px;"/></g></g><g class="zerolinelayer"><path class="x2zl zl crisp" transform="translate(110.85,0)" d="M0,120.15151515151514v42.09090909090911" style="stroke: rgb(0, 0, 0); stroke-opacity: 0.1; stroke-width: 2px;"/></g><g class="layer-between"><g class="shapelayer"/><g class="imagelayer"/></g><path class="xlines-below"/><path class="ylines-below"/><g class="overlines-below"/><g class="xaxislayer-below"/><g class="yaxislayer-below"/><g class="overaxes-below"/><g class="overplot"><g class="x2y2" transform="translate(106,120.15151515151514)" clip-path="url(#clipa04e5bx2y2plot)"><g class="violinlayer mlayer"><g class="trace violins" style="opacity: 0.5;"><path class="violin" d="M628.46,20.19Q632.73,19.72 634.86,19.36C637,19 639.15,18.56 641.27,18.02C643.42,17.48 645.55,16.83 647.67,16.12C649.82,15.41 651.95,14.57 654.08,13.75C656.22,12.92 658.34,12 660.48,11.18C662.61,10.36 664.74,9.51 666.89,8.83C669.01,8.16 671.14,7.52 673.29,7.1C675.41,6.68 677.56,6.4 679.7,6.31C681.83,6.22 683.97,6.32 686.1,6.54C688.24,6.76 690.38,7.17 692.51,7.63C694.65,8.1 696.78,8.71 698.91,9.33C701.05,9.95 703.19,10.66 705.32,11.34C707.46,12.02 709.58,12.74 711.72,13.41C713.85,14.08 715.99,14.76 718.13,15.37C720.26,15.98 722.39,16.56 724.53,17.08C726.66,17.6 728.8,18.07 730.94,18.47C733.07,18.87 735.2,19.21 737.34,19.5C739.47,19.79 741.61,20 743.75,20.19C745.88,20.38 748.01,20.51 750.15,20.62C752.28,20.73 754.42,20.79 756.56,20.85C758.69,20.91 760.83,20.94 762.96,20.97C765.1,21 767.23,21.01 769.37,21.02C771.5,21.03 773.64,21.04 775.77,21.04C777.91,21.04 780.04,21.04 782.18,21.04C784.31,21.04 786.45,21.04 788.58,21.04C790.72,21.04 792.85,21.05 794.99,21.05C797.12,21.05 799.26,21.05 801.39,21.05C803.53,21.05 805.66,21.05 807.8,21.05C809.93,21.05 812.07,21.05 814.2,21.05C816.34,21.05 818.47,21.05 820.61,21.05C822.74,21.05 824.88,21.05 827.01,21.05C829.15,21.05 831.28,21.05 833.42,21.05C835.55,21.05 837.69,21.05 839.82,21.05C841.96,21.05 844.09,21.05 846.23,21.05C848.36,21.05 850.5,21.05 852.63,21.05C854.77,21.05 856.9,21.05 859.04,21.05C861.17,21.05 863.31,21.05 865.44,21.05C867.58,21.05 869.71,21.05 871.85,21.05C873.98,21.05 876.12,21.05 878.25,21.05C880.39,21.05 882.52,21.05 884.66,21.05C886.79,21.05 888.93,21.05 891.06,21.05C893.2,21.05 895.33,21.04 897.47,21.04C899.6,21.04 901.74,21.04 903.87,21.04C906.01,21.04 908.14,21.04 910.28,21.03C912.41,21.02 914.55,21.02 916.68,21C918.82,20.98 920.95,20.97 923.09,20.93C925.22,20.9 927.36,20.86 929.49,20.79C931.63,20.72 933.76,20.64 935.9,20.52C938.03,20.4 940.17,20.25 942.3,20.08C944.44,19.9 946.58,19.69 948.71,19.47C950.85,19.25 952.98,18.98 955.11,18.74C957.25,18.5 959.38,18.23 961.52,18.02C963.65,17.81 965.78,17.61 967.92,17.49C970.05,17.37 972.19,17.3 974.33,17.3C976.46,17.3 978.6,17.38 980.73,17.51C982.87,17.64 985.01,17.85 987.14,18.06C989.28,18.27 991.41,18.55 993.54,18.79C995.68,19.03 997.81,19.29 999.95,19.51C1002.08,19.73 1004.21,19.94 1006.35,20.11Q1008.48,20.28 1012.76,20.54L1012.76,21.55Q1008.48,21.81 1006.35,21.98C1004.21,22.15 1002.08,22.36 999.95,22.58C997.81,22.8 995.68,23.06 993.54,23.3C991.41,23.54 989.28,23.82 987.14,24.03C985.01,24.24 982.87,24.45 980.73,24.58C978.6,24.71 976.46,24.79 974.33,24.79C972.19,24.79 970.05,24.72 967.92,24.6C965.78,24.48 963.65,24.28 961.52,24.07C959.38,23.86 957.25,23.59 955.11,23.35C952.98,23.11 950.85,22.84 948.71,22.62C946.58,22.4 944.44,22.19 942.3,22.01C940.17,21.84 938.03,21.69 935.9,21.57C933.76,21.45 931.63,21.37 929.49,21.3C927.36,21.23 925.22,21.19 923.09,21.16C920.95,21.12 918.82,21.11 916.68,21.09C914.55,21.07 912.41,21.07 910.28,21.06C908.14,21.05 906.01,21.05 903.87,21.05C901.74,21.05 899.6,21.05 897.47,21.05C895.33,21.05 893.2,21.05 891.06,21.05C888.93,21.05 886.79,21.05 884.66,21.05C882.52,21.05 880.39,21.05 878.25,21.05C876.12,21.05 873.98,21.05 871.85,21.05C869.71,21.05 867.58,21.05 865.44,21.05C863.31,21.05 861.17,21.05 859.04,21.05C856.9,21.05 854.77,21.05 852.63,21.05C850.5,21.05 848.36,21.05 846.23,21.05C844.09,21.05 841.96,21.05 839.82,21.05C837.69,21.05 835.55,21.05 833.42,21.05C831.28,21.05 829.15,21.05 827.01,21.05C824.88,21.05 822.74,21.05 820.61,21.05C818.47,21.05 816.34,21.05 814.2,21.05C812.07,21.05 809.93,21.05 807.8,21.05C805.66,21.05 803.53,21.05 801.39,21.05C799.26,21.05 797.12,21.05 794.99,21.05C792.85,21.05 790.72,21.05 788.58,21.05C786.45,21.05 784.31,21.05 782.18,21.05C780.04,21.05 777.91,21.06 775.77,21.06C773.64,21.06 771.5,21.06 769.37,21.07C767.23,21.08 765.1,21.09 762.96,21.12C760.83,21.15 758.69,21.18 756.56,21.24C754.42,21.3 752.28,21.36 750.15,21.47C748.01,21.58 745.88,21.71 743.75,21.9C741.61,22.09 739.47,22.3 737.34,22.59C735.2,22.88 733.07,23.22 730.94,23.62C728.8,24.02 726.66,24.49 724.53,25.01C722.39,25.53 720.26,26.11 718.13,26.72C715.99,27.33 713.85,28.01 711.72,28.68C709.58,29.35 707.46,30.07 705.32,30.75C703.19,31.43 701.05,32.14 698.91,32.76C696.78,33.38 694.65,33.99 692.51,34.46C690.38,34.92 688.24,35.33 686.1,35.55C683.97,35.77 681.83,35.87 679.7,35.78C677.56,35.69 675.41,35.4 673.29,34.99C671.14,34.57 669.01,33.94 666.89,33.27C664.74,32.59 662.61,31.73 660.48,30.91C658.34,30.09 656.22,29.17 654.08,28.34C651.95,27.52 649.82,26.68 647.67,25.97C645.55,25.26 643.42,24.61 641.27,24.07C639.15,23.54 637,23.1 634.86,22.74Q632.73,22.38 628.46,21.9Z" style="vector-effect: none; stroke-width: 2px; stroke: rgb(181, 181, 181); stroke-opacity: 1; fill: rgb(181, 181, 181); fill-opacity: 1;"/><path class="box" d="M685.87,24.73V17.36M673.81,24.73V17.36H709.01V24.73ZM673.81,21.05H667.09M709.01,21.05H709.01" style="vector-effect: non-scaling-stroke; stroke-width: 2px; stroke: rgb(181, 181, 181); stroke-opacity: 1; fill: rgb(181, 181, 181); fill-opacity: 1;"/><path class="mean" d="M732.63,24.73V17.36" style="fill: none; vector-effect: non-scaling-stroke; stroke-width: 2px; stroke-dasharray: 4px, 2px; stroke: rgb(181, 181, 181); stroke-opacity: 1;"/></g></g><g class="scatterlayer mlayer"><g class="trace scatter trace1eecdd" style="stroke-miterlimit: 2; opacity: 1;"><g class="fills"/><g class="errorbars"/><g class="lines"/><g class="points"><path class="point" transform="translate(667.09,21.05)" d="M2,0A2,2 0 1,1 0,-2A2,2 0 0,1 2,0Z" style="opacity: 1; stroke-width: 0px; fill: rgb(11, 121, 230); fill-opacity: 1;"/></g><g class="text"/></g><g class="trace scatter trace4ededb" style="stroke-miterlimit: 2; opacity: 1;"><g class="fills"/><g class="errorbars"/><g class="lines"/><g class="points"><path class="point" transform="translate(690.33,21.05)" d="M2,0A2,2 0 1,1 0,-2A2,2 0 0,1 2,0Z" style="opacity: 1; stroke-width: 0px; fill: rgb(11, 121, 230); fill-opacity: 1;"/></g><g class="text"/></g><g class="trace scatter tracec5bc51" style="stroke-miterlimit: 2; opacity: 1;"><g class="fills"/><g class="errorbars"/><g class="lines"/><g class="points"><path class="point" transform="translate(974.13,21.05)" d="M2,0A2,2 0 1,1 0,-2A2,2 0 0,1 2,0Z" style="opacity: 1; stroke-width: 0px; fill: rgb(11, 121, 230); fill-opacity: 1;"/></g><g class="text"/></g><g class="trace scatter trace5a4631" style="stroke-miterlimit: 2; opacity: 1;"><g class="fills"/><g class="errorbars"/><g class="lines"/><g class="points"><path class="point" transform="translate(673.81,21.05)" d="M2,0A2,2 0 1,1 0,-2A2,2 0 0,1 2,0Z" style="opacity: 1; stroke-width: 0px; fill: rgb(11, 121, 230); fill-opacity: 1;"/></g><g class="text"/></g><g class="trace scatter tracea8722f" style="stroke-miterlimit: 2; opacity: 1;"><g class="fills"/><g class="errorbars"/><g class="lines"/><g class="points"><path class="point" transform="translate(709.01,21.05)" d="M2,0A2,2 0 1,1 0,-2A2,2 0 0,1 2,0Z" style="opacity: 1; stroke-width: 0px; fill: rgb(11, 121, 230); fill-opacity: 1;"/></g><g class="text"/></g><g class="trace scatter trace495fb7" style="stroke-miterlimit: 2; opacity: 1;"><g class="fills"/><g class="errorbars"/><g class="lines"/><g class="points"><path class="point" transform="translate(681.4,21.05)" d="M2,0A2,2 0 1,1 0,-2A2,2 0 0,1 2,0Z" style="opacity: 1; stroke-width: 0px; fill: rgb(11, 121, 230); fill-opacity: 1;"/></g><g class="text"/></g></g></g></g><path class="xlines-above crisp" d="M0,0" style="fill: none;"/><path class="ylines-above crisp" d="M0,0" style="fill: none;"/><g class="overlines-above"/><g class="xaxislayer-above"><g class="x2tick"><text text-anchor="middle" x="0" y="172.24242424242425" transform="translate(110.85,0)" style="font-family: 'Lucida Grande', 'Open Sans', verdana, arial, sans-serif; font-size: 9px; fill: rgb(0, 0, 0); fill-opacity: 0.5; white-space: pre; opacity: 1;">0</text></g><g class="x2tick"><text text-anchor="middle" x="0" y="172.24242424242425" style="font-family: 'Lucida Grande', 'Open Sans', verdana, arial, sans-serif; font-size: 9px; fill: rgb(0, 0, 0); fill-opacity: 0.5; white-space: pre; opacity: 1;" transform="translate(258.06,0)">50k</text></g><g class="x2tick"><text text-anchor="middle" x="0" y="172.24242424242425" style="font-family: 'Lucida Grande', 'Open Sans', verdana, arial, sans-serif; font-size: 9px; fill: rgb(0, 0, 0); fill-opacity: 0.5; white-space: pre; opacity: 1;" transform="translate(405.27,0)">100k</text></g><g class="x2tick"><text text-anchor="middle" x="0" y="172.24242424242425" style="font-family: 'Lucida Grande', 'Open Sans', verdana, arial, sans-serif; font-size: 9px; fill: rgb(0, 0, 0); fill-opacity: 0.5; white-space: pre; opacity: 1;" transform="translate(552.48,0)">150k</text></g><g class="x2tick"><text text-anchor="middle" x="0" y="172.24242424242425" style="font-family: 'Lucida Grande', 'Open Sans', verdana, arial, sans-serif; font-size: 9px; fill: rgb(0, 0, 0); fill-opacity: 0.5; white-space: pre; opacity: 1;" transform="translate(699.69,0)">200k</text></g><g class="x2tick"><text text-anchor="middle" x="0" y="172.24242424242425" style="font-family: 'Lucida Grande', 'Open Sans', verdana, arial, sans-serif; font-size: 9px; fill: rgb(0, 0, 0); fill-opacity: 0.5; white-space: pre; opacity: 1;" transform="translate(846.9,0)">250k</text></g><g class="x2tick"><text text-anchor="middle" x="0" y="172.24242424242425" style="font-family: 'Lucida Grande', 'Open Sans', verdana, arial, sans-serif; font-size: 9px; fill: rgb(0, 0, 0); fill-opacity: 0.5; white-space: pre; opacity: 1;" transform="translate(994.11,0)">300k</text></g></g><g class="yaxislayer-above"><g class="y2tick"><text text-anchor="end" x="105" y="3.15" transform="translate(0,141.20151515151514)" style="font-family: 'Lucida Grande', 'Open Sans', verdana, arial, sans-serif; font-size: 9px; fill: rgb(0, 0, 0); fill-opacity: 0.5; white-space: pre; opacity: 1;">Edges  </text></g></g><g class="overaxes-above"/></g><g class="subplot x3y3"><g class="layer-subplot"><g class="shapelayer"/><g class="imagelayer"/></g><g class="minor-gridlayer"><g class="x3"/><g class="y3"/></g><g class="gridlayer"><g class="x3"><path class="x3grid crisp" transform="translate(218.54000000000002,0)" d="M0,190.30303030303028v42.09090909090911" style="stroke: rgb(0, 0, 0); stroke-opacity: 0.1; stroke-width: 1px;"/><path class="x3grid crisp" transform="translate(326.24,0)" d="M0,190.30303030303028v42.09090909090911" style="stroke: rgb(0, 0, 0); stroke-opacity: 0.1; stroke-width: 1px;"/><path class="x3grid crisp" transform="translate(433.94,0)" d="M0,190.30303030303028v42.09090909090911" style="stroke: rgb(0, 0, 0); stroke-opacity: 0.1; stroke-width: 1px;"/><path class="x3grid crisp" transform="translate(541.64,0)" d="M0,190.30303030303028v42.09090909090911" style="stroke: rgb(0, 0, 0); stroke-opacity: 0.1; stroke-width: 1px;"/><path class="x3grid crisp" transform="translate(649.34,0)" d="M0,190.30303030303028v42.09090909090911" style="stroke: rgb(0, 0, 0); stroke-opacity: 0.1; stroke-width: 1px;"/><path class="x3grid crisp" transform="translate(757.04,0)" d="M0,190.30303030303028v42.09090909090911" style="stroke: rgb(0, 0, 0); stroke-opacity: 0.1; stroke-width: 1px;"/><path class="x3grid crisp" transform="translate(864.73,0)" d="M0,190.30303030303028v42.09090909090911" style="stroke: rgb(0, 0, 0); stroke-opacity: 0.1; stroke-width: 1px;"/><path class="x3grid crisp" transform="translate(972.43,0)" d="M0,190.30303030303028v42.09090909090911" style="stroke: rgb(0, 0, 0); stroke-opacity: 0.1; stroke-width: 1px;"/><path class="x3grid crisp" transform="translate(1080.13,0)" d="M0,190.30303030303028v42.09090909090911" style="stroke: rgb(0, 0, 0); stroke-opacity: 0.1; stroke-width: 1px;"/></g><g class="y3"><path class="y3grid crisp" transform="translate(0,211.3530303030303)" d="M106,0h979" style="stroke: rgb(0, 0, 0); stroke-opacity: 0.1; stroke-width: 1px;"/></g></g><g class="zerolinelayer"><path class="x3zl zl crisp" transform="translate(110.85,0)" d="M0,190.30303030303028v42.09090909090911" style="stroke: rgb(0, 0, 0); stroke-opacity: 0.1; stroke-width: 2px;"/></g><g class="layer-between"><g class="shapelayer"/><g class="imagelayer"/></g><path class="xlines-below"/><path class="ylines-below"/><g class="overlines-below"/><g class="xaxislayer-below"/><g class="yaxislayer-below"/><g class="overaxes-below"/><g class="overplot"><g class="x3y3" transform="translate(106,190.30303030303028)" clip-path="url(#clipa04e5bx3y3plot)"><g class="violinlayer mlayer"><g class="trace violins" style="opacity: 0.5;"><path class="violin" d="M640.57,19.14Q653.67,18.19 660.21,17.54C666.76,16.89 673.31,16.09 679.85,15.25C686.4,14.4 692.94,13.4 699.49,12.47C706.04,11.54 712.58,10.49 719.13,9.65C725.67,8.81 732.22,7.98 738.77,7.42C745.31,6.86 751.86,6.45 758.41,6.31C764.95,6.17 771.51,6.29 778.05,6.55C784.6,6.81 791.15,7.35 797.69,7.9C804.24,8.45 810.78,9.19 817.33,9.85C823.88,10.51 830.42,11.24 836.97,11.85C843.51,12.46 850.06,13.04 856.61,13.52C863.15,14 869.7,14.4 876.25,14.74C882.79,15.07 889.34,15.32 895.89,15.53C902.44,15.74 908.98,15.87 915.53,15.99C922.08,16.11 928.62,16.18 935.17,16.27C941.72,16.36 948.26,16.41 954.81,16.51C961.36,16.61 967.9,16.71 974.45,16.85C981,17 987.54,17.18 994.09,17.38C1000.64,17.59 1007.18,17.84 1013.73,18.08C1020.28,18.33 1026.82,18.6 1033.37,18.85C1039.92,19.1 1046.46,19.36 1053.01,19.58C1059.56,19.8 1066.1,20 1072.65,20.16Q1079.2,20.33 1092.3,20.57L1092.3,21.52Q1079.2,21.76 1072.65,21.93C1066.1,22.09 1059.56,22.29 1053.01,22.51C1046.46,22.73 1039.92,22.99 1033.37,23.24C1026.82,23.49 1020.28,23.76 1013.73,24.01C1007.18,24.25 1000.64,24.5 994.09,24.71C987.54,24.91 981,25.09 974.45,25.24C967.9,25.38 961.36,25.48 954.81,25.58C948.26,25.68 941.72,25.74 935.17,25.83C928.62,25.92 922.08,25.98 915.53,26.1C908.98,26.22 902.44,26.35 895.89,26.56C889.34,26.77 882.79,27.02 876.25,27.35C869.7,27.69 863.15,28.09 856.61,28.57C850.06,29.05 843.51,29.63 836.97,30.24C830.42,30.85 823.88,31.58 817.33,32.24C810.78,32.9 804.24,33.64 797.69,34.19C791.15,34.74 784.6,35.28 778.05,35.54C771.51,35.8 764.95,35.92 758.41,35.78C751.86,35.64 745.31,35.23 738.77,34.67C732.22,34.11 725.67,33.28 719.13,32.44C712.58,31.6 706.04,30.55 699.49,29.62C692.94,28.69 686.4,27.68 679.85,26.84C673.31,26 666.76,25.21 660.21,24.56Q653.67,23.91 640.57,22.95Z" style="vector-effect: none; stroke-width: 2px; stroke: rgb(181, 181, 181); stroke-opacity: 1; fill: rgb(181, 181, 181); fill-opacity: 1;"/><path class="box" d="M759.73,24.73V17.36M758.73,24.73V17.36H866.43V24.73ZM758.73,21.05H758.73M866.43,21.05H974.13" style="vector-effect: non-scaling-stroke; stroke-width: 2px; stroke: rgb(181, 181, 181); stroke-opacity: 1; fill: rgb(181, 181, 181); fill-opacity: 1;"/><path class="mean" d="M812.58,24.73V17.36" style="fill: none; vector-effect: non-scaling-stroke; stroke-width: 2px; stroke-dasharray: 4px, 2px; stroke: rgb(181, 181, 181); stroke-opacity: 1;"/></g></g><g class="scatterlayer mlayer"><g class="trace scatter tracefc794b" style="stroke-miterlimit: 2; opacity: 1;"><g class="fills"/><g class="errorbars"/><g class="lines"/><g class="points"><path class="point" transform="translate(758.73,21.05)" d="M2,0A2,2 0 1,1 0,-2A2,2 0 0,1 2,0Z" style="opacity: 1; stroke-width: 0px; fill: rgb(11, 121, 230); fill-opacity: 1;"/></g><g class="text"/></g><g class="trace scatter trace465f18" style="stroke-miterlimit: 2; opacity: 1;"><g class="fills"/><g class="errorbars"/><g class="lines"/><g class="points"><path class="point" transform="translate(758.73,21.05)" d="M2,0A2,2 0 1,1 0,-2A2,2 0 0,1 2,0Z" style="opacity: 1; stroke-width: 0px; fill: rgb(11, 121, 230); fill-opacity: 1;"/></g><g class="text"/></g><g class="trace scatter trace8c5908" style="stroke-miterlimit: 2; opacity: 1;"><g class="fills"/><g class="errorbars"/><g class="lines"/><g class="points"><path class="point" transform="translate(758.73,21.05)" d="M2,0A2,2 0 1,1 0,-2A2,2 0 0,1 2,0Z" style="opacity: 1; stroke-width: 0px; fill: rgb(11, 121, 230); fill-opacity: 1;"/></g><g class="text"/></g><g class="trace scatter trace86cf72" style="stroke-miterlimit: 2; opacity: 1;"><g class="fills"/><g class="errorbars"/><g class="lines"/><g class="points"><path class="point" transform="translate(758.73,21.05)" d="M2,0A2,2 0 1,1 0,-2A2,2 0 0,1 2,0Z" style="opacity: 1; stroke-width: 0px; fill: rgb(11, 121, 230); fill-opacity: 1;"/></g><g class="text"/></g><g class="trace scatter tracea04adb" style="stroke-miterlimit: 2; opacity: 1;"><g class="fills"/><g class="errorbars"/><g class="lines"/><g class="points"><path class="point" transform="translate(866.43,21.05)" d="M2,0A2,2 0 1,1 0,-2A2,2 0 0,1 2,0Z" style="opacity: 1; stroke-width: 0px; fill: rgb(11, 121, 230); fill-opacity: 1;"/></g><g class="text"/></g><g class="trace scatter tracee58354" style="stroke-miterlimit: 2; opacity: 1;"><g class="fills"/><g class="errorbars"/><g class="lines"/><g class="points"><path class="point" transform="translate(974.13,21.05)" d="M2,0A2,2 0 1,1 0,-2A2,2 0 0,1 2,0Z" style="opacity: 1; stroke-width: 0px; fill: rgb(11, 121, 230); fill-opacity: 1;"/></g><g class="text"/></g></g></g></g><path class="xlines-above crisp" d="M0,0" style="fill: none;"/><path class="ylines-above crisp" d="M0,0" style="fill: none;"/><g class="overlines-above"/><g class="xaxislayer-above"><g class="x3tick"><text text-anchor="middle" x="0" y="242.39393939393938" transform="translate(110.85,0)" style="font-family: 'Lucida Grande', 'Open Sans', verdana, arial, sans-serif; font-size: 9px; fill: rgb(0, 0, 0); fill-opacity: 0.5; white-space: pre; opacity: 1;">0</text></g><g class="x3tick"><text text-anchor="middle" x="0" y="242.39393939393938" style="font-family: 'Lucida Grande', 'Open Sans', verdana, arial, sans-serif; font-size: 9px; fill: rgb(0, 0, 0); fill-opacity: 0.5; white-space: pre; opacity: 1;" transform="translate(218.54000000000002,0)">1</text></g><g class="x3tick"><text text-anchor="middle" x="0" y="242.39393939393938" style="font-family: 'Lucida Grande', 'Open Sans', verdana, arial, sans-serif; font-size: 9px; fill: rgb(0, 0, 0); fill-opacity: 0.5; white-space: pre; opacity: 1;" transform="translate(326.24,0)">2</text></g><g class="x3tick"><text text-anchor="middle" x="0" y="242.39393939393938" style="font-family: 'Lucida Grande', 'Open Sans', verdana, arial, sans-serif; font-size: 9px; fill: rgb(0, 0, 0); fill-opacity: 0.5; white-space: pre; opacity: 1;" transform="translate(433.94,0)">3</text></g><g class="x3tick"><text text-anchor="middle" x="0" y="242.39393939393938" style="font-family: 'Lucida Grande', 'Open Sans', verdana, arial, sans-serif; font-size: 9px; fill: rgb(0, 0, 0); fill-opacity: 0.5; white-space: pre; opacity: 1;" transform="translate(541.64,0)">4</text></g><g class="x3tick"><text text-anchor="middle" x="0" y="242.39393939393938" style="font-family: 'Lucida Grande', 'Open Sans', verdana, arial, sans-serif; font-size: 9px; fill: rgb(0, 0, 0); fill-opacity: 0.5; white-space: pre; opacity: 1;" transform="translate(649.34,0)">5</text></g><g class="x3tick"><text text-anchor="middle" x="0" y="242.39393939393938" style="font-family: 'Lucida Grande', 'Open Sans', verdana, arial, sans-serif; font-size: 9px; fill: rgb(0, 0, 0); fill-opacity: 0.5; white-space: pre; opacity: 1;" transform="translate(757.04,0)">6</text></g><g class="x3tick"><text text-anchor="middle" x="0" y="242.39393939393938" style="font-family: 'Lucida Grande', 'Open Sans', verdana, arial, sans-serif; font-size: 9px; fill: rgb(0, 0, 0); fill-opacity: 0.5; white-space: pre; opacity: 1;" transform="translate(864.73,0)">7</text></g><g class="x3tick"><text text-anchor="middle" x="0" y="242.39393939393938" style="font-family: 'Lucida Grande', 'Open Sans', verdana, arial, sans-serif; font-size: 9px; fill: rgb(0, 0, 0); fill-opacity: 0.5; white-space: pre; opacity: 1;" transform="translate(972.43,0)">8</text></g><g class="x3tick"><text text-anchor="middle" x="0" y="242.39393939393938" style="font-family: 'Lucida Grande', 'Open Sans', verdana, arial, sans-serif; font-size: 9px; fill: rgb(0, 0, 0); fill-opacity: 0.5; white-space: pre; opacity: 1;" transform="translate(1080.13,0)">9</text></g></g><g class="yaxislayer-above"><g class="y3tick"><text text-anchor="end" x="105" y="3.15" transform="translate(0,211.3530303030303)" style="font-family: 'Lucida Grande', 'Open Sans', verdana, arial, sans-serif; font-size: 9px; fill: rgb(0, 0, 0); fill-opacity: 0.5; white-space: pre; opacity: 1;">Diameter  </text></g></g><g class="overaxes-above"/></g><g class="subplot x4y4"><g class="layer-subplot"><g class="shapelayer"/><g class="imagelayer"/></g><g class="minor-gridlayer"><g class="x4"/><g class="y4"/></g><g class="gridlayer"><g class="x4"><path class="x4grid crisp" transform="translate(232.01,0)" d="M0,260.4545454545454v42.09090909090911" style="stroke: rgb(0, 0, 0); stroke-opacity: 0.1; stroke-width: 1px;"/><path class="x4grid crisp" transform="translate(353.16999999999996,0)" d="M0,260.4545454545454v42.09090909090911" style="stroke: rgb(0, 0, 0); stroke-opacity: 0.1; stroke-width: 1px;"/><path class="x4grid crisp" transform="translate(474.33,0)" d="M0,260.4545454545454v42.09090909090911" style="stroke: rgb(0, 0, 0); stroke-opacity: 0.1; stroke-width: 1px;"/><path class="x4grid crisp" transform="translate(595.49,0)" d="M0,260.4545454545454v42.09090909090911" style="stroke: rgb(0, 0, 0); stroke-opacity: 0.1; stroke-width: 1px;"/><path class="x4grid crisp" transform="translate(716.65,0)" d="M0,260.4545454545454v42.09090909090911" style="stroke: rgb(0, 0, 0); stroke-opacity: 0.1; stroke-width: 1px;"/><path class="x4grid crisp" transform="translate(837.81,0)" d="M0,260.4545454545454v42.09090909090911" style="stroke: rgb(0, 0, 0); stroke-opacity: 0.1; stroke-width: 1px;"/><path class="x4grid crisp" transform="translate(958.97,0)" d="M0,260.4545454545454v42.09090909090911" style="stroke: rgb(0, 0, 0); stroke-opacity: 0.1; stroke-width: 1px;"/><path class="x4grid crisp" transform="translate(1080.13,0)" d="M0,260.4545454545454v42.09090909090911" style="stroke: rgb(0, 0, 0); stroke-opacity: 0.1; stroke-width: 1px;"/></g><g class="y4"><path class="y4grid crisp" transform="translate(0,281.5045454545454)" d="M106,0h979" style="stroke: rgb(0, 0, 0); stroke-opacity: 0.1; stroke-width: 1px;"/></g></g><g class="zerolinelayer"><path class="x4zl zl crisp" transform="translate(110.85,0)" d="M0,260.4545454545454v42.09090909090911" style="stroke: rgb(0, 0, 0); stroke-opacity: 0.1; stroke-width: 2px;"/></g><g class="layer-between"><g class="shapelayer"/><g class="imagelayer"/></g><path class="xlines-below"/><path class="ylines-below"/><g class="overlines-below"/><g class="xaxislayer-below"/><g class="yaxislayer-below"/><g class="overaxes-below"/><g class="overplot"><g class="x4y4" transform="translate(106,260.4545454545454)" clip-path="url(#clipa04e5bx4y4plot)"><g class="violinlayer mlayer"><g class="trace violins" style="opacity: 0.5;"><path class="violin" d="M-6.93,19.33Q7.63,18.48 14.91,17.9C22.2,17.32 29.48,16.62 36.76,15.86C44.05,15.1 51.32,14.19 58.6,13.33C65.88,12.47 73.16,11.51 80.44,10.69C87.72,9.87 95,9.03 102.29,8.4C109.57,7.77 116.85,7.24 124.13,6.89C131.41,6.54 138.69,6.37 145.97,6.31C153.25,6.25 160.53,6.38 167.81,6.54C175.09,6.7 182.38,6.97 189.66,7.25C196.94,7.53 204.22,7.87 211.5,8.22C218.78,8.57 226.06,8.94 233.34,9.36C240.62,9.78 247.91,10.24 255.19,10.76C262.47,11.28 269.75,11.87 277.03,12.47C284.31,13.08 291.59,13.75 298.87,14.39C306.15,15.03 313.44,15.7 320.72,16.3C328,16.9 335.28,17.48 342.56,17.97C349.84,18.46 357.12,18.89 364.4,19.25C371.68,19.6 378.97,19.88 386.25,20.1C393.53,20.32 400.81,20.46 408.09,20.59C415.37,20.71 422.65,20.79 429.93,20.85C437.21,20.91 444.49,20.94 451.77,20.97C459.05,21 466.34,21.01 473.62,21.02C480.9,21.03 488.18,21.04 495.46,21.04C502.74,21.04 510.02,21.04 517.3,21.04C524.58,21.04 531.87,21.04 539.15,21.04C546.43,21.04 553.71,21.05 560.99,21.05C568.27,21.05 575.55,21.05 582.83,21.05C590.11,21.05 597.4,21.05 604.68,21.05C611.96,21.05 619.24,21.05 626.52,21.05C633.8,21.05 641.08,21.05 648.36,21.05C655.64,21.05 662.92,21.05 670.2,21.05C677.48,21.05 684.77,21.04 692.05,21.04C699.33,21.04 706.61,21.04 713.89,21.04C721.17,21.04 728.45,21.04 735.73,21.04C743.01,21.04 750.3,21.03 757.58,21.02C764.86,21.01 772.14,21.01 779.42,20.99C786.7,20.97 793.98,20.94 801.26,20.9C808.54,20.86 815.83,20.81 823.11,20.73C830.39,20.65 837.67,20.55 844.95,20.41C852.23,20.27 859.51,20.1 866.79,19.9C874.07,19.7 881.36,19.45 888.64,19.2C895.92,18.95 903.2,18.65 910.48,18.38C917.76,18.11 925.04,17.82 932.32,17.59C939.6,17.36 946.88,17.15 954.16,17.02C961.44,16.89 968.73,16.82 976.01,16.83C983.29,16.84 990.57,16.94 997.85,17.09C1005.13,17.24 1012.41,17.47 1019.69,17.71C1026.97,17.95 1034.26,18.26 1041.54,18.53C1048.82,18.8 1056.1,19.08 1063.38,19.33C1070.66,19.57 1077.94,19.81 1085.22,20Q1092.5,20.19 1107.07,20.48L1107.07,21.62Q1092.5,21.9 1085.22,22.09C1077.94,22.28 1070.66,22.51 1063.38,22.76C1056.1,23.01 1048.82,23.3 1041.54,23.57C1034.26,23.84 1026.97,24.14 1019.69,24.38C1012.41,24.62 1005.13,24.85 997.85,25C990.57,25.15 983.29,25.25 976.01,25.26C968.73,25.27 961.44,25.2 954.16,25.07C946.88,24.94 939.6,24.73 932.32,24.5C925.04,24.27 917.76,23.98 910.48,23.71C903.2,23.44 895.92,23.14 888.64,22.89C881.36,22.64 874.07,22.39 866.79,22.19C859.51,21.99 852.23,21.82 844.95,21.68C837.67,21.54 830.39,21.44 823.11,21.36C815.83,21.28 808.54,21.23 801.26,21.19C793.98,21.15 786.7,21.12 779.42,21.1C772.14,21.08 764.86,21.08 757.58,21.07C750.3,21.06 743.01,21.05 735.73,21.05C728.45,21.05 721.17,21.05 713.89,21.05C706.61,21.05 699.33,21.05 692.05,21.05C684.77,21.05 677.48,21.05 670.2,21.05C662.92,21.05 655.64,21.05 648.36,21.05C641.08,21.05 633.8,21.05 626.52,21.05C619.24,21.05 611.96,21.05 604.68,21.05C597.4,21.05 590.11,21.05 582.83,21.05C575.55,21.05 568.27,21.05 560.99,21.05C553.71,21.05 546.43,21.05 539.15,21.05C531.87,21.05 524.58,21.05 517.3,21.05C510.02,21.05 502.74,21.05 495.46,21.05C488.18,21.05 480.9,21.06 473.62,21.07C466.34,21.08 459.05,21.09 451.77,21.12C444.49,21.15 437.21,21.18 429.93,21.24C422.65,21.3 415.37,21.37 408.09,21.5C400.81,21.63 393.53,21.78 386.25,22C378.97,22.23 371.68,22.5 364.4,22.85C357.12,23.2 349.84,23.63 342.56,24.12C335.28,24.61 328,25.19 320.72,25.79C313.44,26.39 306.15,27.06 298.87,27.7C291.59,28.34 284.31,29.01 277.03,29.62C269.75,30.22 262.47,30.81 255.19,31.33C247.91,31.85 240.62,32.31 233.34,32.73C226.06,33.15 218.78,33.52 211.5,33.87C204.22,34.22 196.94,34.56 189.66,34.84C182.38,35.12 175.09,35.39 167.81,35.55C160.53,35.71 153.25,35.84 145.97,35.78C138.69,35.72 131.41,35.55 124.13,35.2C116.85,34.85 109.57,34.32 102.29,33.69C95,33.06 87.72,32.22 80.44,31.4C73.16,30.58 65.88,29.62 58.6,28.76C51.32,27.9 44.05,26.99 36.76,26.23C29.48,25.47 22.2,24.77 14.91,24.19Q7.63,23.61 -6.93,22.76Z" style="vector-effect: none; stroke-width: 2px; stroke: rgb(181, 181, 181); stroke-opacity: 1; fill: rgb(181, 181, 181); fill-opacity: 1;"/><path class="box" d="M186.59,24.73V17.36M126.01,24.73V17.36H247.17V24.73ZM126.01,21.05H126.01M247.17,21.05H247.17" style="vector-effect: non-scaling-stroke; stroke-width: 2px; stroke: rgb(181, 181, 181); stroke-opacity: 1; fill: rgb(181, 181, 181); fill-opacity: 1;"/><path class="mean" d="M307.75,24.73V17.36" style="fill: none; vector-effect: non-scaling-stroke; stroke-width: 2px; stroke-dasharray: 4px, 2px; stroke: rgb(181, 181, 181); stroke-opacity: 1;"/></g></g><g class="scatterlayer mlayer"><g class="trace scatter traceb78aa7" style="stroke-miterlimit: 2; opacity: 1;"><g class="fills"/><g class="errorbars"/><g class="lines"/><g class="points"><path class="point" transform="translate(126.01,21.05)" d="M2,0A2,2 0 1,1 0,-2A2,2 0 0,1 2,0Z" style="opacity: 1; stroke-width: 0px; fill: rgb(11, 121, 230); fill-opacity: 1;"/></g><g class="text"/></g><g class="trace scatter trace69f84c" style="stroke-miterlimit: 2; opacity: 1;"><g class="fills"/><g class="errorbars"/><g class="lines"/><g class="points"><path class="point" transform="translate(247.17,21.05)" d="M2,0A2,2 0 1,1 0,-2A2,2 0 0,1 2,0Z" style="opacity: 1; stroke-width: 0px; fill: rgb(11, 121, 230); fill-opacity: 1;"/></g><g class="text"/></g><g class="trace scatter trace6a0517" style="stroke-miterlimit: 2; opacity: 1;"><g class="fills"/><g class="errorbars"/><g class="lines"/><g class="points"><path class="point" transform="translate(974.13,21.05)" d="M2,0A2,2 0 1,1 0,-2A2,2 0 0,1 2,0Z" style="opacity: 1; stroke-width: 0px; fill: rgb(11, 121, 230); fill-opacity: 1;"/></g><g class="text"/></g><g class="trace scatter tracee9ba53" style="stroke-miterlimit: 2; opacity: 1;"><g class="fills"/><g class="errorbars"/><g class="lines"/><g class="points"><path class="point" transform="translate(126.01,21.05)" d="M2,0A2,2 0 1,1 0,-2A2,2 0 0,1 2,0Z" style="opacity: 1; stroke-width: 0px; fill: rgb(11, 121, 230); fill-opacity: 1;"/></g><g class="text"/></g><g class="trace scatter trace93bbee" style="stroke-miterlimit: 2; opacity: 1;"><g class="fills"/><g class="errorbars"/><g class="lines"/><g class="points"><path class="point" transform="translate(247.17,21.05)" d="M2,0A2,2 0 1,1 0,-2A2,2 0 0,1 2,0Z" style="opacity: 1; stroke-width: 0px; fill: rgb(11, 121, 230); fill-opacity: 1;"/></g><g class="text"/></g><g class="trace scatter tracee6e88e" style="stroke-miterlimit: 2; opacity: 1;"><g class="fills"/><g class="errorbars"/><g class="lines"/><g class="points"><path class="point" transform="translate(126.01,21.05)" d="M2,0A2,2 0 1,1 0,-2A2,2 0 0,1 2,0Z" style="opacity: 1; stroke-width: 0px; fill: rgb(11, 121, 230); fill-opacity: 1;"/></g><g class="text"/></g></g></g></g><path class="xlines-above crisp" d="M0,0" style="fill: none;"/><path class="ylines-above crisp" d="M0,0" style="fill: none;"/><g class="overlines-above"/><g class="xaxislayer-above"><g class="x4tick"><text text-anchor="middle" x="0" y="312.5454545454545" transform="translate(110.85,0)" style="font-family: 'Lucida Grande', 'Open Sans', verdana, arial, sans-serif; font-size: 9px; fill: rgb(0, 0, 0); fill-opacity: 0.5; white-space: pre; opacity: 1;">0</text></g><g class="x4tick"><text text-anchor="middle" x="0" y="312.5454545454545" style="font-family: 'Lucida Grande', 'Open Sans', verdana, arial, sans-serif; font-size: 9px; fill: rgb(0, 0, 0); fill-opacity: 0.5; white-space: pre; opacity: 1;" transform="translate(232.01,0)">1</text></g><g class="x4tick"><text text-anchor="middle" x="0" y="312.5454545454545" style="font-family: 'Lucida Grande', 'Open Sans', verdana, arial, sans-serif; font-size: 9px; fill: rgb(0, 0, 0); fill-opacity: 0.5; white-space: pre; opacity: 1;" transform="translate(353.16999999999996,0)">2</text></g><g class="x4tick"><text text-anchor="middle" x="0" y="312.5454545454545" style="font-family: 'Lucida Grande', 'Open Sans', verdana, arial, sans-serif; font-size: 9px; fill: rgb(0, 0, 0); fill-opacity: 0.5; white-space: pre; opacity: 1;" transform="translate(474.33,0)">3</text></g><g class="x4tick"><text text-anchor="middle" x="0" y="312.5454545454545" style="font-family: 'Lucida Grande', 'Open Sans', verdana, arial, sans-serif; font-size: 9px; fill: rgb(0, 0, 0); fill-opacity: 0.5; white-space: pre; opacity: 1;" transform="translate(595.49,0)">4</text></g><g class="x4tick"><text text-anchor="middle" x="0" y="312.5454545454545" style="font-family: 'Lucida Grande', 'Open Sans', verdana, arial, sans-serif; font-size: 9px; fill: rgb(0, 0, 0); fill-opacity: 0.5; white-space: pre; opacity: 1;" transform="translate(716.65,0)">5</text></g><g class="x4tick"><text text-anchor="middle" x="0" y="312.5454545454545" style="font-family: 'Lucida Grande', 'Open Sans', verdana, arial, sans-serif; font-size: 9px; fill: rgb(0, 0, 0); fill-opacity: 0.5; white-space: pre; opacity: 1;" transform="translate(837.81,0)">6</text></g><g class="x4tick"><text text-anchor="middle" x="0" y="312.5454545454545" style="font-family: 'Lucida Grande', 'Open Sans', verdana, arial, sans-serif; font-size: 9px; fill: rgb(0, 0, 0); fill-opacity: 0.5; white-space: pre; opacity: 1;" transform="translate(958.97,0)">7</text></g><g class="x4tick"><text text-anchor="middle" x="0" y="312.5454545454545" style="font-family: 'Lucida Grande', 'Open Sans', verdana, arial, sans-serif; font-size: 9px; fill: rgb(0, 0, 0); fill-opacity: 0.5; white-space: pre; opacity: 1;" transform="translate(1080.13,0)">8</text></g></g><g class="yaxislayer-above"><g class="y4tick"><text text-anchor="end" x="105" y="3.15" transform="translate(0,281.5045454545454)" style="font-family: 'Lucida Grande', 'Open Sans', verdana, arial, sans-serif; font-size: 9px; fill: rgb(0, 0, 0); fill-opacity: 0.5; white-space: pre; opacity: 1;">Components  </text></g></g><g class="overaxes-above"/></g><g class="subplot x5y5"><g class="layer-subplot"><g class="shapelayer"/><g class="imagelayer"/></g><g class="minor-gridlayer"><g class="x5"/><g class="y5"/></g><g class="gridlayer"><g class="x5"><path class="x5grid crisp" transform="translate(220.69,0)" d="M0,330.6060606060606v42.09090909090908" style="stroke: rgb(0, 0, 0); stroke-opacity: 0.1; stroke-width: 1px;"/><path class="x5grid crisp" transform="translate(330.53,0)" d="M0,330.6060606060606v42.09090909090908" style="stroke: rgb(0, 0, 0); stroke-opacity: 0.1; stroke-width: 1px;"/><path class="x5grid crisp" transform="translate(440.37,0)" d="M0,330.6060606060606v42.09090909090908" style="stroke: rgb(0, 0, 0); stroke-opacity: 0.1; stroke-width: 1px;"/><path class="x5grid crisp" transform="translate(550.21,0)" d="M0,330.6060606060606v42.09090909090908" style="stroke: rgb(0, 0, 0); stroke-opacity: 0.1; stroke-width: 1px;"/><path class="x5grid crisp" transform="translate(660.05,0)" d="M0,330.6060606060606v42.09090909090908" style="stroke: rgb(0, 0, 0); stroke-opacity: 0.1; stroke-width: 1px;"/><path class="x5grid crisp" transform="translate(769.89,0)" d="M0,330.6060606060606v42.09090909090908" style="stroke: rgb(0, 0, 0); stroke-opacity: 0.1; stroke-width: 1px;"/><path class="x5grid crisp" transform="translate(879.73,0)" d="M0,330.6060606060606v42.09090909090908" style="stroke: rgb(0, 0, 0); stroke-opacity: 0.1; stroke-width: 1px;"/><path class="x5grid crisp" transform="translate(989.57,0)" d="M0,330.6060606060606v42.09090909090908" style="stroke: rgb(0, 0, 0); stroke-opacity: 0.1; stroke-width: 1px;"/></g><g class="y5"><path class="y5grid crisp" transform="translate(0,351.65606060606063)" d="M106,0h979" style="stroke: rgb(0, 0, 0); stroke-opacity: 0.1; stroke-width: 1px;"/></g></g><g class="zerolinelayer"><path class="x5zl zl crisp" transform="translate(110.85,0)" d="M0,330.6060606060606v42.09090909090908" style="stroke: rgb(0, 0, 0); stroke-opacity: 0.1; stroke-width: 2px;"/></g><g class="layer-between"><g class="shapelayer"/><g class="imagelayer"/></g><path class="xlines-below"/><path class="ylines-below"/><g class="overlines-below"/><g class="xaxislayer-below"/><g class="yaxislayer-below"/><g class="overaxes-below"/><g class="overplot"><g class="x5y5" transform="translate(106,330.6060606060606)" clip-path="url(#clipa04e5bx5y5plot)"><g class="violinlayer mlayer"><g class="trace violins" style="opacity: 0.5;"><path class="violin" d="M628.75,20.05Q630.94,19.49 632.01,19.08C633.11,18.66 634.2,18.15 635.27,17.56C636.38,16.95 637.46,16.21 638.53,15.45C639.63,14.67 640.71,13.78 641.79,12.92C642.88,12.06 643.95,11.12 645.05,10.3C646.12,9.5 647.19,8.68 648.31,8.07C649.37,7.49 650.46,6.96 651.57,6.67C652.64,6.39 653.75,6.26 654.83,6.31C655.92,6.36 657.02,6.63 658.09,6.96C659.2,7.3 660.28,7.84 661.35,8.37C662.45,8.92 663.52,9.58 664.6,10.22C665.69,10.87 666.77,11.57 667.86,12.24C668.95,12.91 670.03,13.59 671.12,14.22C672.2,14.85 673.29,15.46 674.38,16.03C675.46,16.59 676.54,17.13 677.64,17.6C678.72,18.06 679.81,18.48 680.9,18.84C681.98,19.19 683.07,19.5 684.16,19.75C685.24,20 686.33,20.19 687.42,20.35C688.5,20.51 689.59,20.62 690.68,20.71C691.77,20.8 692.85,20.85 693.94,20.9C695.03,20.95 696.11,20.97 697.2,20.99C698.28,21.01 699.37,21.01 700.45,21.02C701.54,21.03 702.62,21.04 703.71,21.04C704.8,21.04 705.88,21.04 706.97,21.04C708.06,21.04 709.14,21.04 710.23,21.04C711.32,21.04 712.4,21.05 713.49,21.05C714.58,21.05 715.66,21.05 716.75,21.05C717.84,21.05 718.92,21.05 720.01,21.05C721.1,21.05 722.18,21.05 723.27,21.05C724.36,21.05 725.44,21.05 726.53,21.05C727.62,21.05 728.7,21.05 729.79,21.05C730.88,21.05 731.96,21.05 733.05,21.05C734.13,21.05 735.22,21.05 736.3,21.05C737.39,21.05 738.47,21.05 739.56,21.05C740.65,21.05 741.73,21.05 742.82,21.05C743.91,21.05 744.99,21.05 746.08,21.05C747.17,21.05 748.25,21.05 749.34,21.05C750.43,21.05 751.51,21.05 752.6,21.05C753.69,21.05 754.77,21.05 755.86,21.05C756.95,21.05 758.03,21.05 759.12,21.05C760.21,21.05 761.29,21.05 762.38,21.05C763.47,21.05 764.55,21.05 765.64,21.05C766.73,21.05 767.81,21.05 768.9,21.05C769.98,21.05 771.07,21.05 772.15,21.05C773.24,21.05 774.32,21.05 775.41,21.05C776.5,21.05 777.58,21.05 778.67,21.05C779.76,21.05 780.84,21.05 781.93,21.05C783.02,21.05 784.1,21.05 785.19,21.05C786.28,21.05 787.36,21.05 788.45,21.05C789.54,21.05 790.62,21.05 791.71,21.05C792.8,21.05 793.88,21.05 794.97,21.05C796.06,21.05 797.14,21.05 798.23,21.05C799.32,21.05 800.4,21.05 801.49,21.05C802.58,21.05 803.66,21.05 804.75,21.05C805.84,21.05 806.92,21.05 808.01,21.05C809.09,21.05 810.18,21.05 811.26,21.05C812.35,21.05 813.43,21.05 814.52,21.05C815.61,21.05 816.69,21.05 817.78,21.05C818.87,21.05 819.95,21.05 821.04,21.05C822.13,21.05 823.21,21.05 824.3,21.05C825.39,21.05 826.47,21.05 827.56,21.05C828.65,21.05 829.73,21.05 830.82,21.05C831.91,21.05 832.99,21.05 834.08,21.05C835.17,21.05 836.25,21.05 837.34,21.05C838.43,21.05 839.51,21.05 840.6,21.05C841.69,21.05 842.77,21.05 843.86,21.05C844.94,21.05 846.03,21.05 847.11,21.05C848.2,21.05 849.28,21.05 850.37,21.05C851.46,21.05 852.54,21.05 853.63,21.05C854.72,21.05 855.8,21.05 856.89,21.05C857.98,21.05 859.06,21.05 860.15,21.05C861.24,21.05 862.32,21.05 863.41,21.05C864.5,21.05 865.58,21.05 866.67,21.05C867.76,21.05 868.84,21.05 869.93,21.05C871.02,21.05 872.1,21.05 873.19,21.05C874.28,21.05 875.36,21.05 876.45,21.05C877.54,21.05 878.62,21.05 879.71,21.05C880.79,21.05 881.88,21.05 882.96,21.05C884.05,21.05 885.13,21.05 886.22,21.05C887.31,21.05 888.39,21.05 889.48,21.05C890.57,21.05 891.65,21.05 892.74,21.05C893.83,21.05 894.91,21.05 896,21.05C897.09,21.05 898.17,21.05 899.26,21.05C900.35,21.05 901.43,21.05 902.52,21.05C903.61,21.05 904.69,21.05 905.78,21.05C906.87,21.05 907.95,21.05 909.04,21.05C910.13,21.05 911.21,21.05 912.3,21.05C913.39,21.05 914.47,21.05 915.56,21.05C916.64,21.05 917.73,21.05 918.81,21.05C919.9,21.05 920.98,21.05 922.07,21.05C923.16,21.05 924.24,21.05 925.33,21.05C926.42,21.05 927.5,21.05 928.59,21.05C929.68,21.05 930.76,21.05 931.85,21.05C932.94,21.05 934.02,21.04 935.11,21.04C936.2,21.04 937.28,21.04 938.37,21.04C939.46,21.04 940.54,21.04 941.63,21.03C942.72,21.02 943.8,21.02 944.89,21C945.98,20.98 947.06,20.96 948.15,20.93C949.24,20.89 950.32,20.86 951.41,20.79C952.49,20.72 953.58,20.64 954.66,20.52C955.75,20.4 956.84,20.26 957.92,20.09C959.01,19.92 960.1,19.71 961.18,19.49C962.27,19.27 963.35,19 964.44,18.76C965.53,18.52 966.61,18.26 967.7,18.05C968.78,17.84 969.87,17.64 970.96,17.52C972.04,17.4 973.13,17.33 974.22,17.33C975.31,17.33 976.4,17.41 977.48,17.54C978.57,17.67 979.66,17.88 980.74,18.09C981.83,18.3 982.91,18.56 984,18.8C985.09,19.04 986.17,19.31 987.26,19.53C988.34,19.75 989.42,19.95 990.51,20.12Q991.59,20.29 993.77,20.54L993.77,21.55Q991.59,21.8 990.51,21.97C989.42,22.14 988.34,22.35 987.26,22.57C986.17,22.79 985.09,23.05 984,23.29C982.91,23.53 981.83,23.8 980.74,24.01C979.66,24.22 978.57,24.42 977.48,24.55C976.4,24.67 975.31,24.76 974.22,24.76C973.13,24.76 972.04,24.69 970.96,24.57C969.87,24.45 968.78,24.25 967.7,24.04C966.61,23.83 965.53,23.57 964.44,23.33C963.35,23.09 962.27,22.82 961.18,22.6C960.1,22.38 959.01,22.17 957.92,22C956.84,21.83 955.75,21.69 954.66,21.57C953.58,21.45 952.49,21.37 951.41,21.3C950.32,21.23 949.24,21.2 948.15,21.16C947.06,21.13 945.98,21.11 944.89,21.09C943.8,21.07 942.72,21.07 941.63,21.06C940.54,21.05 939.46,21.05 938.37,21.05C937.28,21.05 936.2,21.05 935.11,21.05C934.02,21.05 932.94,21.05 931.85,21.05C930.76,21.05 929.68,21.05 928.59,21.05C927.5,21.05 926.42,21.05 925.33,21.05C924.24,21.05 923.16,21.05 922.07,21.05C920.98,21.05 919.9,21.05 918.81,21.05C917.73,21.05 916.64,21.05 915.56,21.05C914.47,21.05 913.39,21.05 912.3,21.05C911.21,21.05 910.13,21.05 909.04,21.05C907.95,21.05 906.87,21.05 905.78,21.05C904.69,21.05 903.61,21.05 902.52,21.05C901.43,21.05 900.35,21.05 899.26,21.05C898.17,21.05 897.09,21.05 896,21.05C894.91,21.05 893.83,21.05 892.74,21.05C891.65,21.05 890.57,21.05 889.48,21.05C888.39,21.05 887.31,21.05 886.22,21.05C885.13,21.05 884.05,21.05 882.96,21.05C881.88,21.05 880.79,21.05 879.71,21.05C878.62,21.05 877.54,21.05 876.45,21.05C875.36,21.05 874.28,21.05 873.19,21.05C872.1,21.05 871.02,21.05 869.93,21.05C868.84,21.05 867.76,21.05 866.67,21.05C865.58,21.05 864.5,21.05 863.41,21.05C862.32,21.05 861.24,21.05 860.15,21.05C859.06,21.05 857.98,21.05 856.89,21.05C855.8,21.05 854.72,21.05 853.63,21.05C852.54,21.05 851.46,21.05 850.37,21.05C849.28,21.05 848.2,21.05 847.11,21.05C846.03,21.05 844.94,21.05 843.86,21.05C842.77,21.05 841.69,21.05 840.6,21.05C839.51,21.05 838.43,21.05 837.34,21.05C836.25,21.05 835.17,21.05 834.08,21.05C832.99,21.05 831.91,21.05 830.82,21.05C829.73,21.05 828.65,21.05 827.56,21.05C826.47,21.05 825.39,21.05 824.3,21.05C823.21,21.05 822.13,21.05 821.04,21.05C819.95,21.05 818.87,21.05 817.78,21.05C816.69,21.05 815.61,21.05 814.52,21.05C813.43,21.05 812.35,21.05 811.26,21.05C810.18,21.05 809.09,21.05 808.01,21.05C806.92,21.05 805.84,21.05 804.75,21.05C803.66,21.05 802.58,21.05 801.49,21.05C800.4,21.05 799.32,21.05 798.23,21.05C797.14,21.05 796.06,21.05 794.97,21.05C793.88,21.05 792.8,21.05 791.71,21.05C790.62,21.05 789.54,21.05 788.45,21.05C787.36,21.05 786.28,21.05 785.19,21.05C784.1,21.05 783.02,21.05 781.93,21.05C780.84,21.05 779.76,21.05 778.67,21.05C777.58,21.05 776.5,21.05 775.41,21.05C774.32,21.05 773.24,21.05 772.15,21.05C771.07,21.05 769.98,21.05 768.9,21.05C767.81,21.05 766.73,21.05 765.64,21.05C764.55,21.05 763.47,21.05 762.38,21.05C761.29,21.05 760.21,21.05 759.12,21.05C758.03,21.05 756.95,21.05 755.86,21.05C754.77,21.05 753.69,21.05 752.6,21.05C751.51,21.05 750.43,21.05 749.34,21.05C748.25,21.05 747.17,21.05 746.08,21.05C744.99,21.05 743.91,21.05 742.82,21.05C741.73,21.05 740.65,21.05 739.56,21.05C738.47,21.05 737.39,21.05 736.3,21.05C735.22,21.05 734.13,21.05 733.05,21.05C731.96,21.05 730.88,21.05 729.79,21.05C728.7,21.05 727.62,21.05 726.53,21.05C725.44,21.05 724.36,21.05 723.27,21.05C722.18,21.05 721.1,21.05 720.01,21.05C718.92,21.05 717.84,21.05 716.75,21.05C715.66,21.05 714.58,21.05 713.49,21.05C712.4,21.05 711.32,21.05 710.23,21.05C709.14,21.05 708.06,21.05 706.97,21.05C705.88,21.05 704.8,21.05 703.71,21.05C702.62,21.05 701.54,21.06 700.45,21.07C699.37,21.08 698.28,21.09 697.2,21.11C696.11,21.13 695.03,21.15 693.94,21.2C692.85,21.25 691.77,21.3 690.68,21.39C689.59,21.48 688.5,21.58 687.42,21.74C686.33,21.9 685.24,22.09 684.16,22.34C683.07,22.59 681.98,22.9 680.9,23.25C679.81,23.61 678.72,24.03 677.64,24.49C676.54,24.96 675.46,25.5 674.38,26.06C673.29,26.63 672.2,27.24 671.12,27.87C670.03,28.5 668.95,29.18 667.86,29.85C666.77,30.52 665.69,31.22 664.6,31.87C663.52,32.51 662.45,33.17 661.35,33.72C660.28,34.25 659.2,34.79 658.09,35.13C657.02,35.46 655.92,35.73 654.83,35.78C653.75,35.83 652.64,35.7 651.57,35.42C650.46,35.13 649.37,34.6 648.31,34.02C647.19,33.41 646.12,32.58 645.05,31.79C643.95,30.97 642.88,30.04 641.79,29.18C640.71,28.32 639.63,27.43 638.53,26.64C637.46,25.88 636.38,25.14 635.27,24.53C634.2,23.94 633.11,23.43 632.01,23.01Q630.94,22.6 628.75,22.05Z" style="vector-effect: none; stroke-width: 2px; stroke: rgb(181, 181, 181); stroke-opacity: 1; fill: rgb(181, 181, 181); fill-opacity: 1;"/><path class="box" d="M656.22,24.73V17.36M650.93,24.73V17.36H668.83V24.73ZM650.93,21.05H648.4M668.83,21.05H668.83" style="vector-effect: non-scaling-stroke; stroke-width: 2px; stroke: rgb(181, 181, 181); stroke-opacity: 1; fill: rgb(181, 181, 181); fill-opacity: 1;"/><path class="mean" d="M709.12,24.73V17.36" style="fill: none; vector-effect: non-scaling-stroke; stroke-width: 2px; stroke-dasharray: 4px, 2px; stroke: rgb(181, 181, 181); stroke-opacity: 1;"/></g></g><g class="scatterlayer mlayer"><g class="trace scatter trace263d67" style="stroke-miterlimit: 2; opacity: 1;"><g class="fills"/><g class="errorbars"/><g class="lines"/><g class="points"><path class="point" transform="translate(648.4,21.05)" d="M2,0A2,2 0 1,1 0,-2A2,2 0 0,1 2,0Z" style="opacity: 1; stroke-width: 0px; fill: rgb(11, 121, 230); fill-opacity: 1;"/></g><g class="text"/></g><g class="trace scatter tracea86543" style="stroke-miterlimit: 2; opacity: 1;"><g class="fills"/><g class="errorbars"/><g class="lines"/><g class="points"><path class="point" transform="translate(652.96,21.05)" d="M2,0A2,2 0 1,1 0,-2A2,2 0 0,1 2,0Z" style="opacity: 1; stroke-width: 0px; fill: rgb(11, 121, 230); fill-opacity: 1;"/></g><g class="text"/></g><g class="trace scatter trace896c09" style="stroke-miterlimit: 2; opacity: 1;"><g class="fills"/><g class="errorbars"/><g class="lines"/><g class="points"><path class="point" transform="translate(974.13,21.05)" d="M2,0A2,2 0 1,1 0,-2A2,2 0 0,1 2,0Z" style="opacity: 1; stroke-width: 0px; fill: rgb(11, 121, 230); fill-opacity: 1;"/></g><g class="text"/></g><g class="trace scatter tracedfb5b0" style="stroke-miterlimit: 2; opacity: 1;"><g class="fills"/><g class="errorbars"/><g class="lines"/><g class="points"><path class="point" transform="translate(650.93,21.05)" d="M2,0A2,2 0 1,1 0,-2A2,2 0 0,1 2,0Z" style="opacity: 1; stroke-width: 0px; fill: rgb(11, 121, 230); fill-opacity: 1;"/></g><g class="text"/></g><g class="trace scatter trace5ecf49" style="stroke-miterlimit: 2; opacity: 1;"><g class="fills"/><g class="errorbars"/><g class="lines"/><g class="points"><path class="point" transform="translate(668.83,21.05)" d="M2,0A2,2 0 1,1 0,-2A2,2 0 0,1 2,0Z" style="opacity: 1; stroke-width: 0px; fill: rgb(11, 121, 230); fill-opacity: 1;"/></g><g class="text"/></g><g class="trace scatter trace1373c3" style="stroke-miterlimit: 2; opacity: 1;"><g class="fills"/><g class="errorbars"/><g class="lines"/><g class="points"><path class="point" transform="translate(659.49,21.05)" d="M2,0A2,2 0 1,1 0,-2A2,2 0 0,1 2,0Z" style="opacity: 1; stroke-width: 0px; fill: rgb(11, 121, 230); fill-opacity: 1;"/></g><g class="text"/></g></g></g></g><path class="xlines-above crisp" d="M0,0" style="fill: none;"/><path class="ylines-above crisp" d="M0,0" style="fill: none;"/><g class="overlines-above"/><g class="xaxislayer-above"><g class="x5tick"><text text-anchor="middle" x="0" y="382.6969696969697" transform="translate(110.85,0)" style="font-family: 'Lucida Grande', 'Open Sans', verdana, arial, sans-serif; font-size: 9px; fill: rgb(0, 0, 0); fill-opacity: 0.5; white-space: pre; opacity: 1;">0</text></g><g class="x5tick"><text text-anchor="middle" x="0" y="382.6969696969697" style="font-family: 'Lucida Grande', 'Open Sans', verdana, arial, sans-serif; font-size: 9px; fill: rgb(0, 0, 0); fill-opacity: 0.5; white-space: pre; opacity: 1;" transform="translate(220.69,0)">2k</text></g><g class="x5tick"><text text-anchor="middle" x="0" y="382.6969696969697" style="font-family: 'Lucida Grande', 'Open Sans', verdana, arial, sans-serif; font-size: 9px; fill: rgb(0, 0, 0); fill-opacity: 0.5; white-space: pre; opacity: 1;" transform="translate(330.53,0)">4k</text></g><g class="x5tick"><text text-anchor="middle" x="0" y="382.6969696969697" style="font-family: 'Lucida Grande', 'Open Sans', verdana, arial, sans-serif; font-size: 9px; fill: rgb(0, 0, 0); fill-opacity: 0.5; white-space: pre; opacity: 1;" transform="translate(440.37,0)">6k</text></g><g class="x5tick"><text text-anchor="middle" x="0" y="382.6969696969697" style="font-family: 'Lucida Grande', 'Open Sans', verdana, arial, sans-serif; font-size: 9px; fill: rgb(0, 0, 0); fill-opacity: 0.5; white-space: pre; opacity: 1;" transform="translate(550.21,0)">8k</text></g><g class="x5tick"><text text-anchor="middle" x="0" y="382.6969696969697" style="font-family: 'Lucida Grande', 'Open Sans', verdana, arial, sans-serif; font-size: 9px; fill: rgb(0, 0, 0); fill-opacity: 0.5; white-space: pre; opacity: 1;" transform="translate(660.05,0)">10k</text></g><g class="x5tick"><text text-anchor="middle" x="0" y="382.6969696969697" style="font-family: 'Lucida Grande', 'Open Sans', verdana, arial, sans-serif; font-size: 9px; fill: rgb(0, 0, 0); fill-opacity: 0.5; white-space: pre; opacity: 1;" transform="translate(769.89,0)">12k</text></g><g class="x5tick"><text text-anchor="middle" x="0" y="382.6969696969697" style="font-family: 'Lucida Grande', 'Open Sans', verdana, arial, sans-serif; font-size: 9px; fill: rgb(0, 0, 0); fill-opacity: 0.5; white-space: pre; opacity: 1;" transform="translate(879.73,0)">14k</text></g><g class="x5tick"><text text-anchor="middle" x="0" y="382.6969696969697" style="font-family: 'Lucida Grande', 'Open Sans', verdana, arial, sans-serif; font-size: 9px; fill: rgb(0, 0, 0); fill-opacity: 0.5; white-space: pre; opacity: 1;" transform="translate(989.57,0)">16k</text></g></g><g class="yaxislayer-above"><g class="y5tick"><text text-anchor="end" x="105" y="3.15" transform="translate(0,351.65606060606063)" style="font-family: 'Lucida Grande', 'Open Sans', verdana, arial, sans-serif; font-size: 9px; fill: rgb(0, 0, 0); fill-opacity: 0.5; white-space: pre; opacity: 1;">Largest component  </text></g></g><g class="overaxes-above"/></g><g class="subplot x6y6"><g class="layer-subplot"><g class="shapelayer"/><g class="imagelayer"/></g><g class="minor-gridlayer"><g class="x6"/><g class="y6"/></g><g class="gridlayer"><g class="x6"/><g class="y6"><path class="y6grid crisp" transform="translate(0,421.80757575757576)" d="M106,0h979" style="stroke: rgb(0, 0, 0); stroke-opacity: 0.1; stroke-width: 1px;"/></g></g><g class="zerolinelayer"><path class="x6zl zl crisp" transform="translate(110.85,0)" d="M0,400.75757575757575v42.09090909090909" style="stroke: rgb(0, 0, 0); stroke-opacity: 0.1; stroke-width: 2px;"/></g><g class="layer-between"><g class="shapelayer"/><g class="imagelayer"/></g><path class="xlines-below"/><path class="ylines-below"/><g class="overlines-below"/><g class="xaxislayer-below"/><g class="yaxislayer-below"/><g class="overaxes-below"/><g class="overplot"><g class="x6y6" transform="translate(106,400.75757575757575)" clip-path="url(#clipa04e5bx6y6plot)"><g class="violinlayer mlayer"><g class="trace violins" style="opacity: 0.5;"><path class="violin" d="M4.85,6.31L4.85,35.78Z" style="vector-effect: none; stroke-width: 2px; stroke: rgb(181, 181, 181); stroke-opacity: 1; fill: rgb(181, 181, 181); fill-opacity: 1;"/><path class="box" d="M4.85,24.73V17.36M4.85,24.73V17.36H4.85V24.73ZM4.85,21.05H4.85M4.85,21.05H4.85" style="vector-effect: non-scaling-stroke; stroke-width: 2px; stroke: rgb(181, 181, 181); stroke-opacity: 1; fill: rgb(181, 181, 181); fill-opacity: 1;"/><path class="mean" d="M4.85,24.73V17.36" style="fill: none; vector-effect: non-scaling-stroke; stroke-width: 2px; stroke-dasharray: 4px, 2px; stroke: rgb(181, 181, 181); stroke-opacity: 1;"/></g></g><g class="scatterlayer mlayer"><g class="trace scatter trace879b98" style="stroke-miterlimit: 2; opacity: 1;"><g class="fills"/><g class="errorbars"/><g class="lines"/><g class="points"><path class="point" transform="translate(4.85,21.05)" d="M2,0A2,2 0 1,1 0,-2A2,2 0 0,1 2,0Z" style="opacity: 1; stroke-width: 0px; fill: rgb(11, 121, 230); fill-opacity: 1;"/></g><g class="text"/></g><g class="trace scatter tracef78a5f" style="stroke-miterlimit: 2; opacity: 1;"><g class="fills"/><g class="errorbars"/><g class="lines"/><g class="points"><path class="point" transform="translate(4.85,21.05)" d="M2,0A2,2 0 1,1 0,-2A2,2 0 0,1 2,0Z" style="opacity: 1; stroke-width: 0px; fill: rgb(11, 121, 230); fill-opacity: 1;"/></g><g class="text"/></g><g class="trace scatter trace9d6113" style="stroke-miterlimit: 2; opacity: 1;"><g class="fills"/><g class="errorbars"/><g class="lines"/><g class="points"><path class="point" transform="translate(4.85,21.05)" d="M2,0A2,2 0 1,1 0,-2A2,2 0 0,1 2,0Z" style="opacity: 1; stroke-width: 0px; fill: rgb(11, 121, 230); fill-opacity: 1;"/></g><g class="text"/></g><g class="trace scatter tracee870d9" style="stroke-miterlimit: 2; opacity: 1;"><g class="fills"/><g class="errorbars"/><g class="lines"/><g class="points"><path class="point" transform="translate(4.85,21.05)" d="M2,0A2,2 0 1,1 0,-2A2,2 0 0,1 2,0Z" style="opacity: 1; stroke-width: 0px; fill: rgb(11, 121, 230); fill-opacity: 1;"/></g><g class="text"/></g><g class="trace scatter trace12980c" style="stroke-miterlimit: 2; opacity: 1;"><g class="fills"/><g class="errorbars"/><g class="lines"/><g class="points"><path class="point" transform="translate(4.85,21.05)" d="M2,0A2,2 0 1,1 0,-2A2,2 0 0,1 2,0Z" style="opacity: 1; stroke-width: 0px; fill: rgb(11, 121, 230); fill-opacity: 1;"/></g><g class="text"/></g><g class="trace scatter traceb7f94a" style="stroke-miterlimit: 2; opacity: 1;"><g class="fills"/><g class="errorbars"/><g class="lines"/><g class="points"><path class="point" transform="translate(4.85,21.05)" d="M2,0A2,2 0 1,1 0,-2A2,2 0 0,1 2,0Z" style="opacity: 1; stroke-width: 0px; fill: rgb(11, 121, 230); fill-opacity: 1;"/></g><g class="text"/></g></g></g></g><path class="xlines-above crisp" d="M0,0" style="fill: none;"/><path class="ylines-above crisp" d="M0,0" style="fill: none;"/><g class="overlines-above"/><g class="xaxislayer-above"><g class="x6tick"><text text-anchor="middle" x="0" y="452.8484848484849" transform="translate(110.85,0)" style="font-family: 'Lucida Grande', 'Open Sans', verdana, arial, sans-serif; font-size: 9px; fill: rgb(0, 0, 0); fill-opacity: 0.5; white-space: pre; opacity: 1;">0</text></g></g><g class="yaxislayer-above"><g class="y6tick"><text text-anchor="end" x="105" y="3.15" transform="translate(0,421.80757575757576)" style="font-family: 'Lucida Grande', 'Open Sans', verdana, arial, sans-serif; font-size: 9px; fill: rgb(0, 0, 0); fill-opacity: 0.5; white-space: pre; opacity: 1;">Self loops  </text></g></g><g class="overaxes-above"/></g><g class="subplot x7y7"><g class="layer-subplot"><g class="shapelayer"/><g class="imagelayer"/></g><g class="minor-gridlayer"><g class="x7"/><g class="y7"/></g><g class="gridlayer"><g class="x7"/><g class="y7"><path class="y7grid crisp" transform="translate(0,491.9590909090909)" d="M106,0h979" style="stroke: rgb(0, 0, 0); stroke-opacity: 0.1; stroke-width: 1px;"/></g></g><g class="zerolinelayer"><path class="x7zl zl crisp" transform="translate(110.85,0)" d="M0,470.9090909090909v42.09090909090909" style="stroke: rgb(0, 0, 0); stroke-opacity: 0.1; stroke-width: 2px;"/></g><g class="layer-between"><g class="shapelayer"/><g class="imagelayer"/></g><path class="xlines-below"/><path class="ylines-below"/><g class="overlines-below"/><g class="xaxislayer-below"/><g class="yaxislayer-below"/><g class="overaxes-below"/><g class="overplot"><g class="x7y7" transform="translate(106,470.9090909090909)" clip-path="url(#clipa04e5bx7y7plot)"><g class="violinlayer mlayer"><g class="trace violins" style="opacity: 0.5;"><path class="violin" d="M4.85,6.31L4.85,35.78Z" style="vector-effect: none; stroke-width: 2px; stroke: rgb(181, 181, 181); stroke-opacity: 1; fill: rgb(181, 181, 181); fill-opacity: 1;"/><path class="box" d="M4.85,24.73V17.36M4.85,24.73V17.36H4.85V24.73ZM4.85,21.05H4.85M4.85,21.05H4.85" style="vector-effect: non-scaling-stroke; stroke-width: 2px; stroke: rgb(181, 181, 181); stroke-opacity: 1; fill: rgb(181, 181, 181); fill-opacity: 1;"/><path class="mean" d="M4.85,24.73V17.36" style="fill: none; vector-effect: non-scaling-stroke; stroke-width: 2px; stroke-dasharray: 4px, 2px; stroke: rgb(181, 181, 181); stroke-opacity: 1;"/></g></g><g class="scatterlayer mlayer"><g class="trace scatter trace8e3161" style="stroke-miterlimit: 2; opacity: 1;"><g class="fills"/><g class="errorbars"/><g class="lines"/><g class="points"><path class="point" transform="translate(4.85,21.05)" d="M2,0A2,2 0 1,1 0,-2A2,2 0 0,1 2,0Z" style="opacity: 1; stroke-width: 0px; fill: rgb(11, 121, 230); fill-opacity: 1;"/></g><g class="text"/></g><g class="trace scatter trace9452f9" style="stroke-miterlimit: 2; opacity: 1;"><g class="fills"/><g class="errorbars"/><g class="lines"/><g class="points"><path class="point" transform="translate(4.85,21.05)" d="M2,0A2,2 0 1,1 0,-2A2,2 0 0,1 2,0Z" style="opacity: 1; stroke-width: 0px; fill: rgb(11, 121, 230); fill-opacity: 1;"/></g><g class="text"/></g><g class="trace scatter tracefc15a4" style="stroke-miterlimit: 2; opacity: 1;"><g class="fills"/><g class="errorbars"/><g class="lines"/><g class="points"><path class="point" transform="translate(4.85,21.05)" d="M2,0A2,2 0 1,1 0,-2A2,2 0 0,1 2,0Z" style="opacity: 1; stroke-width: 0px; fill: rgb(11, 121, 230); fill-opacity: 1;"/></g><g class="text"/></g><g class="trace scatter tracec7f0b0" style="stroke-miterlimit: 2; opacity: 1;"><g class="fills"/><g class="errorbars"/><g class="lines"/><g class="points"><path class="point" transform="translate(4.85,21.05)" d="M2,0A2,2 0 1,1 0,-2A2,2 0 0,1 2,0Z" style="opacity: 1; stroke-width: 0px; fill: rgb(11, 121, 230); fill-opacity: 1;"/></g><g class="text"/></g><g class="trace scatter tracecba7ee" style="stroke-miterlimit: 2; opacity: 1;"><g class="fills"/><g class="errorbars"/><g class="lines"/><g class="points"><path class="point" transform="translate(4.85,21.05)" d="M2,0A2,2 0 1,1 0,-2A2,2 0 0,1 2,0Z" style="opacity: 1; stroke-width: 0px; fill: rgb(11, 121, 230); fill-opacity: 1;"/></g><g class="text"/></g><g class="trace scatter trace347336" style="stroke-miterlimit: 2; opacity: 1;"><g class="fills"/><g class="errorbars"/><g class="lines"/><g class="points"><path class="point" transform="translate(4.85,21.05)" d="M2,0A2,2 0 1,1 0,-2A2,2 0 0,1 2,0Z" style="opacity: 1; stroke-width: 0px; fill: rgb(11, 121, 230); fill-opacity: 1;"/></g><g class="text"/></g></g></g></g><path class="xlines-above crisp" d="M0,0" style="fill: none;"/><path class="ylines-above crisp" d="M0,0" style="fill: none;"/><g class="overlines-above"/><g class="xaxislayer-above"><g class="x7tick"><text text-anchor="middle" x="0" y="523" transform="translate(110.85,0)" style="font-family: 'Lucida Grande', 'Open Sans', verdana, arial, sans-serif; font-size: 9px; fill: rgb(0, 0, 0); fill-opacity: 0.5; white-space: pre; opacity: 1;">0</text></g></g><g class="yaxislayer-above"><g class="y7tick"><text text-anchor="end" x="105" y="3.15" transform="translate(0,491.9590909090909)" style="font-family: 'Lucida Grande', 'Open Sans', verdana, arial, sans-serif; font-size: 9px; fill: rgb(0, 0, 0); fill-opacity: 0.5; white-space: pre; opacity: 1;">Duplicate edges  </text></g></g><g class="overaxes-above"/></g></g><g class="polarlayer"/><g class="smithlayer"/><g class="ternarylayer"/><g class="geolayer"/><g class="funnelarealayer"/><g class="pielayer"/><g class="iciclelayer"/><g class="treemaplayer"/><g class="sunburstlayer"/><g class="glimages"/><defs id="topdefs-a04e5b"><g class="clips"/></defs><g class="layer-above"><g class="imagelayer"/><g class="shapelayer"/></g><g class="infolayer"><g class="g-gtitle"><text class="gtitle" x="550" y="25" text-anchor="middle" dy="0em" style="opacity: 1; font-family: 'Lucida Grande', 'Open Sans', verdana, arial, sans-serif; font-size: 20px; fill: rgb(42, 63, 95); fill-opacity: 1; white-space: pre;"><tspan class="line" dy="0em" x="550" y="25">Network</tspan><tspan class="line" dy="1.3em" x="550" y="25"><tspan style="font-size:70%" dy="-0.6em">6 samples</tspan><tspan dy="0.42em"></tspan></tspan></text></g><g class="g-xtitle"/><g class="g-x2title"/><g class="g-x3title"/><g class="g-x4title"/><g class="g-x5title"/><g class="g-x6title"/><g class="g-x7title"/><g class="g-ytitle"/><g class="g-y2title"/><g class="g-y3title"/><g class="g-y4title"/><g class="g-y5title"/><g class="g-y6title"/><g class="g-y7title"/></g></svg>