<svg class="main-svg" xmlns="http://www.w3.org/2000/svg" xmlns:xlink="http://www.w3.org/1999/xlink" width="2200" height="266" style="" viewBox="0 0 1100 133"><rect x="0" y="0" width="1100" height="133" style="fill: rgb(255, 255, 255); fill-opacity: 1;"/><defs id="defs-770f2c"><g class="clips"><clipPath id="clip770f2cxyplot" class="plotclip"><rect width="1025" height="43"/></clipPath><clipPath class="axesclip" id="clip770f2cx"><rect x="60" y="0" width="1025" height="133"/></clipPath><clipPath class="axesclip" id="clip770f2cy"><rect x="0" y="50" width="1100" height="43"/></clipPath><clipPath class="axesclip" id="clip770f2cxy"><rect x="60" y="50" width="1025" height="43"/></clipPath></g><g class="gradients"/><g class="patterns"/></defs><g class="bglayer"/><g class="layer-below"><g class="imagelayer"/><g class="shapelayer"/></g><g class="cartesianlayer"><g class="subplot xy"><g class="layer-subplot"><g class="shapelayer"/><g class="imagelayer"/></g><g class="minor-gridlayer"><g class="x"/><g class="y"/></g><g class="gridlayer"><g class="x"><path class="xgrid crisp" transform="translate(195.36,0)" d="M0,50v43" style="stroke: rgb(0, 0, 0); stroke-opacity: 0.1; stroke-width: 1px;"/><path class="xgrid crisp" transform="translate(325.65,0)" d="M0,50v43" style="stroke: rgb(0, 0, 0); stroke-opacity: 0.1; stroke-width: 1px;"/><path class="xgrid crisp" transform="translate(455.94,0)" d="M0,50v43" style="stroke: rgb(0, 0, 0); stroke-opacity: 0.1; stroke-width: 1px;"/><path class="xgrid crisp" transform="translate(586.23,0)" d="M0,50v43" style="stroke: rgb(0, 0, 0); stroke-opacity: 0.1; stroke-width: 1px;"/><path class="xgrid crisp" transform="translate(716.52,0)" d="M0,50v43" style="stroke: rgb(0, 0, 0); stroke-opacity: 0.1; stroke-width: 1px;"/><path class="xgrid crisp" transform="translate(846.81,0)" d="M0,50v43" style="stroke: rgb(0, 0, 0); stroke-opacity: 0.1; stroke-width: 1px;"/><path class="xgrid crisp" transform="translate(977.1,0)" d="M0,50v43" style="stroke: rgb(0, 0, 0); stroke-opacity: 0.1; stroke-width: 1px;"/></g><g class="y"><path class="ygrid crisp" transform="translate(0,71.5)" d="M60,0h1025" style="stroke: rgb(0, 0, 0); stroke-opacity: 0.1; stroke-width: 1px;"/></g></g><g class="zerolinelayer"><path class="xzl zl crisp" transform="translate(65.07,0)" d="M0,50v43" style="stroke: rgb(0, 0, 0); stroke-opacity: 0.1; stroke-width: 2px;"/></g><g class="layer-between"><g class="shapelayer"/><g class="imagelayer"/></g><path class="xlines-below"/><path class="ylines-below"/><g class="overlines-below"/><g class="xaxislayer-below"/><g class="yaxislayer-below"/><g class="overaxes-below"/><g class="overplot"><g class="xy" transform="translate(60,50)" clip-path="url(#clip770f2cxyplot)"><g class="violinlayer mlayer"><g class="trace violins" style="opacity: 0.5;"><path class="violin" d="M720.6,20.63Q724.05,20.15 725.76,19.78C727.49,19.41 729.22,18.95 730.93,18.39C732.67,17.83 734.38,17.15 736.09,16.41C737.83,15.66 739.54,14.79 741.25,13.93C742.98,13.07 744.69,12.11 746.42,11.25C748.13,10.4 749.84,9.51 751.58,8.81C753.28,8.13 755.01,7.49 756.75,7.1C758.45,6.72 760.19,6.48 761.91,6.45C763.63,6.42 765.36,6.6 767.07,6.9C768.81,7.2 770.53,7.72 772.24,8.25C773.97,8.79 775.68,9.48 777.4,10.13C779.13,10.79 780.84,11.51 782.56,12.19C784.28,12.87 786,13.56 787.73,14.21C789.45,14.85 791.16,15.48 792.89,16.05C794.6,16.62 796.32,17.16 798.05,17.64C799.77,18.12 801.49,18.55 803.22,18.93C804.94,19.31 806.66,19.64 808.38,19.92C810.1,20.2 811.82,20.42 813.54,20.61C815.26,20.8 816.99,20.93 818.71,21.04C820.43,21.15 822.15,21.23 823.87,21.29C825.59,21.35 827.31,21.38 829.03,21.41C830.75,21.44 832.48,21.46 834.2,21.47C835.92,21.48 837.64,21.48 839.36,21.49C841.08,21.49 842.8,21.5 844.52,21.5C846.24,21.5 847.97,21.5 849.69,21.5C851.41,21.5 853.13,21.5 854.85,21.5C856.57,21.5 858.29,21.5 860.01,21.5C861.73,21.5 863.46,21.5 865.18,21.5C866.9,21.5 868.62,21.5 870.34,21.5C872.06,21.5 873.79,21.5 875.51,21.5C877.23,21.5 878.95,21.5 880.67,21.5C882.39,21.5 884.11,21.5 885.83,21.5C887.55,21.5 889.28,21.5 891,21.5C892.72,21.5 894.44,21.5 896.16,21.5C897.88,21.5 899.6,21.5 901.32,21.5C903.04,21.5 904.77,21.5 906.49,21.5C908.21,21.5 909.93,21.5 911.65,21.5C913.37,21.5 915.09,21.5 916.81,21.5C918.53,21.5 920.26,21.5 921.98,21.5C923.7,21.5 925.42,21.5 927.14,21.5C928.86,21.5 930.58,21.5 932.3,21.5C934.02,21.5 935.75,21.5 937.47,21.5C939.19,21.5 940.91,21.5 942.63,21.5C944.35,21.5 946.07,21.5 947.79,21.5C949.51,21.5 951.24,21.5 952.96,21.5C954.68,21.5 956.4,21.5 958.12,21.5C959.84,21.5 961.56,21.49 963.28,21.49C965,21.49 966.73,21.49 968.45,21.48C970.17,21.47 971.89,21.47 973.61,21.45C975.33,21.43 977.06,21.42 978.78,21.38C980.5,21.35 982.22,21.31 983.94,21.24C985.66,21.17 987.38,21.09 989.1,20.97C990.82,20.85 992.55,20.71 994.27,20.53C995.99,20.35 997.71,20.13 999.43,19.91C1001.15,19.68 1002.87,19.42 1004.59,19.18C1006.31,18.94 1008.04,18.66 1009.76,18.45C1011.48,18.24 1013.2,18.04 1014.92,17.92C1016.64,17.8 1018.36,17.74 1020.08,17.74C1021.8,17.74 1023.53,17.82 1025.25,17.95C1026.97,18.08 1028.69,18.29 1030.41,18.5C1032.13,18.71 1033.85,18.99 1035.57,19.23C1037.29,19.47 1039.02,19.74 1040.74,19.96C1042.46,20.18 1044.18,20.39 1045.9,20.56Q1047.62,20.73 1051.06,20.99L1051.06,22.01Q1047.62,22.27 1045.9,22.44C1044.18,22.61 1042.46,22.82 1040.74,23.04C1039.02,23.26 1037.29,23.53 1035.57,23.77C1033.85,24.01 1032.13,24.29 1030.41,24.5C1028.69,24.71 1026.97,24.92 1025.25,25.05C1023.53,25.18 1021.8,25.26 1020.08,25.26C1018.36,25.26 1016.64,25.2 1014.92,25.08C1013.2,24.96 1011.48,24.76 1009.76,24.55C1008.04,24.34 1006.31,24.06 1004.59,23.82C1002.87,23.58 1001.15,23.32 999.43,23.09C997.71,22.87 995.99,22.65 994.27,22.47C992.55,22.29 990.82,22.15 989.1,22.03C987.38,21.91 985.66,21.83 983.94,21.76C982.22,21.69 980.5,21.65 978.78,21.62C977.06,21.58 975.33,21.57 973.61,21.55C971.89,21.53 970.17,21.53 968.45,21.52C966.73,21.51 965,21.51 963.28,21.51C961.56,21.51 959.84,21.5 958.12,21.5C956.4,21.5 954.68,21.5 952.96,21.5C951.24,21.5 949.51,21.5 947.79,21.5C946.07,21.5 944.35,21.5 942.63,21.5C940.91,21.5 939.19,21.5 937.47,21.5C935.75,21.5 934.02,21.5 932.3,21.5C930.58,21.5 928.86,21.5 927.14,21.5C925.42,21.5 923.7,21.5 921.98,21.5C920.26,21.5 918.53,21.5 916.81,21.5C915.09,21.5 913.37,21.5 911.65,21.5C909.93,21.5 908.21,21.5 906.49,21.5C904.77,21.5 903.04,21.5 901.32,21.5C899.6,21.5 897.88,21.5 896.16,21.5C894.44,21.5 892.72,21.5 891,21.5C889.28,21.5 887.55,21.5 885.83,21.5C884.11,21.5 882.39,21.5 880.67,21.5C878.95,21.5 877.23,21.5 875.51,21.5C873.79,21.5 872.06,21.5 870.34,21.5C868.62,21.5 866.9,21.5 865.18,21.5C863.46,21.5 861.73,21.5 860.01,21.5C858.29,21.5 856.57,21.5 854.85,21.5C853.13,21.5 851.41,21.5 849.69,21.5C847.97,21.5 846.24,21.5 844.52,21.5C842.8,21.5 841.08,21.51 839.36,21.51C837.64,21.52 835.92,21.52 834.2,21.53C832.48,21.54 830.75,21.56 829.03,21.59C827.31,21.62 825.59,21.65 823.87,21.71C822.15,21.77 820.43,21.85 818.71,21.96C816.99,22.07 815.26,22.2 813.54,22.39C811.82,22.58 810.1,22.8 808.38,23.08C806.66,23.36 804.94,23.69 803.22,24.07C801.49,24.45 799.77,24.88 798.05,25.36C796.32,25.84 794.6,26.38 792.89,26.95C791.16,27.52 789.45,28.15 787.73,28.79C786,29.44 784.28,30.13 782.56,30.81C780.84,31.49 779.13,32.21 777.4,32.87C775.68,33.52 773.97,34.21 772.24,34.75C770.53,35.28 768.81,35.8 767.07,36.1C765.36,36.4 763.63,36.58 761.91,36.55C760.19,36.52 758.45,36.28 756.75,35.9C755.01,35.51 753.28,34.87 751.58,34.19C749.84,33.49 748.13,32.6 746.42,31.75C744.69,30.89 742.98,29.93 741.25,29.07C739.54,28.21 737.83,27.34 736.09,26.59C734.38,25.85 732.67,25.17 730.93,24.61C729.22,24.05 727.49,23.59 725.76,23.22Q724.05,22.85 720.6,22.37Z" style="vector-effect: none; stroke-width: 2px; stroke: rgb(181, 181, 181); stroke-opacity: 1; fill: rgb(181, 181, 181); fill-opacity: 1;"/><path class="box" d="M765.12,25.26V17.74M757.89,25.26V17.74H786.29V25.26ZM757.89,21.5H751.76M786.29,21.5H786.29" style="vector-effect: non-scaling-stroke; stroke-width: 2px; stroke: rgb(181, 181, 181); stroke-opacity: 1; fill: rgb(181, 181, 181); fill-opacity: 1;"/><path class="mean" d="M807.68,25.26V17.74" style="fill: none; vector-effect: non-scaling-stroke; stroke-width: 2px; stroke-dasharray: 4px, 2px; stroke: rgb(181, 181, 181); stroke-opacity: 1;"/></g></g><g class="scatterlayer mlayer"><g class="trace scatter trace777f49" style="stroke-miterlimit: 2; opacity: 1;"><g class="fills"/><g class="errorbars"/><g class="lines"/><g class="points"><path class="point" transform="translate(767.92,21.5)" d="M2,0A2,2 0 1,1 0,-2A2,2 0 0,1 2,0Z" style="opacity: 1; stroke-width: 0px; fill: rgb(11, 121, 230); fill-opacity: 1;"/></g><g class="text"/></g><g class="trace scatter traced3da55" style="stroke-miterlimit: 2; opacity: 1;"><g class="fills"/><g class="errorbars"/><g class="lines"/><g class="points"><path class="point" transform="translate(786.29,21.5)" d="M2,0A2,2 0 1,1 0,-2A2,2 0 0,1 2,0Z" style="opacity: 1; stroke-width: 0px; fill: rgb(11, 121, 230); fill-opacity: 1;"/></g><g class="text"/></g><g class="trace scatter trace1d2ad5" style="stroke-miterlimit: 2; opacity: 1;"><g class="fills"/><g class="errorbars"/><g class="lines"/><g class="points"><path class="point" transform="translate(757.89,21.5)" d="M2,0A2,2 0 1,1 0,-2A2,2 0 0,1 2,0Z" style="opacity: 1; stroke-width: 0px; fill: rgb(11, 121, 230); fill-opacity: 1;"/></g><g class="text"/></g><g class="trace scatter tracec8e57e" style="stroke-miterlimit: 2; opacity: 1;"><g class="fills"/><g class="errorbars"/><g class="lines"/><g class="points"><path class="point" transform="translate(751.76,21.5)" d="M2,0A2,2 0 1,1 0,-2A2,2 0 0,1 2,0Z" style="opacity: 1; stroke-width: 0px; fill: rgb(11, 121, 230); fill-opacity: 1;"/></g><g class="text"/></g><g class="trace scatter trace2d81b4" style="stroke-miterlimit: 2; opacity: 1;"><g class="fills"/><g class="errorbars"/><g class="lines"/><g class="points"><path class="point" transform="translate(762.32,21.5)" d="M2,0A2,2 0 1,1 0,-2A2,2 0 0,1 2,0Z" style="opacity: 1; stroke-width: 0px; fill: rgb(11, 121, 230); fill-opacity: 1;"/></g><g class="text"/></g><g class="trace scatter trace8148ab" style="stroke-miterlimit: 2; opacity: 1;"><g class="fills"/><g class="errorbars"/><g class="lines"/><g class="points"><path class="point" transform="translate(1019.9,21.5)" d="M2,0A2,2 0 1,1 0,-2A2,2 0 0,1 2,0Z" style="opacity: 1; stroke-width: 0px; fill: rgb(11, 121, 230); fill-opacity: 1;"/></g><g class="text"/></g></g></g></g><path class="xlines-above crisp" d="M0,0" style="fill: none;"/><path class="ylines-above crisp" d="M0,0" style="fill: none;"/><g class="overlines-above"/><g class="xaxislayer-above"><g class="xtick"><text text-anchor="middle" x="0" y="103" transform="translate(65.07,0)" style="font-family: 'Lucida Grande', 'Open Sans', verdana, arial, sans-serif; font-size: 9px; fill: rgb(0, 0, 0); fill-opacity: 0.5; white-space: pre; opacity: 1;">0</text></g><g class="xtick"><text text-anchor="middle" x="0" y="103" style="font-family: 'Lucida Grande', 'Open Sans', verdana, arial, sans-serif; font-size: 9px; fill: rgb(0, 0, 0); fill-opacity: 0.5; white-space: pre; opacity: 1;" transform="translate(195.36,0)">1000</text></g><g class="xtick"><text text-anchor="middle" x="0" y="103" style="font-family: 'Lucida Grande', 'Open Sans', verdana, arial, sans-serif; font-size: 9px; fill: rgb(0, 0, 0); fill-opacity: 0.5; white-space: pre; opacity: 1;" transform="translate(325.65,0)">2000</text></g><g class="xtick"><text text-anchor="middle" x="0" y="103" style="font-family: 'Lucida Grande', 'Open Sans', verdana, arial, sans-serif; font-size: 9px; fill: rgb(0, 0, 0); fill-opacity: 0.5; white-space: pre; opacity: 1;" transform="translate(455.94,0)">3000</text></g><g class="xtick"><text text-anchor="middle" x="0" y="103" style="font-family: 'Lucida Grande', 'Open Sans', verdana, arial, sans-serif; font-size: 9px; fill: rgb(0, 0, 0); fill-opacity: 0.5; white-space: pre; opacity: 1;" transform="translate(586.23,0)">4000</text></g><g class="xtick"><text text-anchor="middle" x="0" y="103" style="font-family: 'Lucida Grande', 'Open Sans', verdana, arial, sans-serif; font-size: 9px; fill: rgb(0, 0, 0); fill-opacity: 0.5; white-space: pre; opacity: 1;" transform="translate(716.52,0)">5000</text></g><g class="xtick"><text text-anchor="middle" x="0" y="103" style="font-family: 'Lucida Grande', 'Open Sans', verdana, arial, sans-serif; font-size: 9px; fill: rgb(0, 0, 0); fill-opacity: 0.5; white-space: pre; opacity: 1;" transform="translate(846.81,0)">6000</text></g><g class="xtick"><text text-anchor="middle" x="0" y="103" style="font-family: 'Lucida Grande', 'Open Sans', verdana, arial, sans-serif; font-size: 9px; fill: rgb(0, 0, 0); fill-opacity: 0.5; white-space: pre; opacity: 1;" transform="translate(977.1,0)">7000</text></g></g><g class="yaxislayer-above"><g class="ytick"><text text-anchor="end" x="59" y="3.15" transform="translate(0,71.5)" style="font-family: 'Lucida Grande', 'Open Sans', verdana, arial, sans-serif; font-size: 9px; fill: rgb(0, 0, 0); fill-opacity: 0.5; white-space: pre; opacity: 1;">Nodes  </text></g></g><g class="overaxes-above"/></g></g><g class="polarlayer"/><g class="smithlayer"/><g class="ternarylayer"/><g class="geolayer"/><g class="funnelarealayer"/><g class="pielayer"/><g class="iciclelayer"/><g class="treemaplayer"/><g class="sunburstlayer"/><g class="glimages"/><defs id="topdefs-770f2c"><g class="clips"/></defs><g class="layer-above"><g class="imagelayer"/><g class="shapelayer"/></g><g class="infolayer"><g class="g-gtitle"><text class="gtitle" x="550" y="25" text-anchor="middle" dy="0em" style="opacity: 1; font-family: 'Lucida Grande', 'Open Sans', verdana, arial, sans-serif; font-size: 20px; fill: rgb(42, 63, 95); fill-opacity: 1; white-space: pre;"><tspan class="line" dy="0em" x="550" y="25">Too many nodes vor Drugst.One.</tspan><tspan class="line" dy="1.3em" x="550" y="25">​<tspan style="font-size:70%" dy="-0.6em">6 samples</tspan><tspan dy="0.42em">​</tspan></tspan></text></g><g class="g-xtitle"/><g class="g-ytitle"/></g></svg>