<svg class="main-svg" xmlns="http://www.w3.org/2000/svg" xmlns:xlink="http://www.w3.org/1999/xlink" width="2200" height="266" style="" viewBox="0 0 1100 133"><rect x="0" y="0" width="1100" height="133" style="fill: rgb(255, 255, 255); fill-opacity: 1;"/><defs id="defs-9af227"><g class="clips"><clipPath id="clip9af227xyplot" class="plotclip"><rect width="1025" height="43"/></clipPath><clipPath class="axesclip" id="clip9af227x"><rect x="60" y="0" width="1025" height="133"/></clipPath><clipPath class="axesclip" id="clip9af227y"><rect x="0" y="50" width="1100" height="43"/></clipPath><clipPath class="axesclip" id="clip9af227xy"><rect x="60" y="50" width="1025" height="43"/></clipPath></g><g class="gradients"/><g class="patterns"/></defs><g class="bglayer"/><g class="layer-below"><g class="imagelayer"/><g class="shapelayer"/></g><g class="cartesianlayer"><g class="subplot xy"><g class="layer-subplot"><g class="shapelayer"/><g class="imagelayer"/></g><g class="minor-gridlayer"><g class="x"/><g class="y"/></g><g class="gridlayer"><g class="x"><path class="xgrid crisp" transform="translate(188.04,0)" d="M0,50v43" style="stroke: rgb(0, 0, 0); stroke-opacity: 0.1; stroke-width: 1px;"/><path class="xgrid crisp" transform="translate(311,0)" d="M0,50v43" style="stroke: rgb(0, 0, 0); stroke-opacity: 0.1; stroke-width: 1px;"/><path class="xgrid crisp" transform="translate(433.97,0)" d="M0,50v43" style="stroke: rgb(0, 0, 0); stroke-opacity: 0.1; stroke-width: 1px;"/><path class="xgrid crisp" transform="translate(556.9300000000001,0)" d="M0,50v43" style="stroke: rgb(0, 0, 0); stroke-opacity: 0.1; stroke-width: 1px;"/><path class="xgrid crisp" transform="translate(679.9,0)" d="M0,50v43" style="stroke: rgb(0, 0, 0); stroke-opacity: 0.1; stroke-width: 1px;"/><path class="xgrid crisp" transform="translate(802.86,0)" d="M0,50v43" style="stroke: rgb(0, 0, 0); stroke-opacity: 0.1; stroke-width: 1px;"/><path class="xgrid crisp" transform="translate(925.83,0)" d="M0,50v43" style="stroke: rgb(0, 0, 0); stroke-opacity: 0.1; stroke-width: 1px;"/><path class="xgrid crisp" transform="translate(1048.79,0)" d="M0,50v43" style="stroke: rgb(0, 0, 0); stroke-opacity: 0.1; stroke-width: 1px;"/></g><g class="y"><path class="ygrid crisp" transform="translate(0,71.5)" d="M60,0h1025" style="stroke: rgb(0, 0, 0); stroke-opacity: 0.1; stroke-width: 1px;"/></g></g><g class="zerolinelayer"><path class="xzl zl crisp" transform="translate(65.07,0)" d="M0,50v43" style="stroke: rgb(0, 0, 0); stroke-opacity: 0.1; stroke-width: 2px;"/></g><g class="layer-between"><g class="shapelayer"/><g class="imagelayer"/></g><path class="xlines-below"/><path class="ylines-below"/><g class="overlines-below"/><g class="xaxislayer-below"/><g class="yaxislayer-below"/><g class="overaxes-below"/><g class="overplot"><g class="xy" transform="translate(60,50)" clip-path="url(#clip9af227xyplot)"><g class="violinlayer mlayer"><g class="trace violins" style="opacity: 0.5;"><path class="violin" d="M52.99,20.98Q56.08,20.72 57.62,20.54C59.16,20.36 60.7,20.14 62.24,19.91C63.78,19.68 65.33,19.41 66.87,19.16C68.41,18.91 69.96,18.63 71.5,18.41C73.04,18.19 74.58,17.97 76.12,17.84C77.66,17.71 79.21,17.63 80.75,17.63C82.29,17.63 83.84,17.71 85.38,17.83C86.92,17.96 88.46,18.16 90,18.38C91.54,18.6 93.09,18.88 94.63,19.13C96.17,19.38 97.72,19.66 99.26,19.89C100.8,20.12 102.34,20.34 103.88,20.52C105.42,20.7 106.97,20.84 108.51,20.96C110.05,21.08 111.6,21.17 113.14,21.24C114.68,21.31 116.22,21.35 117.76,21.39C119.3,21.43 120.85,21.45 122.39,21.46C123.93,21.47 125.48,21.47 127.02,21.48C128.56,21.49 130.1,21.5 131.64,21.5C133.18,21.5 134.73,21.5 136.27,21.5C137.81,21.5 139.36,21.5 140.9,21.5C142.44,21.5 143.98,21.5 145.52,21.5C147.06,21.5 148.61,21.5 150.15,21.5C151.69,21.5 153.24,21.5 154.78,21.5C156.32,21.5 157.86,21.5 159.4,21.5C160.94,21.5 162.49,21.5 164.03,21.5C165.57,21.5 167.12,21.5 168.66,21.5C170.2,21.5 171.74,21.5 173.28,21.5C174.82,21.5 176.37,21.5 177.91,21.5C179.45,21.5 181,21.5 182.54,21.5C184.08,21.5 185.62,21.5 187.16,21.5C188.7,21.5 190.25,21.5 191.79,21.5C193.33,21.5 194.88,21.5 196.42,21.5C197.96,21.5 199.5,21.5 201.04,21.5C202.58,21.5 204.13,21.5 205.67,21.5C207.21,21.5 208.76,21.5 210.3,21.5C211.84,21.5 213.38,21.5 214.92,21.5C216.46,21.5 218.01,21.5 219.55,21.5C221.09,21.5 222.64,21.5 224.18,21.5C225.72,21.5 227.26,21.5 228.8,21.5C230.34,21.5 231.89,21.5 233.43,21.5C234.97,21.5 236.52,21.5 238.06,21.5C239.6,21.5 241.14,21.5 242.68,21.5C244.22,21.5 245.77,21.5 247.31,21.5C248.85,21.5 250.4,21.5 251.94,21.5C253.48,21.5 255.02,21.5 256.56,21.5C258.1,21.5 259.65,21.5 261.19,21.5C262.73,21.5 264.28,21.5 265.82,21.5C267.36,21.5 268.9,21.5 270.44,21.5C271.98,21.5 273.53,21.5 275.07,21.5C276.61,21.5 278.16,21.5 279.7,21.5C281.24,21.5 282.78,21.5 284.32,21.5C285.86,21.5 287.41,21.5 288.95,21.5C290.49,21.5 292.04,21.5 293.58,21.5C295.12,21.5 296.66,21.5 298.2,21.5C299.74,21.5 301.29,21.5 302.83,21.5C304.37,21.5 305.92,21.5 307.46,21.5C309,21.5 310.54,21.5 312.08,21.5C313.62,21.5 315.17,21.5 316.71,21.5C318.25,21.5 319.8,21.5 321.34,21.5C322.88,21.5 324.42,21.5 325.96,21.5C327.5,21.5 329.05,21.5 330.59,21.5C332.13,21.5 333.68,21.5 335.22,21.5C336.76,21.5 338.3,21.5 339.84,21.5C341.38,21.5 342.93,21.5 344.47,21.5C346.01,21.5 347.56,21.5 349.1,21.5C350.64,21.5 352.18,21.5 353.72,21.5C355.26,21.5 356.81,21.5 358.35,21.5C359.89,21.5 361.44,21.5 362.98,21.5C364.52,21.5 366.07,21.5 367.61,21.5C369.15,21.5 370.69,21.5 372.23,21.5C373.77,21.5 375.32,21.5 376.86,21.5C378.4,21.5 379.95,21.5 381.49,21.5C383.03,21.5 384.57,21.5 386.11,21.5C387.65,21.5 389.2,21.5 390.74,21.5C392.28,21.5 393.83,21.5 395.37,21.5C396.91,21.5 398.45,21.5 399.99,21.5C401.53,21.5 403.08,21.5 404.62,21.5C406.16,21.5 407.71,21.5 409.25,21.5C410.79,21.5 412.33,21.5 413.87,21.5C415.41,21.5 416.96,21.5 418.5,21.5C420.04,21.5 421.59,21.5 423.13,21.5C424.67,21.5 426.21,21.5 427.75,21.5C429.29,21.5 430.84,21.5 432.38,21.5C433.92,21.5 435.47,21.5 437.01,21.5C438.55,21.5 440.09,21.5 441.63,21.5C443.17,21.5 444.72,21.5 446.26,21.5C447.8,21.5 449.35,21.5 450.89,21.5C452.43,21.5 453.97,21.5 455.51,21.5C457.05,21.5 458.6,21.5 460.14,21.5C461.68,21.5 463.23,21.5 464.77,21.5C466.31,21.5 467.85,21.5 469.39,21.5C470.93,21.5 472.48,21.5 474.02,21.5C475.56,21.5 477.11,21.5 478.65,21.5C480.19,21.5 481.73,21.5 483.27,21.5C484.81,21.5 486.36,21.5 487.9,21.5C489.44,21.5 490.99,21.5 492.53,21.5C494.07,21.5 495.61,21.5 497.15,21.5C498.69,21.5 500.24,21.5 501.78,21.5C503.32,21.5 504.87,21.5 506.41,21.5C507.95,21.5 509.49,21.5 511.03,21.5C512.57,21.5 514.12,21.5 515.66,21.5C517.2,21.5 518.75,21.5 520.29,21.5C521.83,21.5 523.37,21.5 524.91,21.5C526.45,21.5 528,21.5 529.54,21.5C531.08,21.5 532.63,21.5 534.17,21.5C535.71,21.5 537.25,21.5 538.79,21.5C540.33,21.5 541.88,21.5 543.42,21.5C544.96,21.5 546.51,21.5 548.05,21.5C549.59,21.5 551.13,21.5 552.67,21.5C554.21,21.5 555.76,21.5 557.3,21.5C558.84,21.5 560.39,21.5 561.93,21.5C563.47,21.5 565.01,21.5 566.55,21.5C568.09,21.5 569.64,21.5 571.18,21.5C572.72,21.5 574.27,21.5 575.81,21.5C577.35,21.5 578.89,21.5 580.43,21.5C581.97,21.5 583.52,21.5 585.06,21.5C586.6,21.5 588.15,21.5 589.69,21.5C591.23,21.5 592.77,21.5 594.31,21.5C595.85,21.5 597.4,21.5 598.94,21.5C600.48,21.5 602.03,21.5 603.57,21.5C605.11,21.5 606.65,21.5 608.19,21.5C609.73,21.5 611.28,21.5 612.82,21.5C614.36,21.5 615.91,21.5 617.45,21.5C618.99,21.5 620.53,21.5 622.07,21.5C623.61,21.5 625.16,21.5 626.7,21.5C628.24,21.5 629.79,21.5 631.33,21.5C632.87,21.5 634.41,21.5 635.95,21.5C637.49,21.5 639.04,21.5 640.58,21.5C642.12,21.5 643.67,21.5 645.21,21.5C646.75,21.5 648.29,21.5 649.83,21.5C651.37,21.5 652.92,21.5 654.46,21.5C656,21.5 657.55,21.5 659.09,21.5C660.63,21.5 662.17,21.5 663.71,21.5C665.25,21.5 666.8,21.5 668.34,21.5C669.88,21.5 671.43,21.5 672.97,21.5C674.51,21.5 676.06,21.5 677.6,21.5C679.14,21.5 680.68,21.5 682.22,21.5C683.76,21.5 685.31,21.5 686.85,21.5C688.39,21.5 689.94,21.5 691.48,21.5C693.02,21.5 694.56,21.5 696.1,21.5C697.64,21.5 699.19,21.5 700.73,21.5C702.27,21.5 703.82,21.5 705.36,21.5C706.9,21.5 708.44,21.5 709.98,21.49C711.52,21.48 713.07,21.48 714.61,21.46C716.15,21.44 717.7,21.42 719.24,21.38C720.78,21.34 722.32,21.3 723.86,21.21C725.4,21.12 726.95,21.02 728.49,20.85C730.04,20.68 731.58,20.48 733.12,20.18C734.67,19.88 736.21,19.52 737.74,19.06C739.29,18.6 740.84,18.04 742.37,17.41C743.93,16.77 745.47,16.01 747,15.24C748.55,14.46 750.08,13.57 751.62,12.74C753.16,11.91 754.69,11.02 756.25,10.25C757.78,9.49 759.32,8.74 760.88,8.16C762.4,7.6 763.94,7.1 765.5,6.82C767.03,6.54 768.59,6.41 770.13,6.45C771.68,6.49 773.23,6.72 774.76,7.04C776.31,7.37 777.85,7.87 779.38,8.41C780.94,8.96 782.47,9.64 784.01,10.3C785.56,10.97 787.1,11.71 788.64,12.42C790.18,13.13 791.71,13.86 793.26,14.54C794.8,15.21 796.34,15.88 797.89,16.48C799.42,17.07 800.97,17.62 802.52,18.11C804.05,18.59 805.59,19.02 807.14,19.38C808.68,19.74 810.22,20.03 811.77,20.28C813.31,20.53 814.86,20.71 816.4,20.86C817.94,21.01 819.48,21.11 821.02,21.19C822.56,21.28 824.11,21.33 825.65,21.37C827.19,21.41 828.74,21.43 830.28,21.45C831.82,21.47 833.36,21.47 834.9,21.48C836.44,21.49 837.99,21.49 839.53,21.49C841.07,21.49 842.62,21.5 844.16,21.5C845.7,21.5 847.24,21.5 848.78,21.5C850.32,21.5 851.87,21.5 853.41,21.5C854.95,21.5 856.5,21.5 858.04,21.5C859.58,21.5 861.12,21.5 862.66,21.5C864.2,21.5 865.75,21.5 867.29,21.5C868.83,21.5 870.38,21.5 871.92,21.5C873.46,21.5 875,21.5 876.54,21.5C878.08,21.5 879.63,21.5 881.17,21.5C882.71,21.5 884.26,21.5 885.8,21.5C887.34,21.5 888.88,21.5 890.42,21.5C891.96,21.5 893.51,21.5 895.05,21.5C896.59,21.5 898.14,21.5 899.68,21.5C901.22,21.5 902.76,21.5 904.3,21.5C905.84,21.5 907.39,21.5 908.93,21.5C910.47,21.5 912.02,21.5 913.56,21.5C915.1,21.5 916.64,21.5 918.18,21.5C919.72,21.5 921.27,21.5 922.81,21.5C924.35,21.5 925.9,21.5 927.44,21.5C928.98,21.5 930.52,21.5 932.06,21.5C933.6,21.5 935.15,21.5 936.69,21.5C938.23,21.5 939.78,21.5 941.32,21.5C942.86,21.5 944.4,21.5 945.94,21.5C947.48,21.5 949.03,21.5 950.57,21.5C952.11,21.5 953.66,21.5 955.2,21.5C956.74,21.5 958.28,21.5 959.82,21.5C961.36,21.5 962.91,21.5 964.45,21.5C965.99,21.5 967.54,21.5 969.08,21.5C970.62,21.5 972.16,21.49 973.7,21.48C975.24,21.47 976.79,21.47 978.33,21.46C979.87,21.45 981.42,21.43 982.96,21.39C984.5,21.35 986.05,21.31 987.59,21.24C989.13,21.17 990.67,21.08 992.21,20.96C993.75,20.84 995.3,20.7 996.84,20.52C998.39,20.34 999.93,20.12 1001.47,19.89C1003.01,19.66 1004.55,19.38 1006.09,19.13C1007.63,18.88 1009.17,18.6 1010.72,18.38C1012.26,18.16 1013.81,17.96 1015.35,17.83C1016.89,17.71 1018.43,17.63 1019.97,17.63C1021.51,17.63 1023.06,17.71 1024.6,17.84C1026.15,17.97 1027.69,18.19 1029.23,18.41C1030.77,18.63 1032.31,18.91 1033.85,19.16C1035.39,19.41 1036.94,19.68 1038.48,19.91C1040.02,20.14 1041.57,20.36 1043.11,20.54Q1044.65,20.72 1047.73,20.98L1047.73,22.02Q1044.65,22.28 1043.11,22.46C1041.57,22.64 1040.02,22.86 1038.48,23.09C1036.94,23.32 1035.39,23.59 1033.85,23.84C1032.31,24.09 1030.77,24.37 1029.23,24.59C1027.69,24.81 1026.15,25.03 1024.6,25.16C1023.06,25.29 1021.51,25.37 1019.97,25.37C1018.43,25.37 1016.89,25.29 1015.35,25.17C1013.81,25.04 1012.26,24.84 1010.72,24.62C1009.17,24.4 1007.63,24.12 1006.09,23.87C1004.55,23.62 1003.01,23.34 1001.47,23.11C999.93,22.88 998.39,22.66 996.84,22.48C995.3,22.3 993.75,22.16 992.21,22.04C990.67,21.92 989.13,21.83 987.59,21.76C986.05,21.69 984.5,21.65 982.96,21.61C981.42,21.57 979.87,21.55 978.33,21.54C976.79,21.53 975.24,21.53 973.7,21.52C972.16,21.51 970.62,21.5 969.08,21.5C967.54,21.5 965.99,21.5 964.45,21.5C962.91,21.5 961.36,21.5 959.82,21.5C958.28,21.5 956.74,21.5 955.2,21.5C953.66,21.5 952.11,21.5 950.57,21.5C949.03,21.5 947.48,21.5 945.94,21.5C944.4,21.5 942.86,21.5 941.32,21.5C939.78,21.5 938.23,21.5 936.69,21.5C935.15,21.5 933.6,21.5 932.06,21.5C930.52,21.5 928.98,21.5 927.44,21.5C925.9,21.5 924.35,21.5 922.81,21.5C921.27,21.5 919.72,21.5 918.18,21.5C916.64,21.5 915.1,21.5 913.56,21.5C912.02,21.5 910.47,21.5 908.93,21.5C907.39,21.5 905.84,21.5 904.3,21.5C902.76,21.5 901.22,21.5 899.68,21.5C898.14,21.5 896.59,21.5 895.05,21.5C893.51,21.5 891.96,21.5 890.42,21.5C888.88,21.5 887.34,21.5 885.8,21.5C884.26,21.5 882.71,21.5 881.17,21.5C879.63,21.5 878.08,21.5 876.54,21.5C875,21.5 873.46,21.5 871.92,21.5C870.38,21.5 868.83,21.5 867.29,21.5C865.75,21.5 864.2,21.5 862.66,21.5C861.12,21.5 859.58,21.5 858.04,21.5C856.5,21.5 854.95,21.5 853.41,21.5C851.87,21.5 850.32,21.5 848.78,21.5C847.24,21.5 845.7,21.5 844.16,21.5C842.62,21.5 841.07,21.51 839.53,21.51C837.99,21.51 836.44,21.51 834.9,21.52C833.36,21.53 831.82,21.53 830.28,21.55C828.74,21.57 827.19,21.59 825.65,21.63C824.11,21.67 822.56,21.72 821.02,21.81C819.48,21.89 817.94,21.99 816.4,22.14C814.86,22.29 813.31,22.47 811.77,22.72C810.22,22.97 808.68,23.26 807.14,23.62C805.59,23.98 804.05,24.41 802.52,24.89C800.97,25.38 799.42,25.93 797.89,26.52C796.34,27.12 794.8,27.79 793.26,28.46C791.71,29.14 790.18,29.87 788.64,30.58C787.1,31.29 785.56,32.03 784.01,32.7C782.47,33.36 780.94,34.04 779.38,34.59C777.85,35.13 776.31,35.63 774.76,35.96C773.23,36.28 771.68,36.51 770.13,36.55C768.59,36.59 767.03,36.46 765.5,36.18C763.94,35.9 762.4,35.4 760.88,34.84C759.32,34.26 757.78,33.51 756.25,32.75C754.69,31.98 753.16,31.09 751.62,30.26C750.08,29.43 748.55,28.54 747,27.76C745.47,26.99 743.93,26.23 742.37,25.59C740.84,24.96 739.29,24.4 737.74,23.94C736.21,23.48 734.67,23.12 733.12,22.82C731.58,22.52 730.04,22.32 728.49,22.15C726.95,21.98 725.4,21.88 723.86,21.79C722.32,21.7 720.78,21.66 719.24,21.62C717.7,21.58 716.15,21.56 714.61,21.54C713.07,21.52 711.52,21.52 709.98,21.51C708.44,21.5 706.9,21.5 705.36,21.5C703.82,21.5 702.27,21.5 700.73,21.5C699.19,21.5 697.64,21.5 696.1,21.5C694.56,21.5 693.02,21.5 691.48,21.5C689.94,21.5 688.39,21.5 686.85,21.5C685.31,21.5 683.76,21.5 682.22,21.5C680.68,21.5 679.14,21.5 677.6,21.5C676.06,21.5 674.51,21.5 672.97,21.5C671.43,21.5 669.88,21.5 668.34,21.5C666.8,21.5 665.25,21.5 663.71,21.5C662.17,21.5 660.63,21.5 659.09,21.5C657.55,21.5 656,21.5 654.46,21.5C652.92,21.5 651.37,21.5 649.83,21.5C648.29,21.5 646.75,21.5 645.21,21.5C643.67,21.5 642.12,21.5 640.58,21.5C639.04,21.5 637.49,21.5 635.95,21.5C634.41,21.5 632.87,21.5 631.33,21.5C629.79,21.5 628.24,21.5 626.7,21.5C625.16,21.5 623.61,21.5 622.07,21.5C620.53,21.5 618.99,21.5 617.45,21.5C615.91,21.5 614.36,21.5 612.82,21.5C611.28,21.5 609.73,21.5 608.19,21.5C606.65,21.5 605.11,21.5 603.57,21.5C602.03,21.5 600.48,21.5 598.94,21.5C597.4,21.5 595.85,21.5 594.31,21.5C592.77,21.5 591.23,21.5 589.69,21.5C588.15,21.5 586.6,21.5 585.06,21.5C583.52,21.5 581.97,21.5 580.43,21.5C578.89,21.5 577.35,21.5 575.81,21.5C574.27,21.5 572.72,21.5 571.18,21.5C569.64,21.5 568.09,21.5 566.55,21.5C565.01,21.5 563.47,21.5 561.93,21.5C560.39,21.5 558.84,21.5 557.3,21.5C555.76,21.5 554.21,21.5 552.67,21.5C551.13,21.5 549.59,21.5 548.05,21.5C546.51,21.5 544.96,21.5 543.42,21.5C541.88,21.5 540.33,21.5 538.79,21.5C537.25,21.5 535.71,21.5 534.17,21.5C532.63,21.5 531.08,21.5 529.54,21.5C528,21.5 526.45,21.5 524.91,21.5C523.37,21.5 521.83,21.5 520.29,21.5C518.75,21.5 517.2,21.5 515.66,21.5C514.12,21.5 512.57,21.5 511.03,21.5C509.49,21.5 507.95,21.5 506.41,21.5C504.87,21.5 503.32,21.5 501.78,21.5C500.24,21.5 498.69,21.5 497.15,21.5C495.61,21.5 494.07,21.5 492.53,21.5C490.99,21.5 489.44,21.5 487.9,21.5C486.36,21.5 484.81,21.5 483.27,21.5C481.73,21.5 480.19,21.5 478.65,21.5C477.11,21.5 475.56,21.5 474.02,21.5C472.48,21.5 470.93,21.5 469.39,21.5C467.85,21.5 466.31,21.5 464.77,21.5C463.23,21.5 461.68,21.5 460.14,21.5C458.6,21.5 457.05,21.5 455.51,21.5C453.97,21.5 452.43,21.5 450.89,21.5C449.35,21.5 447.8,21.5 446.26,21.5C444.72,21.5 443.17,21.5 441.63,21.5C440.09,21.5 438.55,21.5 437.01,21.5C435.47,21.5 433.92,21.5 432.38,21.5C430.84,21.5 429.29,21.5 427.75,21.5C426.21,21.5 424.67,21.5 423.13,21.5C421.59,21.5 420.04,21.5 418.5,21.5C416.96,21.5 415.41,21.5 413.87,21.5C412.33,21.5 410.79,21.5 409.25,21.5C407.71,21.5 406.16,21.5 404.62,21.5C403.08,21.5 401.53,21.5 399.99,21.5C398.45,21.5 396.91,21.5 395.37,21.5C393.83,21.5 392.28,21.5 390.74,21.5C389.2,21.5 387.65,21.5 386.11,21.5C384.57,21.5 383.03,21.5 381.49,21.5C379.95,21.5 378.4,21.5 376.86,21.5C375.32,21.5 373.77,21.5 372.23,21.5C370.69,21.5 369.15,21.5 367.61,21.5C366.07,21.5 364.52,21.5 362.98,21.5C361.44,21.5 359.89,21.5 358.35,21.5C356.81,21.5 355.26,21.5 353.72,21.5C352.18,21.5 350.64,21.5 349.1,21.5C347.56,21.5 346.01,21.5 344.47,21.5C342.93,21.5 341.38,21.5 339.84,21.5C338.3,21.5 336.76,21.5 335.22,21.5C333.68,21.5 332.13,21.5 330.59,21.5C329.05,21.5 327.5,21.5 325.96,21.5C324.42,21.5 322.88,21.5 321.34,21.5C319.8,21.5 318.25,21.5 316.71,21.5C315.17,21.5 313.62,21.5 312.08,21.5C310.54,21.5 309,21.5 307.46,21.5C305.92,21.5 304.37,21.5 302.83,21.5C301.29,21.5 299.74,21.5 298.2,21.5C296.66,21.5 295.12,21.5 293.58,21.5C292.04,21.5 290.49,21.5 288.95,21.5C287.41,21.5 285.86,21.5 284.32,21.5C282.78,21.5 281.24,21.5 279.7,21.5C278.16,21.5 276.61,21.5 275.07,21.5C273.53,21.5 271.98,21.5 270.44,21.5C268.9,21.5 267.36,21.5 265.82,21.5C264.28,21.5 262.73,21.5 261.19,21.5C259.65,21.5 258.1,21.5 256.56,21.5C255.02,21.5 253.48,21.5 251.94,21.5C250.4,21.5 248.85,21.5 247.31,21.5C245.77,21.5 244.22,21.5 242.68,21.5C241.14,21.5 239.6,21.5 238.06,21.5C236.52,21.5 234.97,21.5 233.43,21.5C231.89,21.5 230.34,21.5 228.8,21.5C227.26,21.5 225.72,21.5 224.18,21.5C222.64,21.5 221.09,21.5 219.55,21.5C218.01,21.5 216.46,21.5 214.92,21.5C213.38,21.5 211.84,21.5 210.3,21.5C208.76,21.5 207.21,21.5 205.67,21.5C204.13,21.5 202.58,21.5 201.04,21.5C199.5,21.5 197.96,21.5 196.42,21.5C194.88,21.5 193.33,21.5 191.79,21.5C190.25,21.5 188.7,21.5 187.16,21.5C185.62,21.5 184.08,21.5 182.54,21.5C181,21.5 179.45,21.5 177.91,21.5C176.37,21.5 174.82,21.5 173.28,21.5C171.74,21.5 170.2,21.5 168.66,21.5C167.12,21.5 165.57,21.5 164.03,21.5C162.49,21.5 160.94,21.5 159.4,21.5C157.86,21.5 156.32,21.5 154.78,21.5C153.24,21.5 151.69,21.5 150.15,21.5C148.61,21.5 147.06,21.5 145.52,21.5C143.98,21.5 142.44,21.5 140.9,21.5C139.36,21.5 137.81,21.5 136.27,21.5C134.73,21.5 133.18,21.5 131.64,21.5C130.1,21.5 128.56,21.51 127.02,21.52C125.48,21.53 123.93,21.53 122.39,21.54C120.85,21.55 119.3,21.57 117.76,21.61C116.22,21.65 114.68,21.69 113.14,21.76C111.6,21.83 110.05,21.92 108.51,22.04C106.97,22.16 105.42,22.3 103.88,22.48C102.34,22.66 100.8,22.88 99.26,23.11C97.72,23.34 96.17,23.62 94.63,23.87C93.09,24.12 91.54,24.4 90,24.62C88.46,24.84 86.92,25.04 85.38,25.17C83.84,25.29 82.29,25.37 80.75,25.37C79.21,25.37 77.66,25.29 76.12,25.16C74.58,25.03 73.04,24.81 71.5,24.59C69.96,24.37 68.41,24.09 66.87,23.84C65.33,23.59 63.78,23.32 62.24,23.09C60.7,22.86 59.16,22.64 57.62,22.46Q56.08,22.28 52.99,22.02Z" style="vector-effect: none; stroke-width: 2px; stroke: rgb(181, 181, 181); stroke-opacity: 1; fill: rgb(181, 181, 181); fill-opacity: 1;"/><path class="box" d="M772.99,25.26V17.74M759.12,25.26V17.74H785.28V25.26ZM759.12,21.5H757.99M785.28,21.5H789.22" style="vector-effect: non-scaling-stroke; stroke-width: 2px; stroke: rgb(181, 181, 181); stroke-opacity: 1; fill: rgb(181, 181, 181); fill-opacity: 1;"/><path class="mean" d="M708.13,25.26V17.74" style="fill: none; vector-effect: non-scaling-stroke; stroke-width: 2px; stroke-dasharray: 4px, 2px; stroke: rgb(181, 181, 181); stroke-opacity: 1;"/></g></g><g class="scatterlayer mlayer"><g class="trace scatter traceefe411" style="stroke-miterlimit: 2; opacity: 1;"><g class="fills"/><g class="errorbars"/><g class="lines"/><g class="points"><path class="point" transform="translate(772.99,21.5)" d="M2,0A2,2 0 1,1 0,-2A2,2 0 0,1 2,0Z" style="opacity: 1; stroke-width: 0px; fill: rgb(11, 121, 230); fill-opacity: 1;"/></g><g class="text"/></g><g class="trace scatter trace2e4564" style="stroke-miterlimit: 2; opacity: 1;"><g class="fills"/><g class="errorbars"/><g class="lines"/><g class="points"><path class="point" transform="translate(789.22,21.5)" d="M2,0A2,2 0 1,1 0,-2A2,2 0 0,1 2,0Z" style="opacity: 1; stroke-width: 0px; fill: rgb(11, 121, 230); fill-opacity: 1;"/></g><g class="text"/></g><g class="trace scatter tracefe6762" style="stroke-miterlimit: 2; opacity: 1;"><g class="fills"/><g class="errorbars"/><g class="lines"/><g class="points"><path class="point" transform="translate(762.54,21.5)" d="M2,0A2,2 0 1,1 0,-2A2,2 0 0,1 2,0Z" style="opacity: 1; stroke-width: 0px; fill: rgb(11, 121, 230); fill-opacity: 1;"/></g><g class="text"/></g><g class="trace scatter trace92f87d" style="stroke-miterlimit: 2; opacity: 1;"><g class="fills"/><g class="errorbars"/><g class="lines"/><g class="points"><path class="point" transform="translate(757.99,21.5)" d="M2,0A2,2 0 1,1 0,-2A2,2 0 0,1 2,0Z" style="opacity: 1; stroke-width: 0px; fill: rgb(11, 121, 230); fill-opacity: 1;"/></g><g class="text"/></g><g class="trace scatter tracedad684" style="stroke-miterlimit: 2; opacity: 1;"><g class="fills"/><g class="errorbars"/><g class="lines"/><g class="points"><path class="point" transform="translate(773.48,21.5)" d="M2,0A2,2 0 1,1 0,-2A2,2 0 0,1 2,0Z" style="opacity: 1; stroke-width: 0px; fill: rgb(11, 121, 230); fill-opacity: 1;"/></g><g class="text"/></g><g class="trace scatter trace511abe" style="stroke-miterlimit: 2; opacity: 1;"><g class="fills"/><g class="errorbars"/><g class="lines"/><g class="points"><path class="point" transform="translate(1019.9,21.5)" d="M2,0A2,2 0 1,1 0,-2A2,2 0 0,1 2,0Z" style="opacity: 1; stroke-width: 0px; fill: rgb(11, 121, 230); fill-opacity: 1;"/></g><g class="text"/></g><g class="trace scatter trace41e07d" style="stroke-miterlimit: 2; opacity: 1;"><g class="fills"/><g class="errorbars"/><g class="lines"/><g class="points"><path class="point" transform="translate(80.82,21.5)" d="M2,0A2,2 0 1,1 0,-2A2,2 0 0,1 2,0Z" style="opacity: 1; stroke-width: 0px; fill: rgb(11, 121, 230); fill-opacity: 1;"/></g><g class="text"/></g></g></g></g><path class="xlines-above crisp" d="M0,0" style="fill: none;"/><path class="ylines-above crisp" d="M0,0" style="fill: none;"/><g class="overlines-above"/><g class="xaxislayer-above"><g class="xtick"><text text-anchor="middle" x="0" y="103" transform="translate(65.07,0)" style="font-family: 'Lucida Grande', 'Open Sans', verdana, arial, sans-serif; font-size: 9px; fill: rgb(0, 0, 0); fill-opacity: 0.5; white-space: pre; opacity: 1;">0</text></g><g class="xtick"><text text-anchor="middle" x="0" y="103" style="font-family: 'Lucida Grande', 'Open Sans', verdana, arial, sans-serif; font-size: 9px; fill: rgb(0, 0, 0); fill-opacity: 0.5; white-space: pre; opacity: 1;" transform="translate(188.04,0)">1000</text></g><g class="xtick"><text text-anchor="middle" x="0" y="103" style="font-family: 'Lucida Grande', 'Open Sans', verdana, arial, sans-serif; font-size: 9px; fill: rgb(0, 0, 0); fill-opacity: 0.5; white-space: pre; opacity: 1;" transform="translate(311,0)">2000</text></g><g class="xtick"><text text-anchor="middle" x="0" y="103" style="font-family: 'Lucida Grande', 'Open Sans', verdana, arial, sans-serif; font-size: 9px; fill: rgb(0, 0, 0); fill-opacity: 0.5; white-space: pre; opacity: 1;" transform="translate(433.97,0)">3000</text></g><g class="xtick"><text text-anchor="middle" x="0" y="103" style="font-family: 'Lucida Grande', 'Open Sans', verdana, arial, sans-serif; font-size: 9px; fill: rgb(0, 0, 0); fill-opacity: 0.5; white-space: pre; opacity: 1;" transform="translate(556.9300000000001,0)">4000</text></g><g class="xtick"><text text-anchor="middle" x="0" y="103" style="font-family: 'Lucida Grande', 'Open Sans', verdana, arial, sans-serif; font-size: 9px; fill: rgb(0, 0, 0); fill-opacity: 0.5; white-space: pre; opacity: 1;" transform="translate(679.9,0)">5000</text></g><g class="xtick"><text text-anchor="middle" x="0" y="103" style="font-family: 'Lucida Grande', 'Open Sans', verdana, arial, sans-serif; font-size: 9px; fill: rgb(0, 0, 0); fill-opacity: 0.5; white-space: pre; opacity: 1;" transform="translate(802.86,0)">6000</text></g><g class="xtick"><text text-anchor="middle" x="0" y="103" style="font-family: 'Lucida Grande', 'Open Sans', verdana, arial, sans-serif; font-size: 9px; fill: rgb(0, 0, 0); fill-opacity: 0.5; white-space: pre; opacity: 1;" transform="translate(925.83,0)">7000</text></g><g class="xtick"><text text-anchor="middle" x="0" y="103" style="font-family: 'Lucida Grande', 'Open Sans', verdana, arial, sans-serif; font-size: 9px; fill: rgb(0, 0, 0); fill-opacity: 0.5; white-space: pre; opacity: 1;" transform="translate(1048.79,0)">8000</text></g></g><g class="yaxislayer-above"><g class="ytick"><text text-anchor="end" x="59" y="3.15" transform="translate(0,71.5)" style="font-family: 'Lucida Grande', 'Open Sans', verdana, arial, sans-serif; font-size: 9px; fill: rgb(0, 0, 0); fill-opacity: 0.5; white-space: pre; opacity: 1;">Nodes  </text></g></g><g class="overaxes-above"/></g></g><g class="polarlayer"/><g class="smithlayer"/><g class="ternarylayer"/><g class="geolayer"/><g class="funnelarealayer"/><g class="pielayer"/><g class="iciclelayer"/><g class="treemaplayer"/><g class="sunburstlayer"/><g class="glimages"/><defs id="topdefs-9af227"><g class="clips"/></defs><g class="layer-above"><g class="imagelayer"/><g class="shapelayer"/></g><g class="infolayer"><g class="g-gtitle"><text class="gtitle" x="550" y="25" text-anchor="middle" dy="0em" style="opacity: 1; font-family: 'Lucida Grande', 'Open Sans', verdana, arial, sans-serif; font-size: 20px; fill: rgb(42, 63, 95); fill-opacity: 1; white-space: pre;"><tspan class="line" dy="0em" x="550" y="25">Too many nodes vor visualization.</tspan><tspan class="line" dy="1.3em" x="550" y="25">​<tspan style="font-size:70%" dy="-0.6em">7 samples</tspan><tspan dy="0.42em">​</tspan></tspan></text></g><g class="g-xtitle"/><g class="g-ytitle"/></g></svg>