<svg class="main-svg" xmlns="http://www.w3.org/2000/svg" xmlns:xlink="http://www.w3.org/1999/xlink" width="2200" height="266" style="" viewBox="0 0 1100 133"><rect x="0" y="0" width="1100" height="133" style="fill: rgb(255, 255, 255); fill-opacity: 1;"/><defs id="defs-25c8ee"><g class="clips"><clipPath id="clip25c8eexyplot" class="plotclip"><rect width="1025" height="43"/></clipPath><clipPath class="axesclip" id="clip25c8eex"><rect x="60" y="0" width="1025" height="133"/></clipPath><clipPath class="axesclip" id="clip25c8eey"><rect x="0" y="50" width="1100" height="43"/></clipPath><clipPath class="axesclip" id="clip25c8eexy"><rect x="60" y="50" width="1025" height="43"/></clipPath></g><g class="gradients"/><g class="patterns"/></defs><g class="bglayer"/><g class="layer-below"><g class="imagelayer"/><g class="shapelayer"/></g><g class="cartesianlayer"><g class="subplot xy"><g class="layer-subplot"><g class="shapelayer"/><g class="imagelayer"/></g><g class="minor-gridlayer"><g class="x"/><g class="y"/></g><g class="gridlayer"><g class="x"><path class="xgrid crisp" transform="translate(182.34,0)" d="M0,50v43" style="stroke: rgb(0, 0, 0); stroke-opacity: 0.1; stroke-width: 1px;"/><path class="xgrid crisp" transform="translate(299.61,0)" d="M0,50v43" style="stroke: rgb(0, 0, 0); stroke-opacity: 0.1; stroke-width: 1px;"/><path class="xgrid crisp" transform="translate(416.87,0)" d="M0,50v43" style="stroke: rgb(0, 0, 0); stroke-opacity: 0.1; stroke-width: 1px;"/><path class="xgrid crisp" transform="translate(534.14,0)" d="M0,50v43" style="stroke: rgb(0, 0, 0); stroke-opacity: 0.1; stroke-width: 1px;"/><path class="xgrid crisp" transform="translate(651.41,0)" d="M0,50v43" style="stroke: rgb(0, 0, 0); stroke-opacity: 0.1; stroke-width: 1px;"/><path class="xgrid crisp" transform="translate(768.67,0)" d="M0,50v43" style="stroke: rgb(0, 0, 0); stroke-opacity: 0.1; stroke-width: 1px;"/><path class="xgrid crisp" transform="translate(885.94,0)" d="M0,50v43" style="stroke: rgb(0, 0, 0); stroke-opacity: 0.1; stroke-width: 1px;"/><path class="xgrid crisp" transform="translate(1003.21,0)" d="M0,50v43" style="stroke: rgb(0, 0, 0); stroke-opacity: 0.1; stroke-width: 1px;"/></g><g class="y"><path class="ygrid crisp" transform="translate(0,71.5)" d="M60,0h1025" style="stroke: rgb(0, 0, 0); stroke-opacity: 0.1; stroke-width: 1px;"/></g></g><g class="zerolinelayer"><path class="xzl zl crisp" transform="translate(65.07,0)" d="M0,50v43" style="stroke: rgb(0, 0, 0); stroke-opacity: 0.1; stroke-width: 2px;"/></g><g class="layer-between"><g class="shapelayer"/><g class="imagelayer"/></g><path class="xlines-below"/><path class="ylines-below"/><g class="overlines-below"/><g class="xaxislayer-below"/><g class="yaxislayer-below"/><g class="overaxes-below"/><g class="overplot"><g class="xy" transform="translate(60,50)" clip-path="url(#clip25c8eexyplot)"><g class="violinlayer mlayer"><g class="trace violins" style="opacity: 0.5;"><path class="violin" d="M750.17,20.75Q752.55,20.33 753.72,20.02C754.91,19.7 756.1,19.31 757.27,18.84C758.47,18.36 759.65,17.78 760.82,17.15C762.02,16.5 763.2,15.74 764.37,14.98C765.56,14.2 766.74,13.34 767.92,12.53C769.1,11.72 770.27,10.86 771.47,10.11C772.64,9.38 773.81,8.65 775.02,8.1C776.18,7.57 777.37,7.09 778.57,6.82C779.74,6.55 780.94,6.42 782.12,6.45C783.31,6.48 784.5,6.7 785.67,7.01C786.87,7.33 788.05,7.82 789.22,8.34C790.42,8.88 791.6,9.55 792.77,10.21C793.96,10.88 795.14,11.63 796.32,12.34C797.5,13.05 798.68,13.8 799.87,14.49C801.05,15.17 802.23,15.86 803.42,16.47C804.59,17.07 805.78,17.64 806.97,18.13C808.14,18.61 809.33,19.04 810.52,19.41C811.69,19.77 812.88,20.06 814.07,20.31C815.25,20.55 816.43,20.73 817.62,20.88C818.8,21.03 819.99,21.13 821.17,21.21C822.35,21.29 823.54,21.34 824.72,21.38C825.9,21.42 827.09,21.43 828.27,21.45C829.45,21.47 830.64,21.47 831.82,21.48C833,21.49 834.19,21.49 835.37,21.49C836.55,21.49 837.74,21.5 838.92,21.5C840.1,21.5 841.29,21.5 842.47,21.5C843.65,21.5 844.84,21.5 846.02,21.5C847.2,21.5 848.39,21.5 849.57,21.5C850.75,21.5 851.94,21.5 853.12,21.5C854.3,21.5 855.49,21.5 856.67,21.5C857.85,21.5 859.04,21.5 860.22,21.5C861.4,21.5 862.59,21.5 863.77,21.5C864.95,21.5 866.14,21.5 867.32,21.5C868.5,21.5 869.69,21.5 870.87,21.5C872.05,21.5 873.24,21.5 874.42,21.5C875.6,21.5 876.79,21.5 877.97,21.5C879.15,21.5 880.34,21.5 881.52,21.5C882.7,21.5 883.89,21.5 885.07,21.5C886.25,21.5 887.44,21.5 888.62,21.5C889.8,21.5 890.99,21.5 892.17,21.5C893.35,21.5 894.54,21.5 895.72,21.5C896.9,21.5 898.08,21.5 899.26,21.5C900.44,21.5 901.63,21.5 902.81,21.5C903.99,21.5 905.18,21.5 906.36,21.5C907.54,21.5 908.73,21.5 909.91,21.5C911.09,21.5 912.28,21.5 913.46,21.5C914.64,21.5 915.83,21.5 917.01,21.5C918.19,21.5 919.38,21.5 920.56,21.5C921.74,21.5 922.93,21.5 924.11,21.5C925.29,21.5 926.48,21.5 927.66,21.5C928.84,21.5 930.03,21.5 931.21,21.5C932.39,21.5 933.58,21.5 934.76,21.5C935.94,21.5 937.13,21.5 938.31,21.5C939.49,21.5 940.68,21.5 941.86,21.5C943.04,21.5 944.23,21.5 945.41,21.5C946.59,21.5 947.78,21.5 948.96,21.5C950.14,21.5 951.33,21.5 952.51,21.5C953.69,21.5 954.88,21.5 956.06,21.5C957.24,21.5 958.43,21.5 959.61,21.5C960.79,21.5 961.98,21.5 963.16,21.5C964.34,21.5 965.53,21.5 966.71,21.5C967.89,21.5 969.08,21.5 970.26,21.5C971.44,21.5 972.63,21.5 973.81,21.5C974.99,21.5 976.18,21.5 977.36,21.5C978.54,21.5 979.73,21.5 980.91,21.5C982.09,21.5 983.28,21.49 984.46,21.48C985.64,21.47 986.83,21.47 988.01,21.45C989.19,21.43 990.38,21.41 991.56,21.38C992.74,21.34 993.93,21.31 995.11,21.24C996.29,21.17 997.48,21.08 998.66,20.96C999.84,20.84 1001.03,20.69 1002.21,20.51C1003.4,20.33 1004.58,20.1 1005.76,19.87C1006.95,19.63 1008.13,19.35 1009.31,19.1C1010.49,18.85 1011.67,18.57 1012.86,18.35C1014.04,18.13 1015.22,17.92 1016.41,17.79C1017.59,17.66 1018.78,17.58 1019.96,17.58C1021.14,17.58 1022.33,17.67 1023.51,17.8C1024.7,17.93 1025.88,18.15 1027.06,18.37C1028.25,18.59 1029.43,18.88 1030.61,19.13C1031.79,19.38 1032.97,19.66 1034.16,19.89C1035.34,20.12 1036.52,20.34 1037.71,20.52Q1038.89,20.7 1041.26,20.97L1041.26,22.03Q1038.89,22.3 1037.71,22.48C1036.52,22.66 1035.34,22.88 1034.16,23.11C1032.97,23.34 1031.79,23.62 1030.61,23.87C1029.43,24.12 1028.25,24.41 1027.06,24.63C1025.88,24.85 1024.7,25.07 1023.51,25.2C1022.33,25.33 1021.14,25.42 1019.96,25.42C1018.78,25.42 1017.59,25.34 1016.41,25.21C1015.22,25.08 1014.04,24.87 1012.86,24.65C1011.67,24.43 1010.49,24.15 1009.31,23.9C1008.13,23.65 1006.95,23.37 1005.76,23.13C1004.58,22.9 1003.4,22.67 1002.21,22.49C1001.03,22.31 999.84,22.16 998.66,22.04C997.48,21.92 996.29,21.83 995.11,21.76C993.93,21.69 992.74,21.66 991.56,21.62C990.38,21.59 989.19,21.57 988.01,21.55C986.83,21.53 985.64,21.53 984.46,21.52C983.28,21.51 982.09,21.5 980.91,21.5C979.73,21.5 978.54,21.5 977.36,21.5C976.18,21.5 974.99,21.5 973.81,21.5C972.63,21.5 971.44,21.5 970.26,21.5C969.08,21.5 967.89,21.5 966.71,21.5C965.53,21.5 964.34,21.5 963.16,21.5C961.98,21.5 960.79,21.5 959.61,21.5C958.43,21.5 957.24,21.5 956.06,21.5C954.88,21.5 953.69,21.5 952.51,21.5C951.33,21.5 950.14,21.5 948.96,21.5C947.78,21.5 946.59,21.5 945.41,21.5C944.23,21.5 943.04,21.5 941.86,21.5C940.68,21.5 939.49,21.5 938.31,21.5C937.13,21.5 935.94,21.5 934.76,21.5C933.58,21.5 932.39,21.5 931.21,21.5C930.03,21.5 928.84,21.5 927.66,21.5C926.48,21.5 925.29,21.5 924.11,21.5C922.93,21.5 921.74,21.5 920.56,21.5C919.38,21.5 918.19,21.5 917.01,21.5C915.83,21.5 914.64,21.5 913.46,21.5C912.28,21.5 911.09,21.5 909.91,21.5C908.73,21.5 907.54,21.5 906.36,21.5C905.18,21.5 903.99,21.5 902.81,21.5C901.63,21.5 900.44,21.5 899.26,21.5C898.08,21.5 896.9,21.5 895.72,21.5C894.54,21.5 893.35,21.5 892.17,21.5C890.99,21.5 889.8,21.5 888.62,21.5C887.44,21.5 886.25,21.5 885.07,21.5C883.89,21.5 882.7,21.5 881.52,21.5C880.34,21.5 879.15,21.5 877.97,21.5C876.79,21.5 875.6,21.5 874.42,21.5C873.24,21.5 872.05,21.5 870.87,21.5C869.69,21.5 868.5,21.5 867.32,21.5C866.14,21.5 864.95,21.5 863.77,21.5C862.59,21.5 861.4,21.5 860.22,21.5C859.04,21.5 857.85,21.5 856.67,21.5C855.49,21.5 854.3,21.5 853.12,21.5C851.94,21.5 850.75,21.5 849.57,21.5C848.39,21.5 847.2,21.5 846.02,21.5C844.84,21.5 843.65,21.5 842.47,21.5C841.29,21.5 840.1,21.5 838.92,21.5C837.74,21.5 836.55,21.51 835.37,21.51C834.19,21.51 833,21.51 831.82,21.52C830.64,21.53 829.45,21.53 828.27,21.55C827.09,21.57 825.9,21.58 824.72,21.62C823.54,21.66 822.35,21.71 821.17,21.79C819.99,21.87 818.8,21.97 817.62,22.12C816.43,22.27 815.25,22.45 814.07,22.69C812.88,22.94 811.69,23.23 810.52,23.59C809.33,23.96 808.14,24.39 806.97,24.87C805.78,25.36 804.59,25.93 803.42,26.53C802.23,27.14 801.05,27.83 799.87,28.51C798.68,29.2 797.5,29.95 796.32,30.66C795.14,31.37 793.96,32.12 792.77,32.79C791.6,33.45 790.42,34.12 789.22,34.66C788.05,35.18 786.87,35.67 785.67,35.99C784.5,36.3 783.31,36.52 782.12,36.55C780.94,36.58 779.74,36.45 778.57,36.18C777.37,35.91 776.18,35.43 775.02,34.9C773.81,34.35 772.64,33.62 771.47,32.89C770.27,32.14 769.1,31.28 767.92,30.47C766.74,29.66 765.56,28.8 764.37,28.02C763.2,27.26 762.02,26.5 760.82,25.85C759.65,25.22 758.47,24.64 757.27,24.16C756.1,23.69 754.91,23.3 753.72,22.98Q752.55,22.67 750.17,22.25Z" style="vector-effect: none; stroke-width: 2px; stroke: rgb(181, 181, 181); stroke-opacity: 1; fill: rgb(181, 181, 181); fill-opacity: 1;"/><path class="box" d="M784.43,25.26V17.74M776.92,25.26V17.74H796.39V25.26ZM776.92,21.5H771.53M796.39,21.5H796.39" style="vector-effect: non-scaling-stroke; stroke-width: 2px; stroke: rgb(181, 181, 181); stroke-opacity: 1; fill: rgb(181, 181, 181); fill-opacity: 1;"/><path class="mean" d="M822.27,25.26V17.74" style="fill: none; vector-effect: non-scaling-stroke; stroke-width: 2px; stroke-dasharray: 4px, 2px; stroke: rgb(181, 181, 181); stroke-opacity: 1;"/></g></g><g class="scatterlayer mlayer"><g class="trace scatter traceb75aaa" style="stroke-miterlimit: 2; opacity: 1;"><g class="fills"/><g class="errorbars"/><g class="lines"/><g class="points"><path class="point" transform="translate(786.07,21.5)" d="M2,0A2,2 0 1,1 0,-2A2,2 0 0,1 2,0Z" style="opacity: 1; stroke-width: 0px; fill: rgb(11, 121, 230); fill-opacity: 1;"/></g><g class="text"/></g><g class="trace scatter tracea35808" style="stroke-miterlimit: 2; opacity: 1;"><g class="fills"/><g class="errorbars"/><g class="lines"/><g class="points"><path class="point" transform="translate(782.79,21.5)" d="M2,0A2,2 0 1,1 0,-2A2,2 0 0,1 2,0Z" style="opacity: 1; stroke-width: 0px; fill: rgb(11, 121, 230); fill-opacity: 1;"/></g><g class="text"/></g><g class="trace scatter trace462cb0" style="stroke-miterlimit: 2; opacity: 1;"><g class="fills"/><g class="errorbars"/><g class="lines"/><g class="points"><path class="point" transform="translate(771.53,21.5)" d="M2,0A2,2 0 1,1 0,-2A2,2 0 0,1 2,0Z" style="opacity: 1; stroke-width: 0px; fill: rgb(11, 121, 230); fill-opacity: 1;"/></g><g class="text"/></g><g class="trace scatter trace1aa158" style="stroke-miterlimit: 2; opacity: 1;"><g class="fills"/><g class="errorbars"/><g class="lines"/><g class="points"><path class="point" transform="translate(796.39,21.5)" d="M2,0A2,2 0 1,1 0,-2A2,2 0 0,1 2,0Z" style="opacity: 1; stroke-width: 0px; fill: rgb(11, 121, 230); fill-opacity: 1;"/></g><g class="text"/></g><g class="trace scatter trace60dfb2" style="stroke-miterlimit: 2; opacity: 1;"><g class="fills"/><g class="errorbars"/><g class="lines"/><g class="points"><path class="point" transform="translate(776.92,21.5)" d="M2,0A2,2 0 1,1 0,-2A2,2 0 0,1 2,0Z" style="opacity: 1; stroke-width: 0px; fill: rgb(11, 121, 230); fill-opacity: 1;"/></g><g class="text"/></g><g class="trace scatter traceb32d6f" style="stroke-miterlimit: 2; opacity: 1;"><g class="fills"/><g class="errorbars"/><g class="lines"/><g class="points"><path class="point" transform="translate(1019.9,21.5)" d="M2,0A2,2 0 1,1 0,-2A2,2 0 0,1 2,0Z" style="opacity: 1; stroke-width: 0px; fill: rgb(11, 121, 230); fill-opacity: 1;"/></g><g class="text"/></g></g></g></g><path class="xlines-above crisp" d="M0,0" style="fill: none;"/><path class="ylines-above crisp" d="M0,0" style="fill: none;"/><g class="overlines-above"/><g class="xaxislayer-above"><g class="xtick"><text text-anchor="middle" x="0" y="103" transform="translate(65.07,0)" style="font-family: 'Lucida Grande', 'Open Sans', verdana, arial, sans-serif; font-size: 9px; fill: rgb(0, 0, 0); fill-opacity: 0.5; white-space: pre; opacity: 1;">0</text></g><g class="xtick"><text text-anchor="middle" x="0" y="103" style="font-family: 'Lucida Grande', 'Open Sans', verdana, arial, sans-serif; font-size: 9px; fill: rgb(0, 0, 0); fill-opacity: 0.5; white-space: pre; opacity: 1;" transform="translate(182.34,0)">500</text></g><g class="xtick"><text text-anchor="middle" x="0" y="103" style="font-family: 'Lucida Grande', 'Open Sans', verdana, arial, sans-serif; font-size: 9px; fill: rgb(0, 0, 0); fill-opacity: 0.5; white-space: pre; opacity: 1;" transform="translate(299.61,0)">1000</text></g><g class="xtick"><text text-anchor="middle" x="0" y="103" style="font-family: 'Lucida Grande', 'Open Sans', verdana, arial, sans-serif; font-size: 9px; fill: rgb(0, 0, 0); fill-opacity: 0.5; white-space: pre; opacity: 1;" transform="translate(416.87,0)">1500</text></g><g class="xtick"><text text-anchor="middle" x="0" y="103" style="font-family: 'Lucida Grande', 'Open Sans', verdana, arial, sans-serif; font-size: 9px; fill: rgb(0, 0, 0); fill-opacity: 0.5; white-space: pre; opacity: 1;" transform="translate(534.14,0)">2000</text></g><g class="xtick"><text text-anchor="middle" x="0" y="103" style="font-family: 'Lucida Grande', 'Open Sans', verdana, arial, sans-serif; font-size: 9px; fill: rgb(0, 0, 0); fill-opacity: 0.5; white-space: pre; opacity: 1;" transform="translate(651.41,0)">2500</text></g><g class="xtick"><text text-anchor="middle" x="0" y="103" style="font-family: 'Lucida Grande', 'Open Sans', verdana, arial, sans-serif; font-size: 9px; fill: rgb(0, 0, 0); fill-opacity: 0.5; white-space: pre; opacity: 1;" transform="translate(768.67,0)">3000</text></g><g class="xtick"><text text-anchor="middle" x="0" y="103" style="font-family: 'Lucida Grande', 'Open Sans', verdana, arial, sans-serif; font-size: 9px; fill: rgb(0, 0, 0); fill-opacity: 0.5; white-space: pre; opacity: 1;" transform="translate(885.94,0)">3500</text></g><g class="xtick"><text text-anchor="middle" x="0" y="103" style="font-family: 'Lucida Grande', 'Open Sans', verdana, arial, sans-serif; font-size: 9px; fill: rgb(0, 0, 0); fill-opacity: 0.5; white-space: pre; opacity: 1;" transform="translate(1003.21,0)">4000</text></g></g><g class="yaxislayer-above"><g class="ytick"><text text-anchor="end" x="59" y="3.15" transform="translate(0,71.5)" style="font-family: 'Lucida Grande', 'Open Sans', verdana, arial, sans-serif; font-size: 9px; fill: rgb(0, 0, 0); fill-opacity: 0.5; white-space: pre; opacity: 1;">Nodes  </text></g></g><g class="overaxes-above"/></g></g><g class="polarlayer"/><g class="smithlayer"/><g class="ternarylayer"/><g class="geolayer"/><g class="funnelarealayer"/><g class="pielayer"/><g class="iciclelayer"/><g class="treemaplayer"/><g class="sunburstlayer"/><g class="glimages"/><defs id="topdefs-25c8ee"><g class="clips"/></defs><g class="layer-above"><g class="imagelayer"/><g class="shapelayer"/></g><g class="infolayer"><g class="g-gtitle"><text class="gtitle" x="550" y="25" text-anchor="middle" dy="0em" style="opacity: 1; font-family: 'Lucida Grande', 'Open Sans', verdana, arial, sans-serif; font-size: 20px; fill: rgb(42, 63, 95); fill-opacity: 1; white-space: pre;"><tspan class="line" dy="0em" x="550" y="25">Too many nodes vor Drugst.One.</tspan><tspan class="line" dy="1.3em" x="550" y="25">​<tspan style="font-size:70%" dy="-0.6em">6 samples</tspan><tspan dy="0.42em">​</tspan></tspan></text></g><g class="g-xtitle"/><g class="g-ytitle"/></g></svg>