<svg class="main-svg" xmlns="http://www.w3.org/2000/svg" xmlns:xlink="http://www.w3.org/1999/xlink" width="2200" height="406" style="" viewBox="0 0 1100 203"><rect x="0" y="0" width="1100" height="203" style="fill: rgb(255, 255, 255); fill-opacity: 1;"/><defs id="defs-dacb54"><g class="clips"><clipPath id="clipdacb54xyplot" class="plotclip"><rect width="1000" height="42.375"/></clipPath><clipPath id="clipdacb54x2y2plot" class="plotclip"><rect width="1000" height="42.375"/></clipPath><clipPath class="axesclip" id="clipdacb54x"><rect x="85" y="0" width="1000" height="203"/></clipPath><clipPath class="axesclip" id="clipdacb54y"><rect x="0" y="50" width="1100" height="42.375"/></clipPath><clipPath class="axesclip" id="clipdacb54xy"><rect x="85" y="50" width="1000" height="42.375"/></clipPath><clipPath class="axesclip" id="clipdacb54y2"><rect x="0" y="120.625" width="1100" height="42.375"/></clipPath><clipPath class="axesclip" id="clipdacb54xy2"><rect x="85" y="120.625" width="1000" height="42.375"/></clipPath><clipPath class="axesclip" id="clipdacb54x2"><rect x="85" y="0" width="1000" height="203"/></clipPath><clipPath class="axesclip" id="clipdacb54x2y"><rect x="85" y="50" width="1000" height="42.375"/></clipPath><clipPath class="axesclip" id="clipdacb54x2y2"><rect x="85" y="120.625" width="1000" height="42.375"/></clipPath></g><g class="gradients"/><g class="patterns"/></defs><g class="bglayer"/><g class="layer-below"><g class="imagelayer"/><g class="shapelayer"/></g><g class="cartesianlayer"><g class="subplot xy"><g class="layer-subplot"><g class="shapelayer"/><g class="imagelayer"/></g><g class="minor-gridlayer"><g class="x"/><g class="y"/></g><g class="gridlayer"><g class="x"><path class="xgrid crisp" transform="translate(371.49,0)" d="M0,50v42.375" style="stroke: rgb(0, 0, 0); stroke-opacity: 0.1; stroke-width: 1px;"/><path class="xgrid crisp" transform="translate(456.89,0)" d="M0,50v42.375" style="stroke: rgb(0, 0, 0); stroke-opacity: 0.1; stroke-width: 1px;"/><path class="xgrid crisp" transform="translate(542.3,0)" d="M0,50v42.375" style="stroke: rgb(0, 0, 0); stroke-opacity: 0.1; stroke-width: 1px;"/><path class="xgrid crisp" transform="translate(627.7,0)" d="M0,50v42.375" style="stroke: rgb(0, 0, 0); stroke-opacity: 0.1; stroke-width: 1px;"/><path class="xgrid crisp" transform="translate(713.11,0)" d="M0,50v42.375" style="stroke: rgb(0, 0, 0); stroke-opacity: 0.1; stroke-width: 1px;"/><path class="xgrid crisp" transform="translate(798.51,0)" d="M0,50v42.375" style="stroke: rgb(0, 0, 0); stroke-opacity: 0.1; stroke-width: 1px;"/></g><g class="y"><path class="ygrid crisp" transform="translate(0,71.19)" d="M85,0h1000" style="stroke: rgb(0, 0, 0); stroke-opacity: 0.1; stroke-width: 1px;"/></g></g><g class="zerolinelayer"/><g class="layer-between"><g class="shapelayer"/><g class="imagelayer"/></g><path class="xlines-below"/><path class="ylines-below"/><g class="overlines-below"/><g class="xaxislayer-below"/><g class="yaxislayer-below"/><g class="overaxes-below"/><g class="overplot"><g class="xy" transform="translate(85,50)" clip-path="url(#clipdacb54xyplot)"><g class="violinlayer mlayer"><g class="trace violins" style="opacity: 0.5;"><path class="violin" d="M50,20.47Q76.09,20.08 89.13,19.8C102.17,19.51 115.22,19.18 128.26,18.76C141.3,18.34 154.35,17.85 167.39,17.3C180.43,16.75 193.48,16.12 206.52,15.48C219.56,14.84 232.61,14.12 245.65,13.45C258.69,12.78 271.74,12.08 284.78,11.44C297.82,10.81 310.87,10.18 323.91,9.64C336.95,9.11 350,8.63 363.04,8.23C376.08,7.83 389.13,7.51 402.17,7.24C415.21,6.97 428.26,6.78 441.3,6.63C454.34,6.48 467.39,6.41 480.43,6.36C493.48,6.31 506.52,6.31 519.57,6.36C532.61,6.41 545.66,6.48 558.7,6.63C571.74,6.78 584.79,6.97 597.83,7.24C610.87,7.51 623.92,7.83 636.96,8.23C650,8.63 663.05,9.11 676.09,9.64C689.13,10.18 702.18,10.81 715.22,11.44C728.26,12.08 741.31,12.78 754.35,13.45C767.39,14.12 780.44,14.84 793.48,15.48C806.52,16.12 819.57,16.75 832.61,17.3C845.65,17.85 858.7,18.34 871.74,18.76C884.78,19.18 897.83,19.51 910.87,19.8Q923.91,20.08 950,20.47L950,21.9Q923.91,22.29 910.87,22.57C897.83,22.86 884.78,23.19 871.74,23.61C858.7,24.03 845.65,24.52 832.61,25.07C819.57,25.62 806.52,26.25 793.48,26.89C780.44,27.53 767.39,28.24 754.35,28.92C741.31,29.59 728.26,30.3 715.22,30.94C702.18,31.57 689.13,32.19 676.09,32.73C663.05,33.26 650,33.75 636.96,34.15C623.92,34.55 610.87,34.87 597.83,35.14C584.79,35.4 571.74,35.59 558.7,35.74C545.66,35.89 532.61,35.97 519.57,36.02C506.52,36.07 493.48,36.07 480.43,36.02C467.39,35.97 454.34,35.89 441.3,35.74C428.26,35.59 415.21,35.4 402.17,35.14C389.13,34.87 376.08,34.55 363.04,34.15C350,33.75 336.95,33.26 323.91,32.73C310.87,32.19 297.82,31.57 284.78,30.94C271.74,30.3 258.69,29.59 245.65,28.92C232.61,28.24 219.56,27.53 206.52,26.89C193.48,26.25 180.43,25.62 167.39,25.07C154.35,24.52 141.3,24.03 128.26,23.61C115.22,23.19 102.17,22.86 89.13,22.57Q76.09,22.29 50,21.9Z" style="vector-effect: none; stroke-width: 2px; stroke: rgb(181, 181, 181); stroke-opacity: 1; fill: rgb(181, 181, 181); fill-opacity: 1;"/><path class="box" d="M500,24.9V17.48M371.89,24.9V17.48H628.11V24.9ZM371.89,21.19H286.49M628.11,21.19H713.51" style="vector-effect: non-scaling-stroke; stroke-width: 2px; stroke: rgb(181, 181, 181); stroke-opacity: 1; fill: rgb(181, 181, 181); fill-opacity: 1;"/><path class="mean" d="M500,24.9V17.48" style="fill: none; vector-effect: non-scaling-stroke; stroke-width: 2px; stroke-dasharray: 4px, 2px; stroke: rgb(181, 181, 181); stroke-opacity: 1;"/></g></g><g class="scatterlayer mlayer"><g class="trace scatter tracecfb849" style="stroke-miterlimit: 2; opacity: 1;"><g class="fills"/><g class="errorbars"/><g class="lines"/><g class="points"><path class="point" transform="translate(286.49,21.19)" d="M2,0A2,2 0 1,1 0,-2A2,2 0 0,1 2,0Z" style="opacity: 1; stroke-width: 0px; fill: rgb(11, 121, 230); fill-opacity: 1;"/></g><g class="text"/></g><g class="trace scatter traceb1605c" style="stroke-miterlimit: 2; opacity: 1;"><g class="fills"/><g class="errorbars"/><g class="lines"/><g class="points"><path class="point" transform="translate(371.89,21.19)" d="M2,0A2,2 0 1,1 0,-2A2,2 0 0,1 2,0Z" style="opacity: 1; stroke-width: 0px; fill: rgb(11, 121, 230); fill-opacity: 1;"/></g><g class="text"/></g><g class="trace scatter trace5a463e" style="stroke-miterlimit: 2; opacity: 1;"><g class="fills"/><g class="errorbars"/><g class="lines"/><g class="points"><path class="point" transform="translate(457.3,21.19)" d="M2,0A2,2 0 1,1 0,-2A2,2 0 0,1 2,0Z" style="opacity: 1; stroke-width: 0px; fill: rgb(11, 121, 230); fill-opacity: 1;"/></g><g class="text"/></g><g class="trace scatter trace201edd" style="stroke-miterlimit: 2; opacity: 1;"><g class="fills"/><g class="errorbars"/><g class="lines"/><g class="points"><path class="point" transform="translate(542.7,21.19)" d="M2,0A2,2 0 1,1 0,-2A2,2 0 0,1 2,0Z" style="opacity: 1; stroke-width: 0px; fill: rgb(11, 121, 230); fill-opacity: 1;"/></g><g class="text"/></g><g class="trace scatter tracef5e939" style="stroke-miterlimit: 2; opacity: 1;"><g class="fills"/><g class="errorbars"/><g class="lines"/><g class="points"><path class="point" transform="translate(628.11,21.19)" d="M2,0A2,2 0 1,1 0,-2A2,2 0 0,1 2,0Z" style="opacity: 1; stroke-width: 0px; fill: rgb(11, 121, 230); fill-opacity: 1;"/></g><g class="text"/></g><g class="trace scatter traceb4dfd5" style="stroke-miterlimit: 2; opacity: 1;"><g class="fills"/><g class="errorbars"/><g class="lines"/><g class="points"><path class="point" transform="translate(713.51,21.19)" d="M2,0A2,2 0 1,1 0,-2A2,2 0 0,1 2,0Z" style="opacity: 1; stroke-width: 0px; fill: rgb(11, 121, 230); fill-opacity: 1;"/></g><g class="text"/></g></g></g></g><path class="xlines-above crisp" d="M0,0" style="fill: none;"/><path class="ylines-above crisp" d="M0,0" style="fill: none;"/><g class="overlines-above"/><g class="xaxislayer-above"><g class="xtick"><text text-anchor="start" x="0" y="102.375" transform="translate(371.49,0) rotate(29.999999999999996,0,97.875)" style="font-family: 'Lucida Grande', 'Open Sans', verdana, arial, sans-serif; font-size: 9px; fill: rgb(0, 0, 0); fill-opacity: 0.5; white-space: pre; pointer-events: all; opacity: 1;"><a style="cursor:pointer">Assembly_and_Packaging.uniprot_ppi.no_tool</a></text></g><g class="xtick"><text text-anchor="start" x="0" y="102.375" transform="translate(456.89,0) rotate(29.999999999999996,0,97.875)" style="font-family: 'Lucida Grande', 'Open Sans', verdana, arial, sans-serif; font-size: 9px; fill: rgb(0, 0, 0); fill-opacity: 0.5; white-space: pre; pointer-events: all; opacity: 1;"><a style="cursor:pointer">Assembly_and_Packaging.uniprot_ppi.robust</a></text></g><g class="xtick"><text text-anchor="start" x="0" y="102.375" transform="translate(542.3,0) rotate(29.999999999999996,0,97.875)" style="font-family: 'Lucida Grande', 'Open Sans', verdana, arial, sans-serif; font-size: 9px; fill: rgb(0, 0, 0); fill-opacity: 0.5; white-space: pre; pointer-events: all; opacity: 1;"><a style="cursor:pointer">Assembly_and_Packaging.uniprot_ppi.domino</a></text></g><g class="xtick"><text text-anchor="start" x="0" y="102.375" transform="translate(627.7,0) rotate(29.999999999999996,0,97.875)" style="font-family: 'Lucida Grande', 'Open Sans', verdana, arial, sans-serif; font-size: 9px; fill: rgb(0, 0, 0); fill-opacity: 0.5; white-space: pre; pointer-events: all; opacity: 1;"><a style="cursor:pointer">Assembly_and_Packaging.uniprot_ppi.robust_bias_aware</a></text></g><g class="xtick"><text text-anchor="start" x="0" y="102.375" transform="translate(713.11,0) rotate(29.999999999999996,0,97.875)" style="font-family: 'Lucida Grande', 'Open Sans', verdana, arial, sans-serif; font-size: 9px; fill: rgb(0, 0, 0); fill-opacity: 0.5; white-space: pre; pointer-events: all; opacity: 1;"><a style="cursor:pointer">Assembly_and_Packaging.uniprot_ppi.diamond</a></text></g><g class="xtick"><text text-anchor="start" x="0" y="102.375" transform="translate(798.51,0) rotate(29.999999999999996,0,97.875)" style="font-family: 'Lucida Grande', 'Open Sans', verdana, arial, sans-serif; font-size: 9px; fill: rgb(0, 0, 0); fill-opacity: 0.5; white-space: pre; pointer-events: all; opacity: 1;"><a style="cursor:pointer">Assembly_and_Packaging.uniprot_ppi.rwr</a></text></g></g><g class="yaxislayer-above"><g class="ytick"><text text-anchor="end" x="84" y="3.15" transform="translate(0,71.19)" style="font-family: 'Lucida Grande', 'Open Sans', verdana, arial, sans-serif; font-size: 9px; fill: rgb(0, 0, 0); fill-opacity: 0.5; white-space: pre; opacity: 1;">drugstone_link  </text></g></g><g class="overaxes-above"/></g><g class="subplot x2y2"><g class="layer-subplot"><g class="shapelayer"/><g class="imagelayer"/></g><g class="minor-gridlayer"><g class="x2"/><g class="y2"/></g><g class="gridlayer"><g class="x2"><path class="x2grid crisp" transform="translate(371.49,0)" d="M0,120.625v42.375" style="stroke: rgb(0, 0, 0); stroke-opacity: 0.1; stroke-width: 1px;"/><path class="x2grid crisp" transform="translate(456.89,0)" d="M0,120.625v42.375" style="stroke: rgb(0, 0, 0); stroke-opacity: 0.1; stroke-width: 1px;"/><path class="x2grid crisp" transform="translate(542.3,0)" d="M0,120.625v42.375" style="stroke: rgb(0, 0, 0); stroke-opacity: 0.1; stroke-width: 1px;"/><path class="x2grid crisp" transform="translate(627.7,0)" d="M0,120.625v42.375" style="stroke: rgb(0, 0, 0); stroke-opacity: 0.1; stroke-width: 1px;"/><path class="x2grid crisp" transform="translate(713.11,0)" d="M0,120.625v42.375" style="stroke: rgb(0, 0, 0); stroke-opacity: 0.1; stroke-width: 1px;"/><path class="x2grid crisp" transform="translate(798.51,0)" d="M0,120.625v42.375" style="stroke: rgb(0, 0, 0); stroke-opacity: 0.1; stroke-width: 1px;"/></g><g class="y2"><path class="y2grid crisp" transform="translate(0,141.815)" d="M85,0h1000" style="stroke: rgb(0, 0, 0); stroke-opacity: 0.1; stroke-width: 1px;"/></g></g><g class="zerolinelayer"/><g class="layer-between"><g class="shapelayer"/><g class="imagelayer"/></g><path class="xlines-below"/><path class="ylines-below"/><g class="overlines-below"/><g class="xaxislayer-below"/><g class="yaxislayer-below"/><g class="overaxes-below"/><g class="overplot"><g class="x2y2" transform="translate(85,120.625)" clip-path="url(#clipdacb54x2y2plot)"><g class="violinlayer mlayer"><g class="trace violins" style="opacity: 0.5;"><path class="violin" d="M50,20.47Q76.09,20.08 89.13,19.8C102.17,19.51 115.22,19.18 128.26,18.76C141.3,18.34 154.35,17.85 167.39,17.3C180.43,16.75 193.48,16.12 206.52,15.48C219.56,14.84 232.61,14.12 245.65,13.45C258.69,12.78 271.74,12.08 284.78,11.44C297.82,10.81 310.87,10.18 323.91,9.64C336.95,9.11 350,8.63 363.04,8.23C376.08,7.83 389.13,7.51 402.17,7.24C415.21,6.97 428.26,6.78 441.3,6.63C454.34,6.48 467.39,6.41 480.43,6.36C493.48,6.31 506.52,6.31 519.57,6.36C532.61,6.41 545.66,6.48 558.7,6.63C571.74,6.78 584.79,6.97 597.83,7.24C610.87,7.51 623.92,7.83 636.96,8.23C650,8.63 663.05,9.11 676.09,9.64C689.13,10.18 702.18,10.81 715.22,11.44C728.26,12.08 741.31,12.78 754.35,13.45C767.39,14.12 780.44,14.84 793.48,15.48C806.52,16.12 819.57,16.75 832.61,17.3C845.65,17.85 858.7,18.34 871.74,18.76C884.78,19.18 897.83,19.51 910.87,19.8Q923.91,20.08 950,20.47L950,21.9Q923.91,22.29 910.87,22.57C897.83,22.86 884.78,23.19 871.74,23.61C858.7,24.03 845.65,24.52 832.61,25.07C819.57,25.62 806.52,26.25 793.48,26.89C780.44,27.53 767.39,28.24 754.35,28.92C741.31,29.59 728.26,30.3 715.22,30.94C702.18,31.57 689.13,32.19 676.09,32.73C663.05,33.26 650,33.75 636.96,34.15C623.92,34.55 610.87,34.87 597.83,35.14C584.79,35.4 571.74,35.59 558.7,35.74C545.66,35.89 532.61,35.97 519.57,36.02C506.52,36.07 493.48,36.07 480.43,36.02C467.39,35.97 454.34,35.89 441.3,35.74C428.26,35.59 415.21,35.4 402.17,35.14C389.13,34.87 376.08,34.55 363.04,34.15C350,33.75 336.95,33.26 323.91,32.73C310.87,32.19 297.82,31.57 284.78,30.94C271.74,30.3 258.69,29.59 245.65,28.92C232.61,28.24 219.56,27.53 206.52,26.89C193.48,26.25 180.43,25.62 167.39,25.07C154.35,24.52 141.3,24.03 128.26,23.61C115.22,23.19 102.17,22.86 89.13,22.57Q76.09,22.29 50,21.9Z" style="vector-effect: none; stroke-width: 2px; stroke: rgb(181, 181, 181); stroke-opacity: 1; fill: rgb(181, 181, 181); fill-opacity: 1;"/><path class="box" d="M500,24.9V17.48M371.89,24.9V17.48H628.11V24.9ZM371.89,21.19H286.49M628.11,21.19H713.51" style="vector-effect: non-scaling-stroke; stroke-width: 2px; stroke: rgb(181, 181, 181); stroke-opacity: 1; fill: rgb(181, 181, 181); fill-opacity: 1;"/><path class="mean" d="M500,24.9V17.48" style="fill: none; vector-effect: non-scaling-stroke; stroke-width: 2px; stroke-dasharray: 4px, 2px; stroke: rgb(181, 181, 181); stroke-opacity: 1;"/></g></g><g class="scatterlayer mlayer"><g class="trace scatter trace33f733" style="stroke-miterlimit: 2; opacity: 1;"><g class="fills"/><g class="errorbars"/><g class="lines"/><g class="points"><path class="point" transform="translate(286.49,21.19)" d="M2,0A2,2 0 1,1 0,-2A2,2 0 0,1 2,0Z" style="opacity: 1; stroke-width: 0px; fill: rgb(11, 121, 230); fill-opacity: 1;"/></g><g class="text"/></g><g class="trace scatter trace6c02ad" style="stroke-miterlimit: 2; opacity: 1;"><g class="fills"/><g class="errorbars"/><g class="lines"/><g class="points"><path class="point" transform="translate(371.89,21.19)" d="M2,0A2,2 0 1,1 0,-2A2,2 0 0,1 2,0Z" style="opacity: 1; stroke-width: 0px; fill: rgb(11, 121, 230); fill-opacity: 1;"/></g><g class="text"/></g><g class="trace scatter trace079ec8" style="stroke-miterlimit: 2; opacity: 1;"><g class="fills"/><g class="errorbars"/><g class="lines"/><g class="points"><path class="point" transform="translate(457.3,21.19)" d="M2,0A2,2 0 1,1 0,-2A2,2 0 0,1 2,0Z" style="opacity: 1; stroke-width: 0px; fill: rgb(11, 121, 230); fill-opacity: 1;"/></g><g class="text"/></g><g class="trace scatter trace981ba0" style="stroke-miterlimit: 2; opacity: 1;"><g class="fills"/><g class="errorbars"/><g class="lines"/><g class="points"><path class="point" transform="translate(542.7,21.19)" d="M2,0A2,2 0 1,1 0,-2A2,2 0 0,1 2,0Z" style="opacity: 1; stroke-width: 0px; fill: rgb(11, 121, 230); fill-opacity: 1;"/></g><g class="text"/></g><g class="trace scatter trace1c4cf9" style="stroke-miterlimit: 2; opacity: 1;"><g class="fills"/><g class="errorbars"/><g class="lines"/><g class="points"><path class="point" transform="translate(628.11,21.19)" d="M2,0A2,2 0 1,1 0,-2A2,2 0 0,1 2,0Z" style="opacity: 1; stroke-width: 0px; fill: rgb(11, 121, 230); fill-opacity: 1;"/></g><g class="text"/></g><g class="trace scatter trace415ea2" style="stroke-miterlimit: 2; opacity: 1;"><g class="fills"/><g class="errorbars"/><g class="lines"/><g class="points"><path class="point" transform="translate(713.51,21.19)" d="M2,0A2,2 0 1,1 0,-2A2,2 0 0,1 2,0Z" style="opacity: 1; stroke-width: 0px; fill: rgb(11, 121, 230); fill-opacity: 1;"/></g><g class="text"/></g></g></g></g><path class="xlines-above crisp" d="M0,0" style="fill: none;"/><path class="ylines-above crisp" d="M0,0" style="fill: none;"/><g class="overlines-above"/><g class="xaxislayer-above"><g class="x2tick"><text text-anchor="start" x="0" y="173" transform="translate(371.49,0) rotate(29.999999999999996,0,168.5)" style="font-family: 'Lucida Grande', 'Open Sans', verdana, arial, sans-serif; font-size: 9px; fill: rgb(0, 0, 0); fill-opacity: 0.5; white-space: pre; opacity: 1;">https://drugst.one/?id=89ba1cfc01fe46ac9f2d92bd385b5cf3</text></g><g class="x2tick"><text text-anchor="start" x="0" y="173" transform="translate(456.89,0) rotate(29.999999999999996,0,168.5)" style="font-family: 'Lucida Grande', 'Open Sans', verdana, arial, sans-serif; font-size: 9px; fill: rgb(0, 0, 0); fill-opacity: 0.5; white-space: pre; opacity: 1;">https://drugst.one/?id=97fef879c0cc4a6099a9160511522470</text></g><g class="x2tick"><text text-anchor="start" x="0" y="173" transform="translate(542.3,0) rotate(29.999999999999996,0,168.5)" style="font-family: 'Lucida Grande', 'Open Sans', verdana, arial, sans-serif; font-size: 9px; fill: rgb(0, 0, 0); fill-opacity: 0.5; white-space: pre; opacity: 1;">https://drugst.one/?id=8c87413e5314431dbcd5f99be9accf4e</text></g><g class="x2tick"><text text-anchor="start" x="0" y="173" transform="translate(627.7,0) rotate(29.999999999999996,0,168.5)" style="font-family: 'Lucida Grande', 'Open Sans', verdana, arial, sans-serif; font-size: 9px; fill: rgb(0, 0, 0); fill-opacity: 0.5; white-space: pre; opacity: 1;">https://drugst.one/?id=09f591eb4a68474b9ca5ec8fc27f7a9e</text></g><g class="x2tick"><text text-anchor="start" x="0" y="173" transform="translate(713.11,0) rotate(29.999999999999996,0,168.5)" style="font-family: 'Lucida Grande', 'Open Sans', verdana, arial, sans-serif; font-size: 9px; fill: rgb(0, 0, 0); fill-opacity: 0.5; white-space: pre; opacity: 1;">https://drugst.one/?id=d134318d12be46d5b1436187a1022cc0</text></g><g class="x2tick"><text text-anchor="start" x="0" y="173" transform="translate(798.51,0) rotate(29.999999999999996,0,168.5)" style="font-family: 'Lucida Grande', 'Open Sans', verdana, arial, sans-serif; font-size: 9px; fill: rgb(0, 0, 0); fill-opacity: 0.5; white-space: pre; opacity: 1;">https://drugst.one/?id=124301556a1b4b56a206b0444c962573</text></g></g><g class="yaxislayer-above"><g class="y2tick"><text text-anchor="end" x="84" y="3.15" transform="translate(0,141.815)" style="font-family: 'Lucida Grande', 'Open Sans', verdana, arial, sans-serif; font-size: 9px; fill: rgb(0, 0, 0); fill-opacity: 0.5; white-space: pre; opacity: 1;">link_raw  </text></g></g><g class="overaxes-above"/></g></g><g class="polarlayer"/><g class="smithlayer"/><g class="ternarylayer"/><g class="geolayer"/><g class="funnelarealayer"/><g class="pielayer"/><g class="iciclelayer"/><g class="treemaplayer"/><g class="sunburstlayer"/><g class="glimages"/><defs id="topdefs-dacb54"><g class="clips"/></defs><g class="layer-above"><g class="imagelayer"/><g class="shapelayer"/></g><g class="infolayer"><g class="g-gtitle"><text class="gtitle" x="550" y="25" text-anchor="middle" dy="0em" style="opacity: 1; font-family: 'Lucida Grande', 'Open Sans', verdana, arial, sans-serif; font-size: 20px; fill: rgb(42, 63, 95); fill-opacity: 1; white-space: pre;"><tspan class="line" dy="0em" x="550" y="25">Drugstone Links</tspan><tspan class="line" dy="1.3em" x="550" y="25">​<tspan style="font-size:70%" dy="-0.6em">6 samples</tspan><tspan dy="0.42em">​</tspan></tspan></text></g><g class="g-xtitle"/><g class="g-x2title"/><g class="g-ytitle"/><g class="g-y2title"/></g></svg>