<svg class="main-svg" xmlns="http://www.w3.org/2000/svg" xmlns:xlink="http://www.w3.org/1999/xlink" width="2200" height="266" style="" viewBox="0 0 1100 133"><rect x="0" y="0" width="1100" height="133" style="fill: rgb(255, 255, 255); fill-opacity: 1;"/><defs id="defs-78eb1c"><g class="clips"><clipPath id="clip78eb1cxyplot" class="plotclip"><rect width="1025" height="43"/></clipPath><clipPath class="axesclip" id="clip78eb1cx"><rect x="60" y="0" width="1025" height="133"/></clipPath><clipPath class="axesclip" id="clip78eb1cy"><rect x="0" y="50" width="1100" height="43"/></clipPath><clipPath class="axesclip" id="clip78eb1cxy"><rect x="60" y="50" width="1025" height="43"/></clipPath></g><g class="gradients"/><g class="patterns"/></defs><g class="bglayer"/><g class="layer-below"><g class="imagelayer"/><g class="shapelayer"/></g><g class="cartesianlayer"><g class="subplot xy"><g class="layer-subplot"><g class="shapelayer"/><g class="imagelayer"/></g><g class="minor-gridlayer"><g class="x"/><g class="y"/></g><g class="gridlayer"><g class="x"><path class="xgrid crisp" transform="translate(215.06,0)" d="M0,50v43" style="stroke: rgb(0, 0, 0); stroke-opacity: 0.1; stroke-width: 1px;"/><path class="xgrid crisp" transform="translate(365.05,0)" d="M0,50v43" style="stroke: rgb(0, 0, 0); stroke-opacity: 0.1; stroke-width: 1px;"/><path class="xgrid crisp" transform="translate(515.04,0)" d="M0,50v43" style="stroke: rgb(0, 0, 0); stroke-opacity: 0.1; stroke-width: 1px;"/><path class="xgrid crisp" transform="translate(665.03,0)" d="M0,50v43" style="stroke: rgb(0, 0, 0); stroke-opacity: 0.1; stroke-width: 1px;"/><path class="xgrid crisp" transform="translate(815.02,0)" d="M0,50v43" style="stroke: rgb(0, 0, 0); stroke-opacity: 0.1; stroke-width: 1px;"/><path class="xgrid crisp" transform="translate(965.01,0)" d="M0,50v43" style="stroke: rgb(0, 0, 0); stroke-opacity: 0.1; stroke-width: 1px;"/></g><g class="y"><path class="ygrid crisp" transform="translate(0,71.5)" d="M60,0h1025" style="stroke: rgb(0, 0, 0); stroke-opacity: 0.1; stroke-width: 1px;"/></g></g><g class="zerolinelayer"><path class="xzl zl crisp" transform="translate(65.07,0)" d="M0,50v43" style="stroke: rgb(0, 0, 0); stroke-opacity: 0.1; stroke-width: 2px;"/></g><g class="layer-between"><g class="shapelayer"/><g class="imagelayer"/></g><path class="xlines-below"/><path class="ylines-below"/><g class="overlines-below"/><g class="xaxislayer-below"/><g class="yaxislayer-below"/><g class="overaxes-below"/><g class="overplot"><g class="xy" transform="translate(60,50)" clip-path="url(#clip78eb1cxyplot)"><g class="violinlayer mlayer"><g class="trace violins" style="opacity: 0.5;"><path class="violin" d="M696.97,20.8Q701.99,20.42 704.49,20.13C707,19.84 709.52,19.49 712.02,19.05C714.53,18.61 717.04,18.08 719.54,17.49C722.06,16.89 724.57,16.19 727.07,15.47C729.58,14.74 732.08,13.92 734.59,13.13C737.1,12.34 739.6,11.49 742.12,10.74C744.62,9.99 747.12,9.23 749.64,8.63C752.14,8.03 754.64,7.49 757.16,7.13C759.66,6.77 762.18,6.53 764.69,6.45C767.2,6.37 769.71,6.45 772.21,6.65C774.72,6.85 777.24,7.21 779.74,7.64C782.26,8.07 784.76,8.64 787.26,9.22C789.77,9.81 792.28,10.49 794.78,11.15C797.29,11.82 799.8,12.53 802.31,13.21C804.82,13.89 807.32,14.59 809.83,15.23C812.33,15.87 814.85,16.49 817.36,17.04C819.86,17.59 822.37,18.1 824.88,18.54C827.38,18.98 829.89,19.37 832.4,19.69C834.91,20.01 837.42,20.26 839.93,20.48C842.44,20.69 844.94,20.85 847.45,20.98C849.96,21.11 852.47,21.19 854.98,21.26C857.49,21.33 859.99,21.37 862.5,21.4C865.01,21.43 867.51,21.45 870.02,21.46C872.53,21.48 875.04,21.48 877.55,21.49C880.06,21.5 882.56,21.5 885.07,21.5C887.58,21.5 890.09,21.5 892.6,21.5C895.11,21.5 897.61,21.5 900.12,21.5C902.63,21.5 905.13,21.5 907.64,21.5C910.15,21.5 912.66,21.5 915.17,21.5C917.68,21.5 920.18,21.5 922.69,21.5C925.2,21.5 927.71,21.5 930.22,21.5C932.73,21.5 935.23,21.49 937.74,21.49C940.25,21.49 942.76,21.49 945.27,21.48C947.78,21.47 950.28,21.47 952.79,21.45C955.3,21.43 957.8,21.4 960.31,21.36C962.82,21.32 965.33,21.28 967.84,21.2C970.35,21.12 972.85,21.02 975.36,20.89C977.87,20.76 980.38,20.6 982.89,20.41C985.4,20.22 987.9,19.98 990.41,19.74C992.92,19.5 995.42,19.22 997.93,18.96C1000.44,18.7 1002.95,18.42 1005.46,18.2C1007.97,17.98 1010.47,17.77 1012.98,17.65C1015.49,17.53 1018,17.46 1020.51,17.47C1023.02,17.48 1025.52,17.58 1028.03,17.72C1030.54,17.86 1033.04,18.08 1035.55,18.31C1038.06,18.54 1040.57,18.83 1043.08,19.09C1045.59,19.35 1048.09,19.62 1050.6,19.86C1053.11,20.09 1055.62,20.32 1058.13,20.5Q1060.64,20.68 1065.65,20.95L1065.65,22.05Q1060.64,22.32 1058.13,22.5C1055.62,22.68 1053.11,22.91 1050.6,23.14C1048.09,23.38 1045.59,23.65 1043.08,23.91C1040.57,24.17 1038.06,24.46 1035.55,24.69C1033.04,24.92 1030.54,25.14 1028.03,25.28C1025.52,25.42 1023.02,25.52 1020.51,25.53C1018,25.54 1015.49,25.47 1012.98,25.35C1010.47,25.23 1007.97,25.02 1005.46,24.8C1002.95,24.58 1000.44,24.3 997.93,24.04C995.42,23.78 992.92,23.5 990.41,23.26C987.9,23.02 985.4,22.78 982.89,22.59C980.38,22.4 977.87,22.24 975.36,22.11C972.85,21.98 970.35,21.88 967.84,21.8C965.33,21.72 962.82,21.68 960.31,21.64C957.8,21.6 955.3,21.57 952.79,21.55C950.28,21.53 947.78,21.53 945.27,21.52C942.76,21.51 940.25,21.51 937.74,21.51C935.23,21.51 932.73,21.5 930.22,21.5C927.71,21.5 925.2,21.5 922.69,21.5C920.18,21.5 917.68,21.5 915.17,21.5C912.66,21.5 910.15,21.5 907.64,21.5C905.13,21.5 902.63,21.5 900.12,21.5C897.61,21.5 895.11,21.5 892.6,21.5C890.09,21.5 887.58,21.5 885.07,21.5C882.56,21.5 880.06,21.5 877.55,21.51C875.04,21.52 872.53,21.52 870.02,21.54C867.51,21.55 865.01,21.57 862.5,21.6C859.99,21.63 857.49,21.67 854.98,21.74C852.47,21.81 849.96,21.89 847.45,22.02C844.94,22.15 842.44,22.31 839.93,22.52C837.42,22.74 834.91,22.99 832.4,23.31C829.89,23.63 827.38,24.02 824.88,24.46C822.37,24.9 819.86,25.41 817.36,25.96C814.85,26.51 812.33,27.13 809.83,27.77C807.32,28.41 804.82,29.11 802.31,29.79C799.8,30.47 797.29,31.18 794.78,31.85C792.28,32.51 789.77,33.19 787.26,33.78C784.76,34.36 782.26,34.93 779.74,35.36C777.24,35.79 774.72,36.15 772.21,36.35C769.71,36.55 767.2,36.63 764.69,36.55C762.18,36.47 759.66,36.23 757.16,35.87C754.64,35.51 752.14,34.97 749.64,34.37C747.12,33.77 744.62,33.01 742.12,32.26C739.6,31.51 737.1,30.66 734.59,29.87C732.08,29.08 729.58,28.26 727.07,27.53C724.57,26.81 722.06,26.11 719.54,25.51C717.04,24.92 714.53,24.39 712.02,23.95C709.52,23.51 707,23.16 704.49,22.87Q701.99,22.58 696.97,22.2Z" style="vector-effect: none; stroke-width: 2px; stroke: rgb(181, 181, 181); stroke-opacity: 1; fill: rgb(181, 181, 181); fill-opacity: 1;"/><path class="box" d="M772.42,25.26V17.74M758.32,25.26V17.74H800.02V25.26ZM758.32,21.5H742.72M800.02,21.5H800.02" style="vector-effect: non-scaling-stroke; stroke-width: 2px; stroke: rgb(181, 181, 181); stroke-opacity: 1; fill: rgb(181, 181, 181); fill-opacity: 1;"/><path class="mean" d="M810.97,25.26V17.74" style="fill: none; vector-effect: non-scaling-stroke; stroke-width: 2px; stroke-dasharray: 4px, 2px; stroke: rgb(181, 181, 181); stroke-opacity: 1;"/></g></g><g class="scatterlayer mlayer"><g class="trace scatter trace480614" style="stroke-miterlimit: 2; opacity: 1;"><g class="fills"/><g class="errorbars"/><g class="lines"/><g class="points"><path class="point" transform="translate(766.72,21.5)" d="M2,0A2,2 0 1,1 0,-2A2,2 0 0,1 2,0Z" style="opacity: 1; stroke-width: 0px; fill: rgb(11, 121, 230); fill-opacity: 1;"/></g><g class="text"/></g><g class="trace scatter tracefc9907" style="stroke-miterlimit: 2; opacity: 1;"><g class="fills"/><g class="errorbars"/><g class="lines"/><g class="points"><path class="point" transform="translate(758.32,21.5)" d="M2,0A2,2 0 1,1 0,-2A2,2 0 0,1 2,0Z" style="opacity: 1; stroke-width: 0px; fill: rgb(11, 121, 230); fill-opacity: 1;"/></g><g class="text"/></g><g class="trace scatter trace28bdf9" style="stroke-miterlimit: 2; opacity: 1;"><g class="fills"/><g class="errorbars"/><g class="lines"/><g class="points"><path class="point" transform="translate(1019.9,21.5)" d="M2,0A2,2 0 1,1 0,-2A2,2 0 0,1 2,0Z" style="opacity: 1; stroke-width: 0px; fill: rgb(11, 121, 230); fill-opacity: 1;"/></g><g class="text"/></g><g class="trace scatter trace748a6c" style="stroke-miterlimit: 2; opacity: 1;"><g class="fills"/><g class="errorbars"/><g class="lines"/><g class="points"><path class="point" transform="translate(742.72,21.5)" d="M2,0A2,2 0 1,1 0,-2A2,2 0 0,1 2,0Z" style="opacity: 1; stroke-width: 0px; fill: rgb(11, 121, 230); fill-opacity: 1;"/></g><g class="text"/></g><g class="trace scatter tracefea0d9" style="stroke-miterlimit: 2; opacity: 1;"><g class="fills"/><g class="errorbars"/><g class="lines"/><g class="points"><path class="point" transform="translate(778.12,21.5)" d="M2,0A2,2 0 1,1 0,-2A2,2 0 0,1 2,0Z" style="opacity: 1; stroke-width: 0px; fill: rgb(11, 121, 230); fill-opacity: 1;"/></g><g class="text"/></g><g class="trace scatter trace8290b3" style="stroke-miterlimit: 2; opacity: 1;"><g class="fills"/><g class="errorbars"/><g class="lines"/><g class="points"><path class="point" transform="translate(800.02,21.5)" d="M2,0A2,2 0 1,1 0,-2A2,2 0 0,1 2,0Z" style="opacity: 1; stroke-width: 0px; fill: rgb(11, 121, 230); fill-opacity: 1;"/></g><g class="text"/></g></g></g></g><path class="xlines-above crisp" d="M0,0" style="fill: none;"/><path class="ylines-above crisp" d="M0,0" style="fill: none;"/><g class="overlines-above"/><g class="xaxislayer-above"><g class="xtick"><text text-anchor="middle" x="0" y="103" transform="translate(65.07,0)" style="font-family: 'Lucida Grande', 'Open Sans', verdana, arial, sans-serif; font-size: 9px; fill: rgb(0, 0, 0); fill-opacity: 0.5; white-space: pre; opacity: 1;">0</text></g><g class="xtick"><text text-anchor="middle" x="0" y="103" style="font-family: 'Lucida Grande', 'Open Sans', verdana, arial, sans-serif; font-size: 9px; fill: rgb(0, 0, 0); fill-opacity: 0.5; white-space: pre; opacity: 1;" transform="translate(215.06,0)">500</text></g><g class="xtick"><text text-anchor="middle" x="0" y="103" style="font-family: 'Lucida Grande', 'Open Sans', verdana, arial, sans-serif; font-size: 9px; fill: rgb(0, 0, 0); fill-opacity: 0.5; white-space: pre; opacity: 1;" transform="translate(365.05,0)">1000</text></g><g class="xtick"><text text-anchor="middle" x="0" y="103" style="font-family: 'Lucida Grande', 'Open Sans', verdana, arial, sans-serif; font-size: 9px; fill: rgb(0, 0, 0); fill-opacity: 0.5; white-space: pre; opacity: 1;" transform="translate(515.04,0)">1500</text></g><g class="xtick"><text text-anchor="middle" x="0" y="103" style="font-family: 'Lucida Grande', 'Open Sans', verdana, arial, sans-serif; font-size: 9px; fill: rgb(0, 0, 0); fill-opacity: 0.5; white-space: pre; opacity: 1;" transform="translate(665.03,0)">2000</text></g><g class="xtick"><text text-anchor="middle" x="0" y="103" style="font-family: 'Lucida Grande', 'Open Sans', verdana, arial, sans-serif; font-size: 9px; fill: rgb(0, 0, 0); fill-opacity: 0.5; white-space: pre; opacity: 1;" transform="translate(815.02,0)">2500</text></g><g class="xtick"><text text-anchor="middle" x="0" y="103" style="font-family: 'Lucida Grande', 'Open Sans', verdana, arial, sans-serif; font-size: 9px; fill: rgb(0, 0, 0); fill-opacity: 0.5; white-space: pre; opacity: 1;" transform="translate(965.01,0)">3000</text></g></g><g class="yaxislayer-above"><g class="ytick"><text text-anchor="end" x="59" y="3.15" transform="translate(0,71.5)" style="font-family: 'Lucida Grande', 'Open Sans', verdana, arial, sans-serif; font-size: 9px; fill: rgb(0, 0, 0); fill-opacity: 0.5; white-space: pre; opacity: 1;">Nodes  </text></g></g><g class="overaxes-above"/></g></g><g class="polarlayer"/><g class="smithlayer"/><g class="ternarylayer"/><g class="geolayer"/><g class="funnelarealayer"/><g class="pielayer"/><g class="iciclelayer"/><g class="treemaplayer"/><g class="sunburstlayer"/><g class="glimages"/><defs id="topdefs-78eb1c"><g class="clips"/></defs><g class="layer-above"><g class="imagelayer"/><g class="shapelayer"/></g><g class="infolayer"><g class="g-gtitle"><text class="gtitle" x="550" y="25" text-anchor="middle" dy="0em" style="opacity: 1; font-family: 'Lucida Grande', 'Open Sans', verdana, arial, sans-serif; font-size: 20px; fill: rgb(42, 63, 95); fill-opacity: 1; white-space: pre;"><tspan class="line" dy="0em" x="550" y="25">Too many nodes vor visualization.</tspan><tspan class="line" dy="1.3em" x="550" y="25">​<tspan style="font-size:70%" dy="-0.6em">6 samples</tspan><tspan dy="0.42em">​</tspan></tspan></text></g><g class="g-xtitle"/><g class="g-ytitle"/></g></svg>