<svg class="main-svg" xmlns="http://www.w3.org/2000/svg" xmlns:xlink="http://www.w3.org/1999/xlink" width="2200" height="266" style="" viewBox="0 0 1100 133"><rect x="0" y="0" width="1100" height="133" style="fill: rgb(255, 255, 255); fill-opacity: 1;"/><defs id="defs-894aaf"><g class="clips"><clipPath id="clip894aafxyplot" class="plotclip"><rect width="1025" height="43"/></clipPath><clipPath class="axesclip" id="clip894aafx"><rect x="60" y="0" width="1025" height="133"/></clipPath><clipPath class="axesclip" id="clip894aafy"><rect x="0" y="50" width="1100" height="43"/></clipPath><clipPath class="axesclip" id="clip894aafxy"><rect x="60" y="50" width="1025" height="43"/></clipPath></g><g class="gradients"/><g class="patterns"/></defs><g class="bglayer"/><g class="layer-below"><g class="imagelayer"/><g class="shapelayer"/></g><g class="cartesianlayer"><g class="subplot xy"><g class="layer-subplot"><g class="shapelayer"/><g class="imagelayer"/></g><g class="minor-gridlayer"><g class="x"/><g class="y"/></g><g class="gridlayer"><g class="x"><path class="xgrid crisp" transform="translate(192.12,0)" d="M0,50v43" style="stroke: rgb(0, 0, 0); stroke-opacity: 0.1; stroke-width: 1px;"/><path class="xgrid crisp" transform="translate(319.16,0)" d="M0,50v43" style="stroke: rgb(0, 0, 0); stroke-opacity: 0.1; stroke-width: 1px;"/><path class="xgrid crisp" transform="translate(446.21,0)" d="M0,50v43" style="stroke: rgb(0, 0, 0); stroke-opacity: 0.1; stroke-width: 1px;"/><path class="xgrid crisp" transform="translate(573.25,0)" d="M0,50v43" style="stroke: rgb(0, 0, 0); stroke-opacity: 0.1; stroke-width: 1px;"/><path class="xgrid crisp" transform="translate(700.29,0)" d="M0,50v43" style="stroke: rgb(0, 0, 0); stroke-opacity: 0.1; stroke-width: 1px;"/><path class="xgrid crisp" transform="translate(827.34,0)" d="M0,50v43" style="stroke: rgb(0, 0, 0); stroke-opacity: 0.1; stroke-width: 1px;"/><path class="xgrid crisp" transform="translate(954.38,0)" d="M0,50v43" style="stroke: rgb(0, 0, 0); stroke-opacity: 0.1; stroke-width: 1px;"/><path class="xgrid crisp" transform="translate(1081.4299999999998,0)" d="M0,50v43" style="stroke: rgb(0, 0, 0); stroke-opacity: 0.1; stroke-width: 1px;"/></g><g class="y"><path class="ygrid crisp" transform="translate(0,71.5)" d="M60,0h1025" style="stroke: rgb(0, 0, 0); stroke-opacity: 0.1; stroke-width: 1px;"/></g></g><g class="zerolinelayer"><path class="xzl zl crisp" transform="translate(65.07,0)" d="M0,50v43" style="stroke: rgb(0, 0, 0); stroke-opacity: 0.1; stroke-width: 2px;"/></g><g class="layer-between"><g class="shapelayer"/><g class="imagelayer"/></g><path class="xlines-below"/><path class="ylines-below"/><g class="overlines-below"/><g class="xaxislayer-below"/><g class="yaxislayer-below"/><g class="overaxes-below"/><g class="overplot"><g class="xy" transform="translate(60,50)" clip-path="url(#clip894aafxyplot)"><g class="violinlayer mlayer"><g class="trace violins" style="opacity: 0.5;"><path class="violin" d="M804.96,20.69Q806.86,20.24 807.79,19.91C808.74,19.58 809.69,19.17 810.62,18.7C811.58,18.21 812.52,17.62 813.45,17C814.41,16.36 815.34,15.62 816.27,14.9C817.22,14.17 818.15,13.37 819.1,12.63C820.04,11.89 820.97,11.13 821.93,10.46C822.86,9.81 823.8,9.18 824.76,8.66C825.69,8.16 826.63,7.72 827.59,7.38C828.52,7.05 829.47,6.81 830.42,6.66C831.36,6.51 832.31,6.43 833.25,6.45C834.19,6.47 835.15,6.57 836.08,6.76C837.03,6.96 837.98,7.26 838.9,7.64C839.86,8.04 840.81,8.56 841.73,9.13C842.69,9.72 843.63,10.43 844.56,11.15C845.52,11.89 846.45,12.71 847.39,13.49C848.33,14.27 849.26,15.09 850.22,15.82C851.15,16.53 852.09,17.24 853.05,17.84C853.98,18.42 854.92,18.93 855.88,19.36C856.81,19.77 857.75,20.1 858.7,20.37C859.63,20.63 860.58,20.81 861.53,20.96C862.47,21.11 863.42,21.19 864.36,21.27C865.3,21.34 866.25,21.38 867.19,21.41C868.13,21.44 869.08,21.46 870.02,21.47C870.96,21.48 871.91,21.48 872.85,21.49C873.79,21.49 874.74,21.5 875.68,21.5C876.62,21.5 877.56,21.5 878.5,21.5C879.44,21.5 880.39,21.5 881.33,21.5C882.27,21.5 883.22,21.5 884.16,21.5C885.1,21.5 886.05,21.5 886.99,21.5C887.93,21.5 888.88,21.5 889.82,21.5C890.76,21.5 891.71,21.5 892.65,21.5C893.59,21.5 894.54,21.5 895.48,21.5C896.42,21.5 897.36,21.5 898.3,21.5C899.24,21.5 900.19,21.5 901.13,21.5C902.07,21.5 903.02,21.5 903.96,21.5C904.9,21.5 905.85,21.5 906.79,21.5C907.73,21.5 908.68,21.5 909.62,21.5C910.56,21.5 911.51,21.5 912.45,21.5C913.39,21.5 914.34,21.5 915.28,21.5C916.22,21.5 917.16,21.5 918.1,21.5C919.04,21.5 919.99,21.5 920.93,21.5C921.87,21.5 922.82,21.5 923.76,21.5C924.7,21.5 925.65,21.5 926.59,21.5C927.53,21.5 928.48,21.5 929.42,21.5C930.36,21.5 931.31,21.5 932.25,21.5C933.19,21.5 934.14,21.5 935.08,21.5C936.02,21.5 936.96,21.5 937.9,21.5C938.84,21.5 939.79,21.5 940.73,21.5C941.67,21.5 942.62,21.5 943.56,21.5C944.5,21.5 945.45,21.5 946.39,21.5C947.33,21.5 948.28,21.5 949.22,21.5C950.16,21.5 951.11,21.5 952.05,21.5C952.99,21.5 953.94,21.5 954.88,21.5C955.82,21.5 956.77,21.5 957.71,21.5C958.65,21.5 959.59,21.5 960.53,21.5C961.47,21.5 962.42,21.5 963.36,21.5C964.3,21.5 965.25,21.5 966.19,21.5C967.13,21.5 968.08,21.5 969.02,21.5C969.96,21.5 970.91,21.5 971.85,21.5C972.79,21.5 973.74,21.5 974.68,21.5C975.62,21.5 976.57,21.5 977.51,21.5C978.45,21.5 979.39,21.5 980.33,21.5C981.27,21.5 982.22,21.5 983.16,21.5C984.1,21.5 985.05,21.5 985.99,21.5C986.93,21.5 987.88,21.49 988.82,21.49C989.76,21.49 990.71,21.49 991.65,21.48C992.59,21.47 993.54,21.47 994.48,21.45C995.42,21.43 996.37,21.41 997.31,21.37C998.25,21.33 999.19,21.28 1000.13,21.2C1001.07,21.12 1002.02,21.03 1002.96,20.89C1003.91,20.75 1004.85,20.58 1005.79,20.38C1006.74,20.18 1007.68,19.93 1008.62,19.67C1009.57,19.41 1010.51,19.09 1011.45,18.8C1012.39,18.51 1013.33,18.2 1014.28,17.95C1015.22,17.7 1016.16,17.46 1017.11,17.31C1018.05,17.17 1018.99,17.08 1019.93,17.08C1020.87,17.08 1021.82,17.17 1022.76,17.32C1023.71,17.47 1024.65,17.72 1025.59,17.97C1026.54,18.22 1027.48,18.53 1028.42,18.82C1029.36,19.11 1030.3,19.43 1031.25,19.69C1032.19,19.95 1033.13,20.2 1034.08,20.4Q1035.02,20.6 1036.91,20.9L1036.91,22.1Q1035.02,22.4 1034.08,22.6C1033.13,22.8 1032.19,23.05 1031.25,23.31C1030.3,23.57 1029.36,23.89 1028.42,24.18C1027.48,24.47 1026.54,24.78 1025.59,25.03C1024.65,25.28 1023.71,25.53 1022.76,25.68C1021.82,25.83 1020.87,25.92 1019.93,25.92C1018.99,25.92 1018.05,25.83 1017.11,25.69C1016.16,25.54 1015.22,25.3 1014.28,25.05C1013.33,24.8 1012.39,24.49 1011.45,24.2C1010.51,23.91 1009.57,23.59 1008.62,23.33C1007.68,23.07 1006.74,22.82 1005.79,22.62C1004.85,22.42 1003.91,22.25 1002.96,22.11C1002.02,21.97 1001.07,21.88 1000.13,21.8C999.19,21.72 998.25,21.67 997.31,21.63C996.37,21.59 995.42,21.57 994.48,21.55C993.54,21.53 992.59,21.53 991.65,21.52C990.71,21.51 989.76,21.51 988.82,21.51C987.88,21.51 986.93,21.5 985.99,21.5C985.05,21.5 984.1,21.5 983.16,21.5C982.22,21.5 981.27,21.5 980.33,21.5C979.39,21.5 978.45,21.5 977.51,21.5C976.57,21.5 975.62,21.5 974.68,21.5C973.74,21.5 972.79,21.5 971.85,21.5C970.91,21.5 969.96,21.5 969.02,21.5C968.08,21.5 967.13,21.5 966.19,21.5C965.25,21.5 964.3,21.5 963.36,21.5C962.42,21.5 961.47,21.5 960.53,21.5C959.59,21.5 958.65,21.5 957.71,21.5C956.77,21.5 955.82,21.5 954.88,21.5C953.94,21.5 952.99,21.5 952.05,21.5C951.11,21.5 950.16,21.5 949.22,21.5C948.28,21.5 947.33,21.5 946.39,21.5C945.45,21.5 944.5,21.5 943.56,21.5C942.62,21.5 941.67,21.5 940.73,21.5C939.79,21.5 938.84,21.5 937.9,21.5C936.96,21.5 936.02,21.5 935.08,21.5C934.14,21.5 933.19,21.5 932.25,21.5C931.31,21.5 930.36,21.5 929.42,21.5C928.48,21.5 927.53,21.5 926.59,21.5C925.65,21.5 924.7,21.5 923.76,21.5C922.82,21.5 921.87,21.5 920.93,21.5C919.99,21.5 919.04,21.5 918.1,21.5C917.16,21.5 916.22,21.5 915.28,21.5C914.34,21.5 913.39,21.5 912.45,21.5C911.51,21.5 910.56,21.5 909.62,21.5C908.68,21.5 907.73,21.5 906.79,21.5C905.85,21.5 904.9,21.5 903.96,21.5C903.02,21.5 902.07,21.5 901.13,21.5C900.19,21.5 899.24,21.5 898.3,21.5C897.36,21.5 896.42,21.5 895.48,21.5C894.54,21.5 893.59,21.5 892.65,21.5C891.71,21.5 890.76,21.5 889.82,21.5C888.88,21.5 887.93,21.5 886.99,21.5C886.05,21.5 885.1,21.5 884.16,21.5C883.22,21.5 882.27,21.5 881.33,21.5C880.39,21.5 879.44,21.5 878.5,21.5C877.56,21.5 876.62,21.5 875.68,21.5C874.74,21.5 873.79,21.51 872.85,21.51C871.91,21.52 870.96,21.52 870.02,21.53C869.08,21.54 868.13,21.56 867.19,21.59C866.25,21.62 865.3,21.66 864.36,21.73C863.42,21.81 862.47,21.89 861.53,22.04C860.58,22.19 859.63,22.37 858.7,22.63C857.75,22.9 856.81,23.23 855.88,23.64C854.92,24.07 853.98,24.58 853.05,25.16C852.09,25.76 851.15,26.47 850.22,27.18C849.26,27.91 848.33,28.73 847.39,29.51C846.45,30.29 845.52,31.11 844.56,31.85C843.63,32.57 842.69,33.28 841.73,33.87C840.81,34.44 839.86,34.96 838.9,35.36C837.98,35.74 837.03,36.04 836.08,36.24C835.15,36.43 834.19,36.53 833.25,36.55C832.31,36.57 831.36,36.49 830.42,36.34C829.47,36.19 828.52,35.95 827.59,35.62C826.63,35.28 825.69,34.84 824.76,34.34C823.8,33.82 822.86,33.19 821.93,32.54C820.97,31.87 820.04,31.11 819.1,30.37C818.15,29.63 817.22,28.83 816.27,28.1C815.34,27.38 814.41,26.64 813.45,26C812.52,25.38 811.58,24.79 810.62,24.3C809.69,23.83 808.74,23.42 807.79,23.09Q806.86,22.76 804.96,22.31Z" style="vector-effect: none; stroke-width: 2px; stroke: rgb(181, 181, 181); stroke-opacity: 1; fill: rgb(181, 181, 181); fill-opacity: 1;"/><path class="box" d="M836.58,25.26V17.74M826.29,25.26V17.74H841.79V25.26ZM826.29,21.5H821.97M841.79,21.5H841.79" style="vector-effect: non-scaling-stroke; stroke-width: 2px; stroke: rgb(181, 181, 181); stroke-opacity: 1; fill: rgb(181, 181, 181); fill-opacity: 1;"/><path class="mean" d="M863.85,25.26V17.74" style="fill: none; vector-effect: non-scaling-stroke; stroke-width: 2px; stroke-dasharray: 4px, 2px; stroke: rgb(181, 181, 181); stroke-opacity: 1;"/></g></g><g class="scatterlayer mlayer"><g class="trace scatter trace266069" style="stroke-miterlimit: 2; opacity: 1;"><g class="fills"/><g class="errorbars"/><g class="lines"/><g class="points"><path class="point" transform="translate(840.77,21.5)" d="M2,0A2,2 0 1,1 0,-2A2,2 0 0,1 2,0Z" style="opacity: 1; stroke-width: 0px; fill: rgb(11, 121, 230); fill-opacity: 1;"/></g><g class="text"/></g><g class="trace scatter trace999623" style="stroke-miterlimit: 2; opacity: 1;"><g class="fills"/><g class="errorbars"/><g class="lines"/><g class="points"><path class="point" transform="translate(826.29,21.5)" d="M2,0A2,2 0 1,1 0,-2A2,2 0 0,1 2,0Z" style="opacity: 1; stroke-width: 0px; fill: rgb(11, 121, 230); fill-opacity: 1;"/></g><g class="text"/></g><g class="trace scatter trace57144f" style="stroke-miterlimit: 2; opacity: 1;"><g class="fills"/><g class="errorbars"/><g class="lines"/><g class="points"><path class="point" transform="translate(832.38,21.5)" d="M2,0A2,2 0 1,1 0,-2A2,2 0 0,1 2,0Z" style="opacity: 1; stroke-width: 0px; fill: rgb(11, 121, 230); fill-opacity: 1;"/></g><g class="text"/></g><g class="trace scatter trace4ad377" style="stroke-miterlimit: 2; opacity: 1;"><g class="fills"/><g class="errorbars"/><g class="lines"/><g class="points"><path class="point" transform="translate(841.79,21.5)" d="M2,0A2,2 0 1,1 0,-2A2,2 0 0,1 2,0Z" style="opacity: 1; stroke-width: 0px; fill: rgb(11, 121, 230); fill-opacity: 1;"/></g><g class="text"/></g><g class="trace scatter trace637da4" style="stroke-miterlimit: 2; opacity: 1;"><g class="fills"/><g class="errorbars"/><g class="lines"/><g class="points"><path class="point" transform="translate(821.97,21.5)" d="M2,0A2,2 0 1,1 0,-2A2,2 0 0,1 2,0Z" style="opacity: 1; stroke-width: 0px; fill: rgb(11, 121, 230); fill-opacity: 1;"/></g><g class="text"/></g><g class="trace scatter traceb2ffad" style="stroke-miterlimit: 2; opacity: 1;"><g class="fills"/><g class="errorbars"/><g class="lines"/><g class="points"><path class="point" transform="translate(1019.9,21.5)" d="M2,0A2,2 0 1,1 0,-2A2,2 0 0,1 2,0Z" style="opacity: 1; stroke-width: 0px; fill: rgb(11, 121, 230); fill-opacity: 1;"/></g><g class="text"/></g></g></g></g><path class="xlines-above crisp" d="M0,0" style="fill: none;"/><path class="ylines-above crisp" d="M0,0" style="fill: none;"/><g class="overlines-above"/><g class="xaxislayer-above"><g class="xtick"><text text-anchor="middle" x="0" y="103" transform="translate(65.07,0)" style="font-family: 'Lucida Grande', 'Open Sans', verdana, arial, sans-serif; font-size: 9px; fill: rgb(0, 0, 0); fill-opacity: 0.5; white-space: pre; opacity: 1;">0</text></g><g class="xtick"><text text-anchor="middle" x="0" y="103" style="font-family: 'Lucida Grande', 'Open Sans', verdana, arial, sans-serif; font-size: 9px; fill: rgb(0, 0, 0); fill-opacity: 0.5; white-space: pre; opacity: 1;" transform="translate(192.12,0)">500</text></g><g class="xtick"><text text-anchor="middle" x="0" y="103" style="font-family: 'Lucida Grande', 'Open Sans', verdana, arial, sans-serif; font-size: 9px; fill: rgb(0, 0, 0); fill-opacity: 0.5; white-space: pre; opacity: 1;" transform="translate(319.16,0)">1000</text></g><g class="xtick"><text text-anchor="middle" x="0" y="103" style="font-family: 'Lucida Grande', 'Open Sans', verdana, arial, sans-serif; font-size: 9px; fill: rgb(0, 0, 0); fill-opacity: 0.5; white-space: pre; opacity: 1;" transform="translate(446.21,0)">1500</text></g><g class="xtick"><text text-anchor="middle" x="0" y="103" style="font-family: 'Lucida Grande', 'Open Sans', verdana, arial, sans-serif; font-size: 9px; fill: rgb(0, 0, 0); fill-opacity: 0.5; white-space: pre; opacity: 1;" transform="translate(573.25,0)">2000</text></g><g class="xtick"><text text-anchor="middle" x="0" y="103" style="font-family: 'Lucida Grande', 'Open Sans', verdana, arial, sans-serif; font-size: 9px; fill: rgb(0, 0, 0); fill-opacity: 0.5; white-space: pre; opacity: 1;" transform="translate(700.29,0)">2500</text></g><g class="xtick"><text text-anchor="middle" x="0" y="103" style="font-family: 'Lucida Grande', 'Open Sans', verdana, arial, sans-serif; font-size: 9px; fill: rgb(0, 0, 0); fill-opacity: 0.5; white-space: pre; opacity: 1;" transform="translate(827.34,0)">3000</text></g><g class="xtick"><text text-anchor="middle" x="0" y="103" style="font-family: 'Lucida Grande', 'Open Sans', verdana, arial, sans-serif; font-size: 9px; fill: rgb(0, 0, 0); fill-opacity: 0.5; white-space: pre; opacity: 1;" transform="translate(954.38,0)">3500</text></g><g class="xtick"><text text-anchor="middle" x="0" y="103" style="font-family: 'Lucida Grande', 'Open Sans', verdana, arial, sans-serif; font-size: 9px; fill: rgb(0, 0, 0); fill-opacity: 0.5; white-space: pre; opacity: 1;" transform="translate(1081.4299999999998,0)">4000</text></g></g><g class="yaxislayer-above"><g class="ytick"><text text-anchor="end" x="59" y="3.15" transform="translate(0,71.5)" style="font-family: 'Lucida Grande', 'Open Sans', verdana, arial, sans-serif; font-size: 9px; fill: rgb(0, 0, 0); fill-opacity: 0.5; white-space: pre; opacity: 1;">Nodes  </text></g></g><g class="overaxes-above"/></g></g><g class="polarlayer"/><g class="smithlayer"/><g class="ternarylayer"/><g class="geolayer"/><g class="funnelarealayer"/><g class="pielayer"/><g class="iciclelayer"/><g class="treemaplayer"/><g class="sunburstlayer"/><g class="glimages"/><defs id="topdefs-894aaf"><g class="clips"/></defs><g class="layer-above"><g class="imagelayer"/><g class="shapelayer"/></g><g class="infolayer"><g class="g-gtitle"><text class="gtitle" x="550" y="25" text-anchor="middle" dy="0em" style="opacity: 1; font-family: 'Lucida Grande', 'Open Sans', verdana, arial, sans-serif; font-size: 20px; fill: rgb(42, 63, 95); fill-opacity: 1; white-space: pre;"><tspan class="line" dy="0em" x="550" y="25">Too many nodes vor visualization.</tspan><tspan class="line" dy="1.3em" x="550" y="25">​<tspan style="font-size:70%" dy="-0.6em">6 samples</tspan><tspan dy="0.42em">​</tspan></tspan></text></g><g class="g-xtitle"/><g class="g-ytitle"/></g></svg>