<svg class="main-svg" xmlns="http://www.w3.org/2000/svg" xmlns:xlink="http://www.w3.org/1999/xlink" width="2200" height="266" style="" viewBox="0 0 1100 133"><rect x="0" y="0" width="1100" height="133" style="fill: rgb(255, 255, 255); fill-opacity: 1;"/><defs id="defs-17c282"><g class="clips"><clipPath id="clip17c282xyplot" class="plotclip"><rect width="1025" height="43"/></clipPath><clipPath class="axesclip" id="clip17c282x"><rect x="60" y="0" width="1025" height="133"/></clipPath><clipPath class="axesclip" id="clip17c282y"><rect x="0" y="50" width="1100" height="43"/></clipPath><clipPath class="axesclip" id="clip17c282xy"><rect x="60" y="50" width="1025" height="43"/></clipPath></g><g class="gradients"/><g class="patterns"/></defs><g class="bglayer"/><g class="layer-below"><g class="imagelayer"/><g class="shapelayer"/></g><g class="cartesianlayer"><g class="subplot xy"><g class="layer-subplot"><g class="shapelayer"/><g class="imagelayer"/></g><g class="minor-gridlayer"><g class="x"/><g class="y"/></g><g class="gridlayer"><g class="x"><path class="xgrid crisp" transform="translate(238.94,0)" d="M0,50v43" style="stroke: rgb(0, 0, 0); stroke-opacity: 0.1; stroke-width: 1px;"/><path class="xgrid crisp" transform="translate(412.8,0)" d="M0,50v43" style="stroke: rgb(0, 0, 0); stroke-opacity: 0.1; stroke-width: 1px;"/><path class="xgrid crisp" transform="translate(586.66,0)" d="M0,50v43" style="stroke: rgb(0, 0, 0); stroke-opacity: 0.1; stroke-width: 1px;"/><path class="xgrid crisp" transform="translate(760.52,0)" d="M0,50v43" style="stroke: rgb(0, 0, 0); stroke-opacity: 0.1; stroke-width: 1px;"/><path class="xgrid crisp" transform="translate(934.38,0)" d="M0,50v43" style="stroke: rgb(0, 0, 0); stroke-opacity: 0.1; stroke-width: 1px;"/></g><g class="y"><path class="ygrid crisp" transform="translate(0,71.5)" d="M60,0h1025" style="stroke: rgb(0, 0, 0); stroke-opacity: 0.1; stroke-width: 1px;"/></g></g><g class="zerolinelayer"><path class="xzl zl crisp" transform="translate(65.07,0)" d="M0,50v43" style="stroke: rgb(0, 0, 0); stroke-opacity: 0.1; stroke-width: 2px;"/></g><g class="layer-between"><g class="shapelayer"/><g class="imagelayer"/></g><path class="xlines-below"/><path class="ylines-below"/><g class="overlines-below"/><g class="xaxislayer-below"/><g class="yaxislayer-below"/><g class="overaxes-below"/><g class="overplot"><g class="xy" transform="translate(60,50)" clip-path="url(#clip17c282xyplot)"><g class="violinlayer mlayer"><g class="trace violins" style="opacity: 0.5;"><path class="violin" d="M635.96,20.54Q645.48,20.04 650.23,19.68C654.99,19.32 659.75,18.89 664.5,18.38C669.26,17.87 674.02,17.27 678.77,16.64C683.53,16.01 688.28,15.29 693.04,14.59C697.8,13.89 702.55,13.15 707.31,12.46C712.06,11.78 716.82,11.09 721.58,10.48C726.33,9.88 731.09,9.32 735.85,8.83C740.6,8.35 745.36,7.92 750.12,7.57C754.87,7.22 759.63,6.94 764.39,6.75C769.14,6.56 773.9,6.44 778.66,6.45C783.42,6.46 788.18,6.56 792.94,6.81C797.7,7.06 802.46,7.44 807.21,7.95C811.97,8.46 816.73,9.13 821.48,9.85C826.24,10.57 831,11.43 835.75,12.25C840.51,13.07 845.26,13.98 850.02,14.78C854.77,15.58 859.53,16.38 864.29,17.05C869.04,17.72 873.8,18.32 878.56,18.81C883.31,19.3 888.07,19.68 892.83,19.99C897.58,20.3 902.34,20.51 907.1,20.65C911.86,20.79 916.61,20.85 921.37,20.86C926.13,20.87 930.88,20.82 935.64,20.73C940.4,20.64 945.15,20.48 949.91,20.3C954.67,20.12 959.42,19.88 964.18,19.64C968.94,19.39 973.69,19.1 978.45,18.83C983.21,18.56 987.96,18.27 992.72,18.04C997.48,17.82 1002.23,17.6 1006.99,17.48C1011.75,17.36 1016.5,17.29 1021.26,17.3C1026.02,17.31 1030.77,17.41 1035.53,17.56C1040.29,17.71 1045.04,17.94 1049.8,18.18C1054.56,18.42 1059.32,18.72 1064.08,18.99C1068.84,19.26 1073.59,19.55 1078.35,19.8C1083.11,20.04 1087.86,20.27 1092.62,20.46Q1097.38,20.65 1106.89,20.93L1106.89,22.07Q1097.38,22.35 1092.62,22.54C1087.86,22.73 1083.11,22.96 1078.35,23.2C1073.59,23.45 1068.84,23.74 1064.08,24.01C1059.32,24.28 1054.56,24.58 1049.8,24.82C1045.04,25.06 1040.29,25.29 1035.53,25.44C1030.77,25.59 1026.02,25.69 1021.26,25.7C1016.5,25.71 1011.75,25.64 1006.99,25.52C1002.23,25.4 997.48,25.18 992.72,24.96C987.96,24.73 983.21,24.44 978.45,24.17C973.69,23.9 968.94,23.61 964.18,23.36C959.42,23.12 954.67,22.88 949.91,22.7C945.15,22.52 940.4,22.36 935.64,22.27C930.88,22.18 926.13,22.13 921.37,22.14C916.61,22.15 911.86,22.21 907.1,22.35C902.34,22.49 897.58,22.7 892.83,23.01C888.07,23.32 883.31,23.7 878.56,24.19C873.8,24.68 869.04,25.28 864.29,25.95C859.53,26.62 854.77,27.42 850.02,28.22C845.26,29.02 840.51,29.93 835.75,30.75C831,31.57 826.24,32.43 821.48,33.15C816.73,33.87 811.97,34.54 807.21,35.05C802.46,35.56 797.7,35.94 792.94,36.19C788.18,36.44 783.42,36.54 778.66,36.55C773.9,36.56 769.14,36.44 764.39,36.25C759.63,36.06 754.87,35.78 750.12,35.43C745.36,35.08 740.6,34.65 735.85,34.17C731.09,33.68 726.33,33.12 721.58,32.52C716.82,31.91 712.06,31.22 707.31,30.54C702.55,29.85 697.8,29.11 693.04,28.41C688.28,27.71 683.53,26.99 678.77,26.36C674.02,25.73 669.26,25.13 664.5,24.62C659.75,24.11 654.99,23.68 650.23,23.32Q645.48,22.96 635.96,22.46Z" style="vector-effect: none; stroke-width: 2px; stroke: rgb(181, 181, 181); stroke-opacity: 1; fill: rgb(181, 181, 181); fill-opacity: 1;"/><path class="box" d="M794.06,25.26V17.74M731.64,25.26V17.74H810.92V25.26ZM731.64,21.5H722.95M810.92,21.5H810.92" style="vector-effect: non-scaling-stroke; stroke-width: 2px; stroke: rgb(181, 181, 181); stroke-opacity: 1; fill: rgb(181, 181, 181); fill-opacity: 1;"/><path class="mean" d="M812.25,25.26V17.74" style="fill: none; vector-effect: non-scaling-stroke; stroke-width: 2px; stroke-dasharray: 4px, 2px; stroke: rgb(181, 181, 181); stroke-opacity: 1;"/></g></g><g class="scatterlayer mlayer"><g class="trace scatter tracea41909" style="stroke-miterlimit: 2; opacity: 1;"><g class="fills"/><g class="errorbars"/><g class="lines"/><g class="points"><path class="point" transform="translate(722.95,21.5)" d="M2,0A2,2 0 1,1 0,-2A2,2 0 0,1 2,0Z" style="opacity: 1; stroke-width: 0px; fill: rgb(11, 121, 230); fill-opacity: 1;"/></g><g class="text"/></g><g class="trace scatter trace93664a" style="stroke-miterlimit: 2; opacity: 1;"><g class="fills"/><g class="errorbars"/><g class="lines"/><g class="points"><path class="point" transform="translate(782.75,21.5)" d="M2,0A2,2 0 1,1 0,-2A2,2 0 0,1 2,0Z" style="opacity: 1; stroke-width: 0px; fill: rgb(11, 121, 230); fill-opacity: 1;"/></g><g class="text"/></g><g class="trace scatter trace4ee9a3" style="stroke-miterlimit: 2; opacity: 1;"><g class="fills"/><g class="errorbars"/><g class="lines"/><g class="points"><path class="point" transform="translate(805.36,21.5)" d="M2,0A2,2 0 1,1 0,-2A2,2 0 0,1 2,0Z" style="opacity: 1; stroke-width: 0px; fill: rgb(11, 121, 230); fill-opacity: 1;"/></g><g class="text"/></g><g class="trace scatter trace296171" style="stroke-miterlimit: 2; opacity: 1;"><g class="fills"/><g class="errorbars"/><g class="lines"/><g class="points"><path class="point" transform="translate(731.64,21.5)" d="M2,0A2,2 0 1,1 0,-2A2,2 0 0,1 2,0Z" style="opacity: 1; stroke-width: 0px; fill: rgb(11, 121, 230); fill-opacity: 1;"/></g><g class="text"/></g><g class="trace scatter trace038054" style="stroke-miterlimit: 2; opacity: 1;"><g class="fills"/><g class="errorbars"/><g class="lines"/><g class="points"><path class="point" transform="translate(810.92,21.5)" d="M2,0A2,2 0 1,1 0,-2A2,2 0 0,1 2,0Z" style="opacity: 1; stroke-width: 0px; fill: rgb(11, 121, 230); fill-opacity: 1;"/></g><g class="text"/></g><g class="trace scatter trace44b290" style="stroke-miterlimit: 2; opacity: 1;"><g class="fills"/><g class="errorbars"/><g class="lines"/><g class="points"><path class="point" transform="translate(1019.9,21.5)" d="M2,0A2,2 0 1,1 0,-2A2,2 0 0,1 2,0Z" style="opacity: 1; stroke-width: 0px; fill: rgb(11, 121, 230); fill-opacity: 1;"/></g><g class="text"/></g></g></g></g><path class="xlines-above crisp" d="M0,0" style="fill: none;"/><path class="ylines-above crisp" d="M0,0" style="fill: none;"/><g class="overlines-above"/><g class="xaxislayer-above"><g class="xtick"><text text-anchor="middle" x="0" y="103" transform="translate(65.07,0)" style="font-family: 'Lucida Grande', 'Open Sans', verdana, arial, sans-serif; font-size: 9px; fill: rgb(0, 0, 0); fill-opacity: 0.5; white-space: pre; opacity: 1;">0</text></g><g class="xtick"><text text-anchor="middle" x="0" y="103" style="font-family: 'Lucida Grande', 'Open Sans', verdana, arial, sans-serif; font-size: 9px; fill: rgb(0, 0, 0); fill-opacity: 0.5; white-space: pre; opacity: 1;" transform="translate(238.94,0)">1000</text></g><g class="xtick"><text text-anchor="middle" x="0" y="103" style="font-family: 'Lucida Grande', 'Open Sans', verdana, arial, sans-serif; font-size: 9px; fill: rgb(0, 0, 0); fill-opacity: 0.5; white-space: pre; opacity: 1;" transform="translate(412.8,0)">2000</text></g><g class="xtick"><text text-anchor="middle" x="0" y="103" style="font-family: 'Lucida Grande', 'Open Sans', verdana, arial, sans-serif; font-size: 9px; fill: rgb(0, 0, 0); fill-opacity: 0.5; white-space: pre; opacity: 1;" transform="translate(586.66,0)">3000</text></g><g class="xtick"><text text-anchor="middle" x="0" y="103" style="font-family: 'Lucida Grande', 'Open Sans', verdana, arial, sans-serif; font-size: 9px; fill: rgb(0, 0, 0); fill-opacity: 0.5; white-space: pre; opacity: 1;" transform="translate(760.52,0)">4000</text></g><g class="xtick"><text text-anchor="middle" x="0" y="103" style="font-family: 'Lucida Grande', 'Open Sans', verdana, arial, sans-serif; font-size: 9px; fill: rgb(0, 0, 0); fill-opacity: 0.5; white-space: pre; opacity: 1;" transform="translate(934.38,0)">5000</text></g></g><g class="yaxislayer-above"><g class="ytick"><text text-anchor="end" x="59" y="3.15" transform="translate(0,71.5)" style="font-family: 'Lucida Grande', 'Open Sans', verdana, arial, sans-serif; font-size: 9px; fill: rgb(0, 0, 0); fill-opacity: 0.5; white-space: pre; opacity: 1;">Nodes  </text></g></g><g class="overaxes-above"/></g></g><g class="polarlayer"/><g class="smithlayer"/><g class="ternarylayer"/><g class="geolayer"/><g class="funnelarealayer"/><g class="pielayer"/><g class="iciclelayer"/><g class="treemaplayer"/><g class="sunburstlayer"/><g class="glimages"/><defs id="topdefs-17c282"><g class="clips"/></defs><g class="layer-above"><g class="imagelayer"/><g class="shapelayer"/></g><g class="infolayer"><g class="g-gtitle"><text class="gtitle" x="550" y="25" text-anchor="middle" dy="0em" style="opacity: 1; font-family: 'Lucida Grande', 'Open Sans', verdana, arial, sans-serif; font-size: 20px; fill: rgb(42, 63, 95); fill-opacity: 1; white-space: pre;"><tspan class="line" dy="0em" x="550" y="25">Too many nodes vor visualization.</tspan><tspan class="line" dy="1.3em" x="550" y="25">​<tspan style="font-size:70%" dy="-0.6em">6 samples</tspan><tspan dy="0.42em">​</tspan></tspan></text></g><g class="g-xtitle"/><g class="g-ytitle"/></g></svg>