<svg class="main-svg" xmlns="http://www.w3.org/2000/svg" xmlns:xlink="http://www.w3.org/1999/xlink" width="2200" height="266" style="" viewBox="0 0 1100 133"><rect x="0" y="0" width="1100" height="133" style="fill: rgb(255, 255, 255); fill-opacity: 1;"/><defs id="defs-75d13b"><g class="clips"><clipPath id="clip75d13bxyplot" class="plotclip"><rect width="1025" height="43"/></clipPath><clipPath class="axesclip" id="clip75d13bx"><rect x="60" y="0" width="1025" height="133"/></clipPath><clipPath class="axesclip" id="clip75d13by"><rect x="0" y="50" width="1100" height="43"/></clipPath><clipPath class="axesclip" id="clip75d13bxy"><rect x="60" y="50" width="1025" height="43"/></clipPath></g><g class="gradients"/><g class="patterns"/></defs><g class="bglayer"/><g class="layer-below"><g class="imagelayer"/><g class="shapelayer"/></g><g class="cartesianlayer"><g class="subplot xy"><g class="layer-subplot"><g class="shapelayer"/><g class="imagelayer"/></g><g class="minor-gridlayer"><g class="x"/><g class="y"/></g><g class="gridlayer"><g class="x"><path class="xgrid crisp" transform="translate(301.74,0)" d="M0,50v43" style="stroke: rgb(0, 0, 0); stroke-opacity: 0.1; stroke-width: 1px;"/><path class="xgrid crisp" transform="translate(538.4100000000001,0)" d="M0,50v43" style="stroke: rgb(0, 0, 0); stroke-opacity: 0.1; stroke-width: 1px;"/><path class="xgrid crisp" transform="translate(775.07,0)" d="M0,50v43" style="stroke: rgb(0, 0, 0); stroke-opacity: 0.1; stroke-width: 1px;"/><path class="xgrid crisp" transform="translate(1011.74,0)" d="M0,50v43" style="stroke: rgb(0, 0, 0); stroke-opacity: 0.1; stroke-width: 1px;"/></g><g class="y"><path class="ygrid crisp" transform="translate(0,71.5)" d="M60,0h1025" style="stroke: rgb(0, 0, 0); stroke-opacity: 0.1; stroke-width: 1px;"/></g></g><g class="zerolinelayer"><path class="xzl zl crisp" transform="translate(65.07,0)" d="M0,50v43" style="stroke: rgb(0, 0, 0); stroke-opacity: 0.1; stroke-width: 2px;"/></g><g class="layer-between"><g class="shapelayer"/><g class="imagelayer"/></g><path class="xlines-below"/><path class="ylines-below"/><g class="overlines-below"/><g class="xaxislayer-below"/><g class="yaxislayer-below"/><g class="overaxes-below"/><g class="overplot"><g class="xy" transform="translate(60,50)" clip-path="url(#clip75d13bxyplot)"><g class="violinlayer mlayer"><g class="trace violins" style="opacity: 0.5;"><path class="violin" d="M755.47,20.65Q758.23,20.18 759.6,19.83C760.99,19.48 762.37,19.05 763.73,18.53C765.12,18 766.51,17.37 767.87,16.69C769.26,16 770.63,15.19 772,14.4C773.38,13.6 774.75,12.71 776.13,11.91C777.5,11.11 778.87,10.28 780.27,9.59C781.63,8.92 783,8.28 784.4,7.81C785.76,7.35 787.15,7 788.54,6.77C789.91,6.55 791.29,6.47 792.67,6.45C794.05,6.43 795.43,6.54 796.8,6.67C798.18,6.81 799.57,7.01 800.94,7.26C802.32,7.51 803.7,7.79 805.07,8.15C806.45,8.51 807.83,8.93 809.2,9.42C810.59,9.92 811.97,10.49 813.34,11.11C814.73,11.74 816.1,12.46 817.47,13.16C818.85,13.87 820.23,14.64 821.61,15.34C822.98,16.04 824.35,16.75 825.74,17.36C827.1,17.96 828.48,18.51 829.87,18.97C831.24,19.42 832.62,19.8 834.01,20.11C835.38,20.41 836.76,20.63 838.14,20.81C839.51,20.99 840.89,21.1 842.27,21.2C843.65,21.29 845.03,21.34 846.41,21.38C847.79,21.42 849.16,21.44 850.54,21.46C851.92,21.48 853.3,21.48 854.68,21.49C856.06,21.5 857.43,21.5 858.81,21.5C860.19,21.5 861.56,21.5 862.94,21.5C864.32,21.5 865.7,21.5 867.08,21.5C868.46,21.5 869.83,21.5 871.21,21.5C872.59,21.5 873.96,21.5 875.34,21.5C876.72,21.5 878.1,21.5 879.48,21.5C880.86,21.5 882.23,21.5 883.61,21.5C884.99,21.5 886.37,21.5 887.75,21.5C889.13,21.5 890.5,21.5 891.88,21.5C893.26,21.5 894.63,21.5 896.01,21.5C897.39,21.5 898.77,21.5 900.15,21.5C901.53,21.5 902.9,21.5 904.28,21.5C905.66,21.5 907.03,21.5 908.41,21.5C909.79,21.5 911.17,21.5 912.55,21.5C913.93,21.5 915.3,21.5 916.68,21.5C918.06,21.5 919.44,21.5 920.82,21.5C922.2,21.5 923.57,21.5 924.95,21.5C926.33,21.5 927.7,21.5 929.08,21.5C930.46,21.5 931.84,21.5 933.22,21.5C934.6,21.5 935.97,21.5 937.35,21.5C938.73,21.5 940.1,21.5 941.48,21.5C942.86,21.5 944.24,21.5 945.62,21.5C947,21.5 948.37,21.5 949.75,21.5C951.13,21.5 952.51,21.5 953.89,21.5C955.27,21.5 956.64,21.5 958.02,21.5C959.4,21.5 960.77,21.5 962.15,21.5C963.53,21.5 964.91,21.5 966.29,21.5C967.67,21.5 969.04,21.5 970.42,21.5C971.8,21.5 973.17,21.49 974.55,21.49C975.93,21.49 977.31,21.49 978.69,21.48C980.07,21.47 981.44,21.47 982.82,21.45C984.2,21.43 985.58,21.4 986.96,21.36C988.34,21.32 989.71,21.27 991.09,21.19C992.47,21.11 993.84,21 995.22,20.86C996.6,20.72 997.98,20.54 999.36,20.33C1000.74,20.12 1002.12,19.86 1003.49,19.59C1004.87,19.32 1006.24,18.99 1007.62,18.7C1009,18.41 1010.38,18.08 1011.76,17.83C1013.13,17.58 1014.51,17.34 1015.89,17.19C1017.27,17.05 1018.65,16.95 1020.03,16.96C1021.41,16.97 1022.79,17.07 1024.16,17.22C1025.54,17.37 1026.92,17.62 1028.29,17.88C1029.67,18.14 1031.05,18.47 1032.43,18.76C1033.81,19.05 1035.18,19.37 1036.56,19.64C1037.93,19.91 1039.31,20.16 1040.69,20.37Q1042.07,20.58 1044.83,20.89L1044.83,22.11Q1042.07,22.42 1040.69,22.63C1039.31,22.84 1037.93,23.09 1036.56,23.36C1035.18,23.63 1033.81,23.95 1032.43,24.24C1031.05,24.53 1029.67,24.86 1028.29,25.12C1026.92,25.38 1025.54,25.63 1024.16,25.78C1022.79,25.93 1021.41,26.03 1020.03,26.04C1018.65,26.05 1017.27,25.95 1015.89,25.81C1014.51,25.66 1013.13,25.42 1011.76,25.17C1010.38,24.92 1009,24.59 1007.62,24.3C1006.24,24.01 1004.87,23.68 1003.49,23.41C1002.12,23.14 1000.74,22.88 999.36,22.67C997.98,22.46 996.6,22.28 995.22,22.14C993.84,22 992.47,21.89 991.09,21.81C989.71,21.73 988.34,21.68 986.96,21.64C985.58,21.6 984.2,21.57 982.82,21.55C981.44,21.53 980.07,21.53 978.69,21.52C977.31,21.51 975.93,21.51 974.55,21.51C973.17,21.51 971.8,21.5 970.42,21.5C969.04,21.5 967.67,21.5 966.29,21.5C964.91,21.5 963.53,21.5 962.15,21.5C960.77,21.5 959.4,21.5 958.02,21.5C956.64,21.5 955.27,21.5 953.89,21.5C952.51,21.5 951.13,21.5 949.75,21.5C948.37,21.5 947,21.5 945.62,21.5C944.24,21.5 942.86,21.5 941.48,21.5C940.1,21.5 938.73,21.5 937.35,21.5C935.97,21.5 934.6,21.5 933.22,21.5C931.84,21.5 930.46,21.5 929.08,21.5C927.7,21.5 926.33,21.5 924.95,21.5C923.57,21.5 922.2,21.5 920.82,21.5C919.44,21.5 918.06,21.5 916.68,21.5C915.3,21.5 913.93,21.5 912.55,21.5C911.17,21.5 909.79,21.5 908.41,21.5C907.03,21.5 905.66,21.5 904.28,21.5C902.9,21.5 901.53,21.5 900.15,21.5C898.77,21.5 897.39,21.5 896.01,21.5C894.63,21.5 893.26,21.5 891.88,21.5C890.5,21.5 889.13,21.5 887.75,21.5C886.37,21.5 884.99,21.5 883.61,21.5C882.23,21.5 880.86,21.5 879.48,21.5C878.1,21.5 876.72,21.5 875.34,21.5C873.96,21.5 872.59,21.5 871.21,21.5C869.83,21.5 868.46,21.5 867.08,21.5C865.7,21.5 864.32,21.5 862.94,21.5C861.56,21.5 860.19,21.5 858.81,21.5C857.43,21.5 856.06,21.5 854.68,21.51C853.3,21.52 851.92,21.52 850.54,21.54C849.16,21.56 847.79,21.58 846.41,21.62C845.03,21.66 843.65,21.71 842.27,21.8C840.89,21.9 839.51,22.01 838.14,22.19C836.76,22.37 835.38,22.59 834.01,22.89C832.62,23.2 831.24,23.58 829.87,24.03C828.48,24.49 827.1,25.04 825.74,25.64C824.35,26.25 822.98,26.96 821.61,27.66C820.23,28.36 818.85,29.13 817.47,29.84C816.1,30.54 814.73,31.26 813.34,31.89C811.97,32.51 810.59,33.08 809.2,33.58C807.83,34.07 806.45,34.49 805.07,34.85C803.7,35.21 802.32,35.49 800.94,35.74C799.57,35.99 798.18,36.19 796.8,36.33C795.43,36.46 794.05,36.57 792.67,36.55C791.29,36.53 789.91,36.45 788.54,36.23C787.15,36 785.76,35.65 784.4,35.19C783,34.72 781.63,34.08 780.27,33.41C778.87,32.72 777.5,31.89 776.13,31.09C774.75,30.29 773.38,29.4 772,28.6C770.63,27.81 769.26,27 767.87,26.31C766.51,25.63 765.12,25 763.73,24.47C762.37,23.95 760.99,23.52 759.6,23.17Q758.23,22.82 755.47,22.35Z" style="vector-effect: none; stroke-width: 2px; stroke: rgb(181, 181, 181); stroke-opacity: 1; fill: rgb(181, 181, 181); fill-opacity: 1;"/><path class="box" d="M800.51,25.26V17.74M787.49,25.26V17.74H810.21V25.26ZM787.49,21.5H780.39M810.21,21.5H810.21" style="vector-effect: non-scaling-stroke; stroke-width: 2px; stroke: rgb(181, 181, 181); stroke-opacity: 1; fill: rgb(181, 181, 181); fill-opacity: 1;"/><path class="mean" d="M833.17,25.26V17.74" style="fill: none; vector-effect: non-scaling-stroke; stroke-width: 2px; stroke-dasharray: 4px, 2px; stroke: rgb(181, 181, 181); stroke-opacity: 1;"/></g></g><g class="scatterlayer mlayer"><g class="trace scatter tracec404b8" style="stroke-miterlimit: 2; opacity: 1;"><g class="fills"/><g class="errorbars"/><g class="lines"/><g class="points"><path class="point" transform="translate(787.49,21.5)" d="M2,0A2,2 0 1,1 0,-2A2,2 0 0,1 2,0Z" style="opacity: 1; stroke-width: 0px; fill: rgb(11, 121, 230); fill-opacity: 1;"/></g><g class="text"/></g><g class="trace scatter trace5aa7bc" style="stroke-miterlimit: 2; opacity: 1;"><g class="fills"/><g class="errorbars"/><g class="lines"/><g class="points"><path class="point" transform="translate(780.39,21.5)" d="M2,0A2,2 0 1,1 0,-2A2,2 0 0,1 2,0Z" style="opacity: 1; stroke-width: 0px; fill: rgb(11, 121, 230); fill-opacity: 1;"/></g><g class="text"/></g><g class="trace scatter trace8eac6f" style="stroke-miterlimit: 2; opacity: 1;"><g class="fills"/><g class="errorbars"/><g class="lines"/><g class="points"><path class="point" transform="translate(810.21,21.5)" d="M2,0A2,2 0 1,1 0,-2A2,2 0 0,1 2,0Z" style="opacity: 1; stroke-width: 0px; fill: rgb(11, 121, 230); fill-opacity: 1;"/></g><g class="text"/></g><g class="trace scatter tracef7a23a" style="stroke-miterlimit: 2; opacity: 1;"><g class="fills"/><g class="errorbars"/><g class="lines"/><g class="points"><path class="point" transform="translate(791.75,21.5)" d="M2,0A2,2 0 1,1 0,-2A2,2 0 0,1 2,0Z" style="opacity: 1; stroke-width: 0px; fill: rgb(11, 121, 230); fill-opacity: 1;"/></g><g class="text"/></g><g class="trace scatter traceaa0816" style="stroke-miterlimit: 2; opacity: 1;"><g class="fills"/><g class="errorbars"/><g class="lines"/><g class="points"><path class="point" transform="translate(809.27,21.5)" d="M2,0A2,2 0 1,1 0,-2A2,2 0 0,1 2,0Z" style="opacity: 1; stroke-width: 0px; fill: rgb(11, 121, 230); fill-opacity: 1;"/></g><g class="text"/></g><g class="trace scatter trace640611" style="stroke-miterlimit: 2; opacity: 1;"><g class="fills"/><g class="errorbars"/><g class="lines"/><g class="points"><path class="point" transform="translate(1019.9,21.5)" d="M2,0A2,2 0 1,1 0,-2A2,2 0 0,1 2,0Z" style="opacity: 1; stroke-width: 0px; fill: rgb(11, 121, 230); fill-opacity: 1;"/></g><g class="text"/></g></g></g></g><path class="xlines-above crisp" d="M0,0" style="fill: none;"/><path class="ylines-above crisp" d="M0,0" style="fill: none;"/><g class="overlines-above"/><g class="xaxislayer-above"><g class="xtick"><text text-anchor="middle" x="0" y="103" transform="translate(65.07,0)" style="font-family: 'Lucida Grande', 'Open Sans', verdana, arial, sans-serif; font-size: 9px; fill: rgb(0, 0, 0); fill-opacity: 0.5; white-space: pre; opacity: 1;">0</text></g><g class="xtick"><text text-anchor="middle" x="0" y="103" style="font-family: 'Lucida Grande', 'Open Sans', verdana, arial, sans-serif; font-size: 9px; fill: rgb(0, 0, 0); fill-opacity: 0.5; white-space: pre; opacity: 1;" transform="translate(301.74,0)">500</text></g><g class="xtick"><text text-anchor="middle" x="0" y="103" style="font-family: 'Lucida Grande', 'Open Sans', verdana, arial, sans-serif; font-size: 9px; fill: rgb(0, 0, 0); fill-opacity: 0.5; white-space: pre; opacity: 1;" transform="translate(538.4100000000001,0)">1000</text></g><g class="xtick"><text text-anchor="middle" x="0" y="103" style="font-family: 'Lucida Grande', 'Open Sans', verdana, arial, sans-serif; font-size: 9px; fill: rgb(0, 0, 0); fill-opacity: 0.5; white-space: pre; opacity: 1;" transform="translate(775.07,0)">1500</text></g><g class="xtick"><text text-anchor="middle" x="0" y="103" style="font-family: 'Lucida Grande', 'Open Sans', verdana, arial, sans-serif; font-size: 9px; fill: rgb(0, 0, 0); fill-opacity: 0.5; white-space: pre; opacity: 1;" transform="translate(1011.74,0)">2000</text></g></g><g class="yaxislayer-above"><g class="ytick"><text text-anchor="end" x="59" y="3.15" transform="translate(0,71.5)" style="font-family: 'Lucida Grande', 'Open Sans', verdana, arial, sans-serif; font-size: 9px; fill: rgb(0, 0, 0); fill-opacity: 0.5; white-space: pre; opacity: 1;">Nodes  </text></g></g><g class="overaxes-above"/></g></g><g class="polarlayer"/><g class="smithlayer"/><g class="ternarylayer"/><g class="geolayer"/><g class="funnelarealayer"/><g class="pielayer"/><g class="iciclelayer"/><g class="treemaplayer"/><g class="sunburstlayer"/><g class="glimages"/><defs id="topdefs-75d13b"><g class="clips"/></defs><g class="layer-above"><g class="imagelayer"/><g class="shapelayer"/></g><g class="infolayer"><g class="g-gtitle"><text class="gtitle" x="550" y="25" text-anchor="middle" dy="0em" style="opacity: 1; font-family: 'Lucida Grande', 'Open Sans', verdana, arial, sans-serif; font-size: 20px; fill: rgb(42, 63, 95); fill-opacity: 1; white-space: pre;"><tspan class="line" dy="0em" x="550" y="25">Too many nodes vor Drugst.One.</tspan><tspan class="line" dy="1.3em" x="550" y="25">​<tspan style="font-size:70%" dy="-0.6em">6 samples</tspan><tspan dy="0.42em">​</tspan></tspan></text></g><g class="g-xtitle"/><g class="g-ytitle"/></g></svg>